<svg id="creditcard" xmlns="http://www.w3.org/2000/svg" width="62.976" height="62.976" viewBox="0 0 62.976 62.976">
  <path d="M613.309,73.488h0A31.488,31.488,0,1,1,581.821,42a31.488,31.488,0,0,1,31.488,31.488" transform="translate(-550.333 -42)" fill="#b2ebd9"/>
  <path d="M572.082,68h24.491a1.749,1.749,0,0,1,1.749,1.749V83.744a1.749,1.749,0,0,1-1.749,1.749H572.082a1.749,1.749,0,0,1-1.749-1.749V69.749A1.749,1.749,0,0,1,572.082,68" transform="translate(-552.84 -45.259)" fill="#49806e"/>
  <path d="M4637.313-4437.954a.565.565,0,0,1-.565-.565.565.565,0,0,1,.565-.565h7.915a.565.565,0,0,1,.565.565.565.565,0,0,1-.565.565Zm-11,0a.876.876,0,0,1-.875-.875v-2.774a.876.876,0,0,1,.875-.874h2.774a.875.875,0,0,1,.875.874v2.774a.875.875,0,0,1-.875.875Zm11-3.015a.565.565,0,0,1-.565-.565.565.565,0,0,1,.565-.565h7.915a.565.565,0,0,1,.565.565.565.565,0,0,1-.565.565Z" transform="translate(-4603.803 4468.92)" fill="#fff"/>
</svg>
