<svg id="folder" xmlns="http://www.w3.org/2000/svg" width="62.961" height="62.961" viewBox="0 0 62.961 62.961">
  <path id="패스_22250" data-name="패스 22250" d="M83.7,125.358a31.48,31.48,0,1,1-31.48,31.48,31.481,31.481,0,0,1,31.48-31.48" transform="translate(-52.223 -125.358)" fill="#b2ebd9"/>
  <g id="그룹_27671" data-name="그룹 27671" transform="translate(18.364 22.735)">
    <path id="패스_22251" data-name="패스 22251" d="M73.446,150.889V154.8h7.733l-2.719-3.909Z" transform="translate(-73.446 -150.889)" fill="#49806e"/>
    <g id="그룹_27670" data-name="그룹 27670" transform="translate(0 0)">
      <path id="패스_22252" data-name="패스 22252" d="M98.316,169.54h-23.9a.973.973,0,0,1-.972-.972h0V154.579a.973.973,0,0,1,.972-.973h23.9a.973.973,0,0,1,.973.973v13.988a.973.973,0,0,1-.973.973" transform="translate(-73.446 -151.23)" fill="#49806e"/>
      <rect id="사각형_17637" data-name="사각형 17637" width="25.843" height="18.31" transform="translate(0 0)" fill="none"/>
    </g>
  </g>
</svg>
