<svg xmlns="http://www.w3.org/2000/svg" xmlns:xlink="http://www.w3.org/1999/xlink" width="560" height="430" viewBox="0 0 560 430">
  <defs>
    <clipPath id="clip-path">
      <rect id="mask" width="560" height="430" transform="translate(640 2586)" fill="none"/>
    </clipPath>
  </defs>
  <g id="illust_640_main_03" transform="translate(-640 -2586)" clip-path="url(#clip-path)">
    <path id="shape" d="M44.035,499.535s88.968-20.362,73.418-88.82C83.912,394.4,8.29,323.7,20.278,251.765c15.37-71.318,69.474-92.53,122.963-95.3s49.8-61.481,86.689-100.215S373.675-13.22,479.544,106.669,468.6,499.535,468.6,499.535Z" transform="translate(637.618 2583.275)" fill="#e3faf3"/>
    <g id="flowerpot" transform="translate(669.901 2837.903)">
      <path id="패스_19110" data-name="패스 19110" d="M85.941,344.4c-2.053-2.944-6.668-2.271-9.329-.624a15.874,15.874,0,0,0-4.111,4.057c.306-1.546.574-3.1.77-4.662a.071.071,0,0,0,.052-.085.066.066,0,0,0-.031-.043,55.376,55.376,0,0,0,.45-7.331c-.005-.757-.048-1.511-.082-2.265a.783.783,0,0,0,.3-.331c1.42-2.875,2.7-5.4,5.153-7.547,1.8-1.581,4.365-2.84,5.666-4.944,1.753-2.838,1.159-6.79-2.478-7.61-5.591-1.259-8.5,4.187-9.731,10.084a126.934,126.934,0,0,1-1.54-14.334.827.827,0,0,0,.482-.555c1.517-5.642,8.466-8.1,9.243-14.017.388-2.946-1.2-5.684-4.294-6.108-10.751-1.479-8.229,15.859-6.975,22.568-.037.285-.068.571-.094.86a26.961,26.961,0,0,0-2.082-5.091c-1.307-2.394-4.9-5.525-7.674-3.04-2.467,2.207-.422,6.688,1.092,8.776,1.365,1.88,3.216,3.311,4.743,5.05,2.406,2.732,3.395,5.862,5.241,8.894a.383.383,0,0,0,.184.155c.178,2.319.337,4.637.406,6.972.036,1.184.023,2.361-.018,3.531a18.551,18.551,0,0,0-4.54-9.031c-1.974-1.971-6.2-4.279-8.689-1.808-2.3,2.285-.5,5.837,1.425,7.671,1.7,1.609,3.962,2.4,5.892,3.662a14.006,14.006,0,0,1,5.245,6.408A90.444,90.444,0,0,1,67,358.255c-.59-5.695-3.207-16.095-8.728-12.458-2.13,1.407-1.416,4.4-.555,6.349a17.858,17.858,0,0,0,3.262,4.736c.64.7,1.378,1.307,2.026,2a12.891,12.891,0,0,1,2.3,4.3c-.194.536-.382,1.077-.579,1.609-3.522,9.491-7.543,18.9-9.406,28.909A76.459,76.459,0,0,0,54.111,404.9c-1.174-6.284-2.9-12.4-4.637-18.756-.219-.8-.4-1.586-.576-2.376.516-1.293.873-2.65,1.312-3.985a33.053,33.053,0,0,1,4.47-4.814,10.964,10.964,0,0,0,3-3.742c.918-2.181.745-5.459-1.678-6.637-3-1.461-5.428,2.1-6.52,4.388a18.253,18.253,0,0,0-1.656,6.467,61.1,61.1,0,0,1,2.732-19.985c.651-1.063.919-2.279,1.633-3.352.813-1.218,1.993-2.158,2.7-3.453.759-1.387,1.286-4.333-.657-5.067-2.021-.762-4.021,1.686-4.636,3.257a15.573,15.573,0,0,0-.822,7.275,4.934,4.934,0,0,0-.01,1.5c.006.044.043.069.059.106a38.818,38.818,0,0,0-2.755,9.09,45.657,45.657,0,0,0-.306-6.019c-.108-2.2.449-4.838-.254-6.954-.745-2.247-3-3.489-5.126-2.193-2.636,1.607-1.965,5.339-1.255,7.809,1.238,4.305,4.37,7.2,6.466,10.936a47.837,47.837,0,0,0,.075,9.342,23.246,23.246,0,0,0-2.153-3.266c-1.015-1.274-3.494-3.02-5-1.39-1.42,1.535-.256,5.05.936,6.383,2.009,2.243,5.767,2.906,7.487,5.374,1.145,4.652,2.768,9.182,4.018,13.8a15.286,15.286,0,0,0-2.981-2.544c-2.337-1.491-6.417-2.488-7.994.6-1.56,3.053,1.632,4.954,4.208,5.4,2.027.352,3.843.529,5.572,1.777,1.855,1.338,2.649,3.208,3.549,5.216.36,1.706.7,3.4.98,5.092A75.888,75.888,0,0,0,56.314,426.5a.77.77,0,0,0,1.507-.2c-.554-11.839-2.084-23.134.649-34.868.63-2.7,1.4-5.348,2.249-7.978a12.872,12.872,0,0,1,7.762-1.842,8.348,8.348,0,0,0,5.618-1.781c2.47-1.9,4.732-5.286,1.484-7.616-4.363-3.135-8.837-.443-12.139,3.437,1.525-4.109,3.12-8.2,4.6-12.311,1.1-3.1,2.137-6.227,3.013-9.394.043-.059.092-.113.134-.171,4.027-1.717,8.467.083,12.405-2,2.7-1.427,4.256-4.637,2.357-7.359" transform="translate(-34.648 -288)" fill="#c0e2d8"/>
      <path id="패스_19111" data-name="패스 19111" d="M93.645,402.02c-4.577-6.121-13.676-1.461-15.2,4.88a5.013,5.013,0,0,0-.5.608.783.783,0,0,0-.069.231,30.66,30.66,0,0,0-4.829,5.931c-.165-4.47-1.445-9.362-5.6-8.842-2.484.308-2.976,2.649-2.743,4.784a12,12,0,0,0,2.284,5.381,14.056,14.056,0,0,1,2.093,6.375c-.108.248-.2.514-.311.768a5.981,5.981,0,0,0-.372.835.8.8,0,0,0-.025.143c-1.93,4.972-3.049,10.48-.827,14.84.238.467.843.184.892-.241a63.9,63.9,0,0,1,2.955-14.187,6.511,6.511,0,0,1,4.983-.608c1.9.533,3.65,1.537,5.67.779a4.313,4.313,0,0,0,2.2-6.308c-2.451-3.8-7.082-2.209-10.46.593.108-.206.2-.414.312-.621a23.537,23.537,0,0,1,7.171-8.28,25.535,25.535,0,0,1,4.591.318,10.6,10.6,0,0,0,5.837-.183,4.5,4.5,0,0,0,1.96-7.2" transform="translate(-38.003 -301.932)" fill="#c0e2d8"/>
      <path id="패스_19112" data-name="패스 19112" d="M88.87,439.646c-.108,0-.58,6.458-.973,12.317-.054.848-.126,1.678-.165,2.47-.248,3.427-.434,6.222-.506,6.781-.036.36-.083.7-.126,1.064-.113.918-.2,1.821-.325,2.723-.216,1.7-.486,3.372-.776,5.031-.18.939-.378,1.875-.579,2.816a72.464,72.464,0,0,1-3.192,10.891c-2.8,7.268-9.378,8.873-16.807,9.414-8.818.649-17.673-.343-26.365-1.93a29.575,29.575,0,0,1-4.865-1.281v-50.8c6.727-.379,13.507-.433,20.324-.324.827,0,26.494.739,34.354.827" transform="translate(-34.187 -306.897)" fill="#d6efe8"/>
      <path id="패스_19113" data-name="패스 19113" d="M86,474.279c-.18.938-.379,1.875-.58,2.815-3.715-.108-7.429-.36-11.093-.5q-9.874-.352-19.783-.722c-6.672-.248-13.526-.216-20.36-.433v-2.778c7.43.234,14.9.776,22.163.994,9.7.289,19.8-.073,29.648.631" transform="translate(-34.186 -311.144)" fill="#c0e2d8"/>
      <path id="패스_19114" data-name="패스 19114" d="M87.1,465.541c-.09.92-.2,1.821-.324,2.723-3.751-.126-7.5-.343-11.162-.414-7.106-.145-34.717-.722-41.423-.9V464.8c7,.072,49.665.7,52.91.739" transform="translate(-34.187 -310.16)" fill="#c0e2d8"/>
      <path id="패스_19115" data-name="패스 19115" d="M87.9,453.854c-.054.848-.126,1.678-.165,2.471-2.035.018-45.19,1.352-53.539,1.605V455.6c9.233-.469,52.784-1.713,53.7-1.749" transform="translate(-34.187 -308.787)" fill="#c0e2d8"/>
      <rect id="사각형_16446" data-name="사각형 16446" width="56.712" height="178.431" transform="translate(0.006)" fill="none"/>
    </g>
    <g id="green_man" data-name="green man" transform="translate(769.334 2747.813)">
      <g id="face" transform="translate(75.419)">
        <g id="neck" transform="translate(17.609 60.382)">
          <path id="패스_19124" data-name="패스 19124" d="M284.486,327.622h0c12.394-1.363,21.305-12.8,19.9-25.555l-5.281-48.033-44.882,4.935L259.506,307c1.4,12.751,12.586,21.984,24.98,20.62" transform="translate(-254.226 -254.034)" fill="#f1c791"/>
          <path id="패스_19125" data-name="패스 19125" d="M300.611,254.034l-34.4,12.828,38.961,28.7Z" transform="translate(-255.729 -254.034)" fill="#dd9072"/>
        </g>
        <path id="패스_19126" data-name="패스 19126" d="M244.335,243.578c2.227,20.26,18.207,35.126,35.692,33.2s29.853-19.9,27.626-40.164-18.207-35.127-35.692-33.2-29.853,19.9-27.625,40.165" transform="translate(-235.344 -187.287)" fill="#f1c791"/>
        <path id="hair" d="M242.59,250.05l12.867,1.412s-3.085-38.888,13.078-37.311,27.457,6.794,35.287-2.257c6.487-7.5,18.642-28.884-21.636-24.618,0,0-11.223-5.409-17.442.446s-15.481-2.349-25.46,7.75-3.717,41.127,3.305,54.578" transform="translate(-234.093 -185)" fill="#2d3128"/>
        <g id="ear" transform="translate(3.585 43.634)">
          <path id="패스_19128" data-name="패스 19128" d="M238.266,248.4a12.183,12.183,0,1,0,10.779-13.441A12.183,12.183,0,0,0,238.266,248.4" transform="translate(-238.192 -234.886)" fill="#f1c791"/>
          <path id="패스_19129" data-name="패스 19129" d="M246.7,244.811s.52,4.314,6.751,5.031" transform="translate(-239.259 -236.13)" fill="none" stroke="#dd9072" stroke-linecap="round" stroke-linejoin="round" stroke-width="1"/>
        </g>
        <g id="face-2" data-name="face" transform="translate(37.66 38.234)">
          <path id="패스_19130" data-name="패스 19130" d="M296.936,236.7l.742,5.7s1.35,5.035-1.613,6.289" transform="translate(-279.52 -229.714)" fill="none" stroke="#21143d" stroke-linecap="round" stroke-linejoin="round" stroke-width="1"/>
          <path id="패스_19131" data-name="패스 19131" d="M304.029,229.1a4.088,4.088,0,0,1,1.437-.373,5.262,5.262,0,0,1,1.439.087,5.432,5.432,0,0,1,1.346.488,4.985,4.985,0,0,1,1.136.823.63.63,0,0,1-.7,1.03l-.045-.021a8.854,8.854,0,0,0-2.066-.765,5.382,5.382,0,0,0-1.064-.135,7.206,7.206,0,0,0-1.04.036l-.116.013a.622.622,0,0,1-.329-1.184" transform="translate(-280.473 -228.712)" fill="#2d3128"/>
          <path id="패스_19132" data-name="패스 19132" d="M282.274,230.417a7.157,7.157,0,0,0-1.035-.1,5.287,5.287,0,0,0-1.071.066,8.892,8.892,0,0,0-2.111.631l-.045.018a.63.63,0,0,1-.631-1.073,4.977,4.977,0,0,1,1.187-.748,5.443,5.443,0,0,1,1.375-.4,5.3,5.3,0,0,1,1.441,0,4.109,4.109,0,0,1,1.41.464.623.623,0,0,1-.4,1.162Z" transform="translate(-277.15 -228.718)" fill="#2d3128"/>
          <path id="패스_19133" data-name="패스 19133" d="M286.318,258.138s1.022,5.53,13.693,2.256" transform="translate(-278.299 -232.4)" fill="none" stroke="#dd9072" stroke-linecap="round" stroke-linejoin="round" stroke-width="1"/>
          <path id="패스_19134" data-name="패스 19134" d="M282.14,243.273s-2.222,1.353-2.677-2.955c-.409-3.873,1.394-3.688,1.394-3.688s1.66-.332,2.052,3.048-.77,3.594-.77,3.594" transform="translate(-277.432 -229.704)" fill="#2d3128"/>
          <path id="패스_19135" data-name="패스 19135" d="M308.14,243.273s-2.222,1.353-2.676-2.955c-.409-3.873,1.394-3.688,1.394-3.688s1.66-.332,2.052,3.048-.77,3.594-.77,3.594" transform="translate(-280.691 -229.704)" fill="#2d3128"/>
        </g>
      </g>
      <path id="shirt" d="M404.489,341.545C383.1,314.014,359.724,304.229,349,300.631c-20.631-6.923-37.979-5.779-61.093-4.441L273.4,331.305l-24.3-30.969c-3.681.678-7.031,1.367-9.994,2.023-12.433,4.345-35.616,16.251-56.846,41.6-4.845,5.786-21.444,26.969-27.561,60.633-.8,4.392-11.294,45.964,2.3,52.212,6.689,3.075,20.807-1.4,45.935-9.187,1.445-.448,4.178-1.306,6.431,0,6.387,3.7,3.691,21.788,3.7,23.12H365.895l-7.35-88.527,38.789,12.962Z" transform="translate(-148.145 -198.809)" fill="#fff"/>
      <g id="jaket" transform="translate(0 91.869)">
        <path id="패스_19137" data-name="패스 19137" d="M241.836,301.512a140.5,140.5,0,0,0-53.424,34.058c-26.963,27.661-33.891,58.222-36.747,71.658-2.366,11.127-8.856,41.652,3.674,49.609,5.1,3.24,11.864,1.79,20.211,0,18.622-3.993,28.418-14.624,33.8-11.2,1.166.742,1.614,2.516,2.115,5.475,1.747,10.315.828,22.258.828,22.258h53.752s13.017-74.809-1.993-155Z" transform="translate(-147.867 -291.472)" fill="#b2ebd9"/>
        <path id="패스_19138" data-name="패스 19138" d="M246.738,303.016,256.589,291l19.548,25.8-11.024,20.211Z" transform="translate(-160.259 -290.154)" fill="#57a78e"/>
        <path id="패스_19139" data-name="패스 19139" d="M307.392,293.184c10.106,0,21.1.065,34.91.918,19.33,1.2,49.826,3.082,69.82,25.724,4.3,4.87,18.065,20.457,16.445,39.933-2.038,24.49-20.444,33.389-38.187,60.149-6.737,10.161-3.981,44.152-3.981,47.828l.918,4.593h-58.8s-25.963-73.05-30.317-160.77Z" transform="translate(-166.71 -290.428)" fill="#b2ebd9"/>
        <path id="패스_19140" data-name="패스 19140" d="M322.091,297.383l-13.78-7.35L298.2,311.163l6.431,22.049Z" transform="translate(-166.71 -290.033)" fill="#57a78e"/>
      </g>
      <g id="tablet" transform="translate(205.519 112.645)">
        <path id="패스_22266" data-name="패스 22266" d="M374.114,440.338H302.941a7.048,7.048,0,0,1-6.906-7.356l7.549-95.546a5.413,5.413,0,0,1,5.538-5.049H380.3a7.046,7.046,0,0,1,6.9,7.355l-7.548,95.547a5.414,5.414,0,0,1-5.538,5.049" transform="translate(-296.016 -332.387)" fill="#57a78e"/>
        <path id="패스_22267" data-name="패스 22267" d="M383.148,402.992h0a3.162,3.162,0,0,1-3.1-3.2l4.594-59.435A2.427,2.427,0,0,1,387.129,338a3.163,3.163,0,0,1,3.1,3.2l-4.594,59.436a2.427,2.427,0,0,1-2.486,2.36" transform="translate(-372.509 -333.092)" fill="#49806e"/>
        <path id="패스_22268" data-name="패스 22268" d="M385.22,342.238a1.691,1.691,0,0,1-1.859,1.785,2.2,2.2,0,0,1-2-2.065,1.69,1.69,0,0,1,1.858-1.785,2.2,2.2,0,0,1,2,2.065" transform="translate(-368.645 -333.364)" fill="#402423"/>
        <path id="패스_22269" data-name="패스 22269" d="M384.994,347.824a1.144,1.144,0,0,1-1.257,1.208,1.493,1.493,0,0,1-1.355-1.4,1.145,1.145,0,0,1,1.258-1.208,1.492,1.492,0,0,1,1.355,1.4" transform="translate(-369.312 -334.149)" fill="#e1d7ed"/>
      </g>
      <g id="lefthand" transform="translate(261.047 140.284)">
        <path id="패스_19142" data-name="패스 19142" d="M489.925,363.213a3.794,3.794,0,0,1-.51,3.207h.009c-1.622,2.212-.685,5.942-.421,6.854.022.068.039.125.053.176l.01.032h0c.029.107.045.182.045.182a3.8,3.8,0,0,1-.512,3.209h.011a5.186,5.186,0,0,0-.612,4.369l0,0a5.9,5.9,0,0,1,.43,1.206,3.792,3.792,0,0,1-.5,3.2h0a5.96,5.96,0,0,0-.385,4.93h0a4.556,4.556,0,0,1,.2.66,4.345,4.345,0,0,1-1.677,4.552,9.542,9.542,0,0,1-7.944,2.121c-6.6-1.115-33.138-6.619-31.743-11.45.558-1.936,2.406-3.213,4.687-4.057-2.758-1.309-4.535-2.886-4-4.731.558-1.936,2.406-3.213,4.687-4.057-2.758-1.309-4.535-2.885-4-4.731.747-2.587,3.8-3.992,7.112-4.763-4-1.47-4.568-3.091-3.9-5.411,1.8-6.251,27.971-3.219,27.971-3.219l1.211-10.108c5.886.938,9.785,17.827,9.785,17.827" transform="translate(-446.321 -345.386)" fill="#f1c791"/>
        <line id="선_42" data-name="선 42" x2="20.037" y2="4.477" transform="translate(5.369 37.415)" fill="none" stroke="#dd9072" stroke-linecap="round" stroke-linejoin="round" stroke-width="1"/>
        <line id="선_43" data-name="선 43" x2="23.208" y2="5.059" transform="translate(5.479 28.409)" fill="none" stroke="#dd9072" stroke-linecap="round" stroke-linejoin="round" stroke-width="1"/>
        <line id="선_44" data-name="선 44" x2="19.869" y2="4.643" transform="translate(7.794 18.595)" fill="none" stroke="#dd9072" stroke-linecap="round" stroke-linejoin="round" stroke-width="1"/>
      </g>
      <g id="righthand" transform="translate(121.389 157.096)">
        <path id="패스_19143" data-name="패스 19143" d="M286.651,393.745s48.568-35.644,54.01-28.086c3.17,4.4-18.786,19.238-18.786,19.238s7.924,9.551,7.69,13.545-3.465,12.209-5.812,12.209-3.991-4.931-3.991-4.931-7.975,8.134-15.259,6.181l-7.049,3.681Z" transform="translate(-286.651 -364.607)" fill="#f1c791"/>
        <path id="패스_19144" data-name="패스 19144" d="M328.359,410.624a.652.652,0,0,1-.469-1.106L331.1,406.2a.653.653,0,0,1,.938.908l-3.207,3.316a.647.647,0,0,1-.468.2" transform="translate(-291.797 -369.795)" fill="#dd9072"/>
      </g>
      <g id="arm" transform="translate(0.025 177.556)">
        <line id="선_45" data-name="선 45" x1="91.424" y2="47.309" transform="translate(48.176 34.55)" fill="none" stroke="#57a78e" stroke-linecap="round" stroke-linejoin="round" stroke-width="1"/>
        <line id="선_46" data-name="선 46" x1="85.156" y2="29.202" transform="translate(39.575 0.438)" fill="none" stroke="#57a78e" stroke-linecap="round" stroke-linejoin="round" stroke-width="1"/>
        <path id="패스_19145" data-name="패스 19145" d="M188.06,417.874,274.813,388l13.12,34.112-98.555,50.644a28.448,28.448,0,0,1-37.327-40.088l25.528-24.512Z" transform="translate(-147.896 -387.999)" fill="#b2ebd9"/>
      </g>
    </g>
  </g>
</svg>
