<svg xmlns="http://www.w3.org/2000/svg" width="48" height="48" viewBox="0 0 48 48">
    <defs>
        <clipPath id="clip-path">
            <path id="사각형_15287" data-name="사각형 15287" transform="translate(-.334)" style="fill:#e0e0e6;opacity:0" d="M0 0h48v48H0z"/>
        </clipPath>
        <style>
            .cls-4{fill:#fff;fill-rule:evenodd}
        </style>
    </defs>
    <g id="마스크_그룹_1205" data-name="마스크 그룹 1205" transform="translate(.334)" style="clip-path:url(#clip-path)">
        <g id="그룹_26380" data-name="그룹 26380" transform="translate(7 8)">
            <rect id="사각형_15286" data-name="사각형 15286" width="42" height="42" rx="4.593" transform="translate(-4.334 -5)" style="fill:#f76252"/>
            <g id="그룹_26379" data-name="그룹 26379" transform="translate(2.667 11)">
                <path id="패스_7516" data-name="패스 7516" class="cls-4" d="M906.2 170.269c-.306 0-.613.008-.921 0a2.131 2.131 0 0 1-2.219-2.162c-.041-.79-.026-.806.764-.8h.662c.27 0 .416.115.41.4v.086c.033.656.249.87.909.882a7.817 7.817 0 0 0 1.006-.021c.493-.05.667-.253.7-.746.068-.877-.256-1.195-1.195-1.308a14.275 14.275 0 0 1-1.88-.39 1.747 1.747 0 0 1-1.282-1.382 4.32 4.32 0 0 1 .02-2.333 1.876 1.876 0 0 1 1.694-1.4 12.846 12.846 0 0 1 2.384-.021 2.064 2.064 0 0 1 1.988 2.193c.026.7 0 .726-.7.725h-.777a.32.32 0 0 1-.369-.344c-.016-.807-.171-1-1.105-1-.279 0-.556.021-.834.043a.527.527 0 0 0-.506.474 4.572 4.572 0 0 0-.05.887c.014.307.252.53.639.606s.781.1 1.168.171c.356.065.711.161 1.063.253a1.976 1.976 0 0 1 1.556 1.82 6.042 6.042 0 0 1-.014 1.6 2.071 2.071 0 0 1-2.161 1.768c-.315.012-.635 0-.951 0z" transform="translate(-889.023 -161.005)"/>
                <path id="패스_7517" data-name="패스 7517" class="cls-4" d="M911.845 170.239a8.848 8.848 0 0 1-1.236-.009 2.088 2.088 0 0 1-1.9-2.105c-.044-.8-.014-.828.781-.827h.691c.232 0 .377.114.368.345-.035.919.372 1.032 1.116 1.022.258 0 .519.009.776-.014a.679.679 0 0 0 .722-.73 3.537 3.537 0 0 0 .013-.374.749.749 0 0 0-.618-.819c-.417-.1-.85-.139-1.271-.233a14.512 14.512 0 0 1-1.413-.378 1.568 1.568 0 0 1-.976-1.036 4.087 4.087 0 0 1-.007-2.767 1.806 1.806 0 0 1 1.586-1.219 13.266 13.266 0 0 1 2.5-.02 2.038 2.038 0 0 1 1.921 2.162c.018.737.013.745-.712.745l-.748.005a.336.336 0 0 1-.387-.357c-.059-.856-.2-.985-1.055-.985a6.988 6.988 0 0 0-.861.042.562.562 0 0 0-.543.542 4.775 4.775 0 0 0-.031.831c.016.3.243.517.622.589.48.09.971.127 1.448.228a6.878 6.878 0 0 1 1.239.366 1.747 1.747 0 0 1 .974 1.083 4 4 0 0 1 .045 2.493 2.05 2.05 0 0 1-2.061 1.452c-.327.012-.653 0-.979 0z" transform="translate(-887.28 -161.004)"/>
                <path id="패스_7518" data-name="패스 7518" class="cls-4" d="M901.629 167.189c-.8.455-1.581.891-2.35 1.341a.513.513 0 0 0-.2.287c-.109.378-.2.762-.288 1.145a.365.365 0 0 1-.412.314c-.373-.012-.748 0-1.123 0-.334-.005-.394-.081-.309-.407q.5-1.949 1.017-3.9.579-2.228 1.161-4.455c.1-.4.214-.485.627-.487h1.67c.362 0 .487.1.576.436.343 1.308.679 2.62 1.021 3.928q.552 2.118 1.106 4.232c.018.065.035.13.05.195.084.4.042.458-.366.459-.336 0-.674-.013-1.009 0-.293.01-.424-.114-.488-.4-.187-.853-.406-1.7-.614-2.546a.8.8 0 0 0-.069-.142zm-1.867-1.183.064.05c.425-.243.854-.482 1.273-.738.043-.025.048-.156.033-.228-.081-.355-.174-.705-.266-1.057s-.188-.709-.283-1.064h-.065l-.756 3.037z" transform="translate(-890.903 -161.004)"/>
                <path id="패스_7519" data-name="패스 7519" class="cls-4" d="M894.707 161.012c.645 0 1.287-.009 1.93 0a2.09 2.09 0 0 1 2.028 1.606 2.348 2.348 0 0 1-1.229 2.487c-.993.542-1.977 1.1-2.971 1.641a.442.442 0 0 0-.263.454c.014.883.01 1.766.008 2.65 0 .382-.052.429-.438.432-.356 0-.711-.007-1.065 0-.263.008-.386-.09-.385-.369q.006-4.263 0-8.526c0-.271.1-.385.372-.382.669.013 1.342.007 2.013.007zm-.489 3.838c.775-.413 1.5-.776 2.189-1.189.114-.068.162-.374.121-.539a.522.522 0 0 0-.392-.294 18.078 18.078 0 0 0-1.695-.01.293.293 0 0 0-.213.195c-.017.579-.011 1.163-.011 1.836z" transform="translate(-892.319 -161.008)"/>
            </g>
        </g>
    </g>
</svg>
