<svg xmlns="http://www.w3.org/2000/svg" width="48" height="48" viewBox="0 0 48 48">
    <defs>
        <clipPath id="clip-path">
            <path id="사각형_14909" data-name="사각형 14909" style="fill:#e0e0e6;opacity:0" d="M0 0h48v48H0z"/>
        </clipPath>
        <style>
            .cls-3,.cls-4{fill:none;stroke-linecap:round;stroke-linejoin:round}.cls-3{stroke:#f76252;stroke-width:1.5px}.cls-4{stroke:#000;stroke-width:2px}
        </style>
    </defs>
    <g id="마스크_그룹_814" data-name="마스크 그룹 814" style="clip-path:url(#clip-path)">
        <g id="그룹_25598" data-name="그룹 25598" transform="translate(3.297 4.305)">
            <g id="그룹_25534" data-name="그룹 25534" transform="translate(9.703 5.695)">
                <path id="패스_5050" data-name="패스 5050" class="cls-3" d="M973.861 170.041a20.347 20.347 0 0 0 5.767-8.369" transform="translate(-970.003 -147.826)"/>
                <path id="패스_5051" data-name="패스 5051" class="cls-3" d="M972.668 169.367a37.153 37.153 0 0 0 3.323-5.321c.866-1.532 1.744-3.531 3.514-4.508a3.263 3.263 0 0 1 4.6 1.58 5.95 5.95 0 0 1-.682 4.074c-2.048 4.6-6.555 9.034-6.555 9.034" transform="translate(-970.629 -149.867)"/>
                <path id="패스_5052" data-name="패스 5052" class="cls-3" d="M971.737 166.728c2.848-2.741 3.5-7.794 7.581-9.492a6.79 6.79 0 0 1 6.473.713c4.5 3.257 1.762 9.1-.7 12.267" transform="translate(-971.135 -150.725)"/>
                <path id="패스_5053" data-name="패스 5053" class="cls-3" d="M971.347 163.7s3.059-11.266 13.155-8.794 5.612 13.688 5.612 13.688" transform="translate(-971.347 -151.477)"/>
                <path id="패스_5054" data-name="패스 5054" class="cls-3" d="M973.107 154.687s3.3-3.339 9.826-2.345 8.457 4.992 8.457 4.992" transform="translate(-970.39 -152.157)"/>
                <path id="패스_5055" data-name="패스 5055" class="cls-3" d="M987.557 167.744s-6.554.2-9.921 5.738" transform="translate(-968.017 -147.42)"/>
                <path id="패스_5056" data-name="패스 5056" class="cls-3" d="M986.02 169.979s-4.5.737-6.451 3.805" transform="translate(-966.967 -146.784)"/>
            </g>
            <g id="그룹_25535" data-name="그룹 25535">
                <path id="패스_5057" data-name="패스 5057" class="cls-4" d="M970.844 148.985h-6v6" transform="translate(-966.141 -151.29)"/>
                <path id="패스_7513" data-name="패스 7513" class="cls-4" d="M964.844 148.985h6v6" transform="translate(-928.141 -151.29)"/>
                <path id="패스_7514" data-name="패스 7514" class="cls-4" d="M970.844 154.985h-6v-6" transform="translate(-966.141 -113.29)"/>
                <path id="패스_7515" data-name="패스 7515" class="cls-4" d="M964.844 154.985h6v-6" transform="translate(-928.141 -113.29)"/>
            </g>
        </g>
    </g>
</svg>
