<svg xmlns="http://www.w3.org/2000/svg" width="48" height="48" viewBox="0 0 48 48">
    <g data-name="그룹 26300">
        <path data-name="패스 7506" d="m3658.5 2134.832 1.375 3.625v38.5l2 3.25h31.25l1.375-5.25s-3.125 1-3.125 0v-26.375l-.625-11.125-3-2.625z" style="stroke:#e5e8eb;fill:#fff" transform="translate(-3653 -2133.832)"/>
        <path data-name="패스 7505" d="M5808.5 1418.667v-14.354a3.519 3.519 0 0 0-3.687-3.479c-1.458.042-30.812 0-30.812 0s2.875.667 2.875 3.167v38.5s-.187 3.438 2.5 3.625c3.25-.062 3-5.25 3-5.25s29-.062 29.063 0c.125 1.375.313 5-1.937 5.25s-30.125 0-30.125 0" transform="translate(-5770 -1399.832)" style="stroke-width:2px;fill:none;stroke:#e5e8eb"/>
        <g data-name="그룹 26299">
            <path data-name="패스 7503" d="M5223.7 1487.034a10.61 10.61 0 0 0 3.342-.7 11.61 11.61 0 0 0 3.1-1.925 13.823 13.823 0 0 0 3.04 1.925 9.179 9.179 0 0 0 3.33.7s-.012 5.086 0 5.643c.024 4.166-4.989 6.3-6.249 6.261s-6.03-1.659-6.563-6.261z" transform="translate(-5191.609 -1463.156)" style="stroke-width:2px;stroke:#e5e8eb;fill:#fff"/>
            <path data-name="선 597" transform="translate(34.5 23.668)" style="stroke-width:2px;fill:none;stroke:#e5e8eb" d="M10 0 0 10"/>
        </g>
        <path data-name="선 598" transform="translate(38.5 38.668)" style="stroke-linecap:round;stroke-width:2px;fill:none;stroke:#e5e8eb" d="M0 0v2"/>
        <path data-name="선 599" transform="translate(13.752 10.668)" style="stroke-linecap:round;stroke-width:2px;fill:none;stroke:#e5e8eb" d="M0 0h18"/>
        <path data-name="선 600" transform="translate(13.752 15.668)" style="stroke-linecap:round;stroke-width:2px;fill:none;stroke:#e5e8eb" d="M0 0h18"/>
        <path data-name="선 601" transform="translate(13.752 20.668)" style="stroke-linecap:round;stroke-width:2px;fill:none;stroke:#e5e8eb" d="M0 0h18"/>
        <path data-name="선 602" transform="translate(13.752 25.668)" style="stroke-linecap:round;stroke-width:2px;fill:none;stroke:#e5e8eb" d="M0 0h14"/>
        <path data-name="선 603" transform="translate(13.752 30.668)" style="stroke-linecap:round;stroke-width:2px;fill:none;stroke:#e5e8eb" d="M0 0h8"/>
    </g>
</svg>
