<svg xmlns="http://www.w3.org/2000/svg" width="48" height="48" viewBox="0 0 48 48">
    <g data-name="그룹 26296">
        <g data-name="사각형 15255" style="stroke:#e5e8eb;stroke-width:2px;fill:#fff" transform="translate(8)">
            <rect width="32" height="48" rx="3" style="stroke:none"/>
            <rect x="1" y="1" width="30" height="46" rx="2" style="fill:none"/>
        </g>
        <path data-name="선 594" transform="translate(9.5 8.5)" style="fill:none;stroke:#e5e8eb;stroke-width:2px" d="M0 0h30"/>
        <path data-name="선 595" transform="translate(9.5 36.5)" style="fill:none;stroke:#e5e8eb;stroke-width:2px" d="M0 0h30"/>
        <path data-name="선 596" transform="translate(21.5 41.5)" style="stroke-linecap:round;fill:none;stroke:#e5e8eb;stroke-width:2px" d="M0 0h5"/>
        <g data-name="그룹 26661">
            <path data-name="패스 7516" d="M905.514 168.295c-.241 0-.482.006-.724 0a1.676 1.676 0 0 1-1.746-1.7c-.032-.622-.021-.634.6-.633h.521c.212 0 .327.091.322.312v.068c.026.516.2.684.715.694a6.153 6.153 0 0 0 .791-.016c.388-.039.525-.2.554-.587.054-.69-.2-.94-.94-1.029a11.234 11.234 0 0 1-1.479-.307 1.374 1.374 0 0 1-1.008-1.087 3.4 3.4 0 0 1 .015-1.835 1.476 1.476 0 0 1 1.333-1.1 10.1 10.1 0 0 1 1.875-.016 1.624 1.624 0 0 1 1.564 1.725c.02.552 0 .571-.552.57h-.611a.252.252 0 0 1-.291-.271c-.012-.635-.135-.784-.869-.784a8.45 8.45 0 0 0-.656.034.415.415 0 0 0-.4.373 3.582 3.582 0 0 0-.039.7c.011.242.2.417.5.477s.614.078.919.135c.28.051.559.127.836.2a1.555 1.555 0 0 1 1.224 1.432 4.759 4.759 0 0 1-.011 1.262 1.629 1.629 0 0 1-1.7 1.391c-.248.009-.5 0-.748 0z" transform="translate(-878.933 -142.14)" style="fill:#e5e8eb;fill-rule:evenodd"/>
            <path data-name="패스 7517" d="M911.164 168.272a6.957 6.957 0 0 1-.973-.007 1.643 1.643 0 0 1-1.495-1.656c-.035-.628-.011-.651.615-.65h.543c.182 0 .3.09.289.272-.028.723.293.812.878.8.2 0 .408.007.61-.011a.534.534 0 0 0 .568-.574 2.765 2.765 0 0 0 .01-.294.589.589 0 0 0-.486-.644c-.329-.081-.669-.109-1-.183a11.411 11.411 0 0 1-1.112-.3 1.233 1.233 0 0 1-.768-.815 3.215 3.215 0 0 1-.005-2.177 1.421 1.421 0 0 1 1.248-.959 10.433 10.433 0 0 1 1.964-.015 1.6 1.6 0 0 1 1.511 1.7c.014.579.01.586-.56.586h-.589a.265.265 0 0 1-.3-.281c-.046-.673-.156-.775-.829-.775a5.5 5.5 0 0 0-.677.033.442.442 0 0 0-.427.426 3.793 3.793 0 0 0-.025.654c.012.234.192.407.489.463.377.071.763.1 1.139.179a5.412 5.412 0 0 1 .975.288 1.375 1.375 0 0 1 .766.852 3.146 3.146 0 0 1 .035 1.961 1.612 1.612 0 0 1-1.621 1.142c-.257.009-.514 0-.77 0z" transform="translate(-878.768 -142.14)" style="fill:#e5e8eb;fill-rule:evenodd"/>
            <path data-name="패스 7518" d="M900.622 165.873c-.632.358-1.244.7-1.849 1.055a.4.4 0 0 0-.16.225c-.086.3-.155.6-.227.9a.287.287 0 0 1-.324.247c-.293-.009-.589 0-.883 0-.263 0-.31-.064-.243-.32l.8-3.067q.455-1.752.913-3.5c.08-.312.169-.382.493-.383h1.313c.285 0 .383.075.453.343.27 1.029.534 2.061.8 3.09q.434 1.666.87 3.329c.015.051.028.1.039.153.066.317.033.36-.288.361-.265 0-.53-.01-.794 0-.231.008-.333-.09-.384-.316-.147-.671-.319-1.336-.483-2a.635.635 0 0 0-.046-.117zm-1.469-.93.05.039c.335-.191.672-.379 1-.581.034-.02.038-.122.026-.179-.064-.279-.137-.555-.209-.832s-.148-.558-.222-.837h-.052z" transform="translate(-879.112 -142.14)" style="fill:#e5e8eb;fill-rule:evenodd"/>
            <path data-name="패스 7519" d="M894.2 161.011c.507 0 1.013-.007 1.518 0a1.644 1.644 0 0 1 1.6 1.263 1.847 1.847 0 0 1-.966 1.957c-.781.426-1.555.865-2.337 1.291a.348.348 0 0 0-.207.357c.011.695.008 1.389.006 2.084 0 .3-.041.338-.345.34-.28 0-.559-.005-.838 0-.207.006-.3-.071-.3-.29v-6.707c0-.213.079-.3.293-.3.516.01 1.045.005 1.576.005zm-.385 3.019c.609-.325 1.178-.61 1.722-.936.089-.054.127-.294.1-.424a.411.411 0 0 0-.309-.232 14.109 14.109 0 0 0-1.333-.008.231.231 0 0 0-.168.153c-.02.458-.015.917-.015 1.447z" transform="translate(-879.246 -142.14)" style="fill:#e5e8eb;fill-rule:evenodd"/>
        </g>
    </g>
</svg>
