<svg xmlns="http://www.w3.org/2000/svg" width="24" height="24" viewBox="0 0 24 24">
  <g transform="translate(-712 -1811)">
    <path d="M1735-2482a11.923,11.923,0,0,1-8.486-3.514A11.922,11.922,0,0,1,1723-2494a11.921,11.921,0,0,1,3.515-8.485A11.923,11.923,0,0,1,1735-2506a11.921,11.921,0,0,1,8.485,3.515A11.921,11.921,0,0,1,1747-2494a11.922,11.922,0,0,1-3.515,8.485A11.922,11.922,0,0,1,1735-2482Zm-6.2-13.554h0l-1.414,1.414,5.873,5.874,9.347-9.346-1.415-1.414-7.933,7.932-4.459-4.459Z" transform="translate(-1011 4317)" fill="#006bea"/>
  </g>
</svg>
