<svg xmlns="http://www.w3.org/2000/svg" width="24" height="24" viewBox="0 0 24 24">
    <g data-name="그룹 27668">
        <path data-name="패스 22245" d="M6.781 6.94H2.647A1.147 1.147 0 0 0 1.5 8.086v6.69a1.147 1.147 0 0 0 1.147 1.147h4.134l7.644 4.358v-17.7z" transform="translate(.009 .438)" style="fill:none;stroke:#8f8f8f;stroke-width:1.5px"/>
        <path data-name="패스 22246" d="m30.21 16.5 1.217 1.217c.024-.024.043-.049.066-.073a6.314 6.314 0 0 0 .379-8.378.14.14 0 0 1-.011-.016l-.044-.047a6.596 6.596 0 0 0-.39-.433l-.486.487-.729.729a4.62 4.62 0 0 1 0 6.515m2.955 1.947 1.218 1.215a9.076 9.076 0 0 0 0-12.84l-1.22 1.213a7.359 7.359 0 0 1 0 10.408" transform="translate(-13.752 -1.371)" style="fill:#8f8f8f"/>
    </g>
</svg>
