<svg xmlns="http://www.w3.org/2000/svg" width="96" height="96" viewBox="0 0 96 96">
    <g data-name="그룹 27174" transform="translate(0 3.6)">
        <g data-name="그룹 27187" transform="translate(0 7.2)">
            <rect data-name="사각형 16317" width="96" height="72" rx="4" transform="translate(0 .2)" style="fill:#b7d8ff"/>
            <g data-name="그룹 27261" transform="translate(57.6 45.3)">
                <path data-name="패스 19002" d="M19.2 0A19.2 19.2 0 1 1 0 19.2 19.2 19.2 0 0 1 19.2 0z" style="fill:#2189ff"/>
                <rect data-name="사각형 16471" width="4" height="13.072" rx="2" transform="translate(17.2 8.813)" style="fill:#fff"/>
                <rect data-name="사각형 16472" width="4" height="4" rx="2" transform="translate(17.2 25.588)" style="fill:#fff"/>
            </g>
            <path data-name="선 182" transform="translate(14 32.199)" style="fill:none;stroke:#fff;stroke-linecap:round;stroke-width:3px" d="M0 0h57"/>
            <path data-name="선 183" transform="translate(14 41.199)" style="fill:none;stroke:#fff;stroke-linecap:round;stroke-width:3px" d="M0 0h33"/>
        </g>
        <path data-name="사각형 16376" d="M4 0h88a4 4 0 0 1 4 4v10H0V4a4 4 0 0 1 4-4z" transform="translate(0 7.4)" style="fill:#1e85ff"/>
        <rect data-name="사각형 16380" width="5" height="14" rx="2.5" transform="translate(24 .4)" style="fill:#005fd0"/>
        <rect data-name="사각형 16381" width="5" height="14" rx="2.5" transform="translate(67 .4)" style="fill:#005fd0"/>
    </g>
</svg>
