
<svg xmlns="http://www.w3.org/2000/svg" xmlns:xlink="http://www.w3.org/1999/xlink" width="40" height="40" viewBox="0 0 40 40">
  <defs>
    <clipPath id="clip-path">
      <path id="패스_18832" data-name="패스 18832" d="M0,0H16V16H0Z" transform="translate(952 733)" fill="red" opacity="0.36"/>
    </clipPath>
  </defs>
  <g id="icon_40_email" transform="translate(-940 -733)">
    <circle id="타원_2065" data-name="타원 2065" cx="20" cy="20" r="20" transform="translate(940 733)" fill="#b7d8ff"/>
    <g id="마스크_그룹_19" data-name="마스크 그룹 19" transform="translate(0 12)" clip-path="url(#clip-path)">
      <rect id="사각형_16260" data-name="사각형 16260" width="16" height="16" transform="translate(952 733)" fill="none" opacity="0.36"/>
      <path id="패스_18833" data-name="패스 18833" d="M7.11,2.25A6.742,6.742,0,0,0,12.132,0L10.674-1.206A4.814,4.814,0,0,1,7.11.378,4.817,4.817,0,0,1,2.3-4.482,4.821,4.821,0,0,1,7.11-9.36a4.466,4.466,0,0,1,4.77,4.176c0,1.116-.414,1.89-.99,1.89-.594,0-.828-.468-.738-1.224l.342-3.258H8.568a5.248,5.248,0,0,0-.072.558A2.316,2.316,0,0,0,6.75-7.884a3.426,3.426,0,0,0-3.222,3.24A2.8,2.8,0,0,0,6.3-1.4a2.727,2.727,0,0,0,2.268-.972,2.562,2.562,0,0,0,2.16.99c1.89,0,3.1-1.746,3.1-3.8,0-3.042-2.61-6.066-6.714-6.066A6.722,6.722,0,0,0,.4-4.5,6.71,6.71,0,0,0,7.11,2.25ZM6.75-3.222A1.247,1.247,0,0,1,5.49-4.7,1.571,1.571,0,0,1,7.056-6.156,1.233,1.233,0,0,1,8.28-4.7,1.568,1.568,0,0,1,6.75-3.222Z" transform="translate(953 745.5)" fill="#006bea"/>
    </g>
  </g>
</svg>
