<svg xmlns="http://www.w3.org/2000/svg" width="96" height="96" viewBox="0 0 96 96">
    <path d="M-2401.831-4851a15.6 15.6 0 0 1 15.615-15.59 15.592 15.592 0 0 1 15.592 15.59zm8.975-24.96a7.04 7.04 0 0 1 7.042-7.041 7.04 7.04 0 0 1 7.039 7.041 7.04 7.04 0 0 1-7.039 7.039 7.039 7.039 0 0 1-7.042-7.039z" transform="translate(2432.832 4901)" style="fill:#fff"/>
    <g data-name="그룹 26636" transform="translate(3.199 2.201)">
        <circle data-name="타원 155" cx="11" cy="11" r="11" transform="translate(48.801 34.799)" style="fill:#5579f6"/>
        <path data-name="패스 18957" d="m15889.848-7688.331 3.532 3.464 5.539-6.682" transform="translate(-15834.547 7733.848)" style="stroke-width:3px;stroke:#fff;stroke-linecap:square;fill:none"/>
    </g>
    <rect data-name="사각형 16254" width="90" height="78" rx="8" transform="translate(3 6)" style="fill:#b7d8ff"/>
    <path data-name="다각형 7" d="m13 0 13 23H0z" transform="rotate(180 30.5 47)" style="fill:#b7d8ff"/>
    <path data-name="사각형 16255" transform="translate(26 20)" style="fill:#fff" d="M0 0h45v29H0z"/>
    <g data-name="그룹 27734">
        <path transform="translate(39.999 27)" style="fill:none" d="M0 0h16v16H0z"/>
        <path data-name="Icon / Bold / Human / User_select" d="M.816 15.006A.816.816 0 0 1 0 14.19v-1.3a5.222 5.222 0 0 1 10.439 0v1.3a.816.816 0 0 1-.815.815zm.815-11.417a3.588 3.588 0 1 1 3.588 3.588 3.592 3.592 0 0 1-3.588-3.588z" transform="translate(42.742 27.535)" style="fill:#2189ff"/>
    </g>
    <g>
        <path data-name="선 177" transform="translate(26.5 59)" style="stroke:#0054b7;stroke-linecap:round;stroke-width:3px;fill:none" d="M0 0h42"/>
        <path data-name="선 178" transform="translate(26.5 68)" style="stroke:#0054b7;stroke-linecap:round;stroke-width:3px;fill:none" d="M0 0h20"/>
    </g>
</svg>
