<svg id="icon_96_inprogress_popup" xmlns="http://www.w3.org/2000/svg" xmlns:xlink="http://www.w3.org/1999/xlink" width="96" height="96" viewBox="0 0 96 96">
  <defs>
    <clipPath id="clip-path">
      <rect id="사각형_16417" data-name="사각형 16417" width="64.743" height="64.745" fill="none"/>
    </clipPath>
    <clipPath id="clip-path-2">
      <rect id="사각형_16417-2" data-name="사각형 16417" width="41.346" height="41.347" fill="none"/>
    </clipPath>
  </defs>
  <rect id="area" width="96" height="96" transform="translate(0)" fill="#fee1e1" opacity="0"/>
  <g id="그룹_27289" data-name="그룹 27289" transform="translate(-1052.257 -871.254)">
    <g id="그룹_27286" data-name="그룹 27286" transform="translate(1052.257 876.255)">
      <g id="그룹_27285" data-name="그룹 27285" clip-path="url(#clip-path)">
        <path id="패스_19044" data-name="패스 19044" d="M59.181,17.093l-3.649,1.288a26.857,26.857,0,0,0-7.181-8.006l1.541-3.4a2.869,2.869,0,0,0-1.428-3.8L43.7,1.019a2.868,2.868,0,0,0-3.795,1.429l-1.5,3.325A26.8,26.8,0,0,0,28.632,5.3l-1.2-3.391A2.868,2.868,0,0,0,23.773.164L18.844,1.9a2.868,2.868,0,0,0-1.75,3.658h0l1.2,3.387a26.825,26.825,0,0,0-7.312,6.507L7.721,13.812A2.868,2.868,0,0,0,3.87,15.083L1.517,19.751A2.867,2.867,0,0,0,2.781,23.6l3.336,1.68a26.863,26.863,0,0,0-.556,10.744L1.912,37.312A2.868,2.868,0,0,0,.165,40.971L1.9,45.9a2.868,2.868,0,0,0,3.658,1.75l3.775-1.333a26.849,26.849,0,0,0,7.218,7.693l-1.705,3.763a2.867,2.867,0,0,0,1.428,3.8l4.762,2.156a2.867,2.867,0,0,0,3.8-1.428l1.738-3.846a26.819,26.819,0,0,0,9.317.363l1.418,4.018a2.866,2.866,0,0,0,3.658,1.748L45.9,62.843a2.868,2.868,0,0,0,1.75-3.659l-1.416-4.021a26.8,26.8,0,0,0,7.023-6.132l3.769,1.9a2.867,2.867,0,0,0,3.851-1.271l2.352-4.668a2.868,2.868,0,0,0-1.271-3.851l-3.686-1.865a26.833,26.833,0,0,0,.788-10.519l3.774-1.333a2.868,2.868,0,0,0,1.75-3.659l-1.738-4.928a2.868,2.868,0,0,0-3.658-1.751M34.157,37.408a5.683,5.683,0,1,1,3.467-7.251,5.684,5.684,0,0,1-3.467,7.251" transform="translate(0 0)" fill="#b7d8ff"/>
      </g>
    </g>
    <g id="그룹_27287" data-name="그룹 27287" transform="translate(1106.911 920.908)">
      <g id="그룹_27285-2" data-name="그룹 27285" clip-path="url(#clip-path-2)">
        <path id="패스_19044-2" data-name="패스 19044" d="M37.794,10.916l-2.33.823a17.151,17.151,0,0,0-4.586-5.113l.984-2.173a1.832,1.832,0,0,0-.912-2.424L27.91.651a1.831,1.831,0,0,0-2.424.913l-.958,2.123a17.117,17.117,0,0,0-6.243-.3L17.518,1.22A1.831,1.831,0,0,0,15.182.1l-3.148,1.11a1.831,1.831,0,0,0-1.118,2.336h0l.764,2.163A17.131,17.131,0,0,0,7.011,9.87L4.931,8.82a1.831,1.831,0,0,0-2.459.812l-1.5,2.981a1.831,1.831,0,0,0,.807,2.459l2.13,1.073a17.155,17.155,0,0,0-.355,6.861l-2.33.821A1.832,1.832,0,0,0,.106,26.165l1.11,3.148A1.831,1.831,0,0,0,3.552,30.43l2.411-.851a17.147,17.147,0,0,0,4.61,4.913l-1.089,2.4a1.831,1.831,0,0,0,.912,2.424L13.436,40.7a1.831,1.831,0,0,0,2.424-.912l1.11-2.456a17.127,17.127,0,0,0,5.95.232l.906,2.566a1.83,1.83,0,0,0,2.336,1.116l3.148-1.109A1.832,1.832,0,0,0,30.427,37.8l-.9-2.568a17.116,17.116,0,0,0,4.485-3.916l2.407,1.213a1.831,1.831,0,0,0,2.459-.812l1.5-2.981a1.831,1.831,0,0,0-.812-2.459l-2.354-1.191a17.136,17.136,0,0,0,.5-6.718l2.41-.851a1.831,1.831,0,0,0,1.118-2.337l-1.11-3.147A1.831,1.831,0,0,0,37.8,10.911M21.814,23.889a3.629,3.629,0,1,1,2.214-4.631,3.63,3.63,0,0,1-2.214,4.631" transform="translate(0 0)" fill="#2189ff"/>
      </g>
    </g>
  </g>
</svg>
