<svg xmlns="http://www.w3.org/2000/svg" width="24" height="24" viewBox="0 0 24 24">
    <defs>
        <clipPath id="g11mtb7hva">
            <path transform="translate(22 527)" style="fill:none" d="M0 0h24v24H0z"/>
        </clipPath>
    </defs>
    <g data-name="icon_myprofile_x24" transform="translate(-22 -527)" style="clip-path:url(#g11mtb7hva)">
        <path transform="translate(22 527)" style="fill:none" d="M0 0h24v24H0z"/>
        <g data-name="그룹 27750">
            <path transform="translate(20 527)" style="fill:none" d="M0 0h22v22H0z"/>
            <path data-name="Icon / Bold / Human / User_select" d="M1.1 20.217a1.1 1.1 0 0 1-1.1-1.1v-1.745a7.035 7.035 0 0 1 14.064 0v1.746a1.1 1.1 0 0 1-1.1 1.1zM2.2 4.835a4.834 4.834 0 1 1 4.832 4.834A4.84 4.84 0 0 1 2.2 4.835z" transform="translate(23.917 527.942)" style="fill:#b7d8ff"/>
        </g>
        <path data-name="패스 18286" d="m38.328 542.362-.742 1.57.87.785v1.761l-1.018.912.891 1.506 1.442-.424 1.633.955.127 1.294h1.739l.3-1.442 1.612-.806 1.23.424.87-1.506-1.167-.912.127-1.93 1.124-.742-1.124-1.442-1.358.361-1.315-.849-.3-1.421H41.4l-.212 1.294-1.527.87z" transform="translate(-2.022 -.375)" style="fill:#005fd0"/>
        <path d="m10.74 7.209-.84-.718a4.59 4.59 0 0 0 0-1.483l.84-.719a.411.411 0 0 0 .119-.452l-.012-.037a5.694 5.694 0 0 0-1.022-1.766L9.8 2.007a.412.412 0 0 0-.45-.122l-1.043.371a4.521 4.521 0 0 0-1.279-.739L6.827.427A.411.411 0 0 0 6.5.1L6.462.09a5.8 5.8 0 0 0-2.04 0L4.387.1a.411.411 0 0 0-.331.33l-.2 1.1a4.515 4.515 0 0 0-1.27.737l-1.054-.381a.411.411 0 0 0-.45.122l-.023.027A5.723 5.723 0 0 0 .036 3.8l-.012.033a.412.412 0 0 0 .119.452l.851.726a4.577 4.577 0 0 0 0 1.465l-.851.726a.411.411 0 0 0-.119.452l.012.033a5.708 5.708 0 0 0 1.023 1.774l.023.027a.412.412 0 0 0 .45.122l1.051-.373a4.484 4.484 0 0 0 1.27.737l.2 1.1a.411.411 0 0 0 .331.33l.035.006a5.766 5.766 0 0 0 2.04 0l.041-.01a.411.411 0 0 0 .331-.33l.2-1.091A4.491 4.491 0 0 0 8.31 9.24l1.043.371a.411.411 0 0 0 .45-.122l.023-.027a5.723 5.723 0 0 0 1.023-1.769l.012-.033a.409.409 0 0 0-.119-.449zm-1.752-2.05a3.612 3.612 0 0 1 0 1.183l-.088.514.958.82a4.748 4.748 0 0 1-.547.944L8.125 8.2l-.4.331a3.586 3.586 0 0 1-1.025.586l-.485.183-.23 1.245a4.844 4.844 0 0 1-1.091 0L4.665 9.3l-.485-.188a3.59 3.59 0 0 1-1.01-.586l-.4-.332-1.2.426a4.849 4.849 0 0 1-.547-.944l.969-.828-.083-.513a3.694 3.694 0 0 1-.047-.584 3.537 3.537 0 0 1 .047-.584l.083-.513-.969-.828a4.748 4.748 0 0 1 .547-.944l1.2.426.4-.332a3.59 3.59 0 0 1 1.01-.586l.486-.183L4.9.958a4.844 4.844 0 0 1 1.091 0L6.217 2.2l.489.183a3.6 3.6 0 0 1 1.018.588l.4.331 1.191-.422a4.848 4.848 0 0 1 .547.944l-.958.82zm-3.545-1.8A2.258 2.258 0 1 0 7.7 5.622a2.258 2.258 0 0 0-2.257-2.258zm1.016 3.279a1.439 1.439 0 1 1 .421-1.016 1.432 1.432 0 0 1-.421 1.016z" transform="translate(34.9 539.5)" style="fill:#005fd0"/>
    </g>
</svg>
