<svg xmlns="http://www.w3.org/2000/svg" width="96" height="96" viewBox="0 0 96 96">
    <path data-name="빼기 9" d="M-15603.2 7829.147h-56a8.009 8.009 0 0 1-8-8v-80a8.011 8.011 0 0 1 8-8h47.4l16.6 16.608v71.393a8.008 8.008 0 0 1-8 7.999z" transform="translate(15679.2 -7733.148)" style="fill:#b7d8ff"/>
    <g data-name="question mark" transform="translate(-148 -682)">
        <circle data-name="타원 144" cx="17" cy="17" r="17" transform="translate(179 707)" style="fill:#fff"/>
        <g data-name="그룹 26597" transform="translate(.5 -24)">
            <rect data-name="사각형 16179" width="4" height="12" rx="2" transform="translate(193.5 738)" style="fill:#2189ff"/>
            <rect data-name="사각형 16180" width="5" height="5" rx="2.5" transform="translate(193 753)" style="fill:#2189ff"/>
        </g>
    </g>
    <path data-name="선 177" transform="translate(31.5 69.5)" style="fill:none;stroke:#0054b7;stroke-linecap:round;stroke-width:3px" d="M0 0h33"/>
    <path data-name="선 178" transform="translate(31.5 78.5)" style="fill:none;stroke:#0054b7;stroke-linecap:round;stroke-width:3px" d="M0 0h23"/>
    <path data-name="다각형 4" d="m12 0 12 13H0z" transform="rotate(-135 42.822 -2.411)" style="fill:#0054b7"/>
</svg>
