<svg xmlns="http://www.w3.org/2000/svg" width="64" height="64" viewBox="0 0 64 64">
    <defs>
        <clipPath id="vbntzfb06a">
            <path data-name="Rectangle 11972" transform="translate(1065 97.046)" style="fill:red;opacity:.14" d="M0 0h64v64H0z"/>
        </clipPath>
    </defs>
    <g transform="translate(-1065 -97.046)" style="clip-path:url(#vbntzfb06a)">
        <rect data-name="Rectangle 11962" width="7.553" height="21.402" rx="3" transform="rotate(-45 729.83 -1264.442)" style="fill:#aeaeae"/>
        <path data-name="Rectangle 11961" d="M0 0h12.589v4.553a3 3 0 0 1-3 3H3a3 3 0 0 1-3-3V0z" transform="rotate(-45 728.203 -1260.208)" style="fill:#cacaca"/>
        <circle data-name="Ellipse 1774" cx="26" cy="26" r="26" transform="translate(1065.667 97.713)" style="fill:#cacaca"/>
        <circle data-name="Ellipse 1775" cx="20" cy="20" r="20" transform="translate(1071.667 103.713)" style="fill:#eaeaea"/>
        <g data-name="Group 16572" transform="translate(1078.333 121.046)">
            <circle data-name="Ellipse 1776" cx="3" cy="3" r="3" style="fill:#fff"/>
            <circle data-name="Ellipse 1777" cx="3" cy="3" r="3" transform="translate(10)" style="fill:#fff"/>
            <circle data-name="Ellipse 1778" cx="3" cy="3" r="3" transform="translate(20)" style="fill:#fff"/>
        </g>
    </g>
</svg>
