<svg xmlns="http://www.w3.org/2000/svg" width="320" height="320" viewBox="0 0 320 320">
    <defs>
        <clipPath id="cgull3ukta">
            <path data-name="사각형 16398" style="fill:none" d="M0 0h317.104v311.171H0z"/>
        </clipPath>
        <clipPath id="ccui3b3qxb">
            <path data-name="패스 19020" d="M101.267 152.612a23.389 23.389 0 1 0 22.545-17.147 23.415 23.415 0 0 0-22.545 17.147" style="fill:none"/>
        </clipPath>
        <clipPath id="tekpbmo6jc">
            <path data-name="사각형 16394" transform="translate(257.745 65.533)" style="fill:none" d="M0 0h46.829v46.829H0z"/>
        </clipPath>
        <clipPath id="p5dlnnnrwd">
            <path data-name="사각형 16396" transform="translate(44.745 235.533)" style="fill:none" d="M0 0h46.829v46.829H0z"/>
        </clipPath>
    </defs>
    <g data-name="그룹 27268">
        <g data-name="그룹 27267" style="clip-path:url(#cgull3ukta)" transform="translate(1 4)">
            <g data-name="그룹 27256">
                <g data-name="그룹 27255" style="clip-path:url(#cgull3ukta)">
                    <path data-name="패스 19013" d="M311.748 115.283C304.313 97 290.79 87.515 282.381 81.614a102.386 102.386 0 0 0-47.816-17.7C218.6 21.169 185.057-3.777 158.364.468c-7.624 1.212-23.353 6.184-33.983 19.146-10.472 12.77-6.765 21.638-18 32-8.1 7.475-12.093 4.706-33 14-9.432 4.193-22.367 9.944-34 20-13.737 11.876-20.231 25.062-25 35C-3.638 158.158.111 194.035.766 199.853c1.455 12.9 7.876 64.75 48.372 90.971 22.633 14.655 48.582 18.155 73.541 14.621 16.737-2.37 33.4-7.79 50.185-6.217 14.458 1.354 28.38 7.851 42.73 10.592 12.934 2.471 26.38 1.8 38.691-4.1s23.41-17.371 29.507-32.991a80.964 80.964 0 0 0 3.051-46.632l-.062-.26c-1.59-6.789-3.015-20.454 9.6-43.22 10.137-18.295 13.961-14.709 18-26 6.635-18.547-.7-36.572-2.633-41.331" style="fill:#eaf4ff"/>
                    <path data-name="패스 19014" d="M224.78 209.655H91.981a7.6 7.6 0 0 1-7.6-7.6v-90.881a7.6 7.6 0 0 1 7.6-7.6h132.8a7.6 7.6 0 0 1 7.6 7.6v90.881a7.6 7.6 0 0 1-7.6 7.6" style="fill:#005fd0"/>
                    <path data-name="사각형 16389" transform="translate(91.381 119.552)" style="fill:#fff" d="M0 0h134v82.938H0z"/>
                </g>
            </g>
            <g data-name="그룹 27258">
                <g data-name="그룹 27257" style="clip-path:url(#ccui3b3qxb)">
                    <path data-name="사각형 16391" transform="translate(73.048 122.441)" style="fill:#de2810" d="M0 0h111.333v74.222H0z"/>
                    <path data-name="사각형 16392" transform="translate(73.048 122.441)" style="stroke:#512600;fill:none" d="M0 0h111.333v74.222H0z"/>
                    <path data-name="패스 19015" d="m113.151 146.888 2.543 7.82h8.221l-6.652 4.833 2.541 7.821-6.653-4.834-6.651 4.834 2.541-7.821-6.654-4.833h8.223z" style="fill:#ffeb00"/>
                    <path data-name="패스 19016" d="m132.626 144.105-.182 2.485 2.307.941-2.419.6-.182 2.485-1.314-2.118-2.418.6 1.608-1.9-1.314-2.117 2.308.941z" style="fill:#ffeb00"/>
                    <path data-name="패스 19017" d="m141.119 152.141-1.155 2.208 1.74 1.782-2.455-.419-1.157 2.207-.361-2.465-2.456-.418 2.232-1.1-.361-2.466 1.74 1.782z" style="fill:#ffeb00"/>
                    <path data-name="패스 19018" d="m141.859 164.313-1.959 1.547.868 2.337-2.074-1.382-1.953 1.548.671-2.4-2.074-1.379 2.49-.1.671-2.4.866 2.336z" style="fill:#ffeb00"/>
                    <path data-name="패스 19019" d="m134.784 172.866-2.405.657-.118 2.489-1.365-2.085-2.405.656 1.561-1.943-1.368-2.084 2.33.883 1.56-1.943-.12 2.489z" style="fill:#ffeb00"/>
                </g>
            </g>
            <g data-name="그룹 27266">
                <g data-name="그룹 27265" style="clip-path:url(#cgull3ukta)">
                    <path data-name="패스 22556" d="M77.684 91a2.5 2.5 0 1 1-2.5-2.5 2.5 2.5 0 0 1 2.5 2.5" transform="translate(137.653 21.662)" style="fill:#fff"/>
                    <path data-name="패스 22557" d="M85.067 91a2.5 2.5 0 1 1-2.5-2.5 2.5 2.5 0 0 1 2.5 2.5" transform="translate(139.818 21.662)" style="fill:#fff"/>
                    <path data-name="패스 19024" d="M193.381 148.552h-37a2 2 0 1 1 0-4h37a2 2 0 0 1 0 4" style="fill:#b7d8ff"/>
                    <path data-name="패스 19025" d="M215.381 161.052h-59a2 2 0 1 1 0-4h59a2 2 0 0 1 0 4" style="fill:#b7d8ff"/>
                    <path data-name="패스 19026" d="M202.381 173.552h-46a2 2 0 1 1 0-4h46a2 2 0 0 1 0 4" style="fill:#b7d8ff"/>
                    <g data-name="그룹 27273">
                        <path data-name="패스 19033" d="M287.746 65.533a30 30 0 1 1-30 30 30 30 0 0 1 30-30" transform="translate(-2.745 -13.532)" style="fill:#51a1ff"/>
                        <g data-name="그룹 27734">
                            <path transform="translate(274 71)" style="fill:none" d="M0 0h22v22H0z"/>
                            <path data-name="Icon / Bold / Human / User_select" d="M1.141 20.993A1.142 1.142 0 0 1 0 19.853v-1.814a7.305 7.305 0 0 1 14.6 0v1.813a1.142 1.142 0 0 1-1.141 1.141zM2.282 5.021A5.02 5.02 0 1 1 7.3 10.04a5.026 5.026 0 0 1-5.018-5.019z" transform="translate(277.645 71.556)" style="fill:#fff"/>
                        </g>
                    </g>
                    <path data-name="패스 19036" d="M262.421 131.78a7 7 0 1 1 8.62-4.868 7 7 0 0 1-8.62 4.868" transform="translate(-6.552 -6.107)" style="fill:#b7d8ff"/>
                    <path data-name="패스 19037" d="M245.223 135.9a4 4 0 1 1 4.925-2.782 4 4 0 0 1-4.925 2.782" transform="translate(-2 2)" style="fill:#b7d8ff"/>
                    <path data-name="패스 19038" d="M74.855 235.7a30 30 0 1 1-30 30 30 30 0 0 1 30-30" transform="translate(-12.855 7.3)" style="fill:#51a1ff"/>
                    <path data-name="패스 19039" d="m76.966 254.158-1.183.418a8.716 8.716 0 0 0-2.329-2.6l.5-1.1a.931.931 0 0 0-.464-1.231l-1.544-.7a.93.93 0 0 0-1.231.464l-.486 1.078a8.7 8.7 0 0 0-3.171-.153l-.39-1.1a.93.93 0 0 0-1.186-.566l-1.6.564a.931.931 0 0 0-.568 1.186l.388 1.1a8.694 8.694 0 0 0-2.371 2.11l-1.056-.532a.93.93 0 0 0-1.25.412l-.763 1.514a.93.93 0 0 0 .41 1.249l1.082.545a8.713 8.713 0 0 0-.18 3.485l-1.184.417a.929.929 0 0 0-.566 1.186l.563 1.6a.93.93 0 0 0 1.187.568l1.224-.433a8.72 8.72 0 0 0 2.341 2.5l-.553 1.22a.931.931 0 0 0 .463 1.231l1.544.7a.93.93 0 0 0 1.231-.463l.564-1.248a8.722 8.722 0 0 0 3.022.118l.46 1.3a.93.93 0 0 0 1.186.567l1.6-.563a.931.931 0 0 0 .568-1.187l-.46-1.3a8.689 8.689 0 0 0 2.278-1.989l1.223.616a.93.93 0 0 0 1.249-.412l.763-1.514a.931.931 0 0 0-.412-1.249l-1.2-.605a8.694 8.694 0 0 0 .255-3.412l1.225-.433a.929.929 0 0 0 .567-1.186l-.563-1.6a.931.931 0 0 0-1.187-.567m-7.881 7.237a2.579 2.579 0 1 1 1.574-3.291 2.58 2.58 0 0 1-1.574 3.291" transform="translate(-5.77 14.387)" style="fill:#fff"/>
                    <path data-name="패스 19040" d="M105.424 250.783a7 7 0 1 1 8.62-4.868 7 7 0 0 1-8.62 4.868" transform="translate(-4.67 3.82)" style="fill:#b7d8ff"/>
                    <path data-name="패스 19041" d="M118.191 230.917a4 4 0 1 1 4.926-2.782 4 4 0 0 1-4.926 2.782" transform="translate(-3.256 2.333)" style="fill:#b7d8ff"/>
                    <path data-name="패스 19042" d="M101.466 62.2a30 30 0 1 1-30-30 30 30 0 0 1 30 30" transform="translate(-17.585 -7.016)" style="fill:#51a1ff"/>
                    <path data-name="빼기 17" d="M11.121 25.82a19.9 19.9 0 0 1-8.1-6.986A17.984 17.984 0 0 1 0 8.921V3.539A25.066 25.066 0 0 0 11.121 0a25.051 25.051 0 0 0 11.12 3.539v5.382a17.986 17.986 0 0 1-3.017 9.913 19.9 19.9 0 0 1-8.1 6.986zm.5-9.809.207.585a.418.418 0 0 0 .535.256l.719-.254a.418.418 0 0 0 .256-.535l-.207-.586a3.915 3.915 0 0 0 1.025-.9l.551.277a.412.412 0 0 0 .188.045.418.418 0 0 0 .375-.23l.343-.681a.42.42 0 0 0-.185-.562l-.538-.271a3.909 3.909 0 0 0 .114-1.536l.552-.194a.419.419 0 0 0 .256-.534l-.255-.72a.419.419 0 0 0-.534-.256l-.532.188a3.913 3.913 0 0 0-1.049-1.169l.225-.5a.419.419 0 0 0-.209-.553l-.695-.315a.415.415 0 0 0-.172-.037.42.42 0 0 0-.382.246l-.22.485a3.926 3.926 0 0 0-1.424-.06l-.175-.5a.419.419 0 0 0-.534-.256l-.72.254a.419.419 0 0 0-.255.535l.175.494a3.925 3.925 0 0 0-1.068.95l-.475-.239a.42.42 0 0 0-.562.185l-.343.681a.419.419 0 0 0 .185.563l.487.246a3.915 3.915 0 0 0-.08 1.571l-.532.188a.421.421 0 0 0-.256.535l.255.719a.419.419 0 0 0 .534.256l.552-.194A3.919 3.919 0 0 0 8.8 15.31l-.248.549a.42.42 0 0 0 .209.554l.695.314a.419.419 0 0 0 .554-.208l.254-.562a3.974 3.974 0 0 0 .833.089 3.893 3.893 0 0 0 .526-.036zm-.521-3.077a.831.831 0 0 1-.783-.554.829.829 0 1 1 .783.554z" transform="translate(42.76 42.273)" style="fill:#fff"/>
                    <path data-name="패스 19045" d="M74.18 94.883a4 4 0 1 1 4.926-2.783 4 4 0 0 1-4.926 2.782" transform="translate(4.628 .366)" style="fill:#b7d8ff"/>
                    <g data-name="그룹 27600">
                        <path data-name="패스 19027" d="M220.472 229.4a7.917 7.917 0 0 0-5.774 4.7c-1.254 3.238.627 7.294.627 7.294s-1.822-.944-4.717 1.892-2.536 8.225-1.276 12.522 25.906-18.712 25.906-18.712z" style="fill:#b88f7c" transform="translate(-4.011)"/>
                        <path data-name="패스 19028" d="M226.235 215.809s-3.006-1.2-4.98.789-3.215 5.262-1.74 10.132 6.384 14.127 6.384 14.127l10.584-7.573z" style="fill:#b88f7c" transform="translate(-4.011)"/>
                        <path data-name="패스 19029" d="m220.472 229.4 5.9 11.73-1.426-.115s-2.667-6.091-3.957-8.351-3-2.326-3-2.326a7.737 7.737 0 0 1 2.48-.938" style="fill:#ae8878" transform="translate(-4.011)"/>
                        <path data-name="패스 19030" d="m215.325 241.389 2.22 7.349-.983.464-.687.109a53.3 53.3 0 0 0-1.2-6.024 2.139 2.139 0 0 0-2.517-1.259 3.071 3.071 0 0 1 3.168-.639" style="fill:#ae8878" transform="translate(-4.011)"/>
                        <path data-name="패스 19031" d="M226.235 215.811s-2.456-5.128-1.233-7.784 7.625-5.2 11.123.585 16.628 33.86 19.028 38.644 3.335 6.982 4.1 6.627 2.466-8.137 2.694-10.4-1.288-10.357-.935-14.05 4.612-7.185 6.468-5.837 1.8 7.694 2.876 14.45 2.375 15 1.938 21.871-4.992 18.862-6.743 23.364-4.011 5.8-3.467 9.232l1.469 9.272s-1.592 1.777-13.506 4.367-14.279.972-14.731.338-1.451-9.157-2.223-10.325-9.76-11.245-15.49-21.486-8.829-17.963-8.457-21.542 3.372-4.642 5.713-4.661 1.1-4.163 3.028-6.816 5.826-1.744 6.839-2.021-.557-4.254 2.659-6.172 6.025-.484 6.923-.744-5.124-9.4-8.073-16.91" style="fill:#c49986" transform="translate(-4.011)"/>
                        <path data-name="패스 19032" d="M236.34 208.978s-8.719-16.251-10.867-19.451c-2.918-4.348-7-4.172-9.188-1.712s-1.191 5.82 3.007 14.543 8.021 15.988 8.021 15.988z" style="fill:#c49986" transform="translate(-4.011)"/>
                    </g>
                </g>
            </g>
        </g>
    </g>
</svg>
