<svg data-name="illust_236_삼성의 개인정보 처리방침" xmlns="http://www.w3.org/2000/svg" width="236" height="181.001" viewBox="0 0 236 181.001">
    <defs>
        <clipPath id="n0ydx3i14a">
            <path data-name="사각형 17570" style="fill:#2189ff" d="M0 0h34.894v15.749H0z"/>
        </clipPath>
    </defs>
    <path data-name="사각형 17568" d="M12 0h212a12 12 0 0 1 12 12v157a12 12 0 0 1-12 12H12a12 12 0 0 1-12-12V12A12 12 0 0 1 12 0z" style="fill:#eaf4ff"/>
    <g data-name="그룹 27582">
        <path data-name="패스 19038" d="m102.969 50.741-13.884-10.85 4.675-5.8 13.885 10.848z" transform="scale(-1) rotate(-19.01 -662.43 782.897)" style="fill:#2189ff"/>
        <path data-name="패스 19039" d="m105.778 50.2-25.14 30.674-13.884-10.851 25.137-30.676z" transform="scale(-1) rotate(-19.01 -659.41 791.043)" style="fill:#b7d8ff"/>
        <path data-name="패스 19040" d="m64.623 83.534 8.024-3.119-6.84-5.357z" transform="scale(-1) rotate(-19.01 -648.32 790.012)" style="fill:#b7d8ff"/>
        <path data-name="패스 19041" d="m66.89 67.165-1.215 8.705 6.84 5.356 8.26-3.21z" transform="scale(-1) rotate(-19.01 -650.808 790.02)" style="fill:#2189ff"/>
    </g>
    <g transform="translate(14.46 19.701)">
        <rect data-name="사각형 16262" width="85.567" height="56.153" rx="8" style="fill:#fff"/>
        <g data-name="그룹 26646" transform="translate(9.804 15.152)">
            <rect data-name="사각형 17189" width="27.631" height="27.631" rx="4" style="fill:#b7d8ff"/>
            <g data-name="그룹 27734">
                <path transform="translate(5.736 6.148)" style="fill:none" d="M0 0h16v16H0z"/>
                <path data-name="Icon / Bold / Human / User_select" d="M.834 15.352A.835.835 0 0 1 0 14.517v-1.325a5.342 5.342 0 0 1 10.679 0v1.326a.835.835 0 0 1-.834.834zm.834-11.68a3.671 3.671 0 1 1 3.672 3.67 3.675 3.675 0 0 1-3.671-3.671z" transform="translate(8.358 6.512)" style="fill:#fff"/>
            </g>
        </g>
        <g data-name="그룹 26647">
            <path data-name="선 170" transform="translate(47.04 24.8)" style="stroke-linecap:round;stroke-width:3px;stroke:#b7d8ff;fill:none" d="M0 0h26"/>
            <path data-name="선 171" transform="translate(47.04 33.8)" style="stroke-linecap:round;stroke-width:3px;stroke:#b7d8ff;fill:none" d="M0 0h17"/>
        </g>
    </g>
    <g data-name="그룹 27580" transform="translate(-13999.801 -1484.818)">
        <rect data-name="사각형 17569" width="80" height="106" rx="8" transform="translate(14080.801 1541.421)" style="fill:#b7d8ff"/>
        <g data-name="그룹 27579">
            <g data-name="그룹 27578" transform="translate(14103.354 1530)" style="clip-path:url(#n0ydx3i14a)">
                <path data-name="패스 22080" d="M24.3 6.687a6.858 6.858 0 0 0-13.712 0H0v9.061h34.9V6.687zm-6.856-3.87a4.043 4.043 0 0 1 4.038 3.87H13.41a4.043 4.043 0 0 1 4.038-3.87" style="fill:#2189ff"/>
            </g>
        </g>
        <path data-name="패스 22083" d="M129.492 185.927a23.7 23.7 0 0 1-9.7-8.21 20.873 20.873 0 0 1-3.613-11.651v-6.325a30.388 30.388 0 0 0 13.315-4.16 30.375 30.375 0 0 0 13.314 4.16v6.325a20.862 20.862 0 0 1-3.612 11.651 23.7 23.7 0 0 1-9.7 8.21m.616-11.322.247.7a.5.5 0 0 0 .642.306l.862-.305a.5.5 0 0 0 .306-.64l-.248-.7a4.663 4.663 0 0 0 1.229-1.074l.66.333a.5.5 0 0 0 .673-.221l.412-.817a.5.5 0 0 0-.222-.674l-.645-.322a4.688 4.688 0 0 0 .138-1.842l.661-.234a.5.5 0 0 0 .306-.642l-.3-.865a.5.5 0 0 0-.639-.307l-.638.226a4.683 4.683 0 0 0-1.259-1.4l.271-.6a.5.5 0 0 0-.251-.664l-.838-.376a.494.494 0 0 0-.206-.044.5.5 0 0 0-.458.3l-.263.581a4.69 4.69 0 0 0-1.079-.126 4.623 4.623 0 0 0-.632.043l-.209-.594a.5.5 0 0 0-.474-.335.508.508 0 0 0-.167.029l-.863.305a.5.5 0 0 0-.306.641l.209.593a4.7 4.7 0 0 0-1.281 1.139l-.57-.287a.5.5 0 0 0-.674.222l-.412.818a.5.5 0 0 0 .222.674l.585.294a4.688 4.688 0 0 0-.1 1.881l-.638.226a.5.5 0 0 0-.306.641l.305.863a.5.5 0 0 0 .639.307l.661-.234a4.687 4.687 0 0 0 1.264 1.347l-.3.659a.5.5 0 0 0 .25.664l.833.377a.5.5 0 0 0 .663-.248l.305-.674a4.7 4.7 0 0 0 1.631.064zm-.635-3.69a1 1 0 1 1 .33-.057 1 1 0 0 1-.33.057z" transform="translate(13991.25 1413.659)" style="fill:#fff"/>
        <path data-name="선 172" transform="translate(14095.301 1610.32)" style="stroke:#fff;stroke-linecap:round;stroke-width:3px;fill:none" d="M0 0h51"/>
        <path data-name="선 173" transform="translate(14095.301 1622.555)" style="stroke:#fff;stroke-linecap:round;stroke-width:3px;fill:none" d="M0 0h51"/>
    </g>
</svg>
