<svg xmlns="http://www.w3.org/2000/svg" width="640" height="492" viewBox="0 0 640 492">
    <defs>
        <clipPath id="ht9rik3zra">
            <path transform="translate(3967 -742)" style="fill:none" d="M0 0h640v492H0z"/>
        </clipPath>
    </defs>
    <g transform="translate(-3967 742)" style="clip-path:url(#ht9rik3zra)">
        <path data-name="패스 22157" d="M361.353 299s8 2 23-9c0 0-11.762 4.276-9-47 1.105-20.544-3-27-10-36l-20 30c-3.781 18.2-13.219 37.8-17 56" transform="translate(3967 -742)" style="fill:#422a4d"/>
        <path data-name="패스 22158" d="M295.353 208a84.421 84.421 0 0 0-13 38 1822.858 1822.858 0 0 0-3 20c-.691 4.8-1.168 8.281-4 11a13.665 13.665 0 0 1-8.778 3.4s1.933 7.264 21.356 4.93 20.309-6.87 20.309-6.87-12.692-13.241-15.289-30.352 2.4-39.111 2.4-40.111" transform="translate(3967 -742)" style="fill:#422a4d"/>
        <path data-name="패스 22159" d="m316.837 587.337-.344-46.624h12.086l26.606-65.6h-81.85s-24.171 22.443-22.443 56.969l5.877 55.251z" transform="translate(3967 -742)" style="fill:#fff"/>
        <path data-name="패스 22160" d="m385.334 587.216 5.868-55.137c1.724-34.526-22.444-56.969-22.444-56.969h-60.67l5.426 65.6H325.6l-.337 46.624z" transform="translate(3967 -742)" style="fill:#fff"/>
        <path data-name="패스 22161" d="m299.925 277.989 9.1-3.754-6.169 12.335z" transform="translate(3967 -742)" style="fill:#9fa0a0"/>
        <path data-name="패스 22162" d="M309.1 254.686s-.762 23.876-3.047 27.176l-8.637 9.146L286.5 344.6l77.214 3.556s-3.048-36.069-3.557-35.307-14.478-29.971-14.478-29.971.762-25.652 3.048-29.718z" transform="translate(3967 -742)" style="fill:#f6c0a8"/>
        <path data-name="패스 22163" d="M346.907 261.382c-3.694 29.548-31 30.628-37.859 26.778l-.923-11.08c24.079 4.921 38.782-15.7 38.782-15.7" transform="translate(3967 -742)" style="fill:#d48a7b"/>
        <path data-name="패스 22164" d="M307.449 201.491s-24.784 5.359-18.294 43.078c0 0 .62 25.6 21.682 34.7a23.906 23.906 0 0 0 21.182-1.005c7.048-3.978 14.783-12.18 18.384-28.2l-3.977-35.313s-9.664-22.9-38.977-13.253" transform="translate(3967 -742)" style="fill:#f6c0a8"/>
        <path data-name="패스 22165" d="M374.353 224a46.472 46.472 0 0 0-7.269-15.189C355.5 193 332.04 173.569 301.372 195.549l9.469 5.414" transform="translate(3967 -742)" style="fill:#422a4d"/>
        <path data-name="패스 22166" d="m309.025 197.333 1.816 5.167s8.391 25.013 37.951 33.256c0 0 .561-6.756 8.561-8.756l7-9z" transform="translate(3967 -742)" style="fill:#422a4d"/>
        <path data-name="패스 22167" d="M310.842 197.444s-10.293-10.111-17.891-.778S279.946 218 280.65 230s2.037 14.1 2.37 22.05l7.889-9.05s.444-31 18.444-41z" transform="translate(3967 -742)" style="fill:#422a4d"/>
        <path data-name="패스 22168" d="M312.353 202a56.608 56.608 0 0 0-18 29c-4 15.892-.728 29.4 1 34 0 0-8-7.374-8.5-25.187s9.5-35.888 17-38.851a7.289 7.289 0 0 1 8.5 1.038" transform="translate(3967 -742)" style="fill:#422a4d"/>
        <path data-name="패스 22169" d="M291.353 319s25.838 14.7 54-1l19.9 194.471-100.189-43.4z" transform="translate(3967 -742)" style="fill:#fff"/>
        <path data-name="패스 22170" d="m296.653 316.7-2.179 206.459s-25.227 15.525-45.606 14.556l6.773-227.349 36.1-19.837z" transform="translate(3967 -742)" style="fill:#ebdef8"/>
        <path data-name="패스 22171" d="m395.968 539-9.051-228.063-30.6-16.971L341.353 312l13.282 213.1s23.477 15.178 41.333 13.9" transform="translate(3967 -742)" style="fill:#ebdef8"/>
        <path data-name="패스 22172" d="M312.467 309.069c1.018.189-16.858 17.439-18.4 21.141l-5.706-37.778s21.529 16.162 24.1 16.637" transform="translate(3967 -742)" style="fill:#b5b5b6"/>
        <path data-name="패스 22173" d="m299.925 277.989 12.543 31.079s-13.088 4.909-18 16.359L287.93 287.8z" transform="translate(3967 -742)" style="fill:#fff"/>
        <path data-name="패스 22174" d="m345.8 281.3 12.553 13.7 2.173 35.372s-12.173-11.372-19.084-18z" transform="translate(3967 -742)" style="fill:#c5a2e8"/>
        <path data-name="패스 22175" d="m312.706 329.77-28.363 4.655a5.383 5.383 0 0 1-6.179-4.441l-9.408-57.342a5.385 5.385 0 0 1 4.439-6.182l28.362-4.652a5.38 5.38 0 0 1 6.179 4.438l9.408 57.345a5.376 5.376 0 0 1-4.438 6.179" transform="translate(3967 -742)" style="fill:#c5a2e8"/>
        <path data-name="패스 22176" d="M299.555 267.9a2.19 2.19 0 1 1 2.568 1.728 2.192 2.192 0 0 1-2.568-1.728" transform="translate(3967 -742)" style="fill:#fff"/>
        <path data-name="패스 22177" d="M300.739 273.951a2.189 2.189 0 1 1 2.568 1.728 2.19 2.19 0 0 1-2.568-1.728" transform="translate(3967 -742)" style="fill:#fff"/>
        <path data-name="패스 22178" d="M302.37 280.439a2.189 2.189 0 1 1 2.568 1.728 2.19 2.19 0 0 1-2.568-1.728" transform="translate(3967 -742)" style="fill:#fff"/>
        <path data-name="패스 22179" d="M255.591 309.08s-8.964 5.683-11.149 10.712c0 0-11.907 25.444-21.545 121.373 0 0-2.626 28.664 15.794 31.187 0 0 19.532-2.321 24.781-30.581 0 0 5.654-89.231 5.855-97.5" transform="translate(3967 -742)" style="fill:#ebdef8"/>
        <path data-name="패스 22180" d="m332.564 441.154-29.672-4.937s-17.117-2.023-33.151 2.22c0 0-3.793 2.344-2.309 6.374 0 0 1.216 3.731 9.116 3.864 0 0-3.7 6.02 2.714 7.482 0 0-2.279 5.813 3.041 6.656 0 0-1.407 5.29 3.663 5.556 0 0 24.158 2.389 34.96-4.389 0 0 5.9-4.775 12.653-4.419z" transform="translate(3967 -742)" style="fill:#f6c0a8"/>
        <path data-name="패스 22181" d="M387.135 310.934s8.714 4.545 10.714 8.309c0 0 27.549 82.887 26.473 124.509 0 0-1.469 21.13-46.449 21.338 0 0-39.472-.234-53.254-2.416l-2.35-24.984s58.33-10.847 62.055-12.112c0 0-5.469-42.332-6.853-50.812 0 0-13.7-43.483 9.664-63.832" transform="translate(3967 -742)" style="fill:#ebdef8"/>
        <path data-name="패스 22182" d="M266.146 292.442c-5 2.005-10.718 14.663-10.718 14.663-.356 1.507 1.3 13.055 1.3 13.055-.3 1.857-4.963 17.243-4.963 17.243l12.183 6.172c2.564-.541 6.091-3.29 6.091-3.29 4.292-2.512 5.317-13.172 5.317-13.172 1.384-4.81 3.692-6.156 3.692-6.156 1.119-.544 9.538-2.888 9.538-2.888 2.606-1.031 2.334-2.674 2.334-2.674-.094-1.314-1.932-1.491-1.932-1.491l-5.265.258 5.307-1.471c3.974-.774 2.5-3.907 2.5-3.907l-9.745.15-10.724 1.52 6.506-4.445 9.155.668c4.286-.34 2.221-4.174 2.221-4.174l-10.5-3.636c-5.456-1.633-9.985 2.364-9.985 2.364l3.08-2.963 13-1s2.486-.278 2.285-1.514c0 0 .026-2.914-4.717-3.274 0 0-12.75-1.326-15.956-.042" transform="translate(3967 -742)" style="fill:#f6c0a8"/>
        <path data-name="패스 22183" d="m271.532 298.268-7.427 6.017s-.383 1.916 1.725.956l8.049-6.516a8.428 8.428 0 0 0-4.081 1.537z" transform="translate(3967 -742)" style="fill:#d48a7b"/>
        <path data-name="패스 22184" d="m277.559 306.008-8.928 5.385s-.924 1.1 1.6.739l11.548-3.2-9.518 1.229z" transform="translate(3967 -742)" style="fill:#d48a7b"/>
        <path data-name="패스 22185" d="M283.721 314.163s-6.85.736-9.126 1.9c0 0-.736 1.044.493 1.1a63.946 63.946 0 0 1 8.633-3.008" transform="translate(3967 -742)" style="fill:#d48a7b"/>
        <path data-name="패스 22186" d="m263.944 343.576 8.711 4.766s-2.221 93.309-21.1 117.746c0 0 19.8-49.882 19.8-117.088z" transform="translate(3967 -742)" style="fill:#cfbde5"/>
        <path data-name="패스 22187" d="m364.3 429.984 36.1-7.22L383.353 424l-2.392-83.992.392 84.992z" transform="translate(3967 -742)" style="fill:#cfbde5"/>
        <path data-name="패스 22188" d="m250.353 337-22.229 80.145 19.943-79.781z" transform="translate(3967 -742)" style="fill:#cfbde5"/>
        <path data-name="패스 22189" d="m276.547 448.676 9.5-.6-16-.9s1.215 1.5 6.493 1.5" transform="translate(3967 -742)" style="fill:#d48a7b"/>
        <path data-name="패스 22190" d="m279.262 456.157 6.889.224-7.291 1.329a4.736 4.736 0 0 1 .4-1.553" transform="translate(3967 -742)" style="fill:#d48a7b"/>
        <path data-name="패스 22191" d="m282.3 462.811 5.508.2-5.634 1.16s-.244-1.225.126-1.358" transform="translate(3967 -742)" style="fill:#d48a7b"/>
        <path data-name="패스 22192" d="M323.61 265.127c-1.769.623-3.106 1.354-5.183 1.4-1.615.039-3.362-.526-4.894-.136-.229.048-.361.221-.295.387a.306.306 0 0 0 .038.065c1.175 1.265 4.234 1.4 6.143 1.29 2.052-.116 4.479-.654 5.535-2.026.265-.349.088-.788-.4-.98a1.34 1.34 0 0 0-.952 0" transform="translate(3967 -742)" style="fill:#e5766a"/>
        <path data-name="패스 22193" d="M305.139 246.975s-2.556 1-2.247-3.559c.277-4.1 2.119-3.582 2.119-3.582s1.787-.044 1.581 3.544-1.453 3.6-1.453 3.6" transform="translate(3967 -742)" style="fill:#422a4d"/>
        <path data-name="패스 22194" d="M329.5 246.537s-2.556 1-2.247-3.559c.277-4.1 2.119-3.582 2.119-3.582s1.787-.044 1.581 3.544-1.453 3.6-1.453 3.6" transform="translate(3967 -742)" style="fill:#422a4d"/>
        <path data-name="패스 22195" d="M326.331 233.186c1.775-1.067 5.19-1.559 6.664.26a.569.569 0 0 1-.43.887c-.917.018-1.755-.368-2.676-.379a7.458 7.458 0 0 0-2.842.645.8.8 0 0 1-.716-1.413" transform="translate(3967 -742)" style="fill:#422a4d"/>
        <path data-name="패스 22196" d="M316.888 246.568s-4.2 10.435 1.392 10.965" transform="translate(3967 -742)" style="stroke-linecap:round;stroke-linejoin:round;stroke:#422a4d;fill:none"/>
        <path data-name="패스 22197" d="M307.845 232.682a.8.8 0 0 1-.647 1.447 7.444 7.444 0 0 0-2.87-.5c-.919.056-1.737.483-2.654.511a.572.572 0 0 1-.473-.865c1.382-1.89 4.817-1.568 6.644-.59" transform="translate(3967 -742)" style="fill:#422a4d"/>
        <path data-name="패스 22198" d="M345.553 241.639s2.155-12.7 10.424-7.807 1.884 23.717-9.151 24.493c0 0-3.916-11.969-1.273-16.686" transform="translate(3967 -742)" style="fill:#f6c0a8"/>
        <path data-name="패스 22199" d="M355.084 241.988a5.917 5.917 0 0 0-4.77 6.826" transform="translate(3967 -742)" style="stroke:#d48a7b;stroke-linecap:round;stroke-linejoin:round;fill:none"/>
        <g data-name="그룹 27643">
            <path data-name="패스 22200" d="M143.853 191.893a37.5 37.5 0 1 1-37.5 37.5 37.5 37.5 0 0 1 37.5-37.5" transform="translate(3966.647 -741.893)" style="fill:#cfbde5"/>
            <g data-name="그룹 27642">
                <path data-name="패스 22201" d="M144.027 230.367A11.632 11.632 0 0 0 132.4 242h23.264a11.632 11.632 0 0 0-11.632-11.632" transform="translate(3966.605 -741.895)" style="fill:#fff"/>
                <path data-name="패스 22202" d="M144.028 216.9a6.263 6.263 0 1 1-6.264 6.264 6.264 6.264 0 0 1 6.264-6.264" transform="translate(3966.605 -741.895)" style="fill:#fff"/>
            </g>
        </g>
        <g data-name="그룹 27651">
            <path data-name="패스 22203" d="M526.853 137.5a37.5 37.5 0 1 1-37.5 37.5 37.5 37.5 0 0 1 37.5-37.5" transform="translate(3966.647 -741.5)" style="fill:#cfbde5"/>
            <g data-name="그룹 27650">
                <path data-name="패스 22204" d="M511.232 164.582v4.659h9.212l-3.239-4.657z" transform="translate(3966.77 -742.582)" style="fill:#fff"/>
                <path data-name="패스 22205" d="M540.858 186.394h-28.47a1.159 1.159 0 0 1-1.158-1.158v-16.664a1.159 1.159 0 0 1 1.158-1.159h28.47a1.159 1.159 0 0 1 1.159 1.159v16.663a1.159 1.159 0 0 1-1.159 1.159" transform="translate(3966.77 -742.582)" style="fill:#fff"/>
            </g>
        </g>
        <g data-name="그룹 27653">
            <path data-name="패스 22206" d="M514.853 291a30 30 0 1 1-30-30 30 30 0 0 1 30 30" transform="translate(3967.147 -742)" style="fill:#ebdef8"/>
            <g data-name="그룹 27652">
                <path data-name="패스 22207" d="M473.186 282.666h23.334a1.666 1.666 0 0 1 1.666 1.666v13.334a1.666 1.666 0 0 1-1.666 1.666h-23.334a1.666 1.666 0 0 1-1.666-1.666v-13.334a1.666 1.666 0 0 1 1.666-1.666" transform="translate(3967.48 -741.666)" style="fill:#fff"/>
                <path data-name="패스 22208" d="M475.469 289.669v-2.642a.834.834 0 0 1 .834-.834h2.643a.834.834 0 0 1 .833.834v2.642a.834.834 0 0 1-.833.834H476.3a.834.834 0 0 1-.834-.834" transform="translate(3967.48 -741.666)" style="fill:#cfbde5"/>
                <path data-name="사각형 17634" transform="translate(4453.722 -455.114)" style="fill:#cfbde5" d="M0 0h8.618v1.078H0z"/>
                <path data-name="사각형 17635" transform="translate(4453.722 -452.242)" style="fill:#cfbde5" d="M0 0h8.618v1.078H0z"/>
            </g>
        </g>
        <g data-name="그룹 27645">
            <path data-name="패스 22209" d="M128.223 73c16.558 0 29.523 13.918 29.523 30.475A29.2 29.2 0 0 1 128.863 133h-.64c-16.558 0-30.475-12.964-30.475-29.523A30.831 30.831 0 0 1 128.223 73" transform="translate(3967.252 -741.999)" style="fill:#ebdef8"/>
            <g data-name="그룹 27644" transform="translate(3.872 -.09)">
                <rect data-name="사각형 17636" width="28.571" height="19.047" rx="1" transform="translate(4077.128 -646.149)" style="fill:#fff"/>
                <path data-name="패스 22210" d="m124.413 106.325-12.381-8.571 12.381 7.619 11.428-7.619z" transform="translate(3967 -742)" style="fill:#cfbde5"/>
            </g>
        </g>
        <g data-name="그룹 27649">
            <path data-name="패스 22212" d="M425.686 150.333a30 30 0 1 1-30-30 30 30 0 0 1 30 30" transform="translate(3967.314 -742.333)" style="fill:#ebdef8"/>
            <g data-name="그룹 27648">
                <path data-name="패스 22213" d="M395.964 135.333a8.611 8.611 0 0 1 8.612 8.61c0 4.756-3.639 9.234-8.611 17.847-4.945-8.563-8.612-13.091-8.612-17.847a8.611 8.611 0 0 1 8.611-8.611" transform="translate(3966.23 -741.333)" style="fill:#fff"/>
                <path data-name="패스 22214" d="M396.1 141.235a2.916 2.916 0 1 1-2.917 2.917 2.918 2.918 0 0 1 2.917-2.917" transform="translate(3966.23 -741.333)" style="fill:#ebdef8"/>
                <path data-name="패스 22215" d="M396.1 160.819c7.364 0 13.333.933 13.333 2.083s-5.969 2.084-13.333 2.084-13.333-.933-13.333-2.084 5.972-2.083 13.333-2.083z" transform="translate(3966.23 -741.333)" style="stroke:#fff;fill:none"/>
            </g>
        </g>
        <g data-name="그룹 27647">
            <path data-name="패스 22216" d="M285.686 33.944a37.5 37.5 0 1 1-37.5 37.5 37.5 37.5 0 0 1 37.5-37.5" transform="translate(3966.814 -741.944)" style="fill:#cfbde5"/>
            <g data-name="그룹 27646">
                <path data-name="패스 22217" d="m286.02 92.945-17.268-17.268A9.934 9.934 0 1 1 282.8 61.628l3.22 3.22 3.22-3.22a9.934 9.934 0 0 1 14.048 14.049z" transform="translate(3967.158 -746.719)" style="fill:#fff"/>
                <path data-name="패스 22218" d="M273.967 73.874h5.122L282.3 70.4l3.907 9.375 3.385-13.021 2.865 7.118h5.989" transform="translate(3967.158 -746.719)" style="stroke:#cfbde5;stroke-width:1.5px;stroke-linecap:round;stroke-linejoin:round;fill:none"/>
            </g>
        </g>
    </g>
</svg>
