<svg data-name="illust_280_엄격한 보안 요건" xmlns="http://www.w3.org/2000/svg" width="320" height="320" viewBox="0 0 320 320">
    <defs>
        <clipPath id="nex03323oa">
            <path style="fill:red;opacity:.1" d="M0 0h320v320H0z"/>
        </clipPath>
        <clipPath id="kko5bniyvb">
            <path data-name="사각형 17332" style="fill:#eee" d="M0 0h66.061v104.893H0z"/>
        </clipPath>
        <clipPath id="k7dlkpct8c">
            <path data-name="패스 21028" d="M83.907.009c-1.5.389-5.184 1.936-5.186 1.938-1.512.478-24.08 10.3-60.831 9.557a82.831 82.831 0 0 1-10.773-.91 7.192 7.192 0 0 0-4.805.251C.1 11.932-.154 13.045.063 15.73.3 17.623.855 17.947 1 18.779c.691 1.949 10.167 14.807 38.713 6.967 0 0 2.942-1.334 14.7.271 6.056.825 12.533 1.794 18.38 1.148a14.615 14.615 0 0 1 8.523 13.013c.712 14.076-18.884 23.876-23.7 24.587-3.816.565-19.583-.4-25.442 3.124-1.982 2-2.091 1.122-3.239 4.936.391 3.184 1.883 4.565 11.053 7.458 4.767.538 8.245 1.338 17.248.475 4.656-1.21 7.342-1.9 11.164-2.581a38.837 38.837 0 0 1 10.239-.047c5.334 1.162 25.921.74 43.86-6.317a160.5 160.5 0 0 1 20.473 1.723c1.888.294 3.787.641 5.638 1.049a182.844 182.844 0 0 0 12.1-48.416l-2.747-.475-4.855-.835S113.524 9.927 97.06 4.067c-1.8-.684-3.64-1.321-5.8-2.136C89.269 1.2 87.733-.122 83.907.009z" style="fill:#ffd8bc"/>
        </clipPath>
    </defs>
    <g data-name="마스크 그룹 25" style="clip-path:url(#nex03323oa)">
        <g data-name="그룹 27127">
            <g data-name="그룹 27150">
                <g data-name="그룹 27124">
                    <g data-name="그룹 27125">
                        <g data-name="그룹 27122">
                            <path data-name="사각형 17333" transform="translate(54.851 148.142)" style="fill:none" d="M0 0h177.573v147.439H0z"/>
                            <path data-name="패스 21029" d="M5.07 137.354V74.8l13.549-30.847 20.943-24.388 38.87-14.32s31.787 2.012 53.262 16.1 32.635 40.264 32.635 40.264l2.071 75.741z" transform="translate(50.785 141.261)" style="fill:#fff"/>
                            <path data-name="사각형 17331" transform="translate(60.969 148.142)" style="fill:none" d="M0 0h164.077v132.204H0z"/>
                            <g data-name="그룹 27119">
                                <g data-name="그룹 27118" style="clip-path:url(#kko5bniyvb)" transform="translate(143.202 160.115)">
                                    <path data-name="패스 21019" d="M399.871 29.4c35.615.468 56.426 29.486 56.426 65.215v39.672h9.635V94.611a65.22 65.22 0 0 0-65.217-65.221c-.282 0-.562 0-.844.006" transform="translate(-399.871 -29.39)" style="fill:#eee"/>
                                </g>
                            </g>
                            <path data-name="패스 21018" d="M189.153 133.714H26.4v-49.5a81.376 81.376 0 0 1 81.377-81.379 81.376 81.376 0 0 1 81.376 81.376z" transform="translate(28.205 145.97)" style="stroke-miterlimit:10;stroke-width:8px;stroke:#fff;fill:none"/>
                            <path data-name="패스 21020" d="M194.61 565.013H4.3a4.091 4.091 0 0 1-4.3-3.841v-6.337c0-5.4 4.907-9.785 10.96-9.785h176.992c6.053 0 10.96 4.381 10.96 9.785v6.337a4.091 4.091 0 0 1-4.3 3.841" transform="translate(36.761 -269.431)" style="fill:#ddd"/>
                        </g>
                    </g>
                </g>
                <g transform="translate(80.609 193.001)">
                    <rect data-name="사각형 16262" width="97.892" height="64.242" rx="8" style="fill:#84bcff"/>
                    <g data-name="그룹 26646">
                        <g data-name="그룹 27734">
                            <path transform="translate(15.391 22.998)" style="fill:none" d="M0 0h20v20H0z"/>
                            <path data-name="Icon / Bold / Human / User_select" d="M1.075 19.778A1.076 1.076 0 0 1 0 18.7v-1.705a6.882 6.882 0 0 1 13.758 0V18.7a1.076 1.076 0 0 1-1.075 1.075zM2.15 4.73a4.729 4.729 0 1 1 4.729 4.729A4.735 4.735 0 0 1 2.15 4.73z" transform="translate(18.462 23.158)" style="fill:#fff"/>
                        </g>
                    </g>
                    <g data-name="그룹 27858">
                        <path data-name="선 155" transform="translate(45.576 26.5)" style="stroke-linecap:round;stroke-width:6px;stroke:#fff;fill:none" d="M0 0h37"/>
                        <path data-name="선 156" transform="translate(45.576 39.5)" style="stroke-linecap:round;stroke-width:6px;stroke:#fff;fill:none" d="M0 0h21"/>
                    </g>
                </g>
            </g>
            <g data-name="그룹 27139">
                <g data-name="그룹 27138">
                    <path data-name="빼기 11" d="M17.121 39.82A30.655 30.655 0 0 1 4.645 29.046 27.769 27.769 0 0 1 0 13.758v-8.3A38.535 38.535 0 0 0 17.122 0a38.518 38.518 0 0 0 17.12 5.458v8.3A27.771 27.771 0 0 1 29.6 29.046 30.653 30.653 0 0 1 17.122 39.82zm.792-15.128.319.9a.645.645 0 0 0 .823.393l1.11-.391a.645.645 0 0 0 .394-.823l-.319-.9a6.051 6.051 0 0 0 1.581-1.381l.849.427a.645.645 0 0 0 .867-.286l.53-1.051a.645.645 0 0 0-.286-.867l-.831-.419a6.016 6.016 0 0 0 .177-2.369l.85-.3a.645.645 0 0 0 .394-.823l-.391-1.11a.644.644 0 0 0-.824-.394l-.821.29a6.009 6.009 0 0 0-1.618-1.8l.347-.766a.648.648 0 0 0-.322-.855l-1.072-.485a.644.644 0 0 0-.854.321l-.339.749a6 6 0 0 0-2.2-.106l-.269-.763a.646.646 0 0 0-.824-.393l-1.11.391a.646.646 0 0 0-.393.824l.269.762a6.041 6.041 0 0 0-1.65 1.463l-.733-.37a.646.646 0 0 0-.868.286l-.525 1.054a.645.645 0 0 0 .286.867l.751.379a6.013 6.013 0 0 0-.127 2.418l-.821.29a.645.645 0 0 0-.394.823l.392 1.11a.644.644 0 0 0 .823.394l.85-.3a6.017 6.017 0 0 0 1.625 1.733l-.384.847a.648.648 0 0 0 .322.855l1.072.485a.64.64 0 0 0 .267.058.648.648 0 0 0 .588-.379l.392-.866a6.043 6.043 0 0 0 2.1.081zm-.813-4.744a1.28 1.28 0 1 1 1.2-1.706 1.28 1.28 0 0 1-1.2 1.706z" transform="translate(126.202 68.211)" style="fill:#0054b7"/>
                    <g data-name="그룹 27136">
                        <g data-name="그룹 27133">
                            <g data-name="그룹 27169">
                                <path data-name="패스 21027" d="M.672 33.036c.36-.377 26.309-25.112 33.506-31.785 1.1-1.016 3.6-1.7 7.371-.9L79.2 6.6l-9.765 16.8-29.587-6.81a4.289 4.289 0 0 0-5.627 2.27c-3.172 7.472-11.767 20.082-28.588 20.226a7.038 7.038 0 0 1-4.947-2.557c-1-1.5-.822-2.644-.014-3.492" transform="rotate(7 -218.722 1013.553)" style="fill:#f5cfb3"/>
                            </g>
                        </g>
                        <g data-name="그룹 27135">
                            <g data-name="그룹 27134" style="clip-path:url(#k7dlkpct8c)" transform="rotate(7 -251.384 941.841)">
                                <path data-name="사각형 17339" transform="rotate(-30.881 23.871 74.729)" style="fill:#ffd8bc" d="M0 0h178.942v151.85H0z"/>
                            </g>
                        </g>
                    </g>
                    <g data-name="그룹 27137" transform="translate(233.825 62.762)">
                        <rect data-name="사각형 17336" width="24.974" height="72.826" rx="6" transform="rotate(16.98 -5.068 73.675)" style="fill:#fff"/>
                        <rect data-name="사각형 17337" width="175.885" height="87.942" rx="10" transform="matrix(.956 .292 -.292 .956 31.842 0)" style="fill:#b7d8ff"/>
                        <path data-name="패스 21025" d="M10.681 5.341A5.341 5.341 0 1 1 5.341 0a5.341 5.341 0 0 1 5.341 5.341" transform="rotate(40 -84.912 65.383)" style="fill:#fff"/>
                        <path data-name="패스 21026" d="M10.681 5.341A5.341 5.341 0 1 1 5.341 0a5.34 5.34 0 0 1 5.341 5.341" transform="rotate(40 -84.123 86.032)" style="fill:#fff"/>
                    </g>
                </g>
            </g>
        </g>
    </g>
</svg>
