<svg xmlns="http://www.w3.org/2000/svg" width="320" height="320" viewBox="0 0 320 320">
    <defs>
        <clipPath id="4olaywf2sa">
            <path style="opacity:.11;fill:red" d="M0 0h320v320H0z"/>
        </clipPath>
    </defs>
    <g style="clip-path:url(#4olaywf2sa)" data-name="illust_400_정보 삭제하기">
        <g data-name="그룹 26763" transform="translate(211.2 116.558)">
            <rect data-name="사각형 17155" width="109" height="109" rx="8" transform="translate(-.199 .442)" style="fill:#eee"/>
            <g data-name="그룹 26757">
                <path data-name="합치기 26" d="m19.244 32.329-16.95-2.7a2.73 2.73 0 0 1-2.26-3.115L2.4 11.681a2.235 2.235 0 0 1 2.554-1.855l.9.143.539-3.359a7.843 7.843 0 0 1 15.491 2.468l-.537 3.358 1.52.242a2.235 2.235 0 0 1 1.856 2.559l-2.362 14.831a2.723 2.723 0 0 1-3.117 2.261zm-.312-20.277.537-3.359a5.4 5.4 0 1 0-10.662-1.7l-.537 3.361z" transform="rotate(-9 193.857 -354.042)" style="stroke:transparent;stroke-miterlimit:10;fill:#fff"/>
                <path data-name="패스 20565" d="M1.367 2.365a1.473 1.473 0 1 1 2.009.321.6.6 0 0 0-.252.521L3.311 7.2a.426.426 0 0 1-.493.441l-1.229-.2L.36 7.248a.426.426 0 0 1-.332-.572L1.445 2.94a.6.6 0 0 0-.078-.575" transform="rotate(-9 297.352 -427.85)" style="fill:#efefef"/>
            </g>
            <g data-name="그룹 26762">
                <g data-name="그룹 26758">
                    <path data-name="선 62" transform="translate(30.843 75.964)" style="stroke:#bbb;stroke-width:3px;fill:none" d="M0 0v13.609"/>
                    <path data-name="선 63" transform="rotate(-60 81.208 18.076)" style="stroke:#bbb;stroke-width:3px;fill:none" d="M0 0v13.609"/>
                    <path data-name="선 64" transform="rotate(60 -50.365 71.497)" style="stroke:#bbb;stroke-width:3px;fill:none" d="M0 0v13.609"/>
                </g>
                <g data-name="그룹 26759">
                    <path data-name="선 65" transform="translate(46.853 75.964)" style="stroke:#bbb;stroke-width:3px;fill:none" d="M0 0v13.609"/>
                    <path data-name="선 66" transform="rotate(-60 89.213 4.21)" style="stroke:#bbb;stroke-width:3px;fill:none" d="M0 0v13.609"/>
                    <path data-name="선 67" transform="rotate(60 -42.36 85.362)" style="stroke:#bbb;stroke-width:3px;fill:none" d="M0 0v13.609"/>
                </g>
                <g data-name="그룹 26760">
                    <path data-name="선 68" transform="translate(62.863 75.964)" style="stroke:#bbb;stroke-width:3px;fill:none" d="M0 0v13.609"/>
                    <path data-name="선 69" transform="rotate(-60 97.218 -9.654)" style="stroke:#bbb;stroke-width:3px;fill:none" d="M0 0v13.609"/>
                    <path data-name="선 70" transform="rotate(60 -34.355 99.227)" style="stroke:#bbb;stroke-width:3px;fill:none" d="M0 0v13.609"/>
                </g>
                <g data-name="그룹 26761">
                    <path data-name="선 71" transform="translate(78.874 75.964)" style="stroke:#bbb;stroke-width:3px;fill:none" d="M0 0v13.609"/>
                    <path data-name="선 72" transform="rotate(-60 105.223 -23.52)" style="stroke:#bbb;stroke-width:3px;fill:none" d="M0 0v13.609"/>
                    <path data-name="선 73" transform="rotate(60 -26.35 113.093)" style="stroke:#bbb;stroke-width:3px;fill:none" d="M0 0v13.609"/>
                </g>
            </g>
        </g>
        <g data-name="그룹 26765" transform="translate(4.98 8.966)">
            <rect data-name="사각형 17156" width="58" height="129" rx="8" transform="rotate(90 64.493 64.527)" style="fill:#eee"/>
            <path d="M0 18.546a8.941 8.941 0 0 1 17.882 0zM4.6 4.271a4.272 4.272 0 1 1 4.274 4.273A4.272 4.272 0 0 1 4.6 4.271z" transform="translate(15.822 19.052)" style="fill:#fff"/>
            <g data-name="그룹 26764">
                <path data-name="사각형 17157" transform="translate(48.019 22.035)" style="fill:#ddd" d="M0 0h51v5H0z"/>
                <path data-name="사각형 17158" transform="translate(48.019 31.035)" style="fill:#ddd" d="M0 0h26v5H0z"/>
            </g>
        </g>
        <g data-name="그룹 26768" transform="translate(35.863 208.211)">
            <rect data-name="사각형 17159" width="80" height="65" rx="8" transform="rotate(90 32.674 32.463)" style="fill:#f7f7f7"/>
            <g data-name="그룹 26766" transform="translate(14.944 24.906)">
                <rect data-name="사각형 17160" width="37" height="16" rx="8" transform="translate(.193 -.117)" style="fill:#fff"/>
                <circle data-name="타원 198" cx="5.5" cy="5.5" r="5.5" transform="translate(4.193 1.883)" style="fill:#ddd"/>
            </g>
            <g data-name="그룹 26767" transform="translate(14.944 46.823)">
                <rect data-name="사각형 17161" width="37" height="16" rx="8" transform="translate(.193 -.034)" style="fill:#fff"/>
                <circle data-name="타원 199" cx="5.5" cy="5.5" r="5.5" transform="translate(21.193 2.966)" style="fill:#ddd"/>
            </g>
        </g>
        <g transform="translate(62.763 39.849)">
            <rect data-name="사각형 17162" width="192" height="153" rx="8" transform="translate(.238 .15)" style="fill:#ddc8f1"/>
            <g data-name="그룹 26772">
                <g data-name="그룹 26769" transform="translate(107.592 73.721)">
                    <ellipse data-name="타원 200" cx="26.5" cy="26" rx="26.5" ry="26" transform="translate(-.355 .43)" style="fill:#fff"/>
                    <g data-name="타원 201" transform="translate(11.645 12.43)" style="stroke-width:9px;stroke:#ddd;fill:none">
                        <ellipse cx="14" cy="13.5" rx="14" ry="13.5" style="stroke:none"/>
                        <ellipse cx="14" cy="13.5" rx="9.5" ry="9" style="fill:none"/>
                    </g>
                </g>
                <g data-name="그룹 26771" transform="translate(34.868 73.721)">
                    <circle data-name="타원 202" cx="26" cy="26" r="26" transform="translate(.369 .43)" style="fill:#fff"/>
                    <g data-name="그룹 26770">
                        <path data-name="선 74" transform="rotate(48 -9.533 26.8)" style="stroke:#aa5afa;stroke-width:9px;fill:none" d="M0 0h28.178"/>
                        <path data-name="선 75" transform="rotate(132 14.257 15.905)" style="stroke:#aa5afa;stroke-width:9px;fill:none" d="M0 0h28.178"/>
                    </g>
                </g>
            </g>
            <g data-name="그룹 26773">
                <path data-name="사각형 17163" transform="translate(36.236 29.15)" style="fill:#6a37a3" d="M0 0h119v10H0z"/>
                <path data-name="사각형 17164" transform="translate(36.236 48.15)" style="fill:#6a37a3" d="M0 0h37v10H0z"/>
            </g>
        </g>
        <path data-name="패스 20568" d="M27.943 0s-7.77 0-11.729 6.81c-3.178 5.468-.95 13.3-.95 13.3s-3.008-2.21-9.026 2.062S-.668 36.25.374 44.34s51.943-26.286 51.943-26.286z" transform="rotate(-9 1677.463 -568.187)" style="fill:#b88f7c"/>
        <path data-name="패스 20569" d="M15.485 1.337s-5.068-3.009-9.185 0S-.984 9.888.282 19.072s7.46 27.237 7.46 27.237l21.2-10.61z" transform="rotate(-9 1510.763 -725.74)" style="fill:#b88f7c"/>
        <path data-name="패스 20570" d="M4.73 0 12 22.786l-2.53-.614S6.406 10.453 4.73 6.019 0 .981 0 .981A14.122 14.122 0 0 1 4.73 0z" transform="rotate(-9 1665.857 -715.662)" style="fill:#ae8878"/>
        <path data-name="패스 20571" d="m5.884.74 1.9 13.854-1.9.555H4.616a97.141 97.141 0 0 0-.443-11.181C3.637.747 0 .987 0 .987A5.6 5.6 0 0 1 5.884.74z" transform="rotate(-9 1795.852 -637.466)" style="fill:#ae8878"/>
        <path data-name="패스 20572" d="M41.81 18.2s-2.958-9.923 0-14.357 15.2-7.179 19.846 4.222 20.268 65.659 23.224 74.95 4.012 13.513 5.489 13.091 6.755-13.937 7.811-17.946.634-19 2.324-25.548 10.345-11.613 13.3-8.657 1.056 14.357 1.056 26.813 0 27.659-2.746 39.9-14.357 32.515-18.79 40.116-8.867 9.289-8.867 15.623v17.1s-3.378 2.746-25.548 4.012-25.97-2.322-26.6-3.59 0-16.89-1.056-19.212S16.9 141.709 9.5 121.651-1.262 86.815.428 80.481s7.389-7.389 11.611-6.757 3.168-7.177 7.389-11.4 10.979-1.478 12.881-1.688.21-7.813 6.543-10.347 10.979.846 12.669.634S44.976 32.554 41.81 18.2z" transform="rotate(-9 1416.818 -550.065)" style="fill:#c49986"/>
        <path data-name="패스 20574" d="M33.1 45.944S22.049 14.22 19.1 7.851C15.085-.8 7.7-1.65 3.051 2.152s-3.8 10.133 1.268 27.023 9.874 31.051 9.874 31.051z" transform="rotate(-9 1166.32 -714.67)" style="fill:#c49986"/>
    </g>
</svg>
