<svg xmlns="http://www.w3.org/2000/svg" width="320" height="320" viewBox="0 0 320 320">
    <defs>
        <clipPath id="08nt0sq50a">
            <path style="opacity:0;fill:rgba(255,0,0,.2)" d="M0 0h320v320H0z"/>
        </clipPath>
        <clipPath id="vf6hw2dnhb">
            <path data-name="사각형 17556" style="fill:#fff" d="M0 0h142.866v115.026H0z"/>
        </clipPath>
    </defs>
    <g data-name="illust_400_맞춤 알림">
        <g data-name="마스크 그룹 1251" style="clip-path:url(#08nt0sq50a)">
            <g data-name="그룹 27484">
                <g data-name="그룹 27053" transform="translate(4.807 52.079)">
                    <rect data-name="사각형 17309" width="101" height="60" rx="7" transform="translate(.193 -.078)" style="fill:#eee"/>
                </g>
                <g data-name="그룹 27057">
                    <g data-name="그룹 27054">
                        <path data-name="패스 20911" d="M27.735 36.462h9.189a2.367 2.367 0 0 0 2.367-2.362v-7.133l-7.7 7.7-5.2-4.3L27.93 28.5l3.508 2.9 7.587-7.588a2.365 2.365 0 0 0-2.1-1.28h-9.19a2.367 2.367 0 0 0-2.367 2.367V34.1a2.367 2.367 0 0 0 2.367 2.367" transform="translate(-7.95 42.438)" style="fill:#bbb"/>
                        <path data-name="패스 20912" d="M27.735 36.462h9.189a2.367 2.367 0 0 0 2.367-2.362v-7.133l-7.7 7.7-5.2-4.3L27.93 28.5l3.508 2.9 7.587-7.588a2.365 2.365 0 0 0-2.1-1.28h-9.19a2.367 2.367 0 0 0-2.367 2.367V34.1a2.367 2.367 0 0 0 2.367 2.367" transform="translate(-7.95 63.382)" style="fill:#bbb"/>
                    </g>
                    <g data-name="그룹 27055">
                        <path data-name="사각형 17310" transform="translate(39.999 64.999)" style="fill:#ddd" d="M0 0h50v4H0z"/>
                        <path data-name="사각형 17311" transform="translate(39.999 74)" style="fill:#ddd" d="M0 0h25v4H0z"/>
                    </g>
                    <g data-name="그룹 27056">
                        <path data-name="사각형 17312" transform="translate(39.999 87.001)" style="fill:#ddd" d="M0 0h50v4H0z"/>
                    </g>
                </g>
            </g>
            <g data-name="그룹 27476" transform="translate(80.922 132.152)">
                <g data-name="사각형 17486" style="fill:#ddc8f1;stroke:#ddc8f1;stroke-width:4px">
                    <rect width="159.441" height="333.304" rx="12" style="stroke:none"/>
                    <rect x="2" y="2" width="155.441" height="329.304" rx="10" style="fill:none"/>
                </g>
                <circle data-name="타원 2127" cx="4.006" cy="4.006" r="4.006" transform="translate(76.115 11.217)" style="fill:#aa5afa"/>
                <g data-name="그룹 27528">
                    <g data-name="그룹 27527" transform="translate(8.813 47.271)" style="clip-path:url(#vf6hw2dnhb)">
                        <g data-name="그룹 27530">
                            <path data-name="패스 21683" d="M53.3 29.133H7.9a7.9 7.9 0 0 1-7.9-7.9V10.972a7.9 7.9 0 0 1 7.9-7.9h45.4a7.9 7.9 0 0 1 7.9 7.9v10.265a7.9 7.9 0 0 1-7.9 7.9" transform="translate(11.506 54.732)" style="fill:#fff"/>
                            <path data-name="패스 21684" d="M65.131 3.553 58.025 0l2.763 7.5z" transform="translate(-48.295 54.847)" style="fill:#fff"/>
                        </g>
                        <g data-name="그룹 27531">
                            <path data-name="패스 21683" d="M97.711 29.133H7.9a7.9 7.9 0 0 1-7.9-7.9V10.972a7.9 7.9 0 0 1 7.9-7.9h89.811a7.9 7.9 0 0 1 7.9 7.9v10.265a7.9 7.9 0 0 1-7.9 7.9" transform="translate(11.506 15.473)" style="fill:#fff"/>
                            <path data-name="패스 21684" d="M65.131 3.553 58.025 0l2.763 7.5z" transform="translate(-48.295 15.588)" style="fill:#fff"/>
                        </g>
                    </g>
                </g>
            </g>
            <g data-name="그룹 27491" transform="translate(257.189 112.17)">
                <rect data-name="사각형 17306" width="51" height="51" rx="7" transform="translate(-.188 -.169)" style="fill:#eee"/>
                <path data-name="패스 22229" d="M12.032-.426a10.864 10.864 0 0 0 7.865-3.4l-1.773-1.49a8.214 8.214 0 0 1-6.092 2.6 8.307 8.307 0 0 1-8.265-8.434 8.4 8.4 0 0 1 8.379-8.437c5 0 8.237 3.632 8.237 7.379 0 2.116-.772 3.6-2.116 3.6-1.173 0-1.659-.772-1.487-2.574l.572-5.176h-2.4s0 .114-.114 1.173a3.68 3.68 0 0 0-3.038-1.342 5.365 5.365 0 0 0-5.148 5.119 4.443 4.443 0 0 0 4.433 5.176 4.429 4.429 0 0 0 3.689-1.687A3.685 3.685 0 0 0 18.1-6.26c2.974 0 4.633-2.746 4.633-5.977 0-4.948-4.233-9.638-10.553-9.638A10.8 10.8 0 0 0 1.365-11.15 10.662 10.662 0 0 0 12.032-.426zM11.6-8.462a2.474 2.474 0 0 1-2.46-2.974 3.042 3.042 0 0 1 3.031-2.917 2.376 2.376 0 0 1 2.288 2.917A3.009 3.009 0 0 1 11.6-8.462z" transform="translate(13.447 36.706)" style="fill:#bbb"/>
            </g>
            <g data-name="그룹 27485">
                <g data-name="그룹 27051" transform="translate(205.911 22.434)">
                    <rect data-name="사각형 17308" width="51" height="68" rx="7" transform="translate(.088 -.433)" style="fill:#eee"/>
                    <g data-name="그룹 27050">
                        <path d="M0 27.636a12.234 12.234 0 0 1 12.116-12.35 12.235 12.235 0 0 1 12.116 12.35zM5.592 6.65A6.588 6.588 0 0 1 12.116 0a6.588 6.588 0 0 1 6.524 6.65 6.588 6.588 0 0 1-6.524 6.65 6.588 6.588 0 0 1-6.524-6.65z" transform="translate(13.089 17.566)" style="fill:#ddd"/>
                        <g data-name="그룹 27049" transform="translate(29.179 36.463)">
                            <circle data-name="타원 2078" cx="7.007" cy="7.007" r="7.007" style="fill:#bbb"/>
                            <path data-name="패스 20910" d="m15889.848-7689.5 2.248 2.207 3.531-4.256" transform="translate(-15885.707 7696.327)" style="stroke:#fff;stroke-linecap:square;stroke-width:1.5px;fill:none"/>
                        </g>
                    </g>
                </g>
            </g>
            <g data-name="그룹 27486" transform="translate(119.129 85.121)">
                <circle data-name="타원 2128" cx="41.514" cy="41.514" style="fill:#f0e6fa" r="41.514"/>
                <path data-name="패스 21643" d="M8.559 67.626S5.59 84.814 6.058 84.814s15.469-9.063 15.469-9.063z" transform="translate(3.654 1.524)" style="fill:#f0e6fa"/>
                <g data-name="그룹 26603" transform="translate(17.917 18.979)">
                    <rect data-name="사각형 16194" width="6.49" height="24.959" rx="3.245" transform="rotate(-37 35.404 9.875)" style="fill:#6a37a3"/>
                    <circle data-name="타원 146" cx="5.99" cy="5.99" r="5.99" transform="translate(29.677 13.405)" style="fill:#aa5afa"/>
                    <path data-name="합치기 9" d="M24.727 32.126c-4.917-2.437-9.554-2.409-12.985-2.38a27.2 27.2 0 0 1-3.2-.086 8.321 8.321 0 0 1-6.7-3.838C.072 23.4 0 19.4 0 19.4h37.326v19.39s-5.906-3.35-12.599-6.664zM0 19.4s.072-4 1.847-6.426a8.32 8.32 0 0 1 6.7-3.838 26.293 26.293 0 0 1 3.2-.086c3.431.027 8.068.054 12.985-2.38C31.42 3.352 37.326 0 37.326 0v19.4z" style="fill:#fff"/>
                    <circle data-name="타원 147" cx="1.248" cy="1.248" r="1.248" transform="translate(14.976 36.844)" style="fill:#fff"/>
                </g>
                <g data-name="그룹 27490" transform="translate(47.272 46.277)">
                    <circle data-name="타원 2070" cx="9.854" cy="9.854" r="9.854" style="fill:#aa5afa"/>
                    <g data-name="그룹 27489">
                        <path data-name="사각형 16348" transform="rotate(90 2.733 11.546)" style="fill:#fff" d="M0 0h1.577v8.671H0z"/>
                    </g>
                </g>
            </g>
        </g>
    </g>
</svg>
