<svg xmlns="http://www.w3.org/2000/svg" width="640" height="492" viewBox="0 0 640 492">
    <defs>
        <clipPath id="6wmqdqpx3a">
            <path style="fill:#b7d8ff" d="M0 0h640v492H0z"/>
        </clipPath>
        <clipPath id="mbwq95mw6b">
            <path data-name="사각형 17631" transform="translate(286.896 24.534)" style="fill:none" d="M0 0h80.938v80.938H0z"/>
        </clipPath>
    </defs>
    <g data-name="illust_640_개요1" style="clip-path:url(#6wmqdqpx3a)">
        <g data-name="man">
            <path data-name="패스 22088" d="M341.861 375.363A21.324 21.324 0 0 1 318.4 381.3c-11.585-4.187-31.383-15.041-62.4-42.36-.935-.813-1.911-1.626-2.846-2.48 0 0-20.042-39.473 1.5-71.06a3.2 3.2 0 0 1 4.594-.732c1.87 1.5 4.838 3.984 9.066 7.765 9.838 8.821 26.464 24.8 51.832 52.36 0 0 14.512-59.393 21.667-85.248.813-3.09 1.539-5.679 2.149-7.631l22.6 5.266s.252 2.853.455 7.771c1.138 24.311 2.2 99.193-25.164 130.414" style="fill:#fcd4bd" transform="translate(113.55 15)"/>
            <path data-name="패스 22089" d="M343.969 231.913s13.319 11.723 22.6 5.266a56.488 56.488 0 0 1 5.05-17.576c4.225-8.663 14.126-26.231 13.721-33.28a14.178 14.178 0 0 0-1.048-3.74 13.118 13.118 0 0 0-1.507-2.8 12.654 12.654 0 0 0-3.31-3.363 13.035 13.035 0 0 0-2.018-1.1 14.449 14.449 0 0 0-3.9-1.13 22.087 22.087 0 0 0-2.422-.188h-.888a4.437 4.437 0 0 0-3.9 2.529c-2.583 5.327-9.174 18.322-13.291 22.3 0 0 2.422-13.129-.806-15.738l-2.826-.4s-1.721 12.941-5.676 23.218c-4.977 13.022.222 26 .222 26" style="fill:#fcd4bd" transform="translate(113.55 15)"/>
            <path data-name="패스 22090" d="M359.378 197.192c-.081.134.108.269.188.161a57.944 57.944 0 0 0 13.991-23.164 22.087 22.087 0 0 0-2.422-.188 85.674 85.674 0 0 1-11.757 23.191" style="fill:#e8ad92" transform="translate(113.55 15)"/>
            <path data-name="패스 22091" d="M364.974 200.528c-.081.108.108.242.215.162a57.8 57.8 0 0 0 14.286-24.268 13.117 13.117 0 0 0-2.017-1.1 89.3 89.3 0 0 1-12.484 25.209" style="fill:#e8ad92" transform="translate(113.55 15)"/>
            <path data-name="패스 22092" d="M370.571 204.16c-.081.108.108.242.215.162a58.648 58.648 0 0 0 13.506-21.739 13.03 13.03 0 0 0-1.507-2.8 88.907 88.907 0 0 1-12.214 24.375" style="fill:#e8ad92" transform="translate(113.55 15)"/>
            <path data-name="패스 22093" d="M353.633 200.746c3.678 2.5 3.774 10.225 2.457 13.967-.179.51-1.045.56-1.037-.087a39.73 39.73 0 0 0-.231-7.3c-.362-2.1-1.539-4.292-1.467-6.4 0-.127.147-.265.278-.176" style="fill:#e8ad92" transform="translate(113.55 15)"/>
            <path data-name="패스 22094" d="M249.341 418.974s-60.572 15.163-115.616 0c0 0-9.634-53.458-12.114-68.988-4.716-29.229-19.31-65.206-23.253-74.6a2.946 2.946 0 0 1 1.219-3.659c5.244-3.211 20.611-11.058 41.954-14.228a121.46 121.46 0 0 1 16.383-1.342s-.041-3.821-.2-9.269c-.122-3.7-.284-8.13-.528-12.643a156.026 156.026 0 0 0-1.911-18.293s19.026 16.586 45.653 11.138l1.789 19.554.04.366.773 8.049s9.838-.04 21.3.9c11.992.935 25.773 2.927 32.2 7.073 25.571 16.424-7.683 155.944-7.683 155.944" style="fill:#fcd4bd" transform="translate(113.55 15)"/>
            <path data-name="패스 22095" d="M123.139 328.372c-2.016 6.333-4.621 14.754-7.435 24.1-9.115 30.247-20.629 70.512-22.613 82.911-2.048 12.884-1.858 73.7-1.665 98.291.017 6.391.07 10.342.07 10.342-7.323 14.216-24.763 9.587-24.763 9.587s-1.1-5.06-2.65-13.356c-4.548-23.745-13.151-73.9-11.548-105.322.8-15.712 13.258-72.089 24.977-113.239 6.081-21.359 11.924-38.658 15.844-43.963a21.317 21.317 0 0 1 15.494-8.977c22.1-1.658 21.775 36.137 14.289 59.625" style="fill:#fcd4bd" transform="translate(113.55 15)"/>
            <path data-name="패스 22096" d="M367.025 244.95c-19 3.13-25.2-5.407-25.2-5.407-10.362 20.133-22.566 81.292-22.566 81.292l-13.179-16.713s-36.78-40.389-50.699-45.232-51.855-3.827-51.855-3.827l-.772-8.049-.041-.366c-8.821 11.491-19.087 13.449-19.087 13.449-14.128-2.176-21.532-9.784-25.841-10.516.162 5.448.129 6.58.129 6.58-3.157.044-61.133-.6-73.24 29.062-9.208 22.558-15.056 46.491-18.385 61.466 0 0-21.592 72.46-18.544 98.208s16.041 98.312 16.041 98.312 14.611 4.716 27.64-9.533l6.7-92.912 23.474-90.736c.022 1 2.233 103.119-4.826 173.057-.051.509.257.978.883 1.411 3.177 4.3 16.737 17.532 67.29 26.64l12.775-24.964 13.537 24.964s43.5-16.58 56.9-42.026a6.724 6.724 0 0 0 2.26-5.265c-9.887-121.181-5.959-155.364-5.959-155.364s11.758 10.544 20.128 18.01a70.135 70.135 0 0 0 6.614 5.878l.689.606c.059.052.124.051.185.084 20.032 15.207 37.239 9.563 37.239 9.563s25.153-.855 35.639-49.334 2.07-88.338 2.07-88.338" style="fill:#f5f7fe" transform="translate(113.55 15)"/>
            <path data-name="패스 22097" d="m121.668 350.249.006-.164c12.807-49.612 10.663-89.724 10.534-91.9-18.193 2.885-40.48 9.907-47.472 27.036-9.207 22.559-15.055 46.492-18.384 61.467 0 0-21.593 72.46-18.544 98.207s16.041 98.312 16.041 98.312 14.61 4.717 27.64-9.532l6.7-92.913 23.471-90.736c0 .022 0 .108.006.222" style="fill:#b7d8ff" transform="translate(113.55 15)"/>
            <path data-name="패스 22098" d="M268.539 478.77c-54.066 40.858-133.56 15.256-149.028 9.682-.694 11.991-1.571 23.7-2.674 34.633-.051.508.257.978.884 1.411 3.176 4.3 16.736 17.532 67.289 26.64l12.775-24.964 13.538 24.964s43.5-16.58 56.9-42.026a6.717 6.717 0 0 0 2.26-5.265 3054.492 3054.492 0 0 1-1.943-25.075" style="fill:#bdc9f8" transform="translate(113.55 15)"/>
            <path data-name="패스 22099" d="M367.087 244.95c-19 3.13-25.205-5.407-25.205-5.407-10.362 20.133-22.566 81.292-22.566 81.292l-13.179-16.713s-36.771-40.389-50.694-45.232c-5.143-1.789-13.562-2.777-22.135-3.313l31.207 92.972.008-.068s11.758 10.544 20.128 18.01a70.135 70.135 0 0 0 6.614 5.878l.689.606c.059.052.124.051.185.084 20.032 15.207 37.239 9.563 37.239 9.563s25.153-.855 35.639-49.334 2.07-88.338 2.07-88.338" style="fill:#b7d8ff" transform="translate(113.55 15)"/>
            <path data-name="패스 22100" d="m173.834 271.082 7.691 10.768 8.549-1.3 3.818-16.968-11.276-3.482z" style="fill:#84bcff" transform="translate(113.55 15)"/>
            <path data-name="패스 22101" d="m157.71 246.891-2.341 9.554 18.464 19.532 9.792-15.881z" style="fill:#d0e6ff" transform="translate(113.55 15)"/>
            <path data-name="패스 22102" d="m183.626 260.1 11.7 13.825L207.021 255l-4.308-8.355z" style="fill:#d0e6ff" transform="translate(113.55 15)"/>
            <path data-name="패스 22103" d="M181.525 281.85s6.853 60.955 6.765 85.46l8.769 10.527L211.6 363.1l-21.525-82.556s-3.805-8.484-8.549 1.3" style="fill:#84bcff" transform="translate(113.55 15)"/>
            <path data-name="패스 22104" d="M271.009 476.8c-60.044 48.458-154.236 10.651-154.236 10.651l4.838-137.365c13.171-51.019 10.529-92 10.529-92l14.472-1.179 4.472-.365 45.978 104.517 20.164-105.939a30.316 30.316 0 0 1 9.594-.609 35.29 35.29 0 0 1 6.423 1.057l31.221 93.013z" style="fill:#b7d8ff" transform="translate(113.55 15)"/>
            <path data-name="패스 22105" d="m151.084 256.445 45.978 104.518-41.384-40.125 9.146-13.577-15.041-1.871s-2.683-38.3-3.171-48.58z" style="fill:#84bcff" transform="translate(113.55 15)"/>
            <path data-name="패스 22106" d="m218.283 304.27 9.675 11.911-30.9 44.88 20.164-105.94c3.334-.813 3.984-1.1 6.789-.854l6.992 48.539z" style="fill:#84bcff" transform="translate(113.55 15)"/>
            <path data-name="패스 22107" d="M200.791 426.439c-.416-19.383-.394-39.262-3.1-58.482-.121-.862-1.505-.637-1.5.2.17 19.428 2.072 38.823 2.172 58.28.1 19.4-1.353 38.961-.447 58.328.029.623 1.056.845 1.154.156 2.743-19.207 2.128-39.129 1.713-58.484" style="fill:#84bcff" transform="translate(113.55 15)"/>
            <path data-name="패스 22108" d="M208.577 379.194c-4.026 0-4.032 6.257 0 6.257s4.033-6.257 0-6.257" style="fill:#84bcff" transform="translate(113.55 15)"/>
            <path data-name="패스 22109" d="M210.407 415.483c-3.822 0-3.828 5.939 0 5.939s3.828-5.939 0-5.939" style="fill:#84bcff" transform="translate(113.55 15)"/>
            <path data-name="패스 22110" d="M210.864 450.616c-4.516 0-4.524 7.019 0 7.019s4.524-7.019 0-7.019" style="fill:#84bcff" transform="translate(113.55 15)"/>
            <path data-name="패스 22111" d="M156.353 218.112c6.928 31.506 38.572 29.346 46 25.177l-1.327-14.253c-26.077 5.33-44.673-10.924-44.673-10.924" style="fill:#efbaa2" transform="translate(113.55 15)"/>
            <path data-name="패스 22112" d="M206.353 137c-12.417-6.2-25.771-8.549-42.938 4.838a28.883 28.883 0 0 0-20.188 5.778c-9.936 7.413-11.668 27.989 1.126 61.384l63.9-32.875c16.912-7.018 14.919-30.725-1.9-39.125" style="fill:#313544" transform="translate(113.55 15)"/>
            <path data-name="패스 22113" d="M210.276 169.644c4.041 4.2 4.376 13.633 4.713 24.061 1.021 31.565-8.434 41.425-24.557 43.161s-32.991-4.465-36.464-33.735c-1.736-14.635-3.588-28.156 1.736-34.479 7.938-9.426 42.169-11.907 54.572.992" style="fill:#fcd4bd" transform="translate(113.55 15)"/>
            <path data-name="패스 22114" d="M156.21 198.907s-4.934-13.074-12.721-6.145 2.974 26.678 14.883 25.213c0 0 1.632-14.6-2.162-19.068" style="fill:#fcd4bd" transform="translate(113.55 15)"/>
            <path data-name="패스 22115" d="M147.128 198.709c1.723.3 3.484 1.925 4.73 3.09a13.262 13.262 0 0 1 3.476 4.422c.2.528-.533.853-.892.519-1.008-.938-1.818-2.062-2.759-3.077a6.2 6.2 0 0 1-2.285 1.8c-.717.264-1.249-.627-.934-1.215a5.611 5.611 0 0 1 1.885-1.806 28.707 28.707 0 0 1-3.757-2.816.556.556 0 0 1 .536-.921" style="fill:#e8ad92" transform="translate(113.55 15)"/>
            <path data-name="패스 22116" d="M201.132 192.955s2.729 1.016 2.315-3.816c-.372-4.344-2.315-3.758-2.315-3.758s-1.9-.013-1.609 3.787 1.609 3.787 1.609 3.787" style="fill:#313544" transform="translate(113.55 15)"/>
            <path data-name="패스 22117" d="M173.474 192.955s2.729 1.016 2.315-3.816c-.372-4.344-2.315-3.758-2.315-3.758s-1.9-.013-1.61 3.787 1.61 3.787 1.61 3.787" style="fill:#313544" transform="translate(113.55 15)"/>
            <path data-name="패스 22118" d="M198.139 178.281c1.955-1 5.608-1.261 7.031.773a.606.606 0 0 1-.521.907c-.971-.049-1.828-.52-2.8-.6a7.882 7.882 0 0 0-3.055.47.851.851 0 0 1-.653-1.549" style="fill:#313544" transform="translate(113.55 15)"/>
            <path data-name="패스 22119" d="M169.384 180.667c1.114-2.774 5.958-3.038 8.025-1.318a.781.781 0 0 1-.342 1.295c-1.205.375-2.486-.079-3.735.035a12.228 12.228 0 0 0-2.995.942.78.78 0 0 1-.953-.954" style="fill:#313544" transform="translate(113.55 15)"/>
            <path data-name="패스 22120" d="M197.059 214.673s-9.43 3.178-17.539.1c0 0 3.66 5.907 9.932 6.468s7.607-6.564 7.607-6.564" style="fill:#efa498" transform="translate(113.55 15)"/>
            <path data-name="패스 22121" d="M188.169 207c8.773-1.462.974-17.476.974-17.476" style="stroke-linejoin:round;stroke-linecap:round;stroke:#313544;fill:none" transform="translate(113.55 15)"/>
            <path data-name="패스 22122" d="M210.007 165.467c-3.063-2.7-29.32-10.3-39.126 4.57C160.353 186 151.647 188.908 142.353 188s.559-22.858.559-22.858l13.614-19.86 17.4-.573 13.483-2.89 29.617 14.619z" style="fill:#313544" transform="translate(113.55 15)"/>
        </g>
        <g data-name="그룹 27637">
            <path data-name="패스 22129" d="M350.972 105.47h-47.214a6.753 6.753 0 0 1-6.745-6.745V31.276a6.755 6.755 0 0 1 6.745-6.745h39.964l14 14v60.195a6.752 6.752 0 0 1-6.745 6.744" style="fill:#d0e6ff" transform="translate(38.054 15.739)"/>
            <g data-name="그룹 27636">
                <path data-name="패스 22130" d="M327.552 52.356a14.333 14.333 0 1 1-14.333 14.333 14.333 14.333 0 0 1 14.333-14.333" style="fill:#fff" transform="translate(38.054 15.739)"/>
                <path data-name="패스 22131" d="M327.552 58.816a1.5 1.5 0 0 1 1.5 1.5v6a1.5 1.5 0 0 1-3 0v-6a1.5 1.5 0 0 1 1.5-1.5" style="fill:#b7d8ff" transform="translate(38.054 15.739)"/>
                <path data-name="패스 22132" d="M327.552 70.512a1.5 1.5 0 1 1-1.5 1.5 1.5 1.5 0 0 1 1.5-1.5" style="fill:#b7d8ff" transform="translate(38.054 15.739)"/>
            </g>
            <path data-name="패스 22133" d="m342.812 39.437.6-14.9 14.308 14.308z" style="fill:#b7d8ff" transform="translate(38.054 15.739)"/>
        </g>
        <g data-name="그룹 27633">
            <path data-name="패스 22134" d="M392.446 107.472h72.059a7.04 7.04 0 0 1 7.04 7.039v42.45a7.04 7.04 0 0 1-7.04 7.04h-72.059a7.039 7.039 0 0 1-7.039-7.04v-42.45a7.039 7.039 0 0 1 7.039-7.039" style="fill:#b7d8ff" transform="translate(89.523 1.996)"/>
            <g data-name="그룹 27632">
                <path data-name="패스 22135" d="M398.8 122.725h20.776a3.52 3.52 0 0 1 3.52 3.52v20.776a3.52 3.52 0 0 1-3.52 3.52H398.8a3.52 3.52 0 0 1-3.52-3.52v-20.776a3.52 3.52 0 0 1 3.52-3.52" style="fill:#fff" transform="translate(89.523 1.996)"/>
            </g>
            <g data-name="그룹 27739">
                <path transform="translate(491 131)" style="fill:none" d="M0 0h15v15H0z"/>
                <path data-name="Icon / Bold / Human / User_select" d="M.809 14.877A.809.809 0 0 1 0 14.068v-1.285a5.177 5.177 0 0 1 10.349 0v1.285a.809.809 0 0 1-.808.808zm.808-11.319a3.557 3.557 0 1 1 3.557 3.557 3.561 3.561 0 0 1-3.557-3.557z" transform="translate(493.309 131.076)" style="fill:#d0e6ff"/>
            </g>
            <path data-name="선 149" transform="translate(523.922 132.246)" style="stroke-width:3px;stroke:#fff;stroke-linecap:round;fill:none" d="M0 0h19"/>
            <path data-name="선 151" transform="translate(523.922 144.496)" style="stroke-width:3px;stroke:#fff;stroke-linecap:round;fill:none" d="M0 0h19"/>
            <path data-name="선 150" transform="translate(523.922 138.496)" style="stroke-width:3px;stroke:#fff;stroke-linecap:round;fill:none" d="M0 0h8.578"/>
        </g>
        <g data-name="그룹 27630">
            <path data-name="패스 22145" d="M418.817 353.954h47.158a8.2 8.2 0 0 0 8.2-8.2v-10.663a8.2 8.2 0 0 0-8.2-8.2h-47.158a8.2 8.2 0 0 0-8.2 8.2v10.662a8.2 8.2 0 0 0 8.2 8.2" style="fill:#b7d8ff" transform="translate(-291.145 -113.607)"/>
            <path data-name="패스 22146" d="m468.641 327.5 7.381-3.69-2.87 7.792z" style="fill:#b7d8ff" transform="translate(-291.145 -113.607)"/>
            <path data-name="패스 22147" d="M451.213 340.421a2.87 2.87 0 1 0 2.87-2.87 2.87 2.87 0 0 0-2.87 2.87" style="fill:#fff" transform="translate(-291.145 -113.607)"/>
            <path data-name="패스 22148" d="M439.522 340.421a2.87 2.87 0 1 0 2.87-2.87 2.87 2.87 0 0 0-2.87 2.87" style="fill:#fff" transform="translate(-291.145 -113.607)"/>
            <path data-name="패스 22149" d="M427.839 340.421a2.87 2.87 0 1 0 2.871-2.87 2.87 2.87 0 0 0-2.871 2.87" style="fill:#fff" transform="translate(-291.145 -113.607)"/>
        </g>
        <path data-name="패스 22576" d="m100.007 260.813-2.6.92a19.177 19.177 0 0 0-5.125-5.714l1.1-2.429a2.049 2.049 0 0 0-1.021-2.709l-3.4-1.54a2.047 2.047 0 0 0-2.709 1.021l-1.069 2.372a19.144 19.144 0 0 0-6.983-.334l-.858-2.42a2.046 2.046 0 0 0-2.61-1.245l-3.519 1.241a2.049 2.049 0 0 0-1.25 2.61l.859 2.414a19.128 19.128 0 0 0-5.217 4.643l-2.324-1.171a2.047 2.047 0 0 0-2.751.906l-1.679 3.331a2.047 2.047 0 0 0 .9 2.748l2.381 1.2a19.172 19.172 0 0 0-.4 7.668l-2.605.917a2.044 2.044 0 0 0-1.245 2.61l1.239 3.518a2.046 2.046 0 0 0 2.612 1.25l2.693-.953a19.187 19.187 0 0 0 5.151 5.492l-1.217 2.684a2.048 2.048 0 0 0 1.019 2.709l3.4 1.54a2.046 2.046 0 0 0 2.709-1.019l1.241-2.746a19.188 19.188 0 0 0 6.65.26l1.012 2.867a2.046 2.046 0 0 0 2.61 1.248l3.519-1.239a2.049 2.049 0 0 0 1.25-2.612l-1.012-2.869a19.117 19.117 0 0 0 5.013-4.377l2.691 1.355a2.046 2.046 0 0 0 2.748-.907l1.679-3.331a2.047 2.047 0 0 0-.907-2.748l-2.632-1.331a19.129 19.129 0 0 0 .561-7.508l2.7-.953a2.045 2.045 0 0 0 1.248-2.61l-1.239-3.518a2.048 2.048 0 0 0-2.612-1.248m-17.352 15.94a5.675 5.675 0 1 1 3.464-7.246 5.677 5.677 0 0 1-3.464 7.241" transform="translate(140.107 -167.872)" style="fill:#b7d8ff"/>
        <path data-name="패스 22152" d="M256.513 70.222A15.16 15.16 0 1 1 241.355 55a15.191 15.191 0 0 1 15.158 15.222" style="fill:#d0e6ff" transform="translate(173.843 95.775)"/>
        <path data-name="패스 22573" d="m68.944 219.544 3.271 3.543 5.451-5.587" transform="translate(341.554 -54)" style="stroke-width:2px;stroke:#fff;stroke-linejoin:round;stroke-linecap:round;fill:none"/>
        <g data-name="그룹 27635" transform="translate(-390.293 -105.816)">
            <rect data-name="사각형 17643" width="62" height="82" rx="8" transform="translate(462.293 202.816)" style="fill:#d0e6ff"/>
            <g data-name="그룹 27634">
                <path data-name="선 146" transform="translate(474.793 223.317)" style="stroke-width:3px;stroke:#fff;stroke-linecap:round;fill:none" d="M0 0h36"/>
                <path data-name="패스 22611" d="M0 0h24.225" transform="translate(474.793 232.317)" style="stroke-width:3px;stroke:#fff;stroke-linecap:round;fill:none"/>
                <path data-name="선 148" transform="translate(474.793 241.316)" style="stroke-width:3px;stroke:#fff;stroke-linecap:round;fill:none" d="M0 0h32"/>
            </g>
        </g>
    </g>
</svg>
