<svg xmlns="http://www.w3.org/2000/svg" width="236" height="181.001" viewBox="0 0 236 181.001">
    <defs>
        <clipPath id="uo44fhxvya">
            <path data-name="사각형 17534" d="M12 0h212a12 12 0 0 1 12 12v157a12 12 0 0 1-12 12H12a12 12 0 0 1-12-12V12A12 12 0 0 1 12 0z" transform="translate(0 -.001)" style="fill:#eaf4ff"/>
        </clipPath>
        <clipPath id="zcos1ml4rb">
            <path data-name="사각형 17535" transform="translate(73.889 134.33)" style="fill:none" d="M0 0h16.111v16.111H0z"/>
        </clipPath>
        <clipPath id="bzxkuxg4nc">
            <path data-name="사각형 17537" d="M12 0h212a12 12 0 0 1 12 12v157a12 12 0 0 1-12 12H12a12 12 0 0 1-12-12V12A12 12 0 0 1 12 0z" transform="translate(0 -.001)" style="fill:none"/>
        </clipPath>
        <clipPath id="e7gt6n5m8d">
            <path data-name="사각형 17539" transform="rotate(-83.13 108.113 12.739)" style="fill:none" d="M0 0h84.142v83.579H0z"/>
        </clipPath>
    </defs>
    <g data-name="그룹 27522">
        <g data-name="그룹 27521" style="clip-path:url(#uo44fhxvya)" transform="translate(0 .001)">
            <path data-name="패스 21644" d="M12 0h212a12 12 0 0 1 12 12v157a12 12 0 0 1-12 12H12a12 12 0 0 1-12-12V12A12 12 0 0 1 12 0" style="fill:#eaf4ff"/>
            <path data-name="패스 21645" d="M18.024 15.333h75.638a5.191 5.191 0 0 1 5.191 5.191v40.785a5.191 5.191 0 0 1-5.191 5.191H18.024a5.191 5.191 0 0 1-5.191-5.191V20.524a5.191 5.191 0 0 1 5.191-5.191" style="fill:#fff"/>
            <path data-name="패스 21646" d="M25.615 38.221h7.842a2.02 2.02 0 0 0 2.02-2.02V30.12l-6.571 6.572-4.438-3.671 1.313-1.587 2.994 2.476 6.475-6.475a2.017 2.017 0 0 0-1.793-1.092h-7.842a2.02 2.02 0 0 0-2.02 2.02V36.2a2.02 2.02 0 0 0 2.02 2.02" style="fill:#b7d8ff"/>
            <path data-name="패스 21647" d="M25.615 56.094h7.842a2.02 2.02 0 0 0 2.02-2.02v-6.081l-6.571 6.572-4.438-3.671 1.313-1.587 2.994 2.476 6.475-6.475a2.017 2.017 0 0 0-1.793-1.092h-7.842a2.02 2.02 0 0 0-2.02 2.02v7.838a2.02 2.02 0 0 0 2.02 2.02" style="fill:#b7d8ff"/>
            <path data-name="패스 21651" d="M92.572 167.533h-45a6.436 6.436 0 0 1-6.429-6.429V96.816a6.437 6.437 0 0 1 6.429-6.427H85.66L99 103.734v57.372a6.433 6.433 0 0 1-6.428 6.428" style="fill:#fff"/>
            <path data-name="패스 21652" d="m85.118 104.271.555-13.884L99 103.714z" style="fill:#b7d8ff"/>
            <g data-name="그룹 27734">
                <path transform="translate(57 115)" style="fill:none" d="M0 0h27v27H0z"/>
                <path data-name="Icon / Bold / Human / User_select" d="M1.451 26.7A1.453 1.453 0 0 1 0 25.249v-2.306a9.291 9.291 0 0 1 18.574 0v2.306a1.453 1.453 0 0 1-1.451 1.451zM2.9 6.385a6.385 6.385 0 1 1 6.384 6.384A6.392 6.392 0 0 1 2.9 6.385z" transform="translate(60.645 114.716)" style="fill:#b7d8ff"/>
            </g>
            <g data-name="그룹 27869">
                <path data-name="선 167" transform="translate(46.5 28.5)" style="stroke:#b7d8ff;stroke-linecap:round;stroke-width:3px;fill:none" d="M0 0h32"/>
                <path data-name="선 168" transform="translate(46.372 35.5)" style="stroke:#b7d8ff;stroke-linecap:round;stroke-width:3px;fill:none" d="M0 0h15.128"/>
                <path data-name="선 169" transform="translate(46.372 46.5)" style="stroke:#b7d8ff;stroke-linecap:round;stroke-width:3px;fill:none" d="M0 0h31.128"/>
            </g>
        </g>
    </g>
    <g data-name="그룹 27524">
        <g data-name="그룹 27523" style="clip-path:url(#zcos1ml4rb)" transform="translate(0 .001)">
            <path data-name="패스 21654" d="M82.974 150.441h-2.06a.446.446 0 0 1-.443-.387l-.195-1.445a6.367 6.367 0 0 1-1.552-.643l-1.161.884a.446.446 0 0 1-.586-.039l-1.458-1.457a.447.447 0 0 1-.039-.587l.884-1.161a6.4 6.4 0 0 1-.643-1.551l-1.445-.2a.446.446 0 0 1-.387-.443v-2.061a.446.446 0 0 1 .387-.443l1.445-.2a6.393 6.393 0 0 1 .643-1.55l-.884-1.161a.445.445 0 0 1 .039-.586l1.458-1.458a.445.445 0 0 1 .586-.039l1.161.884a6.41 6.41 0 0 1 1.552-.644l.195-1.445a.447.447 0 0 1 .443-.387h2.06a.447.447 0 0 1 .443.387l.2 1.445a6.419 6.419 0 0 1 1.551.644l1.161-.885a.447.447 0 0 1 .586.04l1.458 1.457a.448.448 0 0 1 .04.587l-.885 1.161a6.356 6.356 0 0 1 .644 1.55l1.445.2a.447.447 0 0 1 .387.443v2.06a.447.447 0 0 1-.387.443l-1.445.2a6.363 6.363 0 0 1-.644 1.551l.885 1.161a.448.448 0 0 1-.04.587l-1.457 1.457a.447.447 0 0 1-.587.04l-1.161-.884a6.364 6.364 0 0 1-1.551.644l-.2 1.445a.447.447 0 0 1-.443.387" style="fill:#b7d8ff"/>
            <path data-name="패스 21655" d="M81.944 138.857a3.529 3.529 0 1 0 3.529 3.529 3.529 3.529 0 0 0-3.529-3.529" style="fill:#fff"/>
        </g>
    </g>
    <g data-name="그룹 27526">
        <g data-name="그룹 27525" style="clip-path:url(#bzxkuxg4nc)" transform="translate(0 .001)">
            <path data-name="패스 21661" d="M155.807 138.584c-.6 2.872 9.8 13.429 11.045 12.658 7.547-4.666 2.436-12.109-4.445-19.94z" style="fill:#fccaa7"/>
            <path data-name="패스 21662" d="M165.223 134.637q-.654-.814-1.352-1.639c-.014-.014-.026-.031-.04-.046q-.33-.39-.668-.781a1.073 1.073 0 0 0-.044-.051c-.236-.272-.472-.544-.711-.817l-.795.875-5.806 6.406c-.272 1.311 3.366 6.031 3.366 6.031 4.433.641 8.044-5.307 6.048-9.978z" style="fill:#ffbe92"/>
            <path data-name="패스 21663" d="m147.192 131.742 8.1 11.387a2.832 2.832 0 0 0 3.739.813c7.644-4.5 2.694-12.054-4.019-20.029z" style="fill:#fccaa7"/>
            <path data-name="패스 21664" d="m154.035 124.892-6.843 6.85 4.3 6.047.042-.033c2.432-1.982 3.093-6.515 2.5-12.864" style="fill:#ffbe92"/>
            <path data-name="패스 21665" d="m142.193 112.111-1.458 10.289 2.76 12.443a3.917 3.917 0 0 0 6.257 2.247c3-2.442 3.308-8.762 1.892-17.573z" style="fill:#fccaa7"/>
            <g data-name="그룹 27844">
                <path data-name="빼기 20" d="M53.863 82.484H8a8.009 8.009 0 0 1-8-8V8a8.009 8.009 0 0 1 8-8h39.594l14.269 14.269v60.215a8.009 8.009 0 0 1-8 8z" transform="translate(152.458 23.506)" style="fill:#fff"/>
                <g data-name="question mark" transform="translate(168.783 50.141)">
                    <circle data-name="타원 2161" cx="14.607" cy="14.607" r="14.607" style="fill:#b7d8ff"/>
                    <g data-name="그룹 27843" transform="translate(12.459 6.014)">
                        <rect data-name="사각형 17782" width="3.437" height="10.311" rx="1.718" transform="translate(.43)" style="fill:#fff"/>
                        <rect data-name="사각형 17783" width="4.296" height="4.296" rx="2.148" transform="translate(0 12.888)" style="fill:#fff"/>
                    </g>
                </g>
                <path data-name="패스 22608" d="m10.126 0 10.135 11.356H0z" transform="rotate(-135 112.643 -19.797)" style="fill:#b7d8ff"/>
            </g>
            <path data-name="패스 21666" d="m146 105.107 23.931-6.872a4.776 4.776 0 0 1 5.065 1.629l33.438 42.319 20.742 22.267-21.723 17.165-19.635-24.942z" style="fill:#ffd8bc"/>
            <path data-name="패스 21667" d="M150.366 103.853c5.733 7.08 11.759 12.641 18.435 14.848-7.006.782-13.484-6.542-19.928-14.419z" style="fill:#ffbe92"/>
            <path data-name="사각형 17536" transform="rotate(-37.605 190.165 -145.835)" style="fill:#b7d8ff" d="M0 0h5.785v11.431H0z"/>
        </g>
    </g>
    <g data-name="그룹 27528">
        <g data-name="그룹 27527" style="clip-path:url(#e7gt6n5m8d)" transform="translate(0 .001)">
            <path data-name="패스 21668" d="M138.837 48.956a27.764 27.764 0 1 1-38.937-5.05 27.766 27.766 0 0 1 38.939 5.051" style="fill:#006bea"/>
            <path data-name="패스 21669" d="M134.606 52.215a22.424 22.424 0 1 1-31.449-4.079 22.424 22.424 0 0 1 31.449 4.079" style="fill:#fff"/>
            <path data-name="사각형 17538" transform="rotate(-37.603 207.644 -148.195)" style="fill:#006bea" d="M0 0h10.605v40.077H0z"/>
        </g>
    </g>
    <g data-name="그룹 27530">
        <g data-name="그룹 27529" style="clip-path:url(#bzxkuxg4nc)" transform="translate(0 .001)">
            <path data-name="패스 21670" d="M171.96 119.8c-6-2.4-8.553-1.627-14.528-7.13s-8.283-8.337-14.347-13.222-13 1.571-8.6 8.855c5.287 8.753 19.643 17.6 23.573 26.571 6.339 13.405 17.031 19.413 29.93 21.671 6.345-14.177-2.511-31.329-16.027-36.745" style="fill:#ffd8bc"/>
            <path data-name="패스 21671" d="M135.489 100.506c2.648-2.511 5.551-.831 7.866 1.552s.237 4.521-.988 5.722-3.562 2.518-5.335.573c-1.433-1.571-4.22-5.309-1.543-7.847" style="fill:#ffd9c0"/>
            <path data-name="패스 21672" d="m212.9 140.813 3.281 3.638a2.99 2.99 0 0 1-.219 4.223l-19.118 17.241a2.992 2.992 0 0 1-4.224-.218l-3.28-3.638a2.992 2.992 0 0 1 .218-4.224l19.119-17.24a2.99 2.99 0 0 1 4.223.218" style="fill:#fff"/>
            <path data-name="패스 21673" d="m219.229 142.907 44.636 49.5a4.984 4.984 0 0 1-.363 7.039l-21.049 18.981a4.983 4.983 0 0 1-7.038-.364l-44.637-49.5a4.985 4.985 0 0 1 .364-7.039l21.048-18.981a4.984 4.984 0 0 1 7.039.364" style="fill:#005fd0"/>
            <path data-name="패스 21674" d="M195.838 168.353a2.328 2.328 0 1 1 1.442-2.959 2.328 2.328 0 0 1-1.442 2.959z" style="fill:#fff"/>
            <path data-name="패스 21675" d="M199.9 172.992a2.328 2.328 0 1 1 1.442-2.959 2.328 2.328 0 0 1-1.442 2.959z" style="fill:#fff"/>
        </g>
    </g>
</svg>
