<svg xmlns="http://www.w3.org/2000/svg" width="320" height="320" viewBox="0 0 320 320">
    <defs>
        <clipPath id="bmr1wda39a">
            <path data-name="사각형 17557" style="fill:none" d="M0 0h320v320H0z"/>
        </clipPath>
        <clipPath id="mhwqlp47jb">
            <path data-name="패스 21691" d="M222 58a30 30 0 1 0 30-30 30 30 0 0 0-30 30" style="fill:none"/>
        </clipPath>
        <clipPath id="8x4l6umjdc">
            <path data-name="사각형 17560" transform="translate(196.252 173.001)" style="fill:none" d="M0 0h97.748v97.745H0z"/>
        </clipPath>
    </defs>
    <g data-name="그룹 27533">
        <g data-name="그룹 27532" style="clip-path:url(#bmr1wda39a)">
            <path data-name="패스 21685" d="M74.078 305.092c-49.2-16.733-79.884-82.584-72.513-135.033 9.45-52 42.714-67.467 75.6-69.484s30.619-44.829 53.3-73.07 88.379-50.653 153.471 36.759 28.551 187.2-20.651 225.385-140.863 31.881-189.207 15.443" style="fill:#eaf4ff"/>
            <path data-name="패스 21686" d="M282 58a30 30 0 1 1-30-30 30 30 0 0 1 30 30" style="fill:#51a1ff"/>
        </g>
    </g>
    <g data-name="그룹 27535">
        <g data-name="그룹 27534" style="clip-path:url(#mhwqlp47jb)">
            <path data-name="패스 21687" d="m320.329 118.148-62.353-62.353c-3.1-3.1-2.815-4.7-3.007-6.262a25.347 25.347 0 0 1-1.879 6.7c-.776 1.862-2.741 6.312-6.2 8.671a4.85 4.85 0 0 1 5.379 1.042l60.132 60.132a10.88 10.88 0 0 1 7.93-7.93" style="fill:#fff"/>
            <path data-name="패스 21688" d="M312.865 114.816a2.686 2.686 0 1 1-3.8 3.8L259.434 68.98a2.685 2.685 0 0 1 3.8-3.8z" style="fill:#b7d8ff"/>
            <path data-name="패스 21689" d="M317.338 123.985a.911.911 0 0 0 .9-.9.62.62 0 0 1 .855-.622.91.91 0 0 0 1.132-.577.62.62 0 0 1 1.006-.326.912.912 0 0 0 1.255-.2.62.62 0 0 1 1.057 0 .911.911 0 0 0 1.255.2.62.62 0 0 1 1.006.326.908.908 0 0 0 1.131.577.621.621 0 0 1 .856.622.91.91 0 0 0 .9.9.62.62 0 0 1 .621.856.91.91 0 0 0 .577 1.131.62.62 0 0 1 .327 1.006.909.909 0 0 0 .2 1.254.621.621 0 0 1 0 1.058.909.909 0 0 0-.2 1.254.621.621 0 0 1-.327 1.007.909.909 0 0 0-.577 1.13.621.621 0 0 1-.622.857.908.908 0 0 0-.9.9.621.621 0 0 1-.857.622.909.909 0 0 0-1.13.577.622.622 0 0 1-1.007.327.909.909 0 0 0-1.254.2.621.621 0 0 1-1.058 0 .908.908 0 0 0-1.254-.2.62.62 0 0 1-1.006-.327.909.909 0 0 0-1.131-.577.62.62 0 0 1-.856-.621.91.91 0 0 0-.9-.9.621.621 0 0 1-.622-.856.908.908 0 0 0-.576-1.131.621.621 0 0 1-.327-1.007.91.91 0 0 0-.2-1.254.62.62 0 0 1 0-1.058.91.91 0 0 0 .2-1.254.62.62 0 0 1 .327-1.006.91.91 0 0 0 .576-1.132.62.62 0 0 1 .622-.855m2.991-5.837a10.949 10.949 0 1 0 10.431 2.864 10.9 10.9 0 0 0-10.431-2.864" style="fill:#ccc"/>
            <path data-name="패스 21690" d="M259.125 45.111a19.791 19.791 0 0 0-16.205-4.651l9.648 8.593s-.247 2.379-3.648 6.2-5.735 4.337-5.735 4.337l-9.648-8.593a19.789 19.789 0 0 0 6.488 15.561 8.625 8.625 0 0 0 8.416 2.181c4.043-1.1 7.353-4.662 8.695-6.168a25.35 25.35 0 0 0 3.964-5.721c1.686-3.53 2.285-7.944-1.976-11.739" style="fill:#fff"/>
        </g>
    </g>
    <g data-name="그룹 27537">
        <g data-name="그룹 27536" style="clip-path:url(#bmr1wda39a)">
            <path data-name="패스 21692" d="M225.417 212.352H94.582a7.621 7.621 0 0 1-7.62-7.62v-89.463a7.62 7.62 0 0 1 7.62-7.62h130.835a7.619 7.619 0 0 1 7.62 7.62v89.463a7.62 7.62 0 0 1-7.62 7.62" style="fill:#005fd0"/>
            <path data-name="패스 21061" d="M77.684 91a2.5 2.5 0 1 1-2.5-2.5 2.5 2.5 0 0 1 2.5 2.5" transform="translate(137.653 24.662)" style="fill:#fff"/>
            <path data-name="패스 21062" d="M85.067 91a2.5 2.5 0 1 1-2.5-2.5 2.5 2.5 0 0 1 2.5 2.5" transform="translate(139.818 24.662)" style="fill:#fff"/>
            <path data-name="사각형 17558" transform="translate(93.871 123.421)" style="fill:#fff" d="M0 0h132.258v81.86H0z"/>
            <path data-name="패스 21695" d="M194.545 152.1h-36.521a2 2 0 0 1 0-4h36.519a2 2 0 0 1 0 4" style="fill:#b7d8ff"/>
            <path data-name="패스 21696" d="M216.259 164.433h-58.234a2 2 0 0 1 0-4h58.232a2 2 0 0 1 0 4" style="fill:#b7d8ff"/>
            <path data-name="패스 21697" d="M203.428 176.77h-45.4a2 2 0 0 1 0-4h45.4a2 2 0 0 1 0 4" style="fill:#b7d8ff"/>
            <path data-name="패스 21698" d="M123.042 139.03a23 23 0 1 1-23 23 23 23 0 0 1 23-23" style="fill:#b7d8ff"/>
            <g data-name="그룹 27734">
                <path transform="translate(113 150)" style="fill:none" d="M0 0h20v20H0z"/>
                <path data-name="Icon / Bold / Human / User_select" d="M1.075 19.778A1.076 1.076 0 0 1 0 18.7v-1.705a6.882 6.882 0 0 1 13.758 0V18.7a1.076 1.076 0 0 1-1.075 1.075zM2.15 4.73a4.729 4.729 0 1 1 4.729 4.729A4.735 4.735 0 0 1 2.15 4.73z" transform="translate(116.071 150.16)" style="fill:#fff"/>
            </g>
        </g>
    </g>
    <g data-name="그룹 27539">
        <g data-name="그룹 27538" style="clip-path:url(#8x4l6umjdc)">
            <path data-name="패스 21701" d="M251.375 270.746h-12.5a2.711 2.711 0 0 1-2.688-2.348L235 259.631a38.742 38.742 0 0 1-9.412-3.9l-7.044 5.365a2.708 2.708 0 0 1-3.558-.238l-8.843-8.84a2.709 2.709 0 0 1-.238-3.561l5.366-7.042a38.761 38.761 0 0 1-3.9-9.411l-8.77-1.188a2.71 2.71 0 0 1-2.348-2.687v-12.508a2.711 2.711 0 0 1 2.348-2.688l8.77-1.188a38.685 38.685 0 0 1 3.9-9.409l-5.369-7.041a2.712 2.712 0 0 1 .241-3.558l8.843-8.843a2.708 2.708 0 0 1 3.558-.238l7.042 5.365a38.827 38.827 0 0 1 9.414-3.906l1.185-8.767a2.711 2.711 0 0 1 2.691-2.348h12.5a2.712 2.712 0 0 1 2.687 2.348l1.188 8.767a38.784 38.784 0 0 1 9.412 3.9l7.044-5.366a2.712 2.712 0 0 1 3.558.238l8.846 8.843a2.71 2.71 0 0 1 .238 3.558l-5.365 7.044a38.72 38.72 0 0 1 3.9 9.409l8.767 1.186a2.709 2.709 0 0 1 2.349 2.691v12.5a2.711 2.711 0 0 1-2.348 2.687l-8.767 1.188a38.725 38.725 0 0 1-3.9 9.412l5.365 7.044a2.708 2.708 0 0 1-.238 3.558l-8.843 8.843a2.708 2.708 0 0 1-3.558.241l-7.044-5.363a38.749 38.749 0 0 1-9.412 3.906l-1.188 8.768a2.713 2.713 0 0 1-2.687 2.348" style="fill:#b7d8ff"/>
            <path data-name="패스 21702" d="M245.123 200.462a21.41 21.41 0 1 0 21.41 21.41 21.41 21.41 0 0 0-21.41-21.41" style="fill:#fff"/>
        </g>
    </g>
    <g data-name="그룹 27541">
        <g data-name="그룹 27540" style="clip-path:url(#bmr1wda39a)">
            <path data-name="패스 21703" d="M51.478 73.509a2.725 2.725 0 0 1 .157-.27l.155-.267a.973.973 0 0 1 .089-.134A16.22 16.22 0 0 1 73.5 66.966l.9.485 1.239.675a3.121 3.121 0 0 1-2.976 5.487l-2.135-1.156a10.019 10.019 0 0 0-13.563 4.019l-.849 1.509a3.095 3.095 0 0 1-5.678-.6 3.022 3.022 0 0 1 .242-2.344z" style="fill:#b7d8ff"/>
            <path data-name="패스 21704" d="m39.495 69.2.758-1.4s0-.012.014-.016l.591-1.107a3.175 3.175 0 0 1 .372-.531 29.477 29.477 0 0 1 38.437-10.452c.061.036.126.048.193.084l2.53 1.373a3.1 3.1 0 0 1-2.958 5.449l-2.523-1.371c-.021-.012-.03-.024-.049-.029a23.275 23.275 0 0 0-30.842 8.968l-1.074 1.992a3.1 3.1 0 0 1-5.449-2.96" style="fill:#b7d8ff"/>
            <path data-name="패스 21705" d="M61.806 84.107a5.1 5.1 0 1 1 6.3 3.531 5.1 5.1 0 0 1-6.3-3.531" style="fill:#b7d8ff"/>
            <path data-name="패스 21706" d="M43.5 249.333a30 30 0 1 1-30 30 30 30 0 0 1 30-30" style="fill:#51a1ff"/>
            <path data-name="패스 21707" d="m42.217 265.145-15.029 24.214a2.05 2.05 0 0 0 1.741 3.131h30.894a2.05 2.05 0 0 0 1.715-3.174L45.673 265.1a2.049 2.049 0 0 0-3.456.042" style="fill:#fff"/>
            <path data-name="패스 21708" d="M44.376 283.739a1.308 1.308 0 0 1-1.3-1.3V273.3a1.3 1.3 0 0 1 2.608 0v9.131a1.308 1.308 0 0 1-1.3 1.3" style="fill:#84bcff"/>
            <path data-name="패스 21709" d="M45.681 287.652a1.3 1.3 0 1 1-1.3-1.3 1.3 1.3 0 0 1 1.3 1.3" style="fill:#84bcff"/>
        </g>
    </g>
</svg>
