<svg xmlns="http://www.w3.org/2000/svg" width="320" height="320" viewBox="0 0 320 320">
    <defs>
        <clipPath id="g4mvhvux0a">
            <path data-name="사각형 17565" style="fill:none" d="M0 0h320v320H0z"/>
        </clipPath>
        <clipPath id="64vzwn9l7b">
            <path data-name="사각형 17563" style="fill:#eaf4ff" d="M0 0h59.015v105.967H0z"/>
        </clipPath>
    </defs>
    <g data-name="그룹 27548" style="clip-path:url(#g4mvhvux0a)">
        <g data-name="그룹 27547">
            <g data-name="그룹 27546" style="clip-path:url(#g4mvhvux0a)">
                <path data-name="패스 21710" d="M71.255 20.174C50.954 46.162 21.73 92.438 9.487 160c-5.2 28.7-15.178 87.986 6.616 123.546 8.832 14.41 19.956 18.639 30.076 21.719 57.406 17.48 82.276-2.026 135.022 2.306 44.787 3.673 63.461 20.746 102.735 4.611 29.471-12.1 32.328-28.376 32.815-31.914 2.323-16.854-12.194-25.512-19.615-62.253-3.185-15.766-3.489-28.916-3.81-42.777-.716-30.9 3.335-39.621 3.047-55.608-.7-38.893-27.072-80.561-55-91.062-25.84-9.716-29.742 16.1-61.583 10.857-37.133-6.118-49.349-44.113-80.628-37.249-11.069 2.428-19.4 7.109-27.907 18" transform="translate(.366 -.35)" style="fill:#eaf4ff"/>
                <g data-name="그룹 27587">
                    <g data-name="그룹 27586">
                        <path data-name="패스 21711" d="M286.7 266.664h-47.153a8.2 8.2 0 0 1-8.2-8.2V247.8a8.2 8.2 0 0 1 8.2-8.2H286.7a8.2 8.2 0 0 1 8.2 8.2v10.662a8.2 8.2 0 0 1-8.2 8.2" style="fill:#b7d8ff" transform="translate(2.906 -.524)"/>
                        <path data-name="패스 21712" d="m236.881 240.215-7.381-3.691 2.87 7.792z" style="fill:#b7d8ff" transform="translate(2.906 -.524)"/>
                        <path data-name="패스 21713" d="M254.309 253.132a2.871 2.871 0 1 1-2.871-2.871 2.87 2.87 0 0 1 2.871 2.871" style="fill:#fff" transform="translate(2.906 -.524)"/>
                        <path data-name="패스 21714" d="M266 253.132a2.87 2.87 0 1 1-2.871-2.871 2.87 2.87 0 0 1 2.871 2.871" style="fill:#fff" transform="translate(2.906 -.524)"/>
                        <path data-name="패스 21715" d="M277.683 253.132a2.871 2.871 0 1 1-2.87-2.871 2.87 2.87 0 0 1 2.87 2.871" style="fill:#fff" transform="translate(2.906 -.524)"/>
                    </g>
                    <g data-name="그룹 27585">
                        <path data-name="패스 21716" d="M35.795 153.24h47.158a8.2 8.2 0 0 0 8.2-8.2v-10.663a8.2 8.2 0 0 0-8.2-8.2H35.795a8.2 8.2 0 0 0-8.2 8.2v10.662a8.2 8.2 0 0 0 8.2 8.2" style="fill:#2189ff" transform="translate(-4.594)"/>
                        <path data-name="패스 21717" d="M85.619 126.79 93 123.1l-2.87 7.792z" style="fill:#2189ff" transform="translate(-4.594)"/>
                        <path data-name="패스 21718" d="M68.191 139.707a2.87 2.87 0 1 0 2.87-2.87 2.871 2.871 0 0 0-2.87 2.87" style="fill:#fff" transform="translate(-4.594)"/>
                        <path data-name="패스 21719" d="M56.5 139.707a2.87 2.87 0 1 0 2.87-2.87 2.871 2.871 0 0 0-2.87 2.87" style="fill:#fff" transform="translate(-4.594)"/>
                        <path data-name="패스 21720" d="M44.817 139.707a2.87 2.87 0 1 0 2.871-2.87 2.871 2.871 0 0 0-2.871 2.87" style="fill:#fff" transform="translate(-4.594)"/>
                    </g>
                    <g data-name="그룹 27584">
                        <path data-name="패스 21721" d="M169.12 159.823a1.5 1.5 0 0 0 .023 1.772.711.711 0 0 1 .081.135c7.279 4.389 29.11 22.146 29.11 34.662v25.928h-65.887v-25.938c0-12.6 22.129-30.635 29.247-34.787a1.518 1.518 0 0 0 .3-.9 1.565 1.565 0 0 0-.3-.907c-7.135-4.245-29.249-22.151-29.249-34.747V99.118h65.887v25.938c0 12.576-22.057 30.578-29.214 34.767" style="fill:#b7d8ff" transform="translate(-4.721)"/>
                        <path data-name="패스 21722" d="M198.8 229h-67.344a3.34 3.34 0 0 1 0-6.679H198.8a3.34 3.34 0 0 1 0 6.679" style="fill:#2189ff" transform="translate(-4.721)"/>
                        <g data-name="그룹 27545" style="opacity:.5">
                            <g data-name="그룹 27544">
                                <g data-name="그룹 27543" style="clip-path:url(#64vzwn9l7b)" transform="translate(130.85 116.354)">
                                    <path data-name="패스 21723" d="M189.784 116.355c-3.992.061-10.857.783-21.961 3.6-7.6 1.926-20.711.476-27.644-.522a4.042 4.042 0 0 0-4.609 4.011v2.988c0 8.234 22.064 26.072 27.9 30.644a3.663 3.663 0 0 1 1.4 2.882v45.79a4.788 4.788 0 0 1-2.043 3.916c-4.588 3.225-12.32 12.661-12.32 12.661h29.241s-7.841-9.107-12.242-12.487a4.081 4.081 0 0 1-1.6-3.236v-46.661a3.692 3.692 0 0 1 1.377-2.878c5.719-4.6 27.3-22.5 27.3-30.731V121.1a4.739 4.739 0 0 0-4.8-4.749" transform="translate(-135.571 -116.354)" style="fill:#eaf4ff"/>
                                </g>
                            </g>
                        </g>
                        <path data-name="패스 21724" d="M198.8 101.679h-67.344a3.34 3.34 0 0 1 0-6.679H198.8a3.34 3.34 0 0 1 0 6.679" style="fill:#2189ff" transform="translate(-4.721)"/>
                    </g>
                </g>
            </g>
        </g>
    </g>
</svg>
