<svg xmlns="http://www.w3.org/2000/svg" width="198" height="32" viewBox="0 0 198 32"><g transform="translate(-580 -925)"><rect width="198" height="32" transform="translate(580 925)" fill="none"/><g transform="translate(579.598 926.793)"><g transform="translate(0.402 3.207)"><path d="M.4,8.984A6.4,6.4,0,0,1,9.451,6.32c1.353.821,1.879,2.25,1.489,4.16H7.292a2.7,2.7,0,0,0-.12-1.047C6.9,8.989,6.535,8.4,6.115,8.31a1.581,1.581,0,0,0-1.4.583,1.961,1.961,0,0,0,.206,1.633,4.824,4.824,0,0,0,1.462,1.059,26.263,26.263,0,0,1,3.991,2.678c2.278,2.211,1.253,6.454-1.795,7.2a14.649,14.649,0,0,1-5.282.008C1.824,21.277.991,20.027.4,18.7V16.338h4.13c.024.444.061.7.047.964-.042.818.133,1.6,1.061,1.653a2.2,2.2,0,0,0,1.66-.63,1.422,1.422,0,0,0-.449-2.07A25.317,25.317,0,0,0,4.2,14.582a7.448,7.448,0,0,1-3.8-3.76Q.4,9.9.4,8.984Z" transform="translate(-0.402 -3.977)" fill-rule="evenodd"/><path d="M286.952,30.175c.654-1.792,1.249-3.607,1.986-5.363a3.08,3.08,0,0,0,0-2.719c-1.448-3.18-2.788-6.407-4.165-9.618-.165-.386-.3-.784-.5-1.3h3.249l3.52,8.429c1.157-2.931,2.244-5.681,3.329-8.431h3.288l-7.813,19Z" transform="translate(-99.656 -5.991)" fill-rule="evenodd"/><path d="M48.816,21.63h-3.7V6.551H51.5c.6,3.554,1.2,7.143,1.8,10.732l.209.021c.58-3.572,1.16-7.144,1.751-10.785h6.325V21.606H58.009V9.471l-.353-.04c-.76,4.048-1.521,8.1-2.291,12.192H51.44q-1.183-6.28-2.369-12.564l-.256,0C48.816,13.236,48.816,17.408,48.816,21.63Z" transform="translate(-16.035 -4.365)" fill-rule="evenodd"/><path d="M134.409,21.456h-5.43l-3.5-11.431-.157.027V21.423h-3.61V6.54h5.641l3.376,11.438V6.546h3.677Z" transform="translate(-42.819 -4.372)" fill-rule="evenodd"/><path d="M154.294,15.2l-1.4-.129V12.955h5.25c0,1.853.1,3.643-.031,5.417a3.36,3.36,0,0,1-2.3,2.806,7.759,7.759,0,0,1-5.647.155,3.786,3.786,0,0,1-2.79-3.854c-.042-2.451-.05-4.9,0-7.354a3.968,3.968,0,0,1,3.591-4.16,11.709,11.709,0,0,1,3.509-.023c2.8.429,4,2.192,3.572,5.118H154.37c-.044-.448.051-.931-.148-1.186-.383-.492-.923-1.167-1.414-1.181s-1.41.671-1.431,1.084c-.135,2.663-.139,5.337-.012,8,.019.392.969,1.043,1.467,1.024a1.979,1.979,0,0,0,1.4-1.15A8.082,8.082,0,0,0,154.294,15.2Z" transform="translate(-51.778 -4.121)" fill-rule="evenodd"/><path d="M98.74,6.493h3.755c.023.466.065.925.066,1.385.006,3.15,0,6.3.005,9.448,0,1.358.524,2.057,1.515,1.981,1.182-.092,1.461-.892,1.455-1.934-.017-3.581-.007-7.162-.007-10.844h3.761a3.653,3.653,0,0,1,.107.622c0,3.542.032,7.086-.014,10.629-.033,2.5-1.268,3.86-3.764,4.227a10.62,10.62,0,0,1-2.35.107c-3.284-.255-4.589-1.67-4.608-4.963-.018-3.149-.007-6.3,0-9.448C98.66,7.32,98.709,6.937,98.74,6.493Z" transform="translate(-34.755 -4.356)" fill-rule="evenodd"/><path d="M25.271,21.641H21.1C22.041,16.569,22.963,11.58,23.9,6.52H30.76c.922,4.971,1.849,9.963,2.8,15.084H29.386q-.961-6.517-1.916-13l-.209.014C26.6,12.945,25.939,17.271,25.271,21.641Z" transform="translate(-7.64 -4.365)" fill-rule="evenodd"/><path d="M86.96,10.7H83.428a2.363,2.363,0,0,0-.166-.879c-.336-.491-.7-1.169-1.173-1.294a1.583,1.583,0,0,0-1.379.775,1.924,1.924,0,0,0,.553,1.657,28.6,28.6,0,0,0,3.368,2.01c2.423,1.361,3.306,3.055,2.7,5.635a4.471,4.471,0,0,1-1.276,2.2c-1.893,1.681-6.305,1.567-8.232-.088-1.317-1.131-1.377-2.614-1.25-4.242h3.948a3.427,3.427,0,0,0,.122,1.169c.27.527.6,1.213,1.067,1.394.419.161,1.435-.155,1.535-.47a2.433,2.433,0,0,0-.207-2,10.118,10.118,0,0,0-2.343-1.637c-.8-.521-1.639-1-2.427-1.542-1.639-1.128-1.87-2.752-1.485-4.543a3.584,3.584,0,0,1,3.242-2.827,12.594,12.594,0,0,1,3.764-.038C86.336,6.357,87.387,7.971,86.96,10.7Z" transform="translate(-27.019 -4.135)" fill-rule="evenodd"/><path d="M252,22.74c-3.255,2.134-6.52,1.851-8.737-.667a7.313,7.313,0,0,1-.007-9.288c2.127-2.468,5.615-2.791,8.734-.737.109-.356.213-.69.327-1.062h2.835V23.879h-2.828C252.227,23.526,252.123,23.161,252,22.74Zm-7.3-5.36a3.8,3.8,0,1,0,3.9-3.894A3.821,3.821,0,0,0,244.7,17.379Z" transform="translate(-84.736 -5.826)" fill-rule="evenodd"/><path d="M185.144,17.621v4.567H182.21V5.884a52.08,52.08,0,0,1,7.358.527c2.738.568,4.3,3.469,3.887,6.321a5.677,5.677,0,0,1-5.363,4.882C187.183,17.657,186.27,17.621,185.144,17.621Zm.074-3.075c2.209.516,3.778.163,4.59-1.035a2.81,2.81,0,0,0,.033-3.312c-.794-1.233-2.579-1.627-4.622-1.078C185.219,10.934,185.219,12.749,185.219,14.546Z" transform="translate(-63.971 -4.143)" fill-rule="evenodd"/><path d="M274.818,18.882l2.549,1.128A6.47,6.47,0,0,1,270.2,24.13a6.612,6.612,0,0,1-5.748-6.481,6.726,6.726,0,0,1,12.919-2.923l-2.6,1.108c-2.052-2.57-4.309-3-6.148-1.232a3.952,3.952,0,0,0,.133,5.734C270.635,21.979,272.791,21.493,274.818,18.882Z" transform="translate(-92.725 -5.798)" fill-rule="evenodd"/><path d="M228.964,19.977c1.111-3.064,2.147-5.917,3.191-8.793h3.2l-4.836,12.869h-3.154c-1.613-4.231-3.224-8.458-4.9-12.839h3.242Z" transform="translate(-78.047 -5.996)" fill-rule="evenodd"/><path d="M201.7,11.125h2.906l.2.981a11.862,11.862,0,0,1,2.6-.974,13.433,13.433,0,0,1,2.975.274l-1.192,3.051c-.45-.125-.773-.239-1.106-.3-2.046-.393-3.252.518-3.318,2.594-.06,1.924-.021,3.85-.025,5.775,0,.47,0,.94,0,1.489H201.7C201.7,19.717,201.7,15.494,201.7,11.125Z" transform="translate(-70.786 -5.967)" fill-rule="evenodd"/><path d="M219.294,24.094h-2.866V11.214h2.866Z" transform="translate(-75.935 -6.007)" fill-rule="evenodd"/><path d="M215.655,5.22a1.991,1.991,0,0,1,3.98-.081,1.955,1.955,0,0,1-2.045,2.044A1.834,1.834,0,0,1,215.655,5.22Z" transform="translate(-75.665 -3.207)" fill-rule="evenodd"/></g></g></g></svg>