<svg xmlns="http://www.w3.org/2000/svg" xmlns:xlink="http://www.w3.org/1999/xlink">

  <symbol xmlns="http://www.w3.org/2000/svg" viewBox="0 0 198 32" id="logo">
    <g transform="translate(-580 -925)">
      <rect width="198" height="32" transform="translate(580 925)" fill="none"/>
      <g transform="translate(579.598 926.793)">
        <g transform="translate(0.402 3.207)">
          <path d="M.4,8.984A6.4,6.4,0,0,1,9.451,6.32c1.353.821,1.879,2.25,1.489,4.16H7.292a2.7,2.7,0,0,0-.12-1.047C6.9,8.989,6.535,8.4,6.115,8.31a1.581,1.581,0,0,0-1.4.583,1.961,1.961,0,0,0,.206,1.633,4.824,4.824,0,0,0,1.462,1.059,26.263,26.263,0,0,1,3.991,2.678c2.278,2.211,1.253,6.454-1.795,7.2a14.649,14.649,0,0,1-5.282.008C1.824,21.277.991,20.027.4,18.7V16.338h4.13c.024.444.061.7.047.964-.042.818.133,1.6,1.061,1.653a2.2,2.2,0,0,0,1.66-.63,1.422,1.422,0,0,0-.449-2.07A25.317,25.317,0,0,0,4.2,14.582a7.448,7.448,0,0,1-3.8-3.76Q.4,9.9.4,8.984Z" transform="translate(-0.402 -3.977)" fill-rule="evenodd"/>
          <path d="M286.952,30.175c.654-1.792,1.249-3.607,1.986-5.363a3.08,3.08,0,0,0,0-2.719c-1.448-3.18-2.788-6.407-4.165-9.618-.165-.386-.3-.784-.5-1.3h3.249l3.52,8.429c1.157-2.931,2.244-5.681,3.329-8.431h3.288l-7.813,19Z" transform="translate(-99.656 -5.991)" fill-rule="evenodd"/>
          <path d="M48.816,21.63h-3.7V6.551H51.5c.6,3.554,1.2,7.143,1.8,10.732l.209.021c.58-3.572,1.16-7.144,1.751-10.785h6.325V21.606H58.009V9.471l-.353-.04c-.76,4.048-1.521,8.1-2.291,12.192H51.44q-1.183-6.28-2.369-12.564l-.256,0C48.816,13.236,48.816,17.408,48.816,21.63Z" transform="translate(-16.035 -4.365)" fill-rule="evenodd"/>
          <path d="M134.409,21.456h-5.43l-3.5-11.431-.157.027V21.423h-3.61V6.54h5.641l3.376,11.438V6.546h3.677Z" transform="translate(-42.819 -4.372)" fill-rule="evenodd"/>
          <path d="M154.294,15.2l-1.4-.129V12.955h5.25c0,1.853.1,3.643-.031,5.417a3.36,3.36,0,0,1-2.3,2.806,7.759,7.759,0,0,1-5.647.155,3.786,3.786,0,0,1-2.79-3.854c-.042-2.451-.05-4.9,0-7.354a3.968,3.968,0,0,1,3.591-4.16,11.709,11.709,0,0,1,3.509-.023c2.8.429,4,2.192,3.572,5.118H154.37c-.044-.448.051-.931-.148-1.186-.383-.492-.923-1.167-1.414-1.181s-1.41.671-1.431,1.084c-.135,2.663-.139,5.337-.012,8,.019.392.969,1.043,1.467,1.024a1.979,1.979,0,0,0,1.4-1.15A8.082,8.082,0,0,0,154.294,15.2Z" transform="translate(-51.778 -4.121)" fill-rule="evenodd"/>
          <path d="M98.74,6.493h3.755c.023.466.065.925.066,1.385.006,3.15,0,6.3.005,9.448,0,1.358.524,2.057,1.515,1.981,1.182-.092,1.461-.892,1.455-1.934-.017-3.581-.007-7.162-.007-10.844h3.761a3.653,3.653,0,0,1,.107.622c0,3.542.032,7.086-.014,10.629-.033,2.5-1.268,3.86-3.764,4.227a10.62,10.62,0,0,1-2.35.107c-3.284-.255-4.589-1.67-4.608-4.963-.018-3.149-.007-6.3,0-9.448C98.66,7.32,98.709,6.937,98.74,6.493Z" transform="translate(-34.755 -4.356)" fill-rule="evenodd"/>
          <path d="M25.271,21.641H21.1C22.041,16.569,22.963,11.58,23.9,6.52H30.76c.922,4.971,1.849,9.963,2.8,15.084H29.386q-.961-6.517-1.916-13l-.209.014C26.6,12.945,25.939,17.271,25.271,21.641Z" transform="translate(-7.64 -4.365)" fill-rule="evenodd"/>
          <path d="M86.96,10.7H83.428a2.363,2.363,0,0,0-.166-.879c-.336-.491-.7-1.169-1.173-1.294a1.583,1.583,0,0,0-1.379.775,1.924,1.924,0,0,0,.553,1.657,28.6,28.6,0,0,0,3.368,2.01c2.423,1.361,3.306,3.055,2.7,5.635a4.471,4.471,0,0,1-1.276,2.2c-1.893,1.681-6.305,1.567-8.232-.088-1.317-1.131-1.377-2.614-1.25-4.242h3.948a3.427,3.427,0,0,0,.122,1.169c.27.527.6,1.213,1.067,1.394.419.161,1.435-.155,1.535-.47a2.433,2.433,0,0,0-.207-2,10.118,10.118,0,0,0-2.343-1.637c-.8-.521-1.639-1-2.427-1.542-1.639-1.128-1.87-2.752-1.485-4.543a3.584,3.584,0,0,1,3.242-2.827,12.594,12.594,0,0,1,3.764-.038C86.336,6.357,87.387,7.971,86.96,10.7Z" transform="translate(-27.019 -4.135)" fill-rule="evenodd"/>
          <path d="M252,22.74c-3.255,2.134-6.52,1.851-8.737-.667a7.313,7.313,0,0,1-.007-9.288c2.127-2.468,5.615-2.791,8.734-.737.109-.356.213-.69.327-1.062h2.835V23.879h-2.828C252.227,23.526,252.123,23.161,252,22.74Zm-7.3-5.36a3.8,3.8,0,1,0,3.9-3.894A3.821,3.821,0,0,0,244.7,17.379Z" transform="translate(-84.736 -5.826)" fill-rule="evenodd"/>
          <path d="M185.144,17.621v4.567H182.21V5.884a52.08,52.08,0,0,1,7.358.527c2.738.568,4.3,3.469,3.887,6.321a5.677,5.677,0,0,1-5.363,4.882C187.183,17.657,186.27,17.621,185.144,17.621Zm.074-3.075c2.209.516,3.778.163,4.59-1.035a2.81,2.81,0,0,0,.033-3.312c-.794-1.233-2.579-1.627-4.622-1.078C185.219,10.934,185.219,12.749,185.219,14.546Z" transform="translate(-63.971 -4.143)" fill-rule="evenodd"/>
          <path d="M274.818,18.882l2.549,1.128A6.47,6.47,0,0,1,270.2,24.13a6.612,6.612,0,0,1-5.748-6.481,6.726,6.726,0,0,1,12.919-2.923l-2.6,1.108c-2.052-2.57-4.309-3-6.148-1.232a3.952,3.952,0,0,0,.133,5.734C270.635,21.979,272.791,21.493,274.818,18.882Z" transform="translate(-92.725 -5.798)" fill-rule="evenodd"/>
          <path d="M228.964,19.977c1.111-3.064,2.147-5.917,3.191-8.793h3.2l-4.836,12.869h-3.154c-1.613-4.231-3.224-8.458-4.9-12.839h3.242Z" transform="translate(-78.047 -5.996)" fill-rule="evenodd"/>
          <path d="M201.7,11.125h2.906l.2.981a11.862,11.862,0,0,1,2.6-.974,13.433,13.433,0,0,1,2.975.274l-1.192,3.051c-.45-.125-.773-.239-1.106-.3-2.046-.393-3.252.518-3.318,2.594-.06,1.924-.021,3.85-.025,5.775,0,.47,0,.94,0,1.489H201.7C201.7,19.717,201.7,15.494,201.7,11.125Z" transform="translate(-70.786 -5.967)" fill-rule="evenodd"/>
          <path d="M219.294,24.094h-2.866V11.214h2.866Z" transform="translate(-75.935 -6.007)" fill-rule="evenodd"/>
          <path d="M215.655,5.22a1.991,1.991,0,0,1,3.98-.081,1.955,1.955,0,0,1-2.045,2.044A1.834,1.834,0,0,1,215.655,5.22Z" transform="translate(-75.665 -3.207)" fill-rule="evenodd"/>
        </g>
      </g>
    </g>
  </symbol>

  <symbol xmlns="http://www.w3.org/2000/svg" viewBox="0 0 40 40" id="hamburger">
    <path style="fill:none" d="M0 0h24v24H0z" transform="translate(8 8)"/>
    <path d="M11.25 27.5v-2h17.5v2zm0-6.5v-2h17.5v2zm0-6.5v-2h17.5v2z"/>
  </symbol>

  <symbol xmlns="http://www.w3.org/2000/svg" viewBox="0 0 96 96" id="outlink-bold">
    <path d="M81.436 14.564v54.285h-8V28.221L18.22 83.436l-5.656-5.656L67.78 22.563l-40.629.001v-8z"/>
  </symbol>

  <symbol xmlns="http://www.w3.org/2000/svg" viewBox="0 0 96 96" id="open-down-bold">
    <path d="M48 73.254L11.651 36.361l5.698-5.614L48 61.855l30.651-31.108 5.698 5.614z"/>
  </symbol>

  <symbol xmlns="http://www.w3.org/2000/svg" viewBox="0 0 96 96" id="open-down-regular">
    <path d="M36.132,0l2.074,2.167L4.338,34.584,38.207,67l-2.074,2.167L0,34.584Z" transform="translate(13.833 71.207) rotate(-90)"/>
  </symbol>

  <symbol xmlns="http://www.w3.org/2000/svg" viewBox="0 0 96 96" id="remove-bold">
    <rect width="96" height="96" fill="rgba(255,255,255,0)"/>
    <path d="M16.61,92a5.12,5.12,0,0,1-5.045-4.446l-.024-.224L6.15,21H0V13H22V5a4.987,4.987,0,0,1,4.783-5L27,0H51A4.988,4.988,0,0,1,56,4.784L56,5v8H78v8H71.85l-5.389,66.33a5.122,5.122,0,0,1-4.845,4.664L61.391,92ZM19.3,84H58.7l5.12-63H14.18ZM30,13H48V8H30ZM44,72V34h8V72ZM26,72V34h8V72Z" transform="translate(9 2)"/>
  </symbol>

  <symbol xmlns="http://www.w3.org/2000/svg" viewBox="0 0 96 96" id="next-bold">
    <path d="M35.757 84.389l-5.533-5.778 31.982-30.612L30.224 17.39l5.533-5.779 38.018 36.388z"/>
  </symbol>

  <symbol xmlns="http://www.w3.org/2000/svg" viewBox="0 0 16 16" id="check-bold">
    <g transform="translate(-1074 -560)">
      <rect width="16" height="16" transform="translate(1074 560)" fill="red" opacity="0"/>
      <path d="M1076.978,568.606l5.167,5.167,8.64-8.639" transform="translate(-1.881 -1.453)" fill="none" stroke="#7994f9" stroke-width="2"/>
    </g>
  </symbol>

  <symbol xmlns="http://www.w3.org/2000/svg" viewBox="0 0 24 24" id="cancel">
    <g transform="translate(-1258 -475.5)">
      <rect width="24" height="24" transform="translate(1258 475.5)" fill="#fff" opacity="0"/>
      <path d="M17,0,9.208,7.793,1.415,0,0,1.415,7.793,9.208,0,17l1.415,1.415,7.793-7.793L17,18.415,18.415,17,10.623,9.208l7.793-7.793Z" transform="translate(1260.792 478.292)"/>
    </g>
  </symbol>

  <symbol xmlns="http://www.w3.org/2000/svg" viewBox="0 0 16 16" id="delete">
    <g transform="translate(-1074 -560)">
      <path d="M0,0V11.2" transform="translate(1085.961 564.039) rotate(45)" fill="none" stroke-width="1"/>
      <path d="M0,0H11.2" transform="translate(1078.039 564.039) rotate(45)" fill="none" stroke-width="1"/>
    </g>
  </symbol>

  <symbol xmlns="http://www.w3.org/2000/svg" viewBox="0 0 16 16" id="cancel-16x">
    <g transform="translate(0.58 0.58)">
      <rect width="16" height="16" transform="translate(-0.58 -0.58)" fill="red" opacity="0"/>
      <path d="M.75,17.016H-.75V0H.75Z" transform="translate(13.465 1.433) rotate(45)"/>
      <path d="M17.016.75H0V-.75H17.016Z" transform="translate(1.433 1.433) rotate(45)"/>
    </g>
  </symbol>

  <symbol xmlns="http://www.w3.org/2000/svg" viewBox="0 0 17.459 17.507" id="refresh">
    <g transform="translate(-137.21 -10.983)">
      <rect width="16" height="16" transform="translate(137.751 11.709)" fill="#00ff2b" opacity="0"/>
      <path d="M235.337,23.65A6.2,6.2,0,0,1,239.627,22a6.4,6.4,0,1,1,0,12.809A6.5,6.5,0,0,1,233.5,30.17" transform="matrix(0.966, -0.259, 0.259, 0.966, -92.906, 54.329)" fill="none" stroke="#1a1311" stroke-linecap="square" stroke-miterlimit="10" stroke-width="1.5"/>
      <path d="M0,0V3.6H3.6" transform="matrix(0.966, -0.259, 0.259, 0.966, 138.693, 14.585)" fill="none" stroke="#000" stroke-linecap="round" stroke-width="1.5"/>
    </g>
  </symbol>

  <symbol xmlns="http://www.w3.org/2000/svg" viewBox="0 0 24 24" id="information">
    <g transform="translate(-664 -818)">
      <rect width="24" height="24" transform="translate(664 818)" fill="red" opacity="0"/>
      <g>
        <path d="M10,1.5A8.5,8.5,0,1,0,18.5,10,8.51,8.51,0,0,0,10,1.5M10,0A10,10,0,1,1,0,10,10,10,0,0,1,10,0Z" transform="translate(666 820)"/>
        <rect width="2" height="6" rx="1" transform="translate(675 825)"/>
        <circle cx="1" cy="1" r="1" transform="translate(675 833)"/>
      </g>
    </g>
  </symbol>

  <symbol xmlns="http://www.w3.org/2000/svg" viewBox="0 0 10.586 13.862" id="swiper-play">
    <path d="M.524.084a.918.918,0,0,1,.882.062l.037.024,8.725,5.978A.938.938,0,0,1,10.2,7.687l-.035.025L1.442,13.691a.953.953,0,0,1-.539.171.9.9,0,0,1-.418-.1A.917.917,0,0,1,0,12.973V.931A.922.922,0,0,1,.449.123L.485.1Z" transform="translate(0 0)"/>
  </symbol>

  <symbol xmlns="http://www.w3.org/2000/svg" viewBox="0 0 24 24" id="swiper-arrow">
    <path d="m9.222 0 .864.9-8.278 7.927 8.278 7.923-.864.9L0 8.827z" transform="translate(5.957 3.174)"/>
  </symbol>

  <symbol xmlns="http://www.w3.org/2000/svg" viewBox="0 0 24 24" id="chevron-right">
    <path d="m1609.84 665.294 8.82 8.82 8.82-8.82" transform="rotate(-90 486.434 1144.228)" style="fill:none;stroke-width:2px"/>
  </symbol>

  <symbol xmlns="http://www.w3.org/2000/svg" viewBox="0 0 24 24" id="history">
    <g transform="translate(-1753 -708)">
      <rect width="24" height="24" transform="translate(1753 708)" fill="red" opacity="0"/>
      <path d="M-1030.5,437h-1.969a6.461,6.461,0,0,0,2.47-.5A.5.5,0,0,1-1030.5,437Zm-2.161,0H-1047.5a.5.5,0,0,1-.5-.5v-21a.5.5,0,0,1,.5-.5h14l3.5,3.5v6a6.465,6.465,0,0,0-1.5-.422v-4.955l-2.622-2.621H-1046.5v19h9.847a6.521,6.521,0,0,0,3.993,1.5Z" transform="translate(2802 294)"/>
      <path d="M6.5,1.5a5,5,0,1,0,5,5,5.006,5.006,0,0,0-5-5M6.5,0A6.5,6.5,0,1,1,0,6.5,6.5,6.5,0,0,1,6.5,0Z" transform="translate(1763 718)"/>
      <path d="M1771.047,727.426l-2.3-2.3v-3.712h1.5v3.091l1.857,1.857Z"/>
      <path d="M1762.33,715.269h-4v-1.5h4Z"/>
      <path d="M1763.33,715.269h-5v-1.5h5Z" transform="translate(0 3)"/>
    </g>
  </symbol>

  <symbol xmlns="http://www.w3.org/2000/svg" viewBox="0 0 24 24" id="language">
    <g transform="translate(-1753 -708)">
      <rect width="24" height="24" transform="translate(1753 708)" fill="none" opacity="0.2"/>
      <path d="M10.5,1.5a9,9,0,1,0,9,9,9.01,9.01,0,0,0-9-9m0-1.5A10.5,10.5,0,1,1,0,10.5,10.5,10.5,0,0,1,10.5,0Z" transform="translate(1754.5 709.5)"/>
      <path d="M4.5,1.5c-.421,0-1.165.678-1.8,2.166A18.185,18.185,0,0,0,1.5,10.5a18.185,18.185,0,0,0,1.2,6.834C3.335,18.822,4.079,19.5,4.5,19.5s1.165-.678,1.8-2.166A18.185,18.185,0,0,0,7.5,10.5,18.185,18.185,0,0,0,6.3,3.666C5.665,2.178,4.921,1.5,4.5,1.5M4.5,0C6.985,0,9,4.7,9,10.5S6.985,21,4.5,21,0,16.3,0,10.5,2.015,0,4.5,0Z" transform="translate(1760.5 709.5)"/>
      <path d="M4.5,1.5c-.421,0-1.165.678-1.8,2.166A18.185,18.185,0,0,0,1.5,10.5a18.185,18.185,0,0,0,1.2,6.834C3.335,18.822,4.079,19.5,4.5,19.5s1.165-.678,1.8-2.166A18.185,18.185,0,0,0,7.5,10.5,18.185,18.185,0,0,0,6.3,3.666C5.665,2.178,4.921,1.5,4.5,1.5M4.5,0C6.985,0,9,4.7,9,10.5S6.985,21,4.5,21,0,16.3,0,10.5,2.015,0,4.5,0Z" transform="translate(1775.5 715.5) rotate(90)"/>
    </g>
  </symbol>

  <symbol xmlns="http://www.w3.org/2000/svg" viewBox="0 0 24 24" id="download">
    <rect width="24" height="24" fill="red" opacity="0"/>
    <path d="M4971.664,7778.142h-1.5V7762.7h1.5Z" transform="translate(-4958.914 -7760.702)"/>
    <path d="M4974.21,7775.254l-7.163-7.163,1.061-1.061,6.1,6.1,6.1-6.1,1.061,1.061Z" transform="translate(-4962.211 -7756.754)"/>
    <path d="M1290.328,1008.185h-21.5v-4.75h1.5v3.25h18.5v-3.25h1.5Z" transform="translate(-1267.58 -985.435)"/>
  </symbol>

  <symbol xmlns="http://www.w3.org/2000/svg" viewBox="0 0 96 96" id="privacy">
    <g transform="translate(0.000000,96.000000) scale(0.100000,-0.100000)">
      <path d="M438 855 c-83 -46 -57 -169 38 -182 36 -5 46 -1 75 25 28 25 34 37 34 71 0 74 -82 122 -147 86z"/>
      <path d="M361 600 c-107 -49 -170 -135 -179 -245 -6 -81 16 -149 70 -210 68 -77 117 -92 164 -52 47 40 38 77 -34 150 -61 62 -74 91 -50 115 21 21 51 13 100 -28 l48 -41 66 71 c66 70 96 84 122 58 26 -26 12 -57 -63 -138 -42 -44 -80 -92 -85 -106 -21 -54 38 -114 96 -100 16 4 52 31 80 60 65 66 89 132 82 220 -9 107 -63 187 -160 235 -52 27 -72 31 -137 31 -54 0 -89 -6 -120 -20z"/>
    </g>
  </symbol>

  <symbol xmlns="http://www.w3.org/2000/svg" viewBox="0 0 24 24" id="guide">
    <g transform="translate(-1753 -708)">
      <rect width="24" height="24" transform="translate(1753 708)" fill="red" opacity="0"/>
      <path d="M-895-6313.5a8.51,8.51,0,0,0,8.5-8.5,8.51,8.51,0,0,0-8.5-8.5,8.51,8.51,0,0,0-8.5,8.5,8.448,8.448,0,0,0,1.494,4.814l.4.583-.475,1.66,1.684-.452.571.395a8.449,8.449,0,0,0,4.824,1.5m0,1.5a9.954,9.954,0,0,1-5.677-1.767l-2.72.729a.5.5,0,0,1-.61-.622l.766-2.676A9.954,9.954,0,0,1-905-6322a10,10,0,0,1,10-10,10,10,0,0,1,10,10A10,10,0,0,1-895-6312Z" transform="translate(2660 7042)"/>
      <path d="M2.172-2.256H3.624v-.132c0-2.2,2.184-1.7,2.184-3.984A2.515,2.515,0,0,0,3.036-8.88,2.572,2.572,0,0,0,.3-6.948l1.512.516a1.233,1.233,0,0,1,1.2-1.032A1.064,1.064,0,0,1,4.164-6.4c0,1.44-1.992,1.092-1.992,4.008ZM1.908-.828A.913.913,0,0,0,2.88.144a.917.917,0,0,0,.984-.972.911.911,0,0,0-.972-.984A.926.926,0,0,0,1.908-.828Z" transform="translate(1762.001 724)"/>
    </g>
  </symbol>

  <symbol xmlns="http://www.w3.org/2000/svg" viewBox="0 0 96 96" id="up-highest-bold">
    <path d="M40.349,86.7V15.46L67,42.507l5.7-5.615L36.35,0,0,36.892l5.7,5.615L32.349,15.46V86.7Z" transform="translate(11.65 4.65)"/>
  </symbol>

  <symbol xmlns="http://www.w3.org/2000/svg" viewBox="0 0 24 24.003" id="location">
    <g transform="translate(-936 -911.998)">
      <path transform="translate(936 912)" style="fill:none" d="M0 0h24v24H0z"/>
      <path d="M7.59 0a7.59 7.59 0 0 1 7.59 7.59c0 4.192-3.207 8.139-7.59 15.731C3.232 15.773 0 11.782 0 7.59A7.59 7.59 0 0 1 7.59 0z" transform="translate(940.186 911.998)"/>
      <circle cx="2.571" cy="2.571" r="2.571" transform="translate(945.328 917.201)" style="fill:#fff"/>
    </g>
  </symbol>

  <symbol xmlns="http://www.w3.org/2000/svg" viewBox="0 0 24 24" id="pin">
    <ellipse cx="5" cy="2.5" rx="5" ry="2.5" transform="translate(7 19)" fill="#f6f0f5"/>
    <rect width="2" height="13" transform="translate(11 9)" fill="#aaa"/>
    <circle cx="6.5" cy="6.5" r="6.5" transform="translate(5.5)" fill="#f36e6e"/>
    <circle cx="1.5" cy="1.5" r="1.5" transform="translate(12 2)" fill="#fff"/>
  </symbol>


  <symbol xmlns="http://www.w3.org/2000/svg" viewBox="0 0 23.774 23.773" id="user-bold">
    <path d="M0,23.774A11.89,11.89,0,0,1,9.171,12.2a6.4,6.4,0,1,1,5.431,0,11.89,11.89,0,0,1,9.172,11.575Z" stroke="none" transform="translate(0.001)"/>
  </symbol>

  <symbol xmlns="http://www.w3.org/2000/svg" viewBox="0 0 26.668 24" id="done-bold">
    <g transform="translate(-524.267 -787)">
      <rect width="24" height="24" transform="translate(526 787)" stroke="none" fill="none"/>
      <path d="M553.4,810.976l8.715,8.379,14.412-15.083" transform="translate(-27.398 -12.359)" fill="none" stroke-width="5"/>
    </g>
  </symbol>

  <symbol xmlns="http://www.w3.org/2000/svg" viewBox="0 0 24 24" id="setting-bold">
    <g transform="translate(-526 -787)">
      <path d="M21.78,6.291l-1.341.474a9.885,9.885,0,0,0-2.645-2.946l.567-1.253a1.056,1.056,0,0,0-.526-1.4L16.084.376a1.055,1.055,0,0,0-1.4.526l-.554,1.223a9.874,9.874,0,0,0-3.6-.174L10.1.7A1.055,1.055,0,0,0,8.749.061L6.935.7a1.056,1.056,0,0,0-.644,1.346l.44,1.247A9.876,9.876,0,0,0,4.04,5.688l-1.2-.6a1.055,1.055,0,0,0-1.417.468L.559,7.269a1.055,1.055,0,0,0,.468,1.417l1.228.619a9.882,9.882,0,0,0-.209,3.953L.7,13.732a1.055,1.055,0,0,0-.644,1.346L.7,16.892a1.055,1.055,0,0,0,1.346.644l1.389-.491a9.882,9.882,0,0,0,2.656,2.831l-.627,1.385a1.055,1.055,0,0,0,.526,1.4l1.752.793a1.055,1.055,0,0,0,1.4-.526l.641-1.415a9.875,9.875,0,0,0,3.429.134l.522,1.479a1.055,1.055,0,0,0,1.346.644l1.814-.64a1.055,1.055,0,0,0,.644-1.346L17.014,20.3A9.865,9.865,0,0,0,19.6,18.045l1.387.7a1.055,1.055,0,0,0,1.417-.468l.866-1.718a1.055,1.055,0,0,0-.468-1.417l-1.358-.684a9.878,9.878,0,0,0,.29-3.871l1.389-.491a1.055,1.055,0,0,0,.644-1.346l-.64-1.814a1.056,1.056,0,0,0-1.346-.644M12.569,13.77A2.091,2.091,0,1,1,13.845,11.1a2.091,2.091,0,0,1-1.276,2.668" transform="translate(526 787)" stroke="none"/>
    </g>
  </symbol>

  <symbol xmlns="http://www.w3.org/2000/svg" viewBox="0 0 40 40"  id="policy-user">
    <g transform="translate(-537.999 -789)">
      <line x2="9" y2="9" transform="translate(565 816)" fill="none" stroke="#aa5afa" stroke-linecap="square" stroke-width="5"/>
      <path d="M17.5,35h0A17.5,17.5,0,0,1,5.125,5.126,17.5,17.5,0,1,1,29.874,29.874,17.385,17.385,0,0,1,17.5,35Zm0-23.71a3.344,3.344,0,0,0-1.417,6.373A6.179,6.179,0,0,0,11.29,23.71H23.71a6.18,6.18,0,0,0-4.792-6.046A3.344,3.344,0,0,0,17.5,11.29Z" transform="translate(538 789)" fill="#aa5afa"/>
    </g>
  </symbol>

  <symbol xmlns="http://www.w3.org/2000/svg" viewBox="0 0 40 40"  id="policy-done">
    <g transform="translate(-538 -789)">
      <g transform="translate(541.998 789.002)">
        <path d="M6.9,31.89.405,20.179A3,3,0,0,1,1.574,16.1L2.6,15.533A3,3,0,0,1,6.677,16.7l1.462,2.637V3.034a3.034,3.034,0,0,1,6.069,0v10.2a3.311,3.311,0,0,1,6.522-.806,3.311,3.311,0,0,1,5.315,1.85,2.986,2.986,0,0,1,1.645-.491h.62a3,3,0,0,1,3,3V27.342q0,.149-.014.294A12.691,12.691,0,0,1,6.9,31.89Z" transform="translate(0 0)" fill="#aa5afa"/>
        <path d="M553.4,807.789l4.572,4.4,7.561-7.913" transform="translate(-541.397 -784.114)" fill="none" stroke="#fff" stroke-width="2.5"/>
      </g>
    </g>
  </symbol>

  <symbol xmlns="http://www.w3.org/2000/svg" viewBox="0 0 40 40" id="policy-setting">
    <g transform="translate(-538 -789)">
      <path d="M17.062,38.885h0A30.376,30.376,0,0,1,4.629,28.365,26.733,26.733,0,0,1,0,13.435V5.33A38.944,38.944,0,0,0,17.062,0a38.927,38.927,0,0,0,17.06,5.33v8.105a26.735,26.735,0,0,1-4.628,14.93A30.374,30.374,0,0,1,17.062,38.885Zm.789-14.508h0l.317.9a.646.646,0,0,0,.608.429.639.639,0,0,0,.214-.037l1.105-.391a.643.643,0,0,0,.392-.821l-.318-.9a5.987,5.987,0,0,0,1.575-1.376l.846.427a.642.642,0,0,0,.864-.285l.528-1.047a.643.643,0,0,0-.285-.864L22.871,20a6,6,0,0,0,.177-2.36l.847-.3a.646.646,0,0,0,.392-.822L23.9,15.41a.642.642,0,0,0-.821-.392l-.817.289a6,6,0,0,0-1.613-1.8l.346-.764a.645.645,0,0,0-.321-.851L19.6,11.41a.635.635,0,0,0-.264-.057.646.646,0,0,0-.587.379l-.337.745a6.075,6.075,0,0,0-1.383-.161,5.954,5.954,0,0,0-.81.055l-.268-.761a.645.645,0,0,0-.607-.429.639.639,0,0,0-.214.037l-1.106.391a.644.644,0,0,0-.392.821l.268.76a6.008,6.008,0,0,0-1.641,1.46l-.731-.368a.643.643,0,0,0-.864.284l-.528,1.048a.645.645,0,0,0,.285.864l.749.377a6,6,0,0,0-.127,2.41l-.818.289a.645.645,0,0,0-.392.821l.391,1.106a.642.642,0,0,0,.821.392l.847-.3a6,6,0,0,0,1.62,1.726l-.383.844a.643.643,0,0,0,.32.851l1.068.483a.642.642,0,0,0,.851-.32l.391-.863a6.025,6.025,0,0,0,2.09.082Zm-.815-4.728a1.276,1.276,0,1,1,.424-.073A1.277,1.277,0,0,1,17.036,19.65Z" transform="translate(540.975 789.555)" fill="#aa5afa"/>
    </g>
  </symbol>

  <symbol xmlns="http://www.w3.org/2000/svg" viewBox="0 0 96 96" id="california">
    <g transform="translate(-435 -3630)">
      <path d="M35.942,70.886,35.874,71l.206-.232s.056.279.81.112a1.266,1.266,0,0,0,.893-1.535c-.586-.084-.307,0-.586-.084s-.726-.642-.558-1.675.391-1.34,1.284-1.591.586-.893.67-1.312.251-2.261,1.954-2.6c.586-.7.642-.837.056-1.675s-.307-1.368-.447-1.647-.893-1.061-.865-1.452a4.042,4.042,0,0,1,.112-.7s-1.228-1.787-1.954-3.015-6.253-9.574-7.4-11.3S23.1,31.549,22.43,30.433s-3.573-5.667-4.1-6c.2-1.061,2.261-7.76,2.68-9.407S23.183,5.59,23.183,5.59,15.4,3.44,14.2,3.077C13.114,2.75,5.368.451,3.848,0c-.026.168-.438,2.861-.659,4.374A7.7,7.7,0,0,1,1.067,8.223,3.4,3.4,0,0,0,0,10.751c-.025,1.016.9,2.325,1.092,3.138a4.908,4.908,0,0,1,.152,1.651,35.9,35.9,0,0,1-.953,4.6,27.119,27.119,0,0,1,2.147,4.116,4.677,4.677,0,0,1,.038,2.528,21.634,21.634,0,0,0,1.637,1.824c.221-1.381.994-1.185,1.1-1.031a2.043,2.043,0,0,1,.2,1.786c-.108.277.737,1.546-.055,1.657-.273.038-.7-1.688-1.289-1.491-.055.182-.2.453-.266.634a8.222,8.222,0,0,0-.076,2.909c.114.724.915,1.27,1.283,1.664a1.791,1.791,0,0,1,.648,1.308c.013.61-1.092,1.423-1.092,1.423a7.061,7.061,0,0,0,.191,2.261c.279.483.711.407.838,1.41A10.8,10.8,0,0,0,6.758,44.5a7.518,7.518,0,0,1,1.321,2.3,2.716,2.716,0,0,0,.635,1.3,1.256,1.256,0,0,0-.051.445c0,.33-.622,3.354-.622,3.354l.635.851a4.8,4.8,0,0,1,1.651.076,17.789,17.789,0,0,0,2.236,1.283,1.273,1.273,0,0,0,.953-.127c.457.279,1.016,2.731,2.376,3.493a5.438,5.438,0,0,0,2.02.381,2.42,2.42,0,0,1,.356,1.563,1.236,1.236,0,0,0,.076.813s1.016.216,1.3.33a16.6,16.6,0,0,1,2.325,2.769,6.725,6.725,0,0,1,1.042,2.591,29.962,29.962,0,0,1,.051,3.277s3.477.28,4.928.331,6.718.928,6.718.928l1.317.3-.076.126" transform="translate(462.199 3643)"/>
    </g>
  </symbol>

  <symbol xmlns="http://www.w3.org/2000/svg" viewBox="0 0 96 96" id="eu">
    <g transform="translate(-929 -3583)" clip-path="url(#clip-path)">
      <g transform="translate(906.442 3583.295)">
        <path d="M146.86,96.933l1.188,3.655h3.843l-3.109,2.259,1.188,3.655-3.109-2.259L143.75,106.5l1.188-3.655-3.109-2.259h3.843Z" transform="translate(-103.154 -70.523)"/>
        <path d="M187.577,55.5l1.188,3.655h3.843L189.5,61.415l1.188,3.655-3.109-2.259-3.109,2.259,1.188-3.655-3.109-2.259h3.843Z" transform="translate(-132.759 -40.399)"/>
        <path d="M245.572,39.87l1.188,3.655H250.6l-3.109,2.259,1.188,3.655-3.109-2.259-3.109,2.259,1.188-3.655-3.109-2.259h3.843Z" transform="translate(-174.925 -29.034)"/>
        <path d="M302.9,55.576l1.188,3.655h3.843l-3.109,2.259,1.188,3.655L302.9,62.887,299.8,65.146l1.188-3.655-3.109-2.259h3.843Z" transform="translate(-216.61 -40.454)"/>
        <path d="M345.134,97.8l1.188,3.655h3.843l-3.109,2.259,1.188,3.655-3.109-2.259-3.109,2.259,1.188-3.655-3.109-2.259h3.843Z" transform="translate(-247.314 -71.151)"/>
        <path d="M360.767,155.778l1.187,3.655H365.8l-3.109,2.259,1.188,3.655-3.109-2.259-3.109,2.259,1.188-3.655-3.109-2.259h3.843Z" transform="translate(-258.68 -113.308)"/>
        <path d="M345.073,213.962l1.187,3.655H350.1l-3.109,2.259,1.188,3.655-3.109-2.259-3.11,2.259,1.188-3.655-3.11-2.259h3.843Z" transform="translate(-247.27 -155.612)"/>
        <path d="M302.856,255.9l1.187,3.655h3.843l-3.109,2.259,1.188,3.655-3.109-2.259-3.11,2.259,1.188-3.655-3.11-2.259h3.843Z" transform="translate(-216.575 -186.105)"/>
        <path d="M245.711,271.246,246.9,274.9h3.844l-3.109,2.259,1.188,3.655-3.109-2.259-3.11,2.259,1.188-3.655L240.68,274.9h3.843Z" transform="translate(-175.026 -197.262)"/>
        <path d="M187.717,255.6l1.188,3.655h3.843l-3.109,2.259,1.188,3.655-3.109-2.259-3.109,2.259,1.188-3.655-3.109-2.259h3.843Z" transform="translate(-132.86 -185.889)"/>
        <path d="M146.348,213.676l1.187,3.655h3.843l-3.109,2.259,1.188,3.655-3.109-2.259-3.11,2.259,1.188-3.655-3.11-2.259h3.843Z" transform="translate(-102.782 -155.404)"/>
        <path d="M130.371,154.712l1.2,3.691h3.881l-3.14,2.281,1.2,3.691-3.14-2.282-3.14,2.282,1.2-3.691-3.14-2.281h3.881Z" transform="translate(-91.13 -112.533)"/>
      </g>
    </g>
  </symbol>

  <symbol xmlns="http://www.w3.org/2000/svg" viewBox="0 0 96 96" id="brazil">
    <g transform="translate(-1394 -3630)">
      <path d="M71.38,18.7c-.383.3-.229.389-.131.725.108.368-.082.482-.195.665-.189.31-.266.736-.5,1.064A4.726,4.726,0,0,1,69.61,22.2c-.78.574-.6.453-1.039.753a1.867,1.867,0,0,0-.477.426c-.287.3-.611.346-.812.573a3.839,3.839,0,0,0-.252.383,3.527,3.527,0,0,0-.6,1.192,4.491,4.491,0,0,1-.6.878,2.77,2.77,0,0,1-1.011.686,4.029,4.029,0,0,1-.415.1.757.757,0,0,0-.348.313c.054.154.111.286.017.407a2.085,2.085,0,0,0-.2.227.243.243,0,0,0,.122.166c.561.3.165.543.213,1a8.3,8.3,0,0,1,.161,2.257,3.044,3.044,0,0,0-.058,1,1.057,1.057,0,0,1-.2.738.968.968,0,0,0-.088.221c-.017.083,0,.078.069.29.142.443.016.586-.406.829-.254.316-.285.393-.333.451-.486.608.531,1.566-.134,2.2a9.122,9.122,0,0,0-1.019,1.16c.216.509-.377.491-.487.771a.9.9,0,0,1-.2.4,1.259,1.259,0,0,0-.226.306.134.134,0,0,0-.008.133c.1.232.562.554.287.848a15.669,15.669,0,0,1-1.61.719.317.317,0,0,0-.185.215c-.032.169.021.327-.314.457-.491.191-.986-.09-1.366.084-.451.2-1.114.086-1.026-.366-.213.294-.3.3-.7.449-.34.126-.956.345-1.256.153a.417.417,0,0,1,.134-.28.288.288,0,0,1,.054-.024,3.9,3.9,0,0,0-.716.171c.076.032.384.174.393.256.017.181-.3.27-.766.527-.3.163-.554.342-.548.673-.868.252-.725-.34-1.4.186a1.368,1.368,0,0,1-.92.323.314.314,0,0,0-.119.042,6.727,6.727,0,0,1-1.142.9,2.414,2.414,0,0,0-.86.678c-.2.205-.48.482-.761.482a2.287,2.287,0,0,0-.381.2c.257.186.253.484-.037.6a.551.551,0,0,1,.124.256,4.2,4.2,0,0,0-.5.21.052.052,0,0,0-.032.06c.005.106.114.341.153.541.071.361.025.75.237.987a1.624,1.624,0,0,1,.343,1.112c0,.122-.022.161-.087.21a2.028,2.028,0,0,0-.477.764c-.162.669-.445.464-1.252,1.739a15.905,15.905,0,0,1-1.646,2.827,7.731,7.731,0,0,1-.519.583,7.558,7.558,0,0,1-1.45,1.135.625.625,0,0,1-.593,0,.286.286,0,0,1,.094.243.988.988,0,0,1-.089.195,2.534,2.534,0,0,0-.246.542c-.17.453-.364,1.166-.363,1.162-.072.258-.569,1.052-1.038,1.078a3.042,3.042,0,0,0-.383-.439,3.3,3.3,0,0,1-.228-.476c-.06-.351.236-.406.307-.707.093-.149.083-.285-.154-.423-.474-.273-.9-1.149-1.535-1.348a1.432,1.432,0,0,0-.653.021.551.551,0,0,0-.255-.6c-.818-.377-.68-.134-1.265-.691-.055-.053-.109-.1-.163-.145-.068-.086-.174-.2-.284-.2a2.14,2.14,0,0,1-.452.275.243.243,0,0,1-.068.009,8.24,8.24,0,0,1-.792-.978c-.194-.192-.5-.3-.726-.538a.851.851,0,0,0-.467-.286l-.039,0a10.48,10.48,0,0,1-1.131.153c-.075-.431.466-.737.968-1.473.24-.352.219-.347.307-.386s.215-.053.247-.1a1.131,1.131,0,0,1,.022-.389,4.4,4.4,0,0,1,.509-.62.377.377,0,0,1,.141-.094c.146-.052.323.03.494-.094.083-.059-.044-.3.026-.373.047-.047.331-.134.408-.188a19.492,19.492,0,0,1,2.474-1.4c.181-.058.328-.059.443-.1.109,0,.168-.043.176-.16.086-.157-.038-.473-.059-.627s-.038-.306-.056-.468a3.5,3.5,0,0,0-.362-1.305c-.02-.122.012-.185-.146-.224a1.688,1.688,0,0,0-.933.006.546.546,0,0,0-.1.074c.075-.31.1-.457.143-.646.229-.357.026-.857.057-1.283a.98.98,0,0,1,.213-.481c-.3-.021-.393-.205-.654-.285-.463-.147-.7.1-.924.171-.8.258-.815-1.078-1.077-1.866-.051-.2-.18-.679-.38-.73a1.133,1.133,0,0,0-.709-.323,1.294,1.294,0,0,0-.546.189,1.427,1.427,0,0,1-.856-.045c-.883-.146-1.6-.007-1.828-.1a1.078,1.078,0,0,1-.082-.39c.089-.277-.061-.459.031-.778.021-.075.057-.179.087-.28a1.551,1.551,0,0,0-.033-.509.4.4,0,0,0-.126-.188c-.26-.369-.1-.572-.244-.719-.111-.116-.317-.128-.311-.33a4.841,4.841,0,0,1,.248-1.128c.247-.379.738-.9.717-1.224a2.962,2.962,0,0,0-.043-.3,1.162,1.162,0,0,0-.2-.7,1.823,1.823,0,0,0-.753-1.009c-.938-.208-.966-.129-.908-.75a4.823,4.823,0,0,0-.142-.961,21.956,21.956,0,0,0-3.158-.088c-.011-.122-.02-.225-.031-.316-.106-.86-.589-.858-.566-1.484.165-.265.012-.482-.032-.654.009-.566.233-.869-.256-1.1a1.584,1.584,0,0,0-.687-.239c-.241.018-.52.079-.744.079-.482-.146-.673-.226-.922-.283-.192-.042-.118-.247-.168-.376a.153.153,0,0,0-.106-.1c-.139-.042-.294-.077-.451-.109a4,4,0,0,1-1.16-.311c-.145-.148-.37-.421-.551-.473-.921-.252-1.072-.308-1.237-.341-.1,0-.249-.009-.344,0a.685.685,0,0,0-.451.237c-.35-.286-1.132-.472-1.39-.763a.42.42,0,0,1-.07-.183c-.05-.249-.008-.273-.286-.333a.635.635,0,0,1-.38-.852c.087-.161-.044-.412-.123-.591-.046-.2.022-.289.186-.521.06-.089-.043-.493-.088-.633-.012-.111-.032-.315-.118-.377-.41.021-.447.051-.587.045-.187-.009-.177-.074-.331-.1a4.556,4.556,0,0,0-1.56.3,3.038,3.038,0,0,0-.877.445c-.337.227-.232.543-.5.7a2.6,2.6,0,0,1-.6.1,1.845,1.845,0,0,0-.381.093c-.056.02-.11.041-.163.063a3.945,3.945,0,0,0-.608.206,5.433,5.433,0,0,1-2.005.077,1.971,1.971,0,0,0-.775,0,2.114,2.114,0,0,1-.49.075l-.109.013c-.448-.2-.407-.537-.415-1.09a2.182,2.182,0,0,1,0-.262,4.77,4.77,0,0,1,.156-.721c.064-.079.116-.162.076-.255a2.4,2.4,0,0,0-1.514.612c-.338.177-.637.111-1.215.056-.223-.021-.436,0-.577-.122-.273-.234-.008-.879-1.082-.879-.39,0-.835.078-1.108.1.3-.286.452-.372.369-.561A7.3,7.3,0,0,0,.11,19.715.877.877,0,0,1,0,19.563a4.479,4.479,0,0,1,.088-.625c.006-.27-.041-.839.23-1.017a.812.812,0,0,1,.346-.112c.3-.038.272,0,.5-.129.429-.235.059-.472-.063-.706.23-.47.268-.536.289-.6a.95.95,0,0,0,.235-.668c-.046-.4.465-.313,1.065-.684.4-.248.287-.275,1.53-.56.264-.061.283-.065,1.124-.283.177-.047.164-.106.21-.145a1.314,1.314,0,0,1,.822.028.7.7,0,0,0,.508.29c.18-.071.212-.19.17-.368A18.8,18.8,0,0,0,8.427,9.971c.04-.3.219-.606-.359-1.021a3.049,3.049,0,0,0-.626-.492,1.539,1.539,0,0,1-.38-.569c-.051-.333-.109-.547.3-.659.236-.063.443-.136.621-.171a1.271,1.271,0,0,1,.709.154c-.238-.524.168-.466.047-.65-.032-.048-.07-.134-.111-.2-.136-.212-.247-.119-.552-.215a.485.485,0,0,1-.293-.2c-.394-1.011,1.161-.568,1.942-.69.259-.041.384-.123.6-.16a2.109,2.109,0,0,1,.239.035.579.579,0,0,0,.462-.089c.023-.021.04-.044.059-.065a.663.663,0,0,1,.58-.1.543.543,0,0,1,.159.09A1.722,1.722,0,0,1,12.139,6a.914.914,0,0,0,.4-.041,6.7,6.7,0,0,0,1.786.85,1.468,1.468,0,0,0,.54.013,1.785,1.785,0,0,0,.718-.408c.223-.149.213-.118.637-.364A9.215,9.215,0,0,1,17.4,5.421c.138-.056.161-.241.238-.374a3.247,3.247,0,0,1,.31-.232c.27-.163.937-.091,1.171-.4a.28.28,0,0,0-.143-.243c-.357-.2-1.527.113-1.685-.335a.525.525,0,0,1,.007-.3c.022-.087-.086-.2-.133-.287.113-.26.523-.589.442-.763-.226-.478-.9-.474-1.086-.95a7.539,7.539,0,0,0,2.425.39c.227-.011.258-.028.46-.028a4.294,4.294,0,0,0,.7-.027c.416-.07.531-.345.975-.467.437,0,.506.178,1.043-.033.218-.053.488-.114.74-.182a1.938,1.938,0,0,0,.839-.3c.392-.2.651-.471.508-.885.389.168.255.191.611.068A.586.586,0,0,1,25.227.2c.324.38.151.641-.187,1.006.234.14.65.034.745.206s.186.318.388.318c.091.02.158.054.135.144a1.528,1.528,0,0,1-.118.249,7.915,7.915,0,0,0-.67,1.03,2.449,2.449,0,0,0-.074,1.3,3.406,3.406,0,0,0,.57.474c.217.223.274.432.412.569a1.98,1.98,0,0,0,.737.493.494.494,0,0,0,.213.071c.357-.255.315-.145.777-.21a1.059,1.059,0,0,0,.221-.051.242.242,0,0,0,.154-.135c.189-.094.247-.177.357-.225a4.656,4.656,0,0,1,.623-.024c.632-.589.635-.622,1.476-.565a8.991,8.991,0,0,1,1.641.2A1.108,1.108,0,0,0,33,5.014c.064-.031.056-.083.021-.145a1.2,1.2,0,0,0-.374-.527c-.136-.2-.123-.34.078-.473.17-.068.048-.032,1.5-.075a5.074,5.074,0,0,1,.559.007,2.217,2.217,0,0,0,.679.208,1.867,1.867,0,0,0,.274.583A.233.233,0,0,0,36,4.826c.534-.125.718-.194.848-.2.312.039.2.374.323.514a.407.407,0,0,0,.445-.082c.154-.114.157-.233.291-.314a.55.55,0,0,0,.326-.084c.626-.549.672-1.385,1.209-1.937.166-.17.424-.381.637-.6a3.84,3.84,0,0,0,.455-.436.623.623,0,0,0,.043-.273c.976.278.529,1.094,1.121,1.762a4.665,4.665,0,0,1,.69,1.194.5.5,0,0,1,.02-.189c.47.022.822.407.768.635.139.123.314.178.415.268.271.247-.057.565-.05.7,0,.051.048.084.092.111a3.2,3.2,0,0,1-.919,1.042c-1.273,1.137-1.388.694-1.791,1.356-.08.131-.176.313-.27.454a.856.856,0,0,1,.317-.057.673.673,0,0,1,.062.537A2.393,2.393,0,0,1,41.67,8.8a.394.394,0,0,0-.352-.022c-.012-.646.283-1.05.939-1.05a.476.476,0,0,1-.217.612c.108.224.04.337-.149.41a.327.327,0,0,1,.217.073.554.554,0,0,1,.227-.127c-.213-.3-.124-.646.384-.821a.535.535,0,0,1-.322-.2l.008-.257c.21-.166.211-.306.3-.44a1.039,1.039,0,0,1,.792-.388c.11.469-.158.413-.37.67.086.015.785-.112.937.116.093.14-.043.4-.351.4a5.315,5.315,0,0,1-.6-.049.781.781,0,0,1-.129-.032.277.277,0,0,1-.068-.034,5.5,5.5,0,0,0,1.276.428,3.064,3.064,0,0,0-.293-.1.829.829,0,0,1,.788-.4.416.416,0,0,1,.178.1c.047.085,0,.173-.061.249a1,1,0,0,1,.806-.021,2.149,2.149,0,0,0,.277.14c.269.1.878.162.4.706-.033.135-.052.236-.081.319-.061.174-.142.209-.279.346a.34.34,0,0,0-.122.311,1.012,1.012,0,0,0,.362-.113,2,2,0,0,0,.42-.293c.116-.144.076-.449.558-.619a.556.556,0,0,1,.578.1,4.048,4.048,0,0,0,.426-.119.731.731,0,0,1,.333.129c.283-.187.646.111.884.2.106.04.383.072.513.1a.609.609,0,0,1,.4.261c.441-.212,1.12.366,1.416.739.352-.152.912-.591,1.354-.035.306.387.77.505.429.931a2.508,2.508,0,0,1-.071.946c.067-.142.19-.353.338-.406a1.548,1.548,0,0,0,.9-.284c.281-.021.11-.208.359-.269a8.775,8.775,0,0,1,2.133.468c.353.067.249.009.5,0a.366.366,0,0,1,.308.108,3.061,3.061,0,0,1,1.095.155.894.894,0,0,1,.134.083c.279-.328.592-.086.915-.123.191-.022.63-.12.813-.12a8.4,8.4,0,0,1,1.139.207l1.033.584c.008,0,.272-.032.282-.032a.968.968,0,0,1,.451.245l.371.255c.585.338.318.284,1.294,1.105.446.371.441.059,1.185.593a1.59,1.59,0,0,0,.453.261c.418.066.521.368.7.368a2.609,2.609,0,0,1,2.014.177c.358.15.536.04.535.938,0,.293.261.551.408.8A3.6,3.6,0,0,1,71.38,18.7M44.352,55.684c.277-.553.351-.68.464-.708,0,0-.318-.075-.4-.086a.167.167,0,0,1-.14-.011,4.506,4.506,0,0,1-.426-.48s0,.009,0,.011c-.016.216.092.2.2.364a.507.507,0,0,1,.076.278c-.012.168-.146.25-.29.323-.175.087-.179.109-.213.225-.085.284-.171.758-.423.951a.434.434,0,0,1-.47.03c-.14.386-.7.583-.7.873,0,.057.193.2.236.239-.108-.164-.018-.382.354-.434a.121.121,0,0,0,.04-.023c.187-.143.415-.537.8-.537.207-.013.131-.325.2-.473a.3.3,0,0,1,.291-.146l.228-.056c.037-.052.128-.238.18-.342m.307-44.79a1.51,1.51,0,0,1,.645-.808,2.626,2.626,0,0,1-.657.162.649.649,0,0,1-.174-.041c-.165-.025-.3.218-.588.3-.227.061-.285-.056-.74.047.089,0,.237-.007.387.006a2.02,2.02,0,0,0,.279.03c.275,0,.407-.091.535-.056a.387.387,0,0,1,.15.074c.1.119.006.324-.058.47a.333.333,0,0,0,.012.182c0,.016.008.034.011.05.078-.143.134-.267.2-.413M64.681,26.607a1.326,1.326,0,0,0,.136-.11.94.94,0,0,0-.288-.145s-.005.015-.01.041c-.011.069,0,.13-.006.16a.143.143,0,0,1-.17.1.489.489,0,0,1,.079.2,1.008,1.008,0,0,1,.26-.249" transform="translate(1406.81 3649)"/>
    </g>
  </symbol>

  <symbol xmlns="http://www.w3.org/2000/svg" viewBox="0 0 16 16" id="scroll-prev">
    <path d="m1609.841 665.294 6.276 6.276 6.276-6.276" transform="rotate(90 1142.206 -466.136)" style="fill:none;stroke-width:1.5px"/>
  </symbol>

  <symbol xmlns="http://www.w3.org/2000/svg" viewBox="0 0 16 16" id="scroll-next">
    <path d="m1609.841 665.294 6.276 6.276 6.276-6.276" transform="rotate(-90 481.55 1142.345)" style="fill:none;stroke-width:1.5px"/>
  </symbol>

  <symbol xmlns="http://www.w3.org/2000/svg" viewBox="0 0 40 40" id="status-register">
    <rect width="31.583" height="5.402" rx="2.701" transform="translate(4.156 0.928)" fill="#2189ff"/>
    <path d="M1247.9,541.559V576.9l3.221-3.771,3.221,3.771,3.221-3.771,3.221,3.771,3.22-3.771,3.221,3.771,3.221-3.771,3.221,3.771V541.559Z" transform="translate(-1240.832 -537.93)" fill="#84bcff"/>
    <rect width="16.618" height="1.5" rx="0.75" transform="translate(11.639 13.648)" fill="#fff"/>
    <rect width="9.835" height="1.5" rx="0.75" transform="translate(11.639 19.192)" fill="#fff"/>
  </symbol>

  <symbol xmlns="http://www.w3.org/2000/svg" viewBox="0 0 40 40" id="status-processing">
    <path d="M9839-11441h-12a4,4,0,0,1-4-4v-24a4,4,0,0,1,4-4h30a4,4,0,0,1,4,4v24a4,4,0,0,1-4,4h-12l-3,5Z" transform="translate(-9822 11475)" fill="#84bcff"/>
    <path d="M9837-11471a2,2,0,0,1,2-2,2,2,0,0,1,2,2,2,2,0,0,1-2,2A2,2,0,0,1,9837-11471Zm-7,0a2,2,0,0,1,2-2,2,2,0,0,1,2,2,2,2,0,0,1-2,2A2,2,0,0,1,9830-11471Zm-7,0a2,2,0,0,1,2-2,2,2,0,0,1,2,2,2,2,0,0,1-2,2A2,2,0,0,1,9823-11471Z" transform="translate(-9812 11489)" fill="#fff"/>
  </symbol>

  <symbol xmlns="http://www.w3.org/2000/svg" viewBox="0 0 40 40" id="status-complete">
    <path d="M2,31a2.016,2.016,0,0,1-2-2.033V2.033A2.017,2.017,0,0,1,2,0H12.911L16,4.066H38A2.016,2.016,0,0,1,40,6.1V28.967A2.016,2.016,0,0,1,38,31Z" transform="translate(0 4)" fill="#84bcff"/>
    <ellipse cx="8" cy="8.5" rx="8" ry="8.5" transform="translate(12 14)" fill="#fff"/>
    <path d="M15892.385-7685.418l-3.237-3.174a1,1,0,0,1-.014-1.414,1,1,0,0,1,1.414-.014l1.685,1.652,3.166-3.818a1,1,0,0,1,1.408-.132,1,1,0,0,1,.131,1.408Z" transform="translate(-15873.092 7711.627)" fill="#2189ff"/>
  </symbol>

  <symbol xmlns="http://www.w3.org/2000/svg" viewBox="0 0 64 64" id="nodata">
    <path d="M42,64H6a6.006,6.006,0,0,1-6-6V6A6.007,6.007,0,0,1,6,0H36.929L48,11.072V58A6.007,6.007,0,0,1,42,64Z" transform="translate(8 0)" fill="#b7d8ff"/>
    <path d="M5858.633-11609.354l-4.611-4.608a1.78,1.78,0,0,1,0-2.516,1.777,1.777,0,0,1,2.514,0l4.61,4.61a1.777,1.777,0,0,1,0,2.514,1.772,1.772,0,0,1-1.256.521A1.773,1.773,0,0,1,5858.633-11609.354ZM5843.12-11672l11.3,11.3-11.767.469Z" transform="translate(-5798.404 11672)" fill="#0054b7"/>
    <path d="M5837-11659.759a12.241,12.241,0,0,1,12.242-12.241,12.24,12.24,0,0,1,12.238,12.241,12.188,12.188,0,0,1-1.83,6.441l.189.19a2.961,2.961,0,0,1,0,4.188,2.965,2.965,0,0,1-4.192,0l-.243-.243a12.178,12.178,0,0,1-6.163,1.664A12.241,12.241,0,0,1,5837-11659.759Z" transform="translate(-5802.502 11706.178)" fill="#2189ff"/>
    <path d="M5856.322-11649.58a9.415,9.415,0,0,1,9.415-9.417,9.415,9.415,0,0,1,9.417,9.417,9.415,9.415,0,0,1-9.417,9.415A9.415,9.415,0,0,1,5856.322-11649.58ZM5860-11669a3,3,0,0,1,3-3,3,3,0,0,1,3,3,3,3,0,0,1-3,3A3,3,0,0,1,5860-11669Zm-11,0a3,3,0,0,1,3-3,3,3,0,0,1,3,3,3,3,0,0,1-3,3A3,3,0,0,1,5849-11669Zm-12,0a3,3,0,0,1,3-3,3,3,0,0,1,3,3,3,3,0,0,1-3,3A3,3,0,0,1,5837-11669Z" transform="translate(-5819 11696)" fill="#fff"/>
  </symbol>

  <symbol xmlns="http://www.w3.org/2000/svg" viewBox="0 0 24 24" id="information-download">
    <g transform="translate(-1753 -708)">
      <rect width="24" height="24" transform="translate(1753 708)" fill="red" opacity="0"/>
      <g>
        <path d="M1.5,1.5v19h15V6.121L11.879,1.5H1.5M.5,0h12L18,5.5v16a.5.5,0,0,1-.5.5H.5a.5.5,0,0,1-.5-.5V.5A.5.5,0,0,1,.5,0Z" transform="translate(1756 709)"/>
        <g transform="translate(492 -277.631)">
          <path d="M4971.664,7768.7h-1.5v-6h1.5Z" transform="translate(-3698 -6770)"/>
          <path d="M4971.015,7772.059l-3.967-3.967,1.061-1.061,2.907,2.907,2.906-2.907,1.061,1.061Z" transform="translate(-3698 -6771.297)"/>
        </g>
        <path d="M4974.577,7773.171h-7v-1.5h7Z" transform="translate(-3206 -7047.491)"/>
      </g>
    </g>
  </symbol>
  <symbol xmlns="http://www.w3.org/2000/svg" viewBox="0 0 24 24" id="trash-box">
    <g transform="translate(-1753 -708)">
      <rect id="area" width="24" height="24" transform="translate(1753 708)" fill="red" opacity="0"/>
      <g>
        <path d="M1.5,1.5v2h7v-2h-7M0,0H10V5H0Z" transform="translate(1760 709)"/>
        <rect width="20" height="1.5" transform="translate(1755 712.5)"/>
        <path d="M.561,1.5l.882,15H13.556l.882-15H.561M-.5,0h16a.5.5,0,0,1,.5.5l-1,17a.5.5,0,0,1-.5.5H.5a.5.5,0,0,1-.5-.5L-1,.5A.5.5,0,0,1-.5,0Z" transform="translate(1757.5 712.5)"/>
        <rect width="1.5" height="6" transform="translate(1762 718)"/>
        <rect width="1.5" height="6" transform="translate(1767 718)"/>
      </g>
    </g>
  </symbol>
  <symbol xmlns="http://www.w3.org/2000/svg" viewBox="0 0 24 24" id="no-alarm">
    <g transform="translate(-1753 -708)">
      <rect width="24" height="24" transform="translate(1753 708)" fill="red" opacity="0"/>
      <path d="M2417-9814.5a4.5,4.5,0,0,1,4.5-4.5,4.5,4.5,0,0,1,4.5,4.5,4.5,4.5,0,0,1-4.5,4.5A4.5,4.5,0,0,1,2417-9814.5Zm4.5,3a3,3,0,0,0,3-3,2.98,2.98,0,0,0-.308-1.323l-4.016,4.017A2.979,2.979,0,0,0,2421.5-9811.5Zm-3-3a2.986,2.986,0,0,0,.537,1.713l4.174-4.175a2.991,2.991,0,0,0-1.713-.537A3,3,0,0,0,2418.5-9814.5Z" transform="translate(-651 10529)"/>
      <path d="M2422.627-9801h-5.151a.477.477,0,0,1-.476-.476l1.9-3.79v-6.158a7.6,7.6,0,0,1,7.6-7.58,7.523,7.523,0,0,1,3.423.813,4.445,4.445,0,0,0-1.129,1.134,6.091,6.091,0,0,0-2.294-.446,6.1,6.1,0,0,0-6.1,6.079v6.516l-1.208,2.405h14.613l-1.208-2.405V-9810a4.408,4.408,0,0,0,1.5-.293v5.029l1.9,3.79a.477.477,0,0,1-.476.476h-5.151a4,4,0,0,1-3.873,3A4,4,0,0,1,2422.627-9801Zm3.873,1.5a2.505,2.505,0,0,0,2.291-1.5h-4.58A2.5,2.5,0,0,0,2426.5-9799.5Z" transform="translate(-662 10528.999)"/>
    </g>
  </symbol>

  <symbol xmlns="http://www.w3.org/2000/svg" viewBox="0 0 24 24" id="my">
    <rect width="24" height="24" opacity="0"/>
    <g transform="translate(-1631 -27.7)">
      <path d="M4.687,1.5A3.187,3.187,0,1,0,7.875,4.687,3.191,3.191,0,0,0,4.687,1.5m0-1.5A4.687,4.687,0,1,1,0,4.687,4.687,4.687,0,0,1,4.687,0Z" transform="translate(1638.813 30)"/>
      <path d="M13.5,6.938h0V3.375c0-.114-.311-.568-1.312-1.019A11.962,11.962,0,0,0,7.5,1.5a11.959,11.959,0,0,0-4.687.856c-1,.451-1.312.9-1.312,1.019V6.938h12m0,1.5H1.5A1.5,1.5,0,0,1,0,6.937V3.375C0,1.511,3.358,0,7.5,0S15,1.511,15,3.375V6.937A1.5,1.5,0,0,1,13.5,8.438Z" transform="translate(1636 41.25)"/>
    </g>
  </symbol>

  <symbol xmlns="http://www.w3.org/2000/svg" viewBox="0 0 64 64" id="guide-download">
    <circle cx="32" cy="32" r="32" fill="#b7d8ff"/>
    <path d="M1.5,27.568A1.5,1.5,0,0,1,0,26.07V23.689a9.593,9.593,0,0,1,19.178,0V26.07a1.5,1.5,0,0,1-1.5,1.5ZM3,6.593a6.592,6.592,0,1,1,6.592,6.592A6.6,6.6,0,0,1,3,6.593Z" transform="translate(22.341 18.285)" fill="#fff"/>
    <path d="M12.751,0A12.751,12.751,0,1,1,0,12.751,12.751,12.751,0,0,1,12.751,0Z" transform="translate(38.252 38.252)" fill="#2189ff"/>
    <g transform="translate(46.62 45.854)">
      <path d="M4970.914,7762.7v9.563" transform="translate(-4966.531 -7762.704)" fill="none" stroke="#fff" stroke-linecap="round" stroke-width="2"/>
      <path d="M1950.284,637.768l4.383,3.921,4.383-3.921" transform="translate(-1950.284 -631.393)" fill="none" stroke="#fff" stroke-linecap="round" stroke-width="2"/>
    </g>
  </symbol>

  <symbol xmlns="http://www.w3.org/2000/svg" viewBox="0 0 64 64" id="guide-step-download">
    <path d="M64,8V40a8,8,0,0,1-8,8H8a8,8,0,0,1-8-8V8A8,8,0,0,1,8,0H56A8,8,0,0,1,64,8Z" transform="translate(0 8)" fill="#b7d8ff"/>
    <path d="M-12.467.168c2.254,0,3.178-1.456,3.178-2.548,0-1.638-1.484-2.058-2.8-2.38-1.176-.28-2.114-.462-2.114-1.26,0-.672.588-1.218,1.68-1.218a2.569,2.569,0,0,1,2.072.952l1.05-.728a3.88,3.88,0,0,0-3.122-1.358c-1.848,0-3.01,1.134-3.01,2.38,0,1.61,1.414,2.044,2.758,2.366,1.106.252,2.17.42,2.17,1.26,0,.728-.616,1.358-1.82,1.358a2.811,2.811,0,0,1-2.352-1.26l-1.134.742A4.012,4.012,0,0,0-12.467.168Zm4.088-7.154h1.428v3.822C-6.951-.7-6.307,0-3.913,0h.2V-1.26c-1.61,0-1.918-.266-1.918-1.918V-6.986h1.918v-1.2H-5.635v-2.464l-1.316.91V-8.19H-8.379ZM1.491.168A4.088,4.088,0,0,0,5.355-2.156l-1.134-.6a2.886,2.886,0,0,1-2.73,1.736A2.9,2.9,0,0,1-1.533-3.64H5.621V-4.2a4.033,4.033,0,0,0-4.2-4.158A4.2,4.2,0,0,0-2.835-4.046,4.1,4.1,0,0,0,1.491.168Zm-.07-7.336A2.68,2.68,0,0,1,4.263-4.83H-1.463A2.918,2.918,0,0,1,1.421-7.168ZM11.431.168a4.152,4.152,0,0,0,4.144-4.256,4.138,4.138,0,0,0-4.144-4.27A3.7,3.7,0,0,0,8.421-6.8V-8.19h-1.3V3.766h1.3V-1.288A3.573,3.573,0,0,0,11.431.168Zm-.126-1.232a2.965,2.965,0,0,1-3-3.038,2.982,2.982,0,0,1,3-3.038A2.98,2.98,0,0,1,14.245-4.1,2.971,2.971,0,0,1,11.305-1.064Z" transform="translate(32 27)" fill="#fff"/>
    <path d="M-8076.384-12431.175a2,2,0,0,1,2-2,2,2,0,0,1,2,2,2,2,0,0,1-2,2A2,2,0,0,1-8076.384-12431.175Zm-8,0a2,2,0,0,1,2-2,2,2,0,0,1,2,2,2,2,0,0,1-2,2A2,2,0,0,1-8084.382-12431.175Zm-8,0a2,2,0,0,1,2-2,2,2,0,0,1,2,2,2,2,0,0,1-2,2A2,2,0,0,1-8092.382-12431.175Z" transform="translate(8114.384 12468.174)" fill="#005fd0"/>
    <circle cx="13" cy="13" r="13" transform="translate(38 38)" fill="#2189ff"/>
    <path d="M-8109.994-12435.58l-2.536-2.536-2.536,2.536a1,1,0,0,1-1.415,0,1,1,0,0,1,0-1.411l2.538-2.538-2.538-2.537a1,1,0,0,1,0-1.412,1,1,0,0,1,1.415,0l2.536,2.536,2.536-2.536a1,1,0,0,1,1.415,0,1,1,0,0,1,0,1.412l-2.538,2.537,2.538,2.538a1,1,0,0,1,0,1.411,1,1,0,0,1-.708.293A1,1,0,0,1-8109.994-12435.58Z" transform="translate(8163.529 12490.529)" fill="#fff"/>
  </symbol>

  <symbol xmlns="http://www.w3.org/2000/svg" viewBox="0 0 64 64" id="guide-password">
    <path d="M40,64H8a8.009,8.009,0,0,1-8-8V8A8.009,8.009,0,0,1,8,0H36.93L48,11.072V56A8.009,8.009,0,0,1,40,64Z" transform="translate(8)" fill="#b7d8ff"/>
    <path d="M7.994,0l7.994,8.66H0Z" transform="translate(49.836 17.43) rotate(-135)" fill="#005fd0"/>
    <path d="M11.124,3.375A10.257,10.257,0,0,0,18.549.162l-1.674-1.4a7.755,7.755,0,0,1-5.751,2.457,7.843,7.843,0,0,1-7.8-7.965,7.934,7.934,0,0,1,7.911-7.965c4.725,0,7.776,3.429,7.776,6.966,0,2-.729,3.4-2,3.4-1.107,0-1.566-.729-1.4-2.43l.54-4.887H13.878s0,.108-.108,1.107a3.474,3.474,0,0,0-2.862-1.269,5.065,5.065,0,0,0-4.86,4.833,4.2,4.2,0,0,0,4.185,4.887A4.181,4.181,0,0,0,13.716-3.7a3.479,3.479,0,0,0,3.132,1.566c2.808,0,4.374-2.592,4.374-5.643,0-4.671-4-9.1-9.963-9.1A10.2,10.2,0,0,0,1.053-6.75,10.066,10.066,0,0,0,11.124,3.375Zm-.4-7.587A2.336,2.336,0,0,1,8.4-7.02a2.872,2.872,0,0,1,2.862-2.754,2.244,2.244,0,0,1,2.16,2.754A2.841,2.841,0,0,1,10.719-4.212Z" transform="translate(21.025 31.997)" fill="#fff"/>
    <g transform="translate(15.199 43.196)">
      <line y2="6.355" transform="translate(2.752)" fill="none" stroke="#005fd0" stroke-width="1"/>
      <line y2="6.355" transform="translate(0 1.589) rotate(-60)" fill="none" stroke="#005fd0" stroke-width="1"/>
      <line y2="6.355" transform="translate(5.504 1.589) rotate(60)" fill="none" stroke="#005fd0" stroke-width="1"/>
    </g>
    <g transform="translate(24.798 43.196)">
      <line y2="6.355" transform="translate(2.752)" fill="none" stroke="#005fd0" stroke-width="1"/>
      <line y2="6.355" transform="translate(0 1.589) rotate(-60)" fill="none" stroke="#005fd0" stroke-width="1"/>
      <line y2="6.355" transform="translate(5.504 1.589) rotate(60)" fill="none" stroke="#005fd0" stroke-width="1"/>
    </g>
    <g transform="translate(34.396 43.196)">
      <line y2="6.355" transform="translate(2.752)" fill="none" stroke="#005fd0" stroke-width="1"/>
      <line y2="6.355" transform="translate(0 1.589) rotate(-60)" fill="none" stroke="#005fd0" stroke-width="1"/>
      <line y2="6.355" transform="translate(5.504 1.589) rotate(60)" fill="none" stroke="#005fd0" stroke-width="1"/>
    </g>
    <g transform="translate(43.995 43.196)">
      <line y2="6.355" transform="translate(2.752)" fill="none" stroke="#005fd0" stroke-width="1"/>
      <line y2="6.355" transform="translate(0 1.589) rotate(-60)" fill="none" stroke="#005fd0" stroke-width="1"/>
      <line y2="6.355" transform="translate(5.504 1.589) rotate(60)" fill="none" stroke="#005fd0" stroke-width="1"/>
    </g>
  </symbol>

  <symbol xmlns="http://www.w3.org/2000/svg" viewBox="0 0 64 64" id="guide-filedownload">
    <g transform="translate(0 -1)">
      <g transform="translate(0 8)">
        <rect width="64" height="48" rx="4" style="fill:#b7d8ff"/>
        <g>
          <path d="M12.8 0A12.8 12.8 0 1 1 0 12.8 12.8 12.8 0 0 1 12.8 0z" transform="translate(38.4 30.4)" style="fill:#2189ff"/>
          <g>
            <path d="M4970.914 7762.7v9.6" transform="translate(-4919.714 -7724.671)" style="stroke-width:2px;fill:none;stroke:#fff;stroke-linecap:round"/>
            <path d="m1950.284 637.768 4.4 3.936 4.4-3.936" transform="translate(-1903.484 -593.336)" style="stroke-width:2px;fill:none;stroke:#fff;stroke-linecap:round"/>
          </g>
        </g>
        <path transform="translate(9.5 21.5)" style="stroke-width:3px;fill:none;stroke:#fff;stroke-linecap:round" d="M0 0h37"/>
        <path transform="translate(9.5 30.5)" style="stroke-width:3px;fill:none;stroke:#fff;stroke-linecap:round" d="M0 0h21"/>
      </g>
      <path d="M4 0h56a4 4 0 0 1 4 4v6H0V4a4 4 0 0 1 4-4z" transform="translate(0 8)" style="fill:#2189ff"/>
      <rect width="3" height="10" rx="1.5" transform="translate(16 3)" style="fill:#005fd0"/>
      <rect width="3" height="10" rx="1.5" transform="translate(45 3)" style="fill:#005fd0"/>
    </g>
  </symbol>

  <symbol xmlns="http://www.w3.org/2000/svg" viewBox="0 0 64 64" id="guide-notice">
    <g transform="translate(19.201 44.803)">
      <circle cx="2" cy="2" r="2" transform="translate(-0.201 0.197)" fill="#2545bc"/>
      <ellipse cx="1.5" cy="1" rx="1.5" ry="1" transform="translate(7.799 0.197)" fill="#2545bc"/>
      <circle cx="2" cy="2" r="2" transform="translate(13.799 0.197)" fill="#2545bc"/>
      <circle cx="2" cy="2" r="2" transform="translate(19.799 0.197)" fill="#2545bc"/>
    </g>
    <g transform="translate(20.765 12.169)">
      <path d="M0,21.156a10.316,10.316,0,0,1,20.632,0Zm5.934-16.5a4.655,4.655,0,1,1,4.656,4.654A4.654,4.654,0,0,1,5.934,4.654Z" transform="translate(0 0)" fill="#fff"/>
      <g transform="translate(13.638 12.633)">
        <circle cx="6.5" cy="6.5" r="6.5" transform="translate(-0.403 0.198)" fill="#5579f6"/>
        <path d="M15889.846-7689.42l2.337,2.289,3.659-4.418" transform="translate(-15885.302 7696.436)" fill="none" stroke="#fff" stroke-linecap="square" stroke-width="3"/>
      </g>
    </g>
    <rect width="62" height="51" rx="4" transform="translate(1 4)" fill="#b7d8ff"/>
    <path d="M10,0,20,16H0Z" transform="translate(42 62) rotate(180)" fill="#b7d8ff"/>
    <circle cx="20" cy="20" r="20" transform="translate(12 10)" fill="#fff"/>
    <rect width="4" height="14" rx="2" transform="translate(30 20)" fill="#2189ff"/>
    <circle cx="2" cy="2" r="2" transform="translate(30 37)" fill="#2189ff"/>
  </symbol>

  <symbol xmlns="http://www.w3.org/2000/svg" viewBox="0 0 64 64" id="guide-delete">
    <circle cx="32" cy="32" r="32" fill="#b7d8ff"/>
    <path d="M1.5,27.568A1.5,1.5,0,0,1,0,26.07V23.689a9.593,9.593,0,0,1,19.178,0V26.07a1.5,1.5,0,0,1-1.5,1.5ZM3,6.593a6.592,6.592,0,1,1,6.592,6.592A6.6,6.6,0,0,1,3,6.593Z" transform="translate(22.341 18.285)" fill="#fff"/>
    <circle cx="13" cy="13" r="13" transform="translate(38 38)" fill="#2189ff"/>
    <path d="M-8110.076-12293.664l-2.547-2.546-2.547,2.546a1,1,0,0,1-1.414,0,1,1,0,0,1,0-1.414l2.547-2.545-2.547-2.546a1,1,0,0,1,0-1.414,1,1,0,0,1,1.414,0l2.547,2.546,2.547-2.546a1,1,0,0,1,1.414,0,1,1,0,0,1,0,1.414l-2.547,2.546,2.547,2.545a1,1,0,0,1,0,1.414,1,1,0,0,1-.708.292A1,1,0,0,1-8110.076-12293.664Z" transform="translate(8163.623 12348.625)" fill="#fff"/>
  </symbol>

  <symbol xmlns="http://www.w3.org/2000/svg" viewBox="0 0 64 64" id="guide-step-delete">
    <path d="M64,8V40a8,8,0,0,1-8,8H8a8,8,0,0,1-8-8V8A8,8,0,0,1,8,0H56A8,8,0,0,1,64,8Z" transform="translate(0 8)" fill="#b7d8ff"/>
    <path d="M-12.467.168c2.254,0,3.178-1.456,3.178-2.548,0-1.638-1.484-2.058-2.8-2.38-1.176-.28-2.114-.462-2.114-1.26,0-.672.588-1.218,1.68-1.218a2.569,2.569,0,0,1,2.072.952l1.05-.728a3.88,3.88,0,0,0-3.122-1.358c-1.848,0-3.01,1.134-3.01,2.38,0,1.61,1.414,2.044,2.758,2.366,1.106.252,2.17.42,2.17,1.26,0,.728-.616,1.358-1.82,1.358a2.811,2.811,0,0,1-2.352-1.26l-1.134.742A4.012,4.012,0,0,0-12.467.168Zm4.088-7.154h1.428v3.822C-6.951-.7-6.307,0-3.913,0h.2V-1.26c-1.61,0-1.918-.266-1.918-1.918V-6.986h1.918v-1.2H-5.635v-2.464l-1.316.91V-8.19H-8.379ZM1.491.168A4.088,4.088,0,0,0,5.355-2.156l-1.134-.6a2.886,2.886,0,0,1-2.73,1.736A2.9,2.9,0,0,1-1.533-3.64H5.621V-4.2a4.033,4.033,0,0,0-4.2-4.158A4.2,4.2,0,0,0-2.835-4.046,4.1,4.1,0,0,0,1.491.168Zm-.07-7.336A2.68,2.68,0,0,1,4.263-4.83H-1.463A2.918,2.918,0,0,1,1.421-7.168ZM11.431.168a4.152,4.152,0,0,0,4.144-4.256,4.138,4.138,0,0,0-4.144-4.27A3.7,3.7,0,0,0,8.421-6.8V-8.19h-1.3V3.766h1.3V-1.288A3.573,3.573,0,0,0,11.431.168Zm-.126-1.232a2.965,2.965,0,0,1-3-3.038,2.982,2.982,0,0,1,3-3.038A2.98,2.98,0,0,1,14.245-4.1,2.971,2.971,0,0,1,11.305-1.064Z" transform="translate(32 27)" fill="#fff"/>
    <path d="M-8076.384-12431.175a2,2,0,0,1,2-2,2,2,0,0,1,2,2,2,2,0,0,1-2,2A2,2,0,0,1-8076.384-12431.175Zm-8,0a2,2,0,0,1,2-2,2,2,0,0,1,2,2,2,2,0,0,1-2,2A2,2,0,0,1-8084.382-12431.175Zm-8,0a2,2,0,0,1,2-2,2,2,0,0,1,2,2,2,2,0,0,1-2,2A2,2,0,0,1-8092.382-12431.175Z" transform="translate(8114.384 12468.174)" fill="#005fd0"/>
    <circle cx="13" cy="13" r="13" transform="translate(38 38)" fill="#2189ff"/>
    <path d="M-8109.994-12435.58l-2.536-2.536-2.536,2.536a1,1,0,0,1-1.415,0,1,1,0,0,1,0-1.411l2.538-2.538-2.538-2.537a1,1,0,0,1,0-1.412,1,1,0,0,1,1.415,0l2.536,2.536,2.536-2.536a1,1,0,0,1,1.415,0,1,1,0,0,1,0,1.412l-2.538,2.537,2.538,2.538a1,1,0,0,1,0,1.411,1,1,0,0,1-.708.293A1,1,0,0,1-8109.994-12435.58Z" transform="translate(8163.529 12490.529)" fill="#fff"/>
  </symbol>

  <symbol xmlns="http://www.w3.org/2000/svg" viewBox="0 0 64 64" id="guide-cancel">
    <circle cx="32" cy="32" r="32" fill="#b7d8ff"/>
    <circle cx="5.088" cy="5.088" r="5.088" transform="translate(27.172 41.386)" fill="#2189ff"/>
    <circle cx="4.071" cy="4.071" r="4.071" transform="translate(28.19 12.891)" fill="#005fd0"/>
    <path d="M0,25.8V12.9C0,5.775,5.378,0,12.011,0S24.022,5.775,24.022,12.9V25.8Z" transform="translate(20.301 16.248)" fill="#fff"/>
    <path d="M3.832,0H26.826a.787.787,0,0,1,.766.806l3.066,6.449a.787.787,0,0,1-.766.806H.766A.787.787,0,0,1,0,7.256L3.066.806A.787.787,0,0,1,3.832,0Z" transform="translate(16.897 38.821)" fill="#fff"/>
    <circle cx="12.5" cy="12.5" r="12.5" transform="translate(39 39)" fill="#2189ff"/>
    <rect width="2" height="11" rx="1" transform="translate(57 51) rotate(90)" fill="#fff"/>
  </symbol>

  <symbol xmlns="http://www.w3.org/2000/svg" viewBox="0 0 64 64" id="guide-step-cancel">
    <g transform="translate(0 -4)">
      <path d="M64,8V40a8,8,0,0,1-8,8H8a8,8,0,0,1-8-8V8A8,8,0,0,1,8,0H56A8,8,0,0,1,64,8Z" transform="translate(0 8)" fill="#b7d8ff"/>
      <path d="M-12.467.168c2.254,0,3.178-1.456,3.178-2.548,0-1.638-1.484-2.058-2.8-2.38-1.176-.28-2.114-.462-2.114-1.26,0-.672.588-1.218,1.68-1.218a2.569,2.569,0,0,1,2.072.952l1.05-.728a3.88,3.88,0,0,0-3.122-1.358c-1.848,0-3.01,1.134-3.01,2.38,0,1.61,1.414,2.044,2.758,2.366,1.106.252,2.17.42,2.17,1.26,0,.728-.616,1.358-1.82,1.358a2.811,2.811,0,0,1-2.352-1.26l-1.134.742A4.012,4.012,0,0,0-12.467.168Zm4.088-7.154h1.428v3.822C-6.951-.7-6.307,0-3.913,0h.2V-1.26c-1.61,0-1.918-.266-1.918-1.918V-6.986h1.918v-1.2H-5.635v-2.464l-1.316.91V-8.19H-8.379ZM1.491.168A4.088,4.088,0,0,0,5.355-2.156l-1.134-.6a2.886,2.886,0,0,1-2.73,1.736A2.9,2.9,0,0,1-1.533-3.64H5.621V-4.2a4.033,4.033,0,0,0-4.2-4.158A4.2,4.2,0,0,0-2.835-4.046,4.1,4.1,0,0,0,1.491.168Zm-.07-7.336A2.68,2.68,0,0,1,4.263-4.83H-1.463A2.918,2.918,0,0,1,1.421-7.168ZM11.431.168a4.152,4.152,0,0,0,4.144-4.256,4.138,4.138,0,0,0-4.144-4.27A3.7,3.7,0,0,0,8.421-6.8V-8.19h-1.3V3.766h1.3V-1.288A3.573,3.573,0,0,0,11.431.168Zm-.126-1.232a2.965,2.965,0,0,1-3-3.038,2.982,2.982,0,0,1,3-3.038A2.98,2.98,0,0,1,14.245-4.1,2.971,2.971,0,0,1,11.305-1.064Z" transform="translate(32 27)" fill="#fff"/>
    </g>
    <path d="M-8076.383-12893.174a2,2,0,0,1,2-2,2,2,0,0,1,2,2,2,2,0,0,1-2,2A2,2,0,0,1-8076.383-12893.174Zm-8,0a2,2,0,0,1,2-2,2,2,0,0,1,2,2,2,2,0,0,1-2,2A2,2,0,0,1-8084.383-12893.174Zm-8,0a2,2,0,0,1,2-2,2,2,0,0,1,2,2,2,2,0,0,1-2,2A2,2,0,0,1-8092.383-12893.174Z" transform="translate(8114.384 12926.174)" fill="#005fd0"/>
    <circle cx="13" cy="13" r="13" transform="translate(38 34)" fill="#2189ff"/>
    <rect width="2" height="11" rx="1" transform="translate(57 46) rotate(90)" fill="#fff"/>
  </symbol>

  <symbol xmlns="http://www.w3.org/2000/svg" viewBox="0 0 32 32" id="select-bar-close">
    <g transform="translate(-712.095 -1811.095)">
      <circle cx="16" cy="16" r="16" transform="translate(712.095 1811.095)"/>
      <path d="M0 0v17.016" transform="rotate(45 -1831.202 1796.74)" style="fill:none;stroke:#fff;stroke-width:1.5px"/>
      <path d="M0 0h17.016" transform="rotate(45 -1837.218 1782.215)" style="fill:none;stroke:#fff;stroke-width:1.5px"/>
    </g>
  </symbol>

  <symbol xmlns="http://www.w3.org/2000/svg" viewBox="0 0 24 24" id="info-tip">
    <g>
      <path style="fill:none" d="M0 0h24v24H0z"/>
      <path d="M8.493 20.294A9.005 9.005 0 0 1 5.632 5.632 9 9 0 0 1 21 12a8.971 8.971 0 0 1-2.64 6.36 9.008 9.008 0 0 1-9.867 1.934zM4.6 12a7.4 7.4 0 1 0 14.237-2.83 7.275 7.275 0 0 0-4.007-4.008A7.4 7.4 0 0 0 4.6 12zm6.4 4a1 1 0 1 1 1 1 1 1 0 0 1-1-1zm.2-2v-.3a3.79 3.79 0 0 1 .958-2.533l.074-.084.073-.083.072-.076.07-.071.068-.067.066-.063.151-.14.028-.023c.02-.02.04-.038.059-.054l.081-.066.022-.02a1.274 1.274 0 0 0 .2-1.56 1.3 1.3 0 0 0-2.42.66H9.1a2.9 2.9 0 1 1 4.96 2.06l-.032.03-.109.1a1.784 1.784 0 0 0-.079.074l-.14.116-.07.066-.071.069-.071.072-.071.075a2.207 2.207 0 0 0-.617 1.558V14z"/>
    </g>
  </symbol>
  <symbol xmlns="http://www.w3.org/2000/svg" viewBox="0 0 16 16" id="high-contrast-off">
    <g transform="translate(2713 -6780)">
      <rect width="16" height="16" rx="2" transform="translate(-2713 6780)" fill="#aaa"/>
      <path d="M.222.012A3.8,3.8,0,0,1-1.242-.266a3.759,3.759,0,0,1-1.17-.752,3.352,3.352,0,0,1-.774-1.116A3.433,3.433,0,0,1-3.462-3.5a3.406,3.406,0,0,1,.288-1.4,3.535,3.535,0,0,1,.78-1.122,3.515,3.515,0,0,1,1.17-.74A3.923,3.923,0,0,1,.222-7.032a3.764,3.764,0,0,1,1.092.156,3.474,3.474,0,0,1,.936.437,3.415,3.415,0,0,1,.744.676A3.377,3.377,0,0,1,3.51-4.9l-1.02.4a2.513,2.513,0,0,0-.9-1.085A2.425,2.425,0,0,0,.21-5.976a2.566,2.566,0,0,0-1,.194,2.506,2.506,0,0,0-.8.524,2.391,2.391,0,0,0-.528.786A2.467,2.467,0,0,0-2.31-3.5a2.385,2.385,0,0,0,.192.957,2.441,2.441,0,0,0,.534.78,2.511,2.511,0,0,0,.81.53,2.642,2.642,0,0,0,1.02.194,2.31,2.31,0,0,0,1.416-.428A2.68,2.68,0,0,0,2.526-2.54l1.044.428a3.679,3.679,0,0,1-.522.853A3.376,3.376,0,0,1,2.3-.586a3.517,3.517,0,0,1-.948.441A3.927,3.927,0,0,1,.222.012Z" transform="translate(-2705 6791.5)"/>
    </g>
  </symbol>

  <symbol xmlns="http://www.w3.org/2000/svg" viewBox="0 0 16 16" id="high-contrast-on">
    <g transform="translate(2715 -6780)">
      <g transform="translate(-2715 6780)" stroke="#ff0" stroke-width="1">
        <rect width="16" height="16" rx="2" stroke="none"/>
        <rect x="0.5" y="0.5" width="15" height="15" rx="1.5" fill="none"/>
      </g>
      <path d="M.222.012A3.8,3.8,0,0,1-1.242-.266a3.759,3.759,0,0,1-1.17-.752,3.352,3.352,0,0,1-.774-1.116A3.433,3.433,0,0,1-3.462-3.5a3.406,3.406,0,0,1,.288-1.4,3.535,3.535,0,0,1,.78-1.122,3.515,3.515,0,0,1,1.17-.74A3.923,3.923,0,0,1,.222-7.032a3.764,3.764,0,0,1,1.092.156,3.474,3.474,0,0,1,.936.437,3.415,3.415,0,0,1,.744.676A3.377,3.377,0,0,1,3.51-4.9l-1.02.4a2.513,2.513,0,0,0-.9-1.085A2.425,2.425,0,0,0,.21-5.976a2.566,2.566,0,0,0-1,.194,2.506,2.506,0,0,0-.8.524,2.391,2.391,0,0,0-.528.786A2.467,2.467,0,0,0-2.31-3.5a2.385,2.385,0,0,0,.192.957,2.441,2.441,0,0,0,.534.78,2.511,2.511,0,0,0,.81.53,2.642,2.642,0,0,0,1.02.194,2.31,2.31,0,0,0,1.416-.428A2.68,2.68,0,0,0,2.526-2.54l1.044.428a3.679,3.679,0,0,1-.522.853A3.376,3.376,0,0,1,2.3-.586a3.517,3.517,0,0,1-.948.441A3.927,3.927,0,0,1,.222.012Z" transform="translate(-2707 6791.5)" fill="#ff0"/>
    </g>
  </symbol>

  <symbol xmlns="http://www.w3.org/2000/svg" viewBox="0 0 96 96" id="quick-menu-icon-introduction">
    <g>
      <g transform="translate(0 12)" style="stroke-width:3px;stroke:#005fd0;fill:#fff">
        <rect width="86" height="72" rx="8" style="stroke:none"/>
        <rect x="1.5" y="1.5" width="83" height="69" rx="6.5" style="fill:none"/>
      </g>
      <g>
        <path d="M8 0h70a8 8 0 0 1 8 8v6H0V8a8 8 0 0 1 8-8z" transform="translate(0 12)" style="fill:#b7d8ff"/>
        <g transform="translate(-165 -623)">
          <rect width="3" height="3" rx="1.5" transform="translate(233 641)" style="fill:#fff"/>
          <rect width="3" height="3" rx="1.5" transform="translate(241 641)" style="fill:#fff"/>
        </g>
      </g>
      <g>
        <path d="M60.532 31.1a19.2 19.2 0 1 1-19.2-19.2 19.2 19.2 0 0 1 19.2 19.2" transform="translate(35.468 33.7)" style="fill:#2189ff"/>
        <g>
          <path d="M573.415 229.424a15.618 15.618 0 0 1-7.332 2.507v3.815a13.475 13.475 0 0 0 7.332 11.966 13.473 13.473 0 0 0 7.329-11.966v-3.815a15.61 15.61 0 0 1-7.329-2.507" transform="translate(-496.614 -173.768)" style="fill:#fff"/>
          <path d="m574.116 244.16 2.284 2.24 3.576-4.318" transform="translate(-500.156 -179.348)" style="stroke-width:1.5px;stroke:#2189ff;stroke-linecap:round;fill:none"/>
        </g>
      </g>
      <g>
        <path transform="translate(15.5 41.5)" style="stroke:#2189ff;stroke-linecap:round;fill:none;stroke-width:3px" d="M0 0h37"/>
        <path transform="translate(15.5 52.5)" style="stroke:#2189ff;stroke-linecap:round;fill:none;stroke-width:3px" d="M0 0h23"/>
        <path transform="translate(15.5 63.5)" style="stroke:#2189ff;stroke-linecap:round;fill:none;stroke-width:3px" d="M0 0h31"/>
      </g>
    </g>
  </symbol>

  <symbol xmlns="http://www.w3.org/2000/svg" viewBox="0 0 96 96" id="quick-menu-icon-myinfo">
    <path d="M4776.334-5168.877a2.525,2.525,0,0,1-2.335-2.681v-14.059a2.526,2.526,0,0,1,2.335-2.684h7.683a2.526,2.526,0,0,1,2.326,2.684v14.059a2.525,2.525,0,0,1-2.326,2.681Zm0-22.428a2.527,2.527,0,0,1-2.335-2.686v-14.054a2.523,2.523,0,0,1,2.335-2.681h7.683a2.523,2.523,0,0,1,2.326,2.681v14.054a2.527,2.527,0,0,1-2.326,2.686Zm0-22.259a2.532,2.532,0,0,1-2.335-2.691V-5230.3a2.534,2.534,0,0,1,2.335-2.7h7.683a2.534,2.534,0,0,1,2.326,2.7v14.048a2.532,2.532,0,0,1-2.326,2.691Z" transform="translate(-4694.451 5248.939)" fill="#b7d8ff"/>
    <rect width="96" height="72" rx="8" transform="translate(81.411) rotate(90)" fill="#fff"/>
    <path d="M8,3A5.006,5.006,0,0,0,3,8V64a5.006,5.006,0,0,0,5,5H88a5.006,5.006,0,0,0,5-5V8a5.006,5.006,0,0,0-5-5H8M8,0H88a8,8,0,0,1,8,8V64a8,8,0,0,1-8,8H8a8,8,0,0,1-8-8V8A8,8,0,0,1,8,0Z" transform="translate(81.411) rotate(90)" fill="#005fd0"/>
    <path d="M-1355.75-25738.756h-14.027a1.616,1.616,0,0,1-1.61-1.617v-2.574a10.319,10.319,0,0,1,10.334-10.023,10.457,10.457,0,0,1,6.7,2.457,10.071,10.071,0,0,1,3.51,5.99,5.013,5.013,0,0,0-4.962,5,5.038,5.038,0,0,0,.058.762Zm-5.3-15.508a7.116,7.116,0,0,1-7.107-7.107,7.123,7.123,0,0,1,7.107-7.121,7.126,7.126,0,0,1,7.114,7.121A7.119,7.119,0,0,1-1361.053-25754.264Z" transform="translate(1405.807 25799.521)" fill="#b7d8ff" stroke="rgba(0,0,0,0)" stroke-miterlimit="10" stroke-width="1"/>
    <path d="M4566.3-5911.725h-3.111a.674.674,0,0,1-.667-.584l-.3-2.181a9.568,9.568,0,0,1-2.342-.971l-1.753,1.335a.671.671,0,0,1-.408.138.67.67,0,0,1-.477-.2l-2.2-2.2a.679.679,0,0,1-.06-.886l1.336-1.752a9.631,9.631,0,0,1-.971-2.342l-2.183-.295a.676.676,0,0,1-.584-.669v-3.111a.674.674,0,0,1,.584-.667l2.181-.3a9.6,9.6,0,0,1,.973-2.342l-1.336-1.752a.678.678,0,0,1,.06-.886l2.2-2.2a.668.668,0,0,1,.477-.2.675.675,0,0,1,.41.138l1.752,1.336a9.586,9.586,0,0,1,2.34-.971l.3-2.183a.675.675,0,0,1,.667-.584h3.111a.676.676,0,0,1,.667.584l.3,2.183a9.6,9.6,0,0,1,2.34.971l1.752-1.336a.675.675,0,0,1,.41-.138.668.668,0,0,1,.477.2l2.2,2.2a.678.678,0,0,1,.06.886l-1.335,1.752a9.644,9.644,0,0,1,.971,2.342l2.181.293a.678.678,0,0,1,.584.669v3.111a.675.675,0,0,1-.584.667l-2.181.3a9.638,9.638,0,0,1-.971,2.342l1.335,1.752a.679.679,0,0,1-.06.886l-2.2,2.2a.668.668,0,0,1-.477.2.668.668,0,0,1-.408-.138l-1.752-1.335a9.606,9.606,0,0,1-2.342.971l-.3,2.181A.675.675,0,0,1,4566.3-5911.725Zm-1.555-17.464a5.311,5.311,0,0,0-5.305,5.305,5.311,5.311,0,0,0,5.305,5.3,5.311,5.311,0,0,0,5.3-5.3A5.311,5.311,0,0,0,4564.748-5929.189Z" transform="translate(-4508.176 5985.086)" fill="#2189ff" stroke="rgba(0,0,0,0)" stroke-miterlimit="10" stroke-width="1"/>
  </symbol>

  <symbol xmlns="http://www.w3.org/2000/svg" viewBox="0 0 96 96" id="quick-menu-icon-global">
    <ellipse cx="48" cy="47.983" rx="48" ry="47.983" transform="translate(0 0)" fill="#fff"/>
    <path d="M48,3A44.994,44.994,0,0,0,30.485,89.433a45,45,0,0,0,35.031-82.9A44.73,44.73,0,0,0,48,3m0-3A47.983,47.983,0,1,1,0,47.983,47.992,47.992,0,0,1,48,0Z" transform="translate(0 0)" fill="#005fd0"/>
    <path d="M4385.388-5228.858c-9.339-8.937-11.649-22.792-11.649-22.792a57.71,57.71,0,0,1-.729-6.583,4.7,4.7,0,0,1,4.322.583.723.723,0,0,0,.872.178,4.5,4.5,0,0,1,2.307-.612c2.288-.086,3.49,2.889,3.49,2.889.2.514.962-.033.962-.033.822-.448,1.2-.309,1.2-.309,1.037-.025,1.587,1.728,1.587,1.728.073.37.653.258.653.258a3.3,3.3,0,0,1,1.04-.13,1.666,1.666,0,0,1,1.551,1.314,1.938,1.938,0,0,0,.928,1.389,2.918,2.918,0,0,0,2.061-.85c2.013-.777,3.58,1.1,3.58,1.1,2.9,2.4.248,6.768.248,6.768-1.286,1.142-1.622,3.965-1.622,3.965a21.066,21.066,0,0,0,1.545,6.268,4.872,4.872,0,0,1,.807,3.271c.035,1.579-.478,2.022-.478,2.022-.51,1.426.281,1.8.281,1.8a1.539,1.539,0,0,1,.883,1.707,6.151,6.151,0,0,0-.055,1.335,15.717,15.717,0,0,0,1.083,1.479,2.3,2.3,0,0,0,1.524.752c1.178.169,1.784,1.724,1.784,1.724,1.49,1.376,2.122,1.347,2.122,1.347,1.747.847.451,1.722.451,1.722C4394.023-5219.4,4385.388-5228.858,4385.388-5228.858Zm52.478-7.762s-2.161-6.633-3.475-8.554a4.725,4.725,0,0,1-.912-4.748s1.227-2.287.429-3.8c0,0-1.895-3.229-3.665-4.421a4.363,4.363,0,0,1-.941-2.886s.233-2.418-.664-2.953a4.318,4.318,0,0,0-2.339.254s-.75.462-1.6-1.041c0,0-.736-1.137-3.312.828,0,0-5.284,3.178-9.03,1.271a7.257,7.257,0,0,1-1.048-1.784,1.775,1.775,0,0,0-1.688-.124s-.956.377-1.069-.568c0,0,.106-1.1-.77-1.01a1.447,1.447,0,0,1-1.706-1.523,3.065,3.065,0,0,1,1.054-2.188s.569-.416-.041-1.271a3.976,3.976,0,0,1-.747-3.5,4.039,4.039,0,0,1,3.12-3.531s.827-.035.788-1.178c0,0-.9-2.709,1.171-4.336,0,0,.7-1.024,3.51-1.041a2.967,2.967,0,0,0,2.457-.855,5.622,5.622,0,0,1,4.236-1.962,1.348,1.348,0,0,1,1.246,1.493s-.028.9,1.394.629a4.3,4.3,0,0,1,3.25.213s1.849,1.633,2.065.442c0,0-.671-1.158-.079-1.466,0,0,1.2-.729,3.951-.042a1.5,1.5,0,0,0,1.819-.171s.12-.778,1.726-.7c0,0,.727-.531-.136-1.451a2.552,2.552,0,0,1-1.124-1.453s-.312-.631-1.5.22a1.983,1.983,0,0,1-2.124.216,2.361,2.361,0,0,1-1.78-1.572s-1.483-1.072-1.546-.414c0,0-.917.24-.129,1.369,0,0,1.25,1.171.167,1.507,0,0-.49.155-2.121-1.394,0,0-2.1-1.845-2.841-1.442,0,0-.618-.04.308.929,0,0,.51.475-.178.743a7.115,7.115,0,0,1-2.442-.048s-1.9-.915-2.821-.035a.887.887,0,0,1-.7,1.065,2.026,2.026,0,0,1-1.253.288.967.967,0,0,0-.9.891s-1.925,3.441-4.928,1.054c0,0-1.895-1.237.9-2.147,0,0,1.671-.514,1.941-1.089,0,0,.285-1.257-1.381-1.466,0,0-1.7-1.068,1.292-1.972,0,0,.7-.141,1.808-1.634,0,0-.137-.949,1.267-1.161a4.856,4.856,0,0,0,2.823-.583s.174-.608,1.307-.688c0,0,.586.08.152-.7,0,0-.75-.908.321-.823,0,0,.617-.647-.736-.619,0,0-1.421.119-1.839-.764,0,0-.233-1.11-.823-.695,0,0-.462.466-.026.856,0,0,1.637,1.424.88,2.333,0,0-.854,1.065-2.627-.709,0,0-.5-.312-.75.524a1.27,1.27,0,0,1-1.356.072s-1.059-.9.483-2.683c0,0,1.883-2.948,4.452-3.27,0,0,2.342-.527,1.784-1.083,0,0,2.113.148,3.261.36a45.39,45.39,0,0,1,22.93,10.346s11.093,8.986,14.388,21.956a8.327,8.327,0,0,1-3.607-1.072,44.321,44.321,0,0,0-3.956-2.949s-2.956-1.747-4.616-.407c0,0-1.069.453-2.592-1.493a18.546,18.546,0,0,0-3.7-1.912s4.2,5.209,6.34,6.018a20.725,20.725,0,0,0,2.459.49s.359.561.057,3.958a43.19,43.19,0,0,1-1.9,7.212,5.709,5.709,0,0,0,.339,4.415,10.32,10.32,0,0,1,.5,5.024,16.457,16.457,0,0,1-2.781,4.252,4.1,4.1,0,0,0-.033,2.106,8.855,8.855,0,0,1-1.374,3.216,7.263,7.263,0,0,0-1.041,2.3s-2.562,3.628-5.531,4.511a3.434,3.434,0,0,1-1.453.533A.619.619,0,0,1,4437.865-5236.62Z" transform="translate(-4370.102 5307.896)" fill="#b7d8ff" stroke="rgba(0,0,0,0)" stroke-miterlimit="10" stroke-width="1"/>
    <path d="M0,0,2.329,13.09l2.323,13.1,5.226-5.22,16.4,16.4L37.143,26.493,20.743,10.1l5.441-5.447-13.1-2.329Z" transform="translate(58.857 58.598)" fill="#2189ff"/>
  </symbol>

  <symbol xmlns="http://www.w3.org/2000/svg" viewBox="0 0 40 40" id="open-down-regular">
    <rect width="40" height="40" fill="rgba(255,255,255,0)"/>
    <path d="M27.917,0,29.4,1.462,14.7,16.382,0,1.462,1.484,0,14.7,13.414Z" transform="translate(5.3 13.476)"/>
  </symbol>

  <symbol xmlns="http://www.w3.org/2000/svg" viewBox="0 0 32 32" id="icon-collect-info">
    <g>
      <rect width="32" height="22" rx="2" transform="translate(0 10)" style="fill:#aa5afa"/>
      <rect width="26" height="3" rx="1" transform="translate(3 5)" style="fill:#aa5afa"/>
      <rect width="16" height="3" rx="1" transform="translate(8)" style="fill:#aa5afa"/>
    </g>
  </symbol>

  <symbol xmlns="http://www.w3.org/2000/svg" viewBox="0 0 32 32" id="icon-collect-info">
    <g>
      <rect width="32" height="22" rx="2" transform="translate(0 10)" style="fill:#aa5afa"/>
      <rect width="26" height="3" rx="1" transform="translate(3 5)" style="fill:#aa5afa"/>
      <rect width="16" height="3" rx="1" transform="translate(8)" style="fill:#aa5afa"/>
    </g>
  </symbol>

  <symbol xmlns="http://www.w3.org/2000/svg" viewBox="0 0 32 32" id="icon-wastebin">
    <g>
      <path transform="translate(0 3.657)" style="fill:#aa5afa" d="M0 0h31.704v3.963H0z"/>
      <path d="m6234.774 1778.35 3.112-3.963h13.663l2.96 3.963z" transform="translate(-6228.434 -1774.386)" style="fill:#aa5afa"/>
      <path d="M0 0h23.778l-1.585 22.986H1.585z" transform="translate(3.963 8.719)" style="fill:#aa5afa"/>
    </g>
  </symbol>

  <symbol xmlns="http://www.w3.org/2000/svg" viewBox="0 0 32 32" id="icon-alarm">
    <g>
      <g>
        <rect width="32" height="26" rx="2" style="fill:#aa5afa"/>
        <path d="M3.5 0 7 6H0z" transform="rotate(180 9.75 16)" style="fill:#aa5afa"/>
      </g>
      <g transform="translate(14.107 6.492)">
        <rect width="3" height="9" rx="1.5" transform="translate(.392 -.492)" style="fill:#fff"/>
        <rect width="3" height="3" rx="1.5" transform="translate(.392 10.508)" style="fill:#fff"/>
      </g>
    </g>
  </symbol>

  <symbol xmlns="http://www.w3.org/2000/svg" viewBox="0 0 24 24" id="icon-manage">
    <g transform="translate(-0.256 -0.263)">
      <path d="M208.667,195.75l-.009-.979v.979h-2.819a1.367,1.367,0,0,1-1.338-1.177l-.2-1.493a9.475,9.475,0,0,1-1.371-.568l-1.2.913a1.366,1.366,0,0,1-1.784-.12l-1.99-1.99a1.365,1.365,0,0,1-.121-1.784l.914-1.2a9.477,9.477,0,0,1-.569-1.371l-1.494-.2a1.367,1.367,0,0,1-1.177-1.338v-2.825a1.367,1.367,0,0,1,1.177-1.338l1.494-.2a9.462,9.462,0,0,1,.569-1.371l-.914-1.2a1.366,1.366,0,0,1,.12-1.785l1.99-1.99a1.365,1.365,0,0,1,1.784-.121l1.2.914a9.492,9.492,0,0,1,1.372-.569l.2-1.493a1.367,1.367,0,0,1,1.338-1.177h2.824A1.367,1.367,0,0,1,210,173.44l.2,1.493a9.484,9.484,0,0,1,1.371.569l1.2-.914a1.366,1.366,0,0,1,1.784.12l1.991,1.99a1.366,1.366,0,0,1,.121,1.784l-.914,1.2a9.47,9.47,0,0,1,.569,1.371l1.492.2A1.367,1.367,0,0,1,219,182.594v2.825a1.367,1.367,0,0,1-1.177,1.338l-1.493.2a9.471,9.471,0,0,1-.568,1.371l.913,1.2a1.363,1.363,0,0,1-.121,1.785l-1.99,1.99a1.365,1.365,0,0,1-1.784.121l-1.2-.913a9.475,9.475,0,0,1-1.372.569l-.2,1.493A1.369,1.369,0,0,1,208.667,195.75Zm-2.695-1.5h2.561l.318-2.346.482-.129a7.973,7.973,0,0,0,1.936-.8l.433-.251,1.885,1.435,1.816-1.816-1.435-1.885.25-.433a7.97,7.97,0,0,0,.8-1.936l.129-.483,2.347-.318v-2.56l-2.347-.318-.129-.483a7.969,7.969,0,0,0-.8-1.936l-.25-.433,1.435-1.885-1.817-1.816-1.885,1.436-.433-.251a7.982,7.982,0,0,0-1.936-.8l-.482-.129-.318-2.346h-2.559l-.318,2.346-.482.129a7.991,7.991,0,0,0-1.937.8l-.433.25-1.885-1.435-1.816,1.816,1.437,1.885-.251.433a7.959,7.959,0,0,0-.8,1.936l-.129.483-2.348.318v2.56l2.347.318.129.482a7.975,7.975,0,0,0,.8,1.936l.251.433-1.436,1.885,1.816,1.816,1.885-1.435.433.25a7.972,7.972,0,0,0,1.936.8l.483.129Z" transform="translate(-195.252 -172)"/>
      <path d="M228.532,210.848a5.568,5.568,0,0,1,0-11.136v1.5a4.068,4.068,0,1,0,4.069,4.069,4.072,4.072,0,0,0-4.069-4.069v-1.5a5.568,5.568,0,1,1,0,11.136Z" transform="translate(-216.532 -193.281)"/>
    </g>
  </symbol>

</svg>