<svg xmlns="http://www.w3.org/2000/svg" width="72" height="72" viewBox="0 0 72 72">
  <g transform="translate(-211 -29)">
    <path d="M283,65h0a36,36,0,1,1-36-36,36,36,0,0,1,36,36" fill="#fff"/>
    <path d="M4911.945-2719a2.749,2.749,0,0,1-2.738-2.744l.012-15.122a2.25,2.25,0,0,1,2.253-2.248h.918l0-3.425a7.9,7.9,0,0,1,7.738-7.726,7.9,7.9,0,0,1,8.059,7.739l-.006,3.426h1.547a2.251,2.251,0,0,1,2.249,2.251h0l-.012,15.122a2.748,2.748,0,0,1-2.744,2.738Zm13.781-20.1.005-3.426a5.435,5.435,0,0,0-5.369-5.379,5.437,5.437,0,0,0-5.5,5.369l-.006,3.427Z" transform="translate(-4673.207 2799.262)" fill="#006bea" stroke="rgba(0,0,0,0)" stroke-miterlimit="10" stroke-width="1"/>
    <path d="M246.642,68.421a1.483,1.483,0,1,1,2.1-.045l-.048.048a.6.6,0,0,0-.168.558l.814,3.939a.429.429,0,0,1-.332.508.471.471,0,0,1-.092.009l-1.254,0-1.254,0a.43.43,0,0,1-.42-.517l.821-3.938a.6.6,0,0,0-.168-.559" transform="translate(-0.207 0.262)" fill="#fff"/>
  </g>
</svg>
