<svg xmlns="http://www.w3.org/2000/svg" width="72" height="72" viewBox="0 0 72 72">
  <g transform="translate(-474 -95)">
    <path d="M509.906,94.849h0a36,36,0,1,1-36,36,36,36,0,0,1,36-36" transform="translate(0.094 0.151)" fill="#fff"/>
    <path d="M4427.318-2858.645a1.446,1.446,0,0,1-1.443-1.443v-2.3a9.23,9.23,0,0,1,9.241-8.969,9.231,9.231,0,0,1,9.242,8.969v2.3a1.446,1.446,0,0,1-1.444,1.443Zm1.444-20.216a6.361,6.361,0,0,1,6.353-6.354,6.362,6.362,0,0,1,6.354,6.354,6.361,6.361,0,0,1-6.354,6.353A6.36,6.36,0,0,1,4428.763-2878.861Z" transform="translate(-3924.75 3002.43)" fill="#006bea" stroke="rgba(0,0,0,0)" stroke-miterlimit="10" stroke-width="1"/>
  </g>
</svg>
