<svg xmlns="http://www.w3.org/2000/svg" width="72" height="72" viewBox="0 0 72 72">
  <g transform="translate(-38 -185)">
    <path d="M74.111,184.667a36,36,0,1,1-36,36,36,36,0,0,1,36-36" transform="translate(-0.111 0.333)" fill="#fff"/>
    <path d="M81.537,255.478,80.072,256a10.79,10.79,0,0,0-2.884-3.215l.619-1.367a1.153,1.153,0,0,0-.575-1.524l-1.912-.867a1.152,1.152,0,0,0-1.524.574l-.6,1.335a10.772,10.772,0,0,0-3.926-.189l-.483-1.362a1.151,1.151,0,0,0-1.468-.7l-1.98.7a1.153,1.153,0,0,0-.7,1.468l.48,1.361a10.764,10.764,0,0,0-2.936,2.612l-1.308-.659a1.152,1.152,0,0,0-1.548.51l-.945,1.874a1.152,1.152,0,0,0,.508,1.546l1.34.675A10.788,10.788,0,0,0,60,263.082l-1.466.516a1.15,1.15,0,0,0-.7,1.468l.7,1.98a1.152,1.152,0,0,0,1.47.7l1.516-.536a10.8,10.8,0,0,0,2.9,3.09l-.685,1.511a1.152,1.152,0,0,0,.573,1.524h0l1.912.867a1.151,1.151,0,0,0,1.524-.573l.7-1.545a10.8,10.8,0,0,0,3.742.146l.57,1.613a1.151,1.151,0,0,0,1.468.7l1.98-.7a1.153,1.153,0,0,0,.7-1.47l-.57-1.615a10.758,10.758,0,0,0,2.821-2.463l1.514.763a1.151,1.151,0,0,0,1.546-.51l.945-1.875a1.152,1.152,0,0,0-.51-1.546l-1.481-.749a10.764,10.764,0,0,0,.316-4.224L83,259.626a1.15,1.15,0,0,0,.7-1.468l-.7-1.98a1.152,1.152,0,0,0-1.47-.7m-9.764,8.968a3.193,3.193,0,1,1,1.949-4.075,3.194,3.194,0,0,1-1.949,4.075" transform="translate(3.229 -40.614)" fill="#006bea"/>
  </g>
</svg>
