<svg xmlns="http://www.w3.org/2000/svg" width="57.958" height="38.352" viewBox="0 0 57.958 38.352">
  <g transform="translate(-359.289 -397.626)">
    <path d="M4918.581-2689.408s-1.126-.5-2.641-1.313c-1.319-.655-4.488-1.867-7.332-2.919a22.761,22.761,0,0,1-3.386-.948l-13-2-.508-5.413-.034.008-.1-1.422-.047-.5.012,0-1.058-15.2,16.342-1.188s14.73-8.578,19.223-4.669,15.184,10.716,12.258,13.362a5.462,5.462,0,0,1-2.406,1.061c1.234.861,3.124,2.659,1.951,5.049-1.551,3.156-5.365,1.426-5.923,1.151,1.133.968,2.309,2.558,1.323,4.565-1.066,2.17-3.2,2.03-4.615,1.641a3.2,3.2,0,0,1,.213,3.331,3.437,3.437,0,0,1-4.1,1.762,3.146,3.146,0,0,1-.187,2.533,3.171,3.171,0,0,1-3.043,1.871A7.158,7.158,0,0,1,4918.581-2689.408Z" transform="translate(-4522.07 3124.133)" fill="#fcd4bd" stroke="rgba(0,0,0,0)" stroke-miterlimit="10" stroke-width="1"/>
    <path d="M371.291,427.751s-4.009-12.988.8-23.693l-9.079-.97s-4.732,6.685,1.458,26.375Z" fill="#84bcff"/>
    <path d="M366.523,420.7a5.817,5.817,0,1,1,4.226-7.058,5.817,5.817,0,0,1-4.226,7.058" fill="#f5f7fe"/>
  </g>
</svg>
