<svg xmlns="http://www.w3.org/2000/svg" width="68.54" height="81.018" viewBox="0 0 68.54 81.018">
  <g transform="translate(-390.313 -344.396)">
    <path d="M4891.489-2637.928l21.22-28.326,1.553,1.165,3.369-4.5a24.521,24.521,0,0,1-2.975-32.7,24.517,24.517,0,0,1,34.322-4.928,24.519,24.519,0,0,1,4.928,34.321,24.519,24.519,0,0,1-32.185,6.362l-3.373,4.5,1.854,1.389-21.218,28.324Z" transform="translate(-4500.476 3057.028)" fill="#51a1ff" stroke="rgba(0,0,0,0)" stroke-miterlimit="10" stroke-width="1"/>
    <path d="M446.37,394.151a19.8,19.8,0,1,1-3.98-27.719,19.8,19.8,0,0,1,3.98,27.719h0" transform="translate(3.285 -12.841)" fill="#edf1fc"/>
  </g>
</svg>
