<svg id="illust_640_main_01" xmlns="http://www.w3.org/2000/svg" xmlns:xlink="http://www.w3.org/1999/xlink" width="640" height="492" viewBox="0 0 640 492">
  <defs>
    <clipPath id="clip-path">
      <rect id="mask" width="640" height="492" transform="translate(0 -2)" fill="none"/>
    </clipPath>
  </defs>
  <g id="illust_640_main_01-2" data-name="illust_640_main_01" transform="translate(0 2)" clip-path="url(#clip-path)">
    <path id="shape" d="M499.268,481.785c51.544-42.463,134.972-205.474,89.587-276-17.6-27.357-50-48-50-48a457.905,457.905,0,0,0-55-28c-35.346-15.1-47.12-14.884-66-27-30.408-19.514-22.445-34.562-51-61C331.176,8.752,277.008-6.326,229.015,2.468,220.1,4.1,204.505,7.1,187.037,17.125c-56.557,32.464-38.5,95.168-87.182,140.66l-.784.733C88,168.886,72.787,179.181,62.855,189.785c-13.122,14.011-19.683,21.016-25,28-7.977,10.478-22.158,29.106-29,56-7.016,27.582-2.859,50.282,0,65a177.533,177.533,0,0,0,27,65A369.149,369.149,0,0,0,69.846,451.31c9.091,10.722,14.7,21.683,26.009,30.475,158.185-2.671,175.6,5.329,403.413,0" transform="translate(22.837 -2)" fill="#eaf4ff"/>
    <g id="blue_woman" data-name="blue woman" transform="translate(-12)">
      <g id="book" transform="translate(1.309 2.01)">
        <rect id="사각형_16416" data-name="사각형 16416" width="82.721" height="11.898" transform="translate(548.691 272.243)" fill="#d0e6ff"/>
        <rect id="사각형_16417" data-name="사각형 16417" width="11.314" height="72.086" rx="2" transform="translate(594.447 200.99)" fill="#b7d8ff" stroke="rgba(0,0,0,0)" stroke-width="1"/>
        <rect id="사각형_16418" data-name="사각형 16418" width="71.953" height="11.314" rx="2" transform="translate(566.188 270.654) rotate(-75.509)" fill="#b7d8ff" stroke="rgba(0,0,0,0)" stroke-width="1"/>
        <rect id="사각형_16419" data-name="사각형 16419" width="11.314" height="72.086" rx="2" transform="translate(606.761 200.99)" fill="#b7d8ff" stroke="rgba(0,0,0,0)" stroke-width="1"/>
      </g>
      <g id="woman" transform="translate(7.511)">
        <path id="패스_19025" data-name="패스 19025" d="M327.8,269.311a50.791,50.791,0,0,1-3.337-11.852c-.55-4.581-.221-9.215-.2-13.829.044-13.078-1.345-30.208-12.246-39.089-2.44-1.989-5.277-3.617-7.05-6.218-3.925-5.76-1.95-20.086,1.8-25.741,5.134-7.74,15.315-13.381,23.975-15.98,14.931-4.48,35.192-1.631,47.437,8.437,17.442,14.34,15.139,46.615,5.823,65.3-4.253,8.533-19.127,20.092-8.953,29.494,3.947,3.648,9.875,4.144,15.215,3.537s10.633-2.118,15.994-1.742A23.3,23.3,0,0,1,424.459,273c3.292,5.69,3.976,12.457,5.655,18.813a60,60,0,0,0,7.371,16.847c1.719,2.7,3.678,5.313,4.71,8.346a23.455,23.455,0,0,1,.882,8.971c-.566,9.356-1.853,18.521-9.954,24.465-4,2.932-9.833,3.965-13.87,1.086-1.99-1.419-3.3-3.574-4.736-5.55-5.9-8.108-16.808-14.1-25.914-9.9-10.907,5.027-13.236,21.474-24.553,25.492-6.542,2.323-14.024-.646-18.947-5.542-10.919-10.86-14.663-23.077-9.6-37.44,2-5.683,4.812-11.1,6.192-16.963s1.114-12.522-2.572-17.286c-3.05-3.941-7.526-6.36-9.629-11.024-.556-1.236-1.134-2.587-1.693-4" fill="#313544"/>
        <path id="패스_19026" data-name="패스 19026" d="M398.681,345.009c-17.351,27.357-12.665,61.891-8.908,78.355-34.153,8.4-61.468,8.739-81.436,6.416a103.91,103.91,0,0,1-15.705-8.443s-6.459-56.148-11.821-71.22c-1.266-3.588-1.857-9.288-1.942-15.831-.338-20.687,3.842-46.428,3.842-46.428,4.222-2.322,10.681-4.01,17.141-5.15,1.055-.169,2.11-.338,3.123-.506,9.795-1.478,18.7-1.9,18.7-1.9l1.011-13.994.687-7.081,1.129-11.483c1.477-15.24,32.678-8.7,32.678-8.7s0,1.525,0,3.974l0,38.7c0,.591,7.092,1.055,15.536,1.731.928.041,1.857.126,2.786.211,10.174.886,21.32,2.11,24.7,4.347,6.628,4.391,5.784,45.558-1.52,57" fill="#fcd4bd"/>
        <path id="패스_19027" data-name="패스 19027" d="M357.186,243.019l0,11.182c-12.293,11.064-27.07,12.3-34.5,12.107l.687-7.081,1.129-11.483c6.482-8.27,26.06-5.843,32.682-4.725" fill="#efbaa2"/>
        <path id="패스_19028" data-name="패스 19028" d="M311.44,190.064c-3.374,4.744-4.369,13.611-4.705,24.023-1.02,31.513,14.2,43.087,24.517,43.091,10.6,0,32.938-4.458,36.4-33.681,1.733-14.611,1.629-26.887-1.734-34.423-7.047-15.794-39.682-19.823-54.483.99" fill="#fcd4bd"/>
        <path id="패스_19030" data-name="패스 19030" d="M336.116,179.835a9.712,9.712,0,0,0,3.563,5.926c1.966,1.385,4.445,1.613,6.767,2.123s4.806,1.536,5.843,3.76c.7,1.51.6,3.279.926,4.923a8.975,8.975,0,0,0,4.157,5.912c1.907,1.119,4.3,1.532,5.682,3.3.979,1.253,1.24,2.944,1.952,4.378s2.334,2.7,3.734,2c2.744-4.831,5.341-9.918,6.088-15.477a26.6,26.6,0,0,0-9.229-23.351,28.373,28.373,0,0,0-23.936-5.681c-6.3,1.349-6.846,6.316-5.547,12.184" fill="#313544"/>
        <path id="패스_19031" data-name="패스 19031" d="M365.418,216.6s4.926-13.053,12.7-6.135-2.919,25.6-14.81,24.135c0,0-1.678-13.535,2.11-18" fill="#fcd4bd"/>
        <path id="패스_19032" data-name="패스 19032" d="M390.234,415.9s-71.765-4.72-89.7-7.087l-4.961,15.828s84.686,42.636,129.224,29.2c7.893-2.381-17.553-36.748-34.565-37.944" fill="#f5a784"/>
        <g id="face">
          <path id="패스_19029" data-name="패스 19029" d="M338.724,234.017c-1.913.945-3.357,2.049-5.606,2.14-1.749.07-3.643-.763-5.3-.168a.468.468,0,0,0-.276.679c1.278,1.885,4.592,2.062,6.659,1.887,2.221-.188,4.847-1.01,5.984-3.073a1.08,1.08,0,0,0-1.464-1.465" fill="#e1624e"/>
          <path id="패스_19033" data-name="패스 19033" d="M320.265,214.635s-2.838.889-2.156-4.016c.613-4.41,2.563-3.708,2.563-3.708s1.934.089,1.437,3.949-1.844,3.775-1.844,3.775" fill="#313544"/>
          <path id="패스_19034" data-name="패스 19034" d="M346.617,216.024s-2.838.889-2.156-4.016c.613-4.41,2.563-3.708,2.563-3.708s1.934.089,1.437,3.949-1.844,3.775-1.844,3.775" fill="#313544"/>
          <path id="패스_19035" data-name="패스 19035" d="M324.121,199.54c-1.94-1.12-5.651-1.587-7.211.411a.618.618,0,0,0,.482.952c.993,0,1.893-.432,2.89-.462a8.065,8.065,0,0,1,3.09.643.869.869,0,0,0,.749-1.544" fill="#313544"/>
          <path id="패스_19036" data-name="패스 19036" d="M344.211,201.359c2-1.017,5.727-1.287,7.18.79a.619.619,0,0,1-.532.926c-.992-.051-1.868-.532-2.862-.614a8.072,8.072,0,0,0-3.119.479.869.869,0,0,1-.667-1.581" fill="#313544"/>
          <path id="패스_19037" data-name="패스 19037" d="M332.988,215.093s-5.334,10.952.666,11.952" fill="none" stroke="#313544" stroke-linecap="round" stroke-linejoin="round" stroke-width="1"/>
        </g>
        <path id="패스_19038" data-name="패스 19038" d="M375.476,218.949a6.409,6.409,0,0,0-6.487,6.265" fill="none" stroke="#efbaa2" stroke-linecap="round" stroke-linejoin="round" stroke-width="0.65"/>
        <g id="shirt">
          <path id="패스_19039" data-name="패스 19039" d="M410.786,289.033l-.291,4.615c-4.391,10.569-16.058,40.325-20.018,64.775-2.255,13.914-1.238,112.728-1.238,112.728-49.226,13.516-128.385,3.271-128.385,3.271s7.6-83.382,16.715-192.806l22.942-5.456.853-.2c1.6,12.534,8.064,34.913,33.713,36.294,25.726,1.413,32.478-23.038,34.258-36.877,20.816,2.435,35.893,10.062,40.834,13.113a1.842,1.842,0,0,1,.616.545" fill="#f5f7fe"/>
          <path id="패스_19040" data-name="패스 19040" d="M310.916,274.327l8.307-1.978,17.8,11.867,20.571-9.889,12,1-4.091,42.91-62.9-4.352Z" fill="#f5f7fe"/>
          <path id="패스_19041" data-name="패스 19041" d="M344.823,289.839l-7.315,10.238-8.128-1.241L325.751,282.7l10.721-3.31Z" fill="#84bcff"/>
          <path id="패스_19042" data-name="패스 19042" d="M337.856,300.078s-1.514,65.963-1.432,89.266l-8.341,10.007L314.259,385.34l15.469-86.5s3.616-8.07,8.128,1.241" fill="#84bcff"/>
          <path id="패스_19043" data-name="패스 19043" d="M363.1,275.787,345.024,294.9l-9.58-15.537L360.8,266.439Z" fill="#d0e6ff"/>
          <path id="패스_19044" data-name="패스 19044" d="M316.77,266.2l18.676,13.16L324,292.889l-11.446-18.516Z" fill="#d0e6ff"/>
        </g>
        <path id="패스_19045" data-name="패스 19045" d="M311.54,274.179l-10.82,1.932,4.877,18.217,3.25,1.265Z" fill="#f5f7fe"/>
        <g id="jaket">
          <path id="패스_19047" data-name="패스 19047" d="M264.708,288.2s5.5-4.447,16.445-7.653a226.414,226.414,0,0,1,28.106-5.959c3.039-.477,3.295-.212,3.295-.212s2.4,14.171,0,51.171-11.4,154-13.4,156l-45-4Z" fill="#b7d8ff"/>
          <path id="패스_19048" data-name="패스 19048" d="M313.153,274.545s1,71-6,130c-.923,7.951-3,21.295-4,36l-14.119-126.22,13.437-10.058-13.437-3.761s12.554-21.19,15.736-25.106a29.157,29.157,0,0,1,6.383-.855" fill="#84bcff"/>
        </g>
        <g id="jaket-2" data-name="jaket">
          <path id="패스_19049" data-name="패스 19049" d="M418.714,296.532S404.487,278.2,376.82,275.374l-12.68-.5s-35.987,168.673-30.987,211.673l59.427-9.667Z" fill="#b7d8ff"/>
          <path id="패스_19050" data-name="패스 19050" d="M368.6,303.318l14.254,8.813-45.7,113.414C346.323,337.421,364.1,275.2,364.1,275.2s2.1-.765,6.052.343l13.209,24.427Z" fill="#84bcff"/>
        </g>
        <path id="leftarm" d="M281.819,419.509c8.761-14.427,16-15,16-15l99.034,9.259c-1.01-16.455-3.192-80.1,18.372-120.518,0,0,24.447,8.508,26.152,86.865,1.1,50.7-6.16,66.647-11.427,71.6a7.579,7.579,0,0,1-3.8,2.114c-29.6,13.788-149.475-23.971-149.475-23.971" fill="#b7d8ff"/>
        <g id="그룹_27595" data-name="그룹 27595">
          <path id="패스_21716" data-name="패스 21716" d="M247.646,447.423c-1.753-.779-10.714-.584-14.8-9.545s14.8-25.518,14.8-25.518l47.919-16.752,7.013,15.194-27.856,31.167-19.09,7.6A74.267,74.267,0,0,1,247.646,447.423Z" fill="#b7d8ff"/>
          <path id="rightarm" d="M235.149,441.27c-4.657-5.528-10.023-22.208-3.049-72.44C242.88,291.2,268,286.785,268,286.785c16.731,42.64,27.941,113.627,25.029,129.86" fill="#b7d8ff"/>
        </g>
        <g id="rightarm-2" data-name="rightarm">
          <path id="rightarm-3" data-name="rightarm" d="M235.149,441.27c-4.657-5.528,9.177-58.5,6.265-42.264H369.836s-10.19,17.326-2.355,40.776c0,0-103.649,21.727-129.25,3.871a19.981,19.981,0,0,1-3.082-2.383" fill="#b7d8ff"/>
        </g>
        <path id="lefthand" d="M273.766,401.758s-13.661,7.966-13.661,21.609c0,0,4.263,6.281,17.906,3.78,0,0,9.1-20.336,17.564-20.611,0,0-5.164-4.644-21.809-4.778" fill="#fcd4bd"/>
      </g>
    </g>
    <g id="desk" transform="translate(55)">
      <rect id="desk-2" data-name="desk" width="415.125" height="31.408" rx="2" transform="translate(55.875 473.86)" fill="#d0e6ff"/>
    </g>
  </g>
</svg>
