<svg xmlns="http://www.w3.org/2000/svg" width="62.961" height="62.961" viewBox="0 0 62.961 62.961">
  <g id="alert" transform="translate(-0.144 0.493)">
    <path id="패스_22253" data-name="패스 22253" d="M295.759,11.717a31.48,31.48,0,1,1-31.48,31.48,31.481,31.481,0,0,1,31.48-31.48" transform="translate(-264.135 -12.21)" fill="#faebf6"/>
    <g id="그룹_27174" data-name="그룹 27174" transform="translate(48.542 12.204)">
      <g id="그룹_27200" data-name="그룹 27200" transform="translate(-27.151 6.876)">
        <circle id="타원_2089" data-name="타원 2089" cx="3.362" cy="3.362" r="3.362" transform="translate(6.79 18.83)" fill="#d667bc"/>
        <circle id="타원_2087" data-name="타원 2087" cx="2.69" cy="2.69" r="2.69" transform="translate(7.462)" fill="#d667bc"/>
        <path id="합치기_62" data-name="합치기 62" d="M0,17.048V8.524C0,3.816,3.554,0,7.937,0s7.937,3.816,7.937,8.524v8.524Z" transform="translate(2.249 2.219)" fill="#b34f9b"/>
        <path id="패스_18984" data-name="패스 18984" d="M2.532,0H17.727a.52.52,0,0,1,.506.533L20.26,4.795a.52.52,0,0,1-.506.533H.506A.52.52,0,0,1,0,4.795L2.026.533A.52.52,0,0,1,2.532,0Z" transform="translate(0 17.135)" fill="#b34f9b"/>
      </g>
    </g>
  </g>
</svg>
