<svg xmlns="http://www.w3.org/2000/svg" width="63" height="63" viewBox="0 0 63 63">
  <g transform="translate(-0.422 0.238)">
    <path d="M361.328,21.762h0a32.375,32.375,0,0,1,32,32c0,17.387-14.614,31-32,31a30.666,30.666,0,0,1-31-31c0-17.386,13.614-32,31-32" transform="translate(-329.906 -22)" fill="#faebf6"/>
    <path d="M4276.41-5006.556a1.4,1.4,0,0,1-1.394-1.394v-2.215a8.912,8.912,0,0,1,8.922-8.658,8.911,8.911,0,0,1,8.922,8.658v2.215a1.4,1.4,0,0,1-1.394,1.394Zm1.395-19.516a6.141,6.141,0,0,1,6.134-6.135,6.142,6.142,0,0,1,6.134,6.135,6.14,6.14,0,0,1-6.134,6.133A6.14,6.14,0,0,1,4277.8-5026.072Z" transform="translate(-4251.611 5051.176)" fill="#b34f9b" stroke="rgba(0,0,0,0)" stroke-miterlimit="10" stroke-width="1"/>
  </g>
</svg>
