<svg xmlns="http://www.w3.org/2000/svg" xmlns:xlink="http://www.w3.org/1999/xlink" width="560" height="430" viewBox="0 0 560 430">
  <defs>
    <clipPath id="clip-path">
      <rect id="mask" width="560" height="430" transform="translate(640 3556)" fill="#d6c4d9"/>
    </clipPath>
  </defs>
  <g id="illust_640_main_04" transform="translate(-640 -3556)" clip-path="url(#clip-path)">
    <path id="shape" d="M43.267,432.858s-67.384-164.717-22.461-232.1,105.218-63.6,148.807-75.807S261.069,4.438,344.871,13.6,406.413,115.74,464.026,164.185s77.1,63.364,90.349,127.012-45.829,146.795-45.829,146.795Z" transform="translate(639.327 3554.36)" fill="#fcf7fb"/>
    <g id="woman" transform="translate(-3314 4227.838)">
      <g id="head" transform="translate(4231.084 -556.305)">
        <path id="패스_22293" data-name="패스 22293" d="M359.477,293.769s7.545,1.886,21.692-8.488c0,0-11.093,4.033-8.488-44.327,1.042-19.376-2.829-25.465-9.431-33.953l-18.863,28.294c-3.566,17.164-12.467,35.652-16.033,52.816" transform="translate(-270.088 -186.906)" fill="#402423"/>
        <path id="패스_22294" data-name="패스 22294" d="M293.717,208a79.621,79.621,0,0,0-12.261,35.839c-1.35,8.706-2.244,14.79-2.829,18.863-.652,4.528-1.1,7.81-3.773,10.375a12.888,12.888,0,0,1-8.279,3.21s1.823,6.851,20.142,4.65,19.154-6.479,19.154-6.479-11.97-12.488-14.42-28.626,2.265-36.887,2.265-37.83" transform="translate(-266.575 -186.963)" fill="#402423"/>
        <path id="패스_22298" data-name="패스 22298" d="M307.817,254.6s-.719,22.518-2.874,25.631l-8.146,8.626L286.5,339.4l72.823,3.354s-2.875-34.018-3.355-33.3-13.655-28.267-13.655-28.267.719-24.193,2.875-28.028Z" transform="translate(-267.708 -189.531)" fill="#f6c0a8"/>
        <path id="패스_22299" data-name="패스 22299" d="M344.7,261.382c-3.484,27.868-29.237,28.886-35.706,25.255l-.871-10.45c22.71,4.641,36.577-14.805,36.577-14.805" transform="translate(-268.938 -189.998)" fill="#e69b8c"/>
        <path id="패스_22300" data-name="패스 22300" d="M306.347,201.356s-23.375,5.054-17.254,40.628c0,0,.585,24.147,20.449,32.724a22.546,22.546,0,0,0,19.978-.948c6.647-3.752,13.942-11.487,17.339-26.6l-3.751-33.305s-9.115-21.6-36.761-12.5" transform="translate(-267.798 -186.458)" fill="#f6c0a8"/>
        <path id="패스_22301" data-name="패스 22301" d="M370.2,221.822a43.829,43.829,0,0,0-6.856-14.325c-10.924-14.908-33.051-33.238-61.975-12.508l8.931,5.106" transform="translate(-268.554 -185.695)" fill="#402423"/>
        <path id="패스_22302" data-name="패스 22302" d="M309.025,197.333l1.713,4.873s7.914,23.591,35.793,31.365c0,0,.529-6.372,8.074-8.258l6.6-8.488Z" transform="translate(-268.989 -186.356)" fill="#402423"/>
        <path id="패스_22303" data-name="패스 22303" d="M309.122,197.175s-9.708-9.536-16.874-.734-12.265,20.121-11.6,31.439,1.921,13.3,2.235,20.8l7.44-8.533s.419-29.24,17.4-38.671Z" transform="translate(-267.372 -186.094)" fill="#402423"/>
        <path id="패스_22304" data-name="패스 22304" d="M310.9,201.889a53.389,53.389,0,0,0-16.976,27.351c-3.769,14.988-.687,27.726.943,32.067,0,0-7.545-6.955-8.017-23.755s8.96-33.847,16.033-36.642a6.875,6.875,0,0,1,8.017.979" transform="translate(-267.727 -186.511)" fill="#402423"/>
        <g id="face" transform="translate(32.58 43.577)">
          <path id="패스_22328" data-name="패스 22328" d="M323.019,265.122a14.437,14.437,0,0,1-4.888,1.325c-1.523.037-3.171-.5-4.616-.128-.216.045-.34.208-.278.365a.287.287,0,0,0,.036.061c1.108,1.193,3.993,1.319,5.794,1.217,1.935-.109,4.224-.617,5.22-1.911.25-.329.083-.743-.373-.924a1.264,1.264,0,0,0-.9,0" transform="translate(-301.808 -233.784)" fill="#e5766a"/>
          <path id="패스_22329" data-name="패스 22329" d="M305.01,246.568s-2.411.947-2.119-3.357c.261-3.869,2-3.378,2-3.378s1.685-.042,1.491,3.342-1.37,3.392-1.37,3.392" transform="translate(-301.219 -232.349)" fill="#402423"/>
          <path id="패스_22330" data-name="패스 22330" d="M329.373,246.13s-2.411.947-2.119-3.357c.261-3.869,2-3.378,2-3.378s1.685-.041,1.491,3.342-1.37,3.392-1.37,3.392" transform="translate(-302.604 -232.324)" fill="#402423"/>
          <path id="패스_22331" data-name="패스 22331" d="M326.312,233.132c1.674-1.006,4.895-1.47,6.285.245a.537.537,0,0,1-.406.837c-.865.017-1.655-.347-2.524-.357a7.034,7.034,0,0,0-2.68.608.756.756,0,0,1-.675-1.333" transform="translate(-302.534 -231.918)" fill="#402423"/>
          <path id="패스_22332" data-name="패스 22332" d="M316.8,246.568s-3.961,9.842,1.313,10.341" transform="translate(-301.93 -232.733)" fill="none" stroke="#402423" stroke-linecap="round" stroke-linejoin="round" stroke-width="1"/>
          <path id="패스_22333" data-name="패스 22333" d="M307.463,232.637a.757.757,0,0,1-.61,1.365,7.02,7.02,0,0,0-2.707-.474c-.867.053-1.638.456-2.5.482a.539.539,0,0,1-.446-.816c1.3-1.783,4.543-1.479,6.266-.556" transform="translate(-301.12 -231.899)" fill="#402423"/>
        </g>
        <g id="ear" transform="translate(73.623 44.342)">
          <path id="패스_22334" data-name="패스 22334" d="M345.5,241.131s2.032-11.979,9.831-7.363,1.777,22.368-8.631,23.1c0,0-3.693-11.288-1.2-15.737" transform="translate(-344.637 -232.71)" fill="#f6c0a8"/>
          <path id="패스_22335" data-name="패스 22335" d="M354.808,241.988a5.58,5.58,0,0,0-4.5,6.438" transform="translate(-344.955 -233.238)" fill="none" stroke="#e69b8c" stroke-linecap="round" stroke-linejoin="round" stroke-width="1"/>
        </g>
      </g>
      <g id="leh" transform="translate(4216.209 -283.347)">
        <path id="패스_22295" data-name="패스 22295" d="M313.082,580.956l-.324-43.973h11.4l25.093-61.872h-77.2s-22.8,21.167-21.167,53.73l5.543,52.109Z" transform="translate(-250.804 -475.11)" fill="#fff"/>
        <path id="패스_22296" data-name="패스 22296" d="M380.942,580.841l5.534-52c1.626-32.563-21.168-53.73-21.168-53.73h-57.22l5.117,61.872h11.4l-.318,43.973Z" transform="translate(-254.061 -475.11)" fill="#fff"/>
      </g>
      <g id="body" transform="translate(4189.768 -466.139)">
        <path id="패스_22305" data-name="패스 22305" d="M289.858,318.943s24.369,13.864,50.929-.943l18.768,183.413-94.492-40.934Z" transform="translate(-225.173 -283.384)" fill="#fff"/>
        <path id="패스_22306" data-name="패스 22306" d="M293.936,315.214l-2.055,194.719s-23.793,14.642-43.013,13.728l6.388-214.421,34.051-18.709Z" transform="translate(-224.252 -281.822)" fill="#faebf6"/>
        <path id="패스_22307" data-name="패스 22307" d="M392.862,525.064l-8.536-215.095-28.863-16.006-14.11,17.01L353.88,511.96s22.142,14.312,38.983,13.1" transform="translate(-229.511 -282.017)" fill="#faebf6"/>
        <path id="패스_22310" data-name="패스 22310" d="M345.554,281.3l11.837,12.924,2.049,33.361s-11.481-10.725-18-16.973Z" transform="translate(-229.516 -281.297)" fill="#ddacd2"/>
        <g id="arm" transform="translate(0 26.203)">
          <path id="패스_22315" data-name="패스 22315" d="M253.725,309.08s-8.454,5.36-10.515,10.1c0,0-11.23,24-20.32,114.471,0,0-2.477,27.034,14.9,29.414,0,0,18.421-2.189,23.372-28.842,0,0,5.333-84.157,5.522-91.96" transform="translate(-222.768 -309.08)" fill="#faebf6"/>
          <path id="패스_22322" data-name="패스 22322" d="M263.239,343.576l8.216,4.5s-2.095,88-19.9,111.051c0,0,18.677-47.046,18.677-110.43Z" transform="translate(-224.404 -311.042)" fill="#ddacd2"/>
          <path id="패스_22324" data-name="패스 22324" d="M249.089,337l-20.965,75.588,18.809-75.244Z" transform="translate(-223.072 -310.668)" fill="#ddacd2"/>
        </g>
        <g id="hand" transform="translate(41.8 145.656)">
          <path id="패스_22316" data-name="패스 22316" d="M328.841,440.846l-27.985-4.656s-16.144-1.908-31.266,2.094c0,0-3.577,2.211-2.178,6.012,0,0,1.147,3.519,8.6,3.644,0,0-3.491,5.678,2.56,7.057,0,0-2.149,5.482,2.868,6.277,0,0-1.327,4.989,3.455,5.24,0,0,22.784,2.253,32.972-4.139,0,0,5.562-4.5,11.934-4.168Z" transform="translate(-267.088 -435.735)" fill="#f6c0a8"/>
          <path id="패스_22325" data-name="패스 22325" d="M276.178,448.59l8.962-.566-15.086-.853s1.146,1.413,6.124,1.418" transform="translate(-267.257 -436.385)" fill="#d48a7b"/>
          <path id="패스_22326" data-name="패스 22326" d="M279.239,456.157l6.5.211-6.876,1.253a4.466,4.466,0,0,1,.379-1.465" transform="translate(-267.757 -436.896)" fill="#d48a7b"/>
          <path id="패스_22327" data-name="패스 22327" d="M282.291,462.811l5.195.187-5.314,1.094s-.23-1.155.119-1.281" transform="translate(-267.941 -437.275)" fill="#d48a7b"/>
        </g>
        <g id="arm-2" data-name="arm" transform="translate(93.844 27.952)">
          <path id="패스_22317" data-name="패스 22317" d="M383.447,310.934s8.218,4.287,10.1,7.837c0,0,25.982,78.174,24.968,117.429,0,0-1.385,19.928-43.808,20.125,0,0-37.228-.221-50.226-2.279l-2.216-23.563s55.013-10.23,58.526-11.423c0,0-5.158-39.925-6.463-47.923,0,0-12.921-41.01,9.115-60.2" transform="translate(-322.269 -310.934)" fill="#faebf6"/>
          <path id="패스_22323" data-name="패스 22323" d="M364.3,424.868l34.048-6.809-16.077,1.165-2.256-79.216.37,80.159Z" transform="translate(-324.659 -312.587)" fill="#ddacd2"/>
        </g>
      </g>
      <g id="phone" transform="translate(4233.074 -484.587)">
        <path id="패스_22311" data-name="패스 22311" d="M310.2,325.9l-26.75,4.39a5.077,5.077,0,0,1-5.828-4.188l-8.873-54.081a5.079,5.079,0,0,1,4.187-5.83l26.749-4.387a5.074,5.074,0,0,1,5.828,4.186l8.873,54.084A5.07,5.07,0,0,1,310.2,325.9" transform="translate(-268.685 -261.737)" fill="#d667bc"/>
        <path id="패스_22312" data-name="패스 22312" d="M299.553,267.749a2.066,2.066,0,1,1,2.422,1.63,2.068,2.068,0,0,1-2.422-1.63" transform="translate(-270.438 -261.938)" fill="#fff"/>
        <path id="패스_22313" data-name="패스 22313" d="M300.737,273.8a2.064,2.064,0,1,1,2.422,1.63,2.066,2.066,0,0,1-2.422-1.63" transform="translate(-270.505 -262.283)" fill="#fff"/>
        <path id="패스_22314" data-name="패스 22314" d="M302.368,280.291a2.064,2.064,0,1,1,2.422,1.63,2.066,2.066,0,0,1-2.422-1.63" transform="translate(-270.598 -262.652)" fill="#fff"/>
      </g>
      <g id="hand-2" data-name="hand" transform="translate(4217.113 -456.156)">
        <path id="패스_22318" data-name="패스 22318" d="M265.328,292.41c-4.718,1.891-10.109,13.829-10.109,13.829-.336,1.421,1.223,12.313,1.223,12.313-.281,1.751-4.681,16.263-4.681,16.263l11.49,5.821c2.418-.51,5.745-3.1,5.745-3.1,4.048-2.369,5.015-12.423,5.015-12.423,1.305-4.536,3.482-5.806,3.482-5.806,1.055-.513,9-2.724,9-2.724,2.458-.972,2.2-2.522,2.2-2.522-.089-1.239-1.822-1.406-1.822-1.406l-4.966.243,5.005-1.387c3.748-.73,2.354-3.685,2.354-3.685l-9.191.141L269.957,309.4l6.136-4.192,8.634.63c4.042-.321,2.095-3.937,2.095-3.937l-9.9-3.429c-5.146-1.54-9.417,2.23-9.417,2.23l2.9-2.794,12.261-.939s2.345-.262,2.155-1.428c0,0,.025-2.748-4.449-3.088,0,0-12.025-1.251-15.049-.04" transform="translate(-251.762 -291.882)" fill="#f6c0a8"/>
        <path id="패스_22319" data-name="패스 22319" d="M271.108,298.268l-7,5.675s-.361,1.807,1.627.9l7.591-6.145a7.949,7.949,0,0,0-3.849,1.45Z" transform="translate(-252.463 -292.245)" fill="#d48a7b"/>
        <path id="패스_22320" data-name="패스 22320" d="M277.042,306.008l-8.42,5.079s-.871,1.042,1.507.7l10.891-3.015-8.977,1.159Z" transform="translate(-252.712 -292.685)" fill="#d48a7b"/>
        <path id="패스_22321" data-name="패스 22321" d="M283.19,314.163s-6.46.694-8.607,1.795c0,0-.694.985.465,1.042a60.309,60.309,0,0,1,8.142-2.837" transform="translate(-253.048 -293.149)" fill="#d48a7b"/>
      </g>
    </g>
    <g id="setting" transform="translate(686.785 3785.404)">
      <g id="그룹_27673" data-name="그룹 27673" transform="translate(17.409 0)">
        <path id="패스_22286" data-name="패스 22286" d="M107.7,312.152l-.221-2.734a19.025,19.025,0,0,0,6.787-3.469l2.05,1.672a2.032,2.032,0,0,0,2.86-.288l0,0,2.34-2.873a2.032,2.032,0,0,0-.291-2.859l-2.006-1.63a19,19,0,0,0,2.094-6.609l2.541-.208a2.032,2.032,0,0,0,1.858-2.191l-.3-3.691a2.032,2.032,0,0,0-2.189-1.862l-2.538.208a19.015,19.015,0,0,0-3.133-6.189l1.715-1.937a2.032,2.032,0,0,0-.173-2.868l-2.772-2.458a2.032,2.032,0,0,0-2.866.169l-1.755,1.982a19.02,19.02,0,0,0-7.26-2.328l-.221-2.734a2.033,2.033,0,0,0-2.191-1.86l-3.691.3a2.032,2.032,0,0,0-1.862,2.189l.229,2.828a19.034,19.034,0,0,0-6.579,3.551l-2.268-1.85a2.033,2.033,0,0,0-2.859.286l0,0-2.34,2.872a2.031,2.031,0,0,0,.286,2.859l0,0,2.32,1.887a19.015,19.015,0,0,0-1.937,6.317l-3.009.244a2.03,2.03,0,0,0-1.861,2.188h0l.3,3.7a2.033,2.033,0,0,0,2.19,1.862l3.012-.241a18.972,18.972,0,0,0,2.929,5.922L84.9,304.544a2.032,2.032,0,0,0,.172,2.868h0l2.772,2.457a2.032,2.032,0,0,0,2.868-.173l1.946-2.188a19,19,0,0,0,7.063,2.446l.23,2.827a2.031,2.031,0,0,0,2.19,1.862l3.691-.3a2.032,2.032,0,0,0,1.862-2.189m-9.386-20.83a4.027,4.027,0,1,1,4.339,3.689,4.027,4.027,0,0,1-4.339-3.689" transform="translate(-74.043 -262.975)" fill="#d6c4d9"/>
        <rect id="사각형_17638" data-name="사각형 17638" width="45.879" height="45.88" transform="translate(0 44.354) rotate(-75.185)" fill="none"/>
      </g>
      <path id="패스_22287" data-name="패스 22287" d="M72.177,332.565l-.142-1.745a12.141,12.141,0,0,0,4.334-2.215l1.311,1.068a1.3,1.3,0,0,0,1.826-.185L81,327.654a1.3,1.3,0,0,0-.185-1.826h0l-1.28-1.041a12.141,12.141,0,0,0,1.336-4.223l1.624-.133a1.3,1.3,0,0,0,1.19-1.4v0l-.19-2.358a1.3,1.3,0,0,0-1.4-1.189l-1.62.132a12.147,12.147,0,0,0-2.005-3.953l1.1-1.235a1.3,1.3,0,0,0-.111-1.832l-1.77-1.568a1.3,1.3,0,0,0-1.831.108L74.735,308.4a12.174,12.174,0,0,0-4.636-1.487l-.14-1.745a1.3,1.3,0,0,0-1.4-1.189h0l-2.358.19a1.3,1.3,0,0,0-1.188,1.4l.146,1.806a12.167,12.167,0,0,0-4.2,2.267l-1.446-1.181a1.3,1.3,0,0,0-1.826.185l-1.5,1.832a1.3,1.3,0,0,0,.185,1.826h0l1.481,1.206a12.146,12.146,0,0,0-1.237,4.034l-1.922.156a1.3,1.3,0,0,0-1.188,1.4h0l.19,2.358a1.3,1.3,0,0,0,1.4,1.188l1.922-.151a12.126,12.126,0,0,0,1.87,3.782l-1.267,1.43a1.3,1.3,0,0,0,.11,1.831h0l1.77,1.567a1.3,1.3,0,0,0,1.832-.11l1.243-1.4a12.139,12.139,0,0,0,4.511,1.56l.147,1.8a1.3,1.3,0,0,0,1.4,1.19h0l2.357-.191a1.3,1.3,0,0,0,1.191-1.393m-5.994-13.3a2.572,2.572,0,1,1,2.771,2.356,2.571,2.571,0,0,1-2.771-2.356" transform="translate(-53.502 -267.568)" fill="#cfa0c4"/>
    </g>
    <g id="desk" transform="translate(640 3556.001)">
      <rect id="사각형_17639" data-name="사각형 17639" width="21.448" height="215.901" transform="translate(154.632 367.701)" fill="#d6c4d9"/>
      <path id="패스_22288" data-name="패스 22288" d="M235.961,407.031H154.106l-12.088-55.124a6.01,6.01,0,0,1,5.871-7.3h66.4a9.925,9.925,0,0,1,9.7,7.8Z" transform="translate(-17.812 -43.266)" fill="#ddacd2"/>
      <rect id="사각형_17640" data-name="사각형 17640" width="59.765" height="3.376" transform="translate(181.945 360.389)" fill="#ddacd2"/>
      <path id="패스_22289" data-name="패스 22289" d="M62.582,415.942H283.819a1.748,1.748,0,0,1,1.749,1.749v6.121a1.748,1.748,0,0,1-1.749,1.749H62.582a1.748,1.748,0,0,1-1.749-1.749v-6.121a1.748,1.748,0,0,1,1.749-1.749" transform="translate(-7.637 -52.221)" fill="#d6c4d9"/>
      <rect id="사각형_17641" data-name="사각형 17641" width="560" height="430" transform="translate(0 -0.001)" fill="none"/>
    </g>
  </g>
</svg>
