<svg xmlns="http://www.w3.org/2000/svg" xmlns:xlink="http://www.w3.org/1999/xlink" width="72" height="50" viewBox="0 0 72 50">
  <defs>
    <clipPath id="clip-path">
      <rect id="사각형_850" data-name="사각형 850" width="44.082" height="43.015" fill="none"/>
    </clipPath>
  </defs>
  <g id="ico_80_SKU_off" transform="translate(-0.503 0.174)">
    <rect id="사각형_305" data-name="사각형 305" width="72" height="50" transform="translate(0.503 -0.174)" fill="none"/>
    <g id="icon" transform="translate(15.702 3.532)">
      <path id="패스_2008" data-name="패스 2008" d="M40.495,28.836V42.779H39V29.842Z" transform="translate(-1.626 -1.202)" fill="#fff"/>
      <g id="그룹_1049" data-name="그룹 1049" transform="translate(0 0)">
        <g id="그룹_1048" data-name="그룹 1048" clip-path="url(#clip-path)">
          <path id="패스_2009" data-name="패스 2009" d="M43.364,41.577H29.324L24.677,21.137V19.344l6.8,3.91-.91,1.562a.733.733,0,0,0-.077.546.712.712,0,0,0,.335.441l5.414,3.115a.658.658,0,0,0,.355.1.688.688,0,0,0,.4-.125l.374-.249,1.495-1.006,2.923-1.974a.668.668,0,0,0,.307-.537l.46-5.721a.71.71,0,0,0-.355-.68L36.79,15.607a.729.729,0,0,0-.977.259l-.46.786L7.283.514a3.869,3.869,0,0,0-5.252,1.38,3.8,3.8,0,0,0,1.4,5.223l1.179.68H4.552V34.869H3.814A2.62,2.62,0,0,0,1.2,37.485v4.092H.719a.719.719,0,1,0,0,1.437H43.364a.719.719,0,1,0,0-1.437M25.539,31.362l-4.878-4.878,3.076-3.076Zm-9.593-9.593.163.163h7.072l.182-.182.038.182h-.22l-3.536,3.536-3.536-3.536h-.2Zm2.683,4.715-4.859,4.859,1.792-7.925ZM19.645,27.5l5.443,5.443L19.847,36.22l-5.616-3.306Zm3.594-7.005H16.033l.019-6.114,7.187,4.13Zm12.995-2.5.46-.786,4.4,2.53L40.7,24.663l-4.13,2.789-4.4-2.53.9-1.543s.019-.01.019-.019ZM4.149,5.871A2.36,2.36,0,0,1,3.028,4.424a2.328,2.328,0,0,1,.249-1.8,2.421,2.421,0,0,1,3.3-.862L34.624,17.9l-2.415,4.121ZM7.906,41.577H2.635V37.485a1.178,1.178,0,0,1,1.179-1.179H6.727a1.178,1.178,0,0,1,1.179,1.179Zm1.437,0V37.485a2.626,2.626,0,0,0-2.616-2.616H5.989V8.592l8.625,4.954v7.59L9.966,41.577Zm3.824-7.6v-.01h.01l5.29,3.115-7,4.379Zm.834,7.6,5.874-3.67,6.229,3.67Zm7.254-4.533L26.133,34l1.552,6.833Z" transform="translate(0 0)" fill="#fff"/>
          <path id="패스_2010" data-name="패스 2010" d="M16.8,22.879h-.2l.038-.163Z" transform="translate(-0.692 -0.947)" fill="#657b67"/>
          <path id="패스_2011" data-name="패스 2011" d="M24.41,22.878h-.22l.182-.182Z" transform="translate(-1.008 -0.946)" fill="#657b67"/>
          <path id="패스_2012" data-name="패스 2012" d="M13.75,35.446l-.01.01v-.01Z" transform="translate(-0.573 -1.477)" fill="#657b67"/>
          <path id="패스_2013" data-name="패스 2013" d="M24.41,22.878h-.22l.182-.182Z" transform="translate(-1.008 -0.946)" fill="#657b67"/>
          <path id="패스_2014" data-name="패스 2014" d="M16.8,22.879h-.2l.038-.163Z" transform="translate(-0.692 -0.947)" fill="#657b67"/>
        </g>
      </g>
    </g>
  </g>
</svg>
