<svg xmlns="http://www.w3.org/2000/svg" xmlns:xlink="http://www.w3.org/1999/xlink" width="80" height="56" viewBox="0 0 80 56">
  <defs>
    <clipPath id="clip-path">
      <rect id="사각형_1429" data-name="사각형 1429" width="43.916" height="43.723" transform="translate(0 0)" fill="#667c68"/>
    </clipPath>
  </defs>
  <g id="ico_80_SKE_off" transform="translate(0)">
    <path id="container" d="M.014,0H79.98V56H.014Z" transform="translate(0.021)" fill="red" opacity="0"/>
    <g id="icon" transform="translate(22 4)">
      <rect id="container-2" data-name="container" width="48" height="48" transform="translate(-6)" fill="none"/>
      <g id="그룹_1276" data-name="그룹 1276" transform="translate(-3.958 2.138)">
        <g id="그룹_1275" data-name="그룹 1275" clip-path="url(#clip-path)">
          <path id="패스_2629" data-name="패스 2629" d="M31.4,37h0a.359.359,0,0,1-.364-.355.351.351,0,0,1,.007-.072l.38-1.894a.3.3,0,0,0-.527-.252L29.142,36.45A.335.335,0,0,0,29.4,37a.357.357,0,0,1,.364.352v0a.352.352,0,0,1-.007.072l-.383,1.894a.3.3,0,0,0,.526.252l1.755-2.021A.334.334,0,0,0,31.4,37" fill="#667c68"/>
          <path id="패스_2630" data-name="패스 2630" d="M43.166,42.223h-5.59V31.559a7.106,7.106,0,1,0-14.212,0V42.223H19.382L16.849,6.935a.749.749,0,0,0-.748-.7H12.919V4.177C19.176,4.645,18.656,0,18.656,0c-4.1-.061-5.548,2.25-6.018,3.439a.5.5,0,0,0-.409,0C11.752,2.255,10.305-.058,6.211,0c0,0-.521,4.646,5.739,4.176V6.239H9.374a.75.75,0,0,0-.748.693L5.963,42.223H.75a.75.75,0,0,0,0,1.5H43.166a.75.75,0,0,0,0-1.5m-18.3-10.379H36.076v9.763H24.864Zm5.606-5.891a5.614,5.614,0,0,1,5.47,4.391H25a5.614,5.614,0,0,1,5.47-4.391M8.112,33.676h9.153l.6,8.29H7.487Zm8.431-10.059H8.871l.533-7.06h6.632Zm.108,1.5.506,7.059H8.226l.532-7.059ZM15.4,7.739l.525,7.318H9.517l.552-7.318Z" fill="#667c68"/>
        </g>
      </g>
    </g>
  </g>
</svg>
