<svg id="ico_80_SKE_on" xmlns="http://www.w3.org/2000/svg" xmlns:xlink="http://www.w3.org/1999/xlink" width="80" height="56" viewBox="0 0 80 56">
  <defs>
    <clipPath id="clip-path">
      <rect id="mask" width="80" height="48" fill="red" opacity="0.1"/>
    </clipPath>
    <clipPath id="clip-path-2">
      <circle id="타원_15" data-name="타원 15" cx="8" cy="8" r="8" fill="#eeca1a"/>
    </clipPath>
    <clipPath id="clip-path-3">
      <rect id="사각형_1430" data-name="사각형 1430" width="43.917" height="43.723" transform="translate(0 0)" fill="none"/>
    </clipPath>
  </defs>
  <rect id="container" width="80" height="56" fill="none" opacity="0.1"/>
  <g id="꾸밈요소" clip-path="url(#clip-path)">
    <circle id="타원_14" data-name="타원 14" cx="12" cy="12" r="12" transform="translate(1.684 24)" fill="#d1ad1c" opacity="0.2"/>
    <circle id="타원_16" data-name="타원 16" cx="6" cy="6" r="6" transform="translate(0 20)" fill="#e3913f" opacity="0.2"/>
    <g id="마스크_그룹_1" data-name="마스크 그룹 1" transform="translate(72.014 28.7) rotate(45)" clip-path="url(#clip-path-2)">
      <g id="합치기_4" data-name="합치기 4" transform="translate(0 -2)" fill="#fff">
        <path d="M 15.50021457672119 18.49990081787109 L 15.49942398071289 18.49990081787109 L 15.49942398071289 0.5000004172325134 L 15.50021457672119 0.5000004172325134 L 15.50021457672119 18.49990081787109 Z M 6.500214099884033 18.49990081787109 L 6.499424457550049 18.49990081787109 L 6.499424457550049 0.5000004172325134 L 6.500214099884033 0.5000004172325134 L 6.500214099884033 18.49990081787109 Z" stroke="none"/>
        <path d="M 18.99990463256836 18.99990081787109 L 18.00000381469727 18.99990081787109 L 18.00000381469727 4.089355343239731e-07 L 18.99990463256836 4.089355343239731e-07 L 18.99990463256836 18.99990081787109 Z M 16.00021362304688 18.99990081787109 L 14.99942398071289 18.99990081787109 L 14.99942398071289 4.089355343239731e-07 L 16.00021362304688 4.089355343239731e-07 L 16.00021362304688 18.99990081787109 Z M 12.99960422515869 18.99990081787109 L 11.99972438812256 18.99990081787109 L 11.99972438812256 4.089355343239731e-07 L 12.99960422515869 4.089355343239731e-07 L 12.99960422515869 18.99990081787109 Z M 9.999904632568359 18.99990081787109 L 9.000003814697266 18.99990081787109 L 9.000003814697266 4.089355343239731e-07 L 9.999904632568359 4.089355343239731e-07 L 9.999904632568359 18.99990081787109 Z M 7.000214099884033 18.99990081787109 L 5.999424457550049 18.99990081787109 L 5.999424457550049 4.089355343239731e-07 L 7.000214099884033 4.089355343239731e-07 L 7.000214099884033 18.99990081787109 Z M 3.999604225158691 18.99990081787109 L 2.999724149703979 18.99990081787109 L 2.999724149703979 4.089355343239731e-07 L 3.999604225158691 4.089355343239731e-07 L 3.999604225158691 18.99990081787109 Z M 0.9999042153358459 18.99990081787109 L 4.223632913635811e-06 18.99990081787109 L 4.223632913635811e-06 4.089355343239731e-07 L 0.9999042153358459 4.089355343239731e-07 L 0.9999042153358459 18.99990081787109 Z" stroke="none" fill="#f2df64"/>
      </g>
    </g>
  </g>
  <path id="container-2" data-name="container" d="M0,0H47.98V48H0Z" transform="translate(16.021 4)" fill="none" opacity="0.19"/>
  <g id="icon" transform="translate(21 4)">
    <rect id="사각형_827" data-name="사각형 827" width="48" height="48" transform="translate(-5)" fill="none"/>
    <g id="그룹_1278" data-name="그룹 1278" transform="translate(-2.958 2.138)">
      <g id="그룹_1277" data-name="그룹 1277" clip-path="url(#clip-path-3)">
        <path id="패스_2631" data-name="패스 2631" d="M12.92,4.177V6.988h-.969V4.177C5.691,4.647,6.212,0,6.212,0c4.094-.059,5.541,2.253,6.018,3.439a.5.5,0,0,1,.409,0c.47-1.189,1.915-3.5,6.018-3.439,0,0,.52,4.645-5.739,4.176" fill="#667c68"/>
        <path id="패스_2632" data-name="패스 2632" d="M30.471,24.474h0a7.108,7.108,0,0,0-7.082,6.641H37.553a7.108,7.108,0,0,0-7.082-6.641" fill="#667c68"/>
        <path id="패스_2633" data-name="패스 2633" d="M37.553,31.094H23.388c-.01.154-.023.308-.023.465V42.6a.75.75,0,0,0,.75.75H36.827a.75.75,0,0,0,.75-.75V31.559c0-.157-.014-.311-.024-.465m-5.825,6.459-1.754,2.021a.3.3,0,0,1-.527-.252l.383-1.9a.335.335,0,0,0,.007-.071v0A.358.358,0,0,0,29.473,37a.334.334,0,0,1-.259-.551l1.753-2.021a.3.3,0,0,1,.527.252l-.38,1.894a.342.342,0,0,0-.007.071h0a.359.359,0,0,0,.364.354h0a.334.334,0,0,1,.26.551" fill="#bac8a6"/>
        <path id="패스_2634" data-name="패스 2634" d="M16.851,6.935a.75.75,0,0,0-.749-.7H9.375a.751.751,0,0,0-.749.694L5.932,42.658a.758.758,0,0,0,.2.567.75.75,0,0,0,.55.24H18.667a.753.753,0,0,0,.749-.8Zm-.813,9.622H9.4l.113-1.5H15.93Zm.507,7.059.106,1.5H8.759l.113-1.5Zm.614,8.559.108,1.5H8.114l.113-1.5Z" fill="#bac8a6"/>
        <path id="패스_2635" data-name="패스 2635" d="M43.167,43.723H.75a.75.75,0,0,1,0-1.5H43.167a.75.75,0,0,1,0,1.5" fill="#667c68"/>
      </g>
    </g>
  </g>
</svg>
