<svg id="ico_80_SKE_on" xmlns="http://www.w3.org/2000/svg" xmlns:xlink="http://www.w3.org/1999/xlink" width="72" height="50" viewBox="0 0 72 50">
  <defs>
    <clipPath id="clip-path">
      <rect id="mask" width="72" height="44" fill="red" opacity="0.1"/>
    </clipPath>
    <clipPath id="clip-path-2">
      <circle id="타원_15" data-name="타원 15" cx="7.17" cy="7.17" r="7.17" fill="#eeca1a"/>
    </clipPath>
    <clipPath id="clip-path-3">
      <rect id="사각형_14440" data-name="사각형 14440" width="43.917" height="43.723" transform="translate(0 0)" fill="none"/>
    </clipPath>
  </defs>
  <rect id="container" width="72" height="50" fill="none" opacity="0.1"/>
  <g id="꾸밈요소" transform="translate(0 0)" clip-path="url(#clip-path)">
    <circle id="타원_14" data-name="타원 14" cx="10.755" cy="10.755" r="10.755" transform="translate(2.472 22.099)" fill="#d1ad1c" opacity="0.2"/>
    <circle id="타원_16" data-name="타원 16" cx="5.5" cy="5.5" r="5.5" transform="translate(0 18)" fill="#e3913f" opacity="0.2"/>
    <g id="마스크_그룹_1" data-name="마스크 그룹 1" transform="translate(65.506 26.311) rotate(45)" clip-path="url(#clip-path-2)">
      <g id="합치기_4" data-name="합치기 4" transform="translate(0 -1.793)" fill="#fff">
        <path d="M16.133,17.029V0h.9V17.029Zm-2.689,0V0h.9V17.029Zm-2.689,0V0h.9V17.029Zm-2.689,0V0h.9V17.029Zm-2.689,0V0h.9V17.029Zm-2.689,0V0h.9V17.029ZM0,17.029V0H.9V17.029Z" stroke="none"/>
        <path d="M 17.02887916564941 17.02887535095215 L 16.13269996643066 17.02887535095215 L 16.13269996643066 -4.231872480886523e-06 L 17.02887916564941 -4.231872480886523e-06 L 17.02887916564941 17.02887535095215 Z M 14.34036922454834 17.02887535095215 L 13.44339942932129 17.02887535095215 L 13.44339942932129 -4.231872480886523e-06 L 14.34036922454834 -4.231872480886523e-06 L 14.34036922454834 17.02887535095215 Z M 11.65103912353516 17.02887535095215 L 10.75488948822021 17.02887535095215 L 10.75488948822021 -4.231872480886523e-06 L 11.65103912353516 -4.231872480886523e-06 L 11.65103912353516 17.02887535095215 Z M 8.962529182434082 17.02887535095215 L 8.066349983215332 17.02887535095215 L 8.066349983215332 -4.231872480886523e-06 L 8.962529182434082 -4.231872480886523e-06 L 8.962529182434082 17.02887535095215 Z M 6.274019718170166 17.02887535095215 L 5.377049446105957 17.02887535095215 L 5.377049446105957 -4.231872480886523e-06 L 6.274019718170166 -4.231872480886523e-06 L 6.274019718170166 17.02887535095215 Z M 3.584689617156982 17.02887535095215 L 2.688539505004883 17.02887535095215 L 2.688539505004883 -4.231872480886523e-06 L 3.584689617156982 -4.231872480886523e-06 L 3.584689617156982 17.02887535095215 Z M 0.8961795568466187 17.02887535095215 L -4.17175300526651e-07 17.02887535095215 L -4.17175300526651e-07 -4.231872480886523e-06 L 0.8961795568466187 -4.231872480886523e-06 L 0.8961795568466187 17.02887535095215 Z" stroke="none" fill="#f2df64"/>
      </g>
    </g>
  </g>
  <path id="container-2" data-name="container" d="M0,0H43V43.021H0Z" transform="translate(15.323 4.174)" fill="none" opacity="0.19"/>
  <g id="icon_수정_" data-name="icon(수정)" transform="translate(14.042 2)">
    <g id="그룹_17913" data-name="그룹 17913" clip-path="url(#clip-path-3)">
      <path id="패스_23903" data-name="패스 23903" d="M12.92,4.177V6.988h-.969V4.177C5.691,4.647,6.212,0,6.212,0c4.094-.059,5.541,2.253,6.018,3.439a.5.5,0,0,1,.409,0c.47-1.189,1.915-3.5,6.018-3.439,0,0,.52,4.645-5.739,4.176" fill="#667c68"/>
      <path id="패스_23904" data-name="패스 23904" d="M30.471,24.367h0a7.108,7.108,0,0,0-7.082,6.641H37.553a7.108,7.108,0,0,0-7.082-6.641" fill="#667c68"/>
      <path id="패스_23905" data-name="패스 23905" d="M37.553,31.094H23.388c-.01.154-.023.308-.023.465v10.8a.75.75,0,0,0,.75.75H36.827a.75.75,0,0,0,.75-.75v-10.8c0-.157-.014-.311-.024-.465m-5.825,6.459-1.754,2.021a.3.3,0,0,1-.527-.252l.383-1.9a.335.335,0,0,0,.007-.071v0A.358.358,0,0,0,29.473,37a.334.334,0,0,1-.259-.551l1.753-2.021a.3.3,0,0,1,.527.252l-.38,1.894a.342.342,0,0,0-.007.071h0a.359.359,0,0,0,.364.354h0a.334.334,0,0,1,.26.551" fill="#bac8a6"/>
      <path id="패스_23906" data-name="패스 23906" d="M16.851,6.935a.75.75,0,0,0-.749-.7H9.375a.751.751,0,0,0-.749.694L5.932,42.658a.758.758,0,0,0,.2.567.75.75,0,0,0,.55.24H18.667a.753.753,0,0,0,.749-.8Zm-.813,9.622H9.4l.113-1.5H15.93Zm.507,7.059.106,1.5H8.759l.113-1.5Zm.614,8.559.108,1.5H8.114l.113-1.5Z" fill="#bac8a6"/>
      <path id="패스_23907" data-name="패스 23907" d="M43.167,43.723H.75a.75.75,0,0,1,0-1.5H43.167a.75.75,0,0,1,0,1.5" fill="#667c68"/>
    </g>
  </g>
</svg>
