<svg width="136" height="56" xmlns="http://www.w3.org/2000/svg">
    <g fill="none" fill-rule="evenodd">
        <path d="M105.075 30.325c-2.25 0-4.08 1.83-4.08 4.08s1.83 4.08 4.08 4.08 4.08-1.83 4.08-4.08-1.83-4.08-4.08-4.08" fill="#FF404E"/>
        <path fill="#3617CE" d="M27 20.426h18.046v-5.191H27zM33.266 38.485h5.507V24.814l-5.507-2.753zM60.934 19c1.654 0 3 1.346 3 3s-1.346 3-3 3-3-1.346-3-3 1.346-3 3-3m8.288 3.138c0-4.495-3.71-8.138-8.288-8.138-4.577 0-8.288 3.643-8.288 8.138 0 2.687 1.327 5.07 3.373 6.552h-7.085v4.768h9.472L58.407 42l5.054-2.481h.002v-6.06h9.471v-4.77H65.85c2.045-1.481 3.372-3.864 3.372-6.551M75.582 28.69v4.768h9.3L84.883 42l4.962-2.481h-.003.003l.002-6.06h9.3v-4.77zM92.38 19.572h3.432v-4.824H78.918v4.824h3.43l-4.61 4.887 3.644 3.437 5.982-6.34 5.982 6.34 3.645-3.437z"/>
        <path d="M0 0h136v56H0z"/>
    </g>
</svg>
