<?xml version="1.0" encoding="UTF-8"?>
<svg width="136px" height="56px" viewBox="0 0 136 56" version="1.1" xmlns="http://www.w3.org/2000/svg" xmlns:xlink="http://www.w3.org/1999/xlink">
    <title>graphic_home_tab_Twoojoo_on</title>
    <defs>
        <rect id="path-1" x="29" y="14" width="78" height="29"></rect>
    </defs>
    <g id="graphic_home_tab_Twoojoo_on" stroke="none" stroke-width="1" fill="none" fill-rule="evenodd">
        <mask id="mask-2" fill="white">
            <use xlink:href="#path-1"></use>
        </mask>
        <g id="Mask"></g>
        <path d="M65.319172,28.064 C71.655172,28.064 75.559172,25.504 75.559172,21.632 C75.559172,17.888 71.655172,15.296 65.319172,15.296 C59.015172,15.296 55.047172,17.888 55.047172,21.632 C55.047172,25.504 59.015172,28.064 65.319172,28.064 Z M65.319172,24.736 C61.703172,24.736 59.495172,23.36 59.495172,21.632 C59.495172,20 61.703172,18.624 65.319172,18.624 C68.935172,18.624 71.111172,20 71.111172,21.632 C71.111172,23.36 68.935172,24.736 65.319172,24.736 Z M67.431172,42.56 L67.431172,33.28 L78.215172,33.28 L78.215172,29.952 L52.455172,29.952 L52.455172,33.28 L63.239172,33.28 L63.239172,42.56 L67.431172,42.56 Z M83.427586,27.776 C87.171586,27.392 91.875586,25.408 93.539586,22.368 C95.235586,25.44 99.971586,27.328 103.779586,27.744 C104.323586,26.656 104.899586,25.568 105.443586,24.448 C100.867586,24.032 96.515586,21.856 96.035586,18.496 L104.259586,18.496 L104.259586,15.168 L82.883586,15.168 L82.883586,18.496 L91.043586,18.496 C90.595586,21.888 86.371586,24.096 81.763586,24.512 L82.176586,25.337 L82.176586,25.337 L83.014586,26.951 C83.153586,27.222 83.291586,27.496 83.427586,27.776 Z M95.587586,42.56 L95.587586,32.96 L106.467586,32.96 L106.467586,29.568 L80.707586,29.568 L80.707586,32.96 L91.395586,32.96 L91.395586,42.56 L95.587586,42.56 Z" id="우주" fill="#F04D49" fill-rule="nonzero" mask="url(#mask-2)"></path>
        <polygon id="T" fill="#F04D49" fill-rule="nonzero" mask="url(#mask-2)" points="41.839 41.483 41.839 19.69 49.054 19.69 49.054 16.101 29.999 16.101 29.999 19.69 37.288 19.69 37.288 41.483"></polygon>
    </g>
</svg>