<svg xmlns="http://www.w3.org/2000/svg" width="63" height="63" viewBox="0 0 63 63">
  <g transform="translate(0.462 0.079)">
    <path d="M585.5,86.921h0c17.386,0,31,14.614,31,32a30.666,30.666,0,0,1-31,31c-17.386,0-32-13.613-32-31a32.375,32.375,0,0,1,32-32" transform="translate(-553.962 -87)" fill="#ebdef8"/>
    <path d="M4073.711-3857.759h-9.429a4.4,4.4,0,0,1-4.4-4.4v-5.719a4.4,4.4,0,0,1,4.4-4.4h14.124a4.4,4.4,0,0,1,4.4,4.4v5.719a4.4,4.4,0,0,1-3.707,4.345l2.19,3.629Z" transform="translate(-4040.306 3895.477)" fill="#6a37a3" stroke="rgba(0,0,0,0)" stroke-miterlimit="10" stroke-width="1"/>
  </g>
</svg>
