<svg xmlns="http://www.w3.org/2000/svg" width="48" height="48" viewBox="0 0 48 48"><path d="M24,1a23.006,23.006,0,0,0-8.952,44.193,23.006,23.006,0,0,0,17.9-42.386A22.855,22.855,0,0,0,24,1m0-1A24,24,0,1,1,0,24,24,24,0,0,1,24,0Z" fill="#ddd" opacity="0.3"/><g transform="translate(34 14) rotate(90)"><rect width="20" height="20" fill="red" opacity="0"/><path d="M6.5,14a1,1,0,0,1-.707-.293l-6.5-6.5A1,1,0,0,1-1,6.5a1,1,0,0,1,.293-.707l6.5-6.5a1,1,0,0,1,1.414,0,1,1,0,0,1,0,1.414L1.414,6.5l5.793,5.793A1,1,0,0,1,6.5,14Z" transform="translate(16.5 5.999) rotate(90)" fill="#fff"/></g></svg>