<svg xmlns="http://www.w3.org/2000/svg" xmlns:xlink="http://www.w3.org/1999/xlink" width="52" height="52" viewBox="0 0 52 52"><defs><clipPath id="a"><rect width="47.296" height="32.582" fill="none"/></clipPath></defs><g transform="translate(-1274 -1481)"><rect width="52" height="52" transform="translate(1274 1481)" fill="red" opacity="0"/><g transform="translate(1276 1491)"><g transform="translate(0 0)" clip-path="url(#a)"><path d="M12.193,23.345c.452-.213.92-.434,1.349-.643a35.375,35.375,0,0,0,5.623-3.988v-.8a19.46,19.46,0,0,1-1.918-3.094c-.22-.409-.493-.919-.588-1.034a8.963,8.963,0,0,1-1.246-3.675,2.083,2.083,0,0,1,.693-1.435V5.36l0-.043a7.376,7.376,0,0,1,1.417-3.824A8.959,8.959,0,0,0,14.76,1S8.439.894,7.468,6.848,6.821,16.62,4.879,17.915a12.955,12.955,0,0,0,6.278,1.618s.323,2.2-.584,3.106-8.525,2.006-9.109,3.69L0,30.516H6.814L7.247,26.7l0-.029.005-.027c.177-.968,1.494-1.674,4.938-3.3" transform="translate(0 0.372)" fill="#3a3939"/><path d="M39.032,25.558c-.124-.681-3.036-1.921-5.2-2.973a34.676,34.676,0,0,1-5.463-3.9V17.318c1.044-1.116,2.054-3.47,2.427-3.9a7.794,7.794,0,0,0,.93-2.788c0-.5-.619-.93-.619-.93V6.418c-.559-5.511-6.093-5.163-6.093-5.163a7.1,7.1,0,0,0-2.52.394,7.517,7.517,0,0,1,1.235,3.575l0,.043V8.58a2.079,2.079,0,0,1,.693,1.434,8.951,8.951,0,0,1-1.246,3.673c-.1.118-.368.626-.588,1.035-.353.658-.787,1.469-1.266,2.2a9.949,9.949,0,0,1-.652.894v.8c.137.115.319.266.533.441a31.943,31.943,0,0,0,5.091,3.547c.428.209.9.43,1.347.643,3.444,1.626,4.762,2.332,4.94,3.3l0,.029,0,.027.43,3.792h6.564Z" transform="translate(7.715 0.466)" fill="#3a3939"/><path d="M37.415,27.171c-.139-.762-3.393-2.146-5.817-3.325A33.44,33.44,0,0,1,26.2,20.082c-.442-.364-.713-.6-.713-.6V17.961a8.779,8.779,0,0,0,.983-1.34c.776-1.247,1.434-2.678,1.729-3.024a8.7,8.7,0,0,0,1.04-3.116c0-.555-.693-1.038-.693-1.038V5.776a6.6,6.6,0,0,0-1.182-3.312A6.848,6.848,0,0,0,21.956,0c-.139,0-.217.005-.217.005S21.662,0,21.523,0a6.965,6.965,0,0,0-5.2,2.2,6.426,6.426,0,0,0-1.39,3.575V9.442s-.692.483-.692,1.038A8.728,8.728,0,0,0,15.275,13.6c.416.485,1.548,3.117,2.714,4.364v1.523s-.144.125-.393.332c-.3.255-.77.639-1.324,1.074a28.029,28.029,0,0,1-4.39,2.957C9.458,25.025,6.2,26.409,6.065,27.171l-.422,3.717-.192,1.693H38.028l-.2-1.717Z" transform="translate(2.035 0)" fill="#4a4793"/></g></g></g></svg>