<svg xmlns="http://www.w3.org/2000/svg" xmlns:xlink="http://www.w3.org/1999/xlink" width="52" height="52" viewBox="0 0 52 52"><defs><clipPath id="a"><rect width="40.651" height="46.252" fill="none"/></clipPath></defs><g transform="translate(-1274 -1481)"><rect width="52" height="52" transform="translate(1274 1481)" fill="red" opacity="0"/><g transform="translate(1280 1484)"><g transform="translate(0 0)" clip-path="url(#a)"><path d="M8.7,9.779a9.051,9.051,0,0,0,1.163,1.434,7.129,7.129,0,0,0,1.31,1.043,3.653,3.653,0,0,0,1.335.5,2.875,2.875,0,0,0,1.328-.117,3.347,3.347,0,0,0,1.308-.856,3.858,3.858,0,0,0,.94-1.39,2.951,2.951,0,0,0,.175-1.381,3.622,3.622,0,0,0-.469-1.371,6.335,6.335,0,0,0-1.032-1.33,8.543,8.543,0,0,0-1.481-1.187,5.142,5.142,0,0,0-1.561-.677,3.27,3.27,0,0,0-.745-.087,3.184,3.184,0,0,0-.761.093,2.983,2.983,0,0,0-1.39.83,2.9,2.9,0,0,0-.833,1.407,3.3,3.3,0,0,0,.022,1.53A5.084,5.084,0,0,0,8.7,9.779" transform="translate(2.251 1.242)" fill="#003383"/><path d="M24.584,28.833a1.275,1.275,0,0,0,.179-.062c.027-.012.051-.026.077-.04a1.1,1.1,0,0,0,.121-.066,1.15,1.15,0,0,0,.185-.152l3.983-3.98a1.315,1.315,0,0,0-1.851-1.868L26.213,23.73l-1.15,1.15-1.776,1.776a1.264,1.264,0,0,0-.154.19,1,1,0,0,0-.071.125c-.013.024-.028.049-.04.075a1.517,1.517,0,0,0-.064.181l-.006.022a1.313,1.313,0,0,0,.334,1.267,1.326,1.326,0,0,0,1.064.362,1.46,1.46,0,0,0,.209-.037l.024-.006" transform="translate(6.523 6.347)" fill="#3a3939"/><path d="M5.816,13.893c0,.216.006.419.018.619a5.747,5.747,0,0,1-.008.7,1.038,1.038,0,0,1-.438.669,1.094,1.094,0,0,1-.621.19.907.907,0,0,1-.627-.278,1.052,1.052,0,0,1-.261-.809.342.342,0,0,1,.015-.1c.01-.342.009-.664,0-.965A8.4,8.4,0,0,0,3.8,13c-.042-.292-.1-.574-.159-.848-.055-.249-.123-.506-.2-.768-.006-.013-.012-.027-.017-.04a.736.736,0,0,1,.152-.773,1.156,1.156,0,0,1,.61-.364,1.68,1.68,0,0,1,.6-.048,1.162,1.162,0,0,1,.576.213l8.1,7.908a.809.809,0,0,1,.212.8,1.336,1.336,0,0,1-.346.61,1.2,1.2,0,0,1-.564.329.782.782,0,0,1-.173.021.8.8,0,0,1-.576-.26L9.063,16.73,5.8,13.54c.008.118.013.236.017.353M8.544,6.7A4.918,4.918,0,0,1,9.631,5.138a5.01,5.01,0,0,1,1.558-1.091,4.837,4.837,0,0,1,1.639-.392,5.441,5.441,0,0,1,1.621.164,7.949,7.949,0,0,1,1.51.558,8.942,8.942,0,0,1,1.35.82,9.949,9.949,0,0,1,1.11.947,7.534,7.534,0,0,1,1.31,1.773,5.973,5.973,0,0,1,.672,2.11,5.175,5.175,0,0,1-1.587,4.387,5.02,5.02,0,0,1-2.173,1.35,5.324,5.324,0,0,1-1.425.2,4.849,4.849,0,0,1-.807-.067,6.2,6.2,0,0,1-2.057-.732,7.853,7.853,0,0,1-1.683-1.271,9.816,9.816,0,0,1-.906-1.057,8.928,8.928,0,0,1-.82-1.327A8,8,0,0,1,8.37,10a5.7,5.7,0,0,1-.194-1.634A4.674,4.674,0,0,1,8.544,6.7m4.29,16.279,2.875-1.917a4.129,4.129,0,0,1,4.751.112l1.628-1.628-1.249-1.235a11.586,11.586,0,1,0-8.005,4.668" transform="translate(0 -0.001)" fill="#003383"/><path d="M33.266,30.336,28.7,25.819l-2.945,2.943-.57.57,4.57,4.519a2.679,2.679,0,0,0,3.515-3.515" transform="translate(7.171 7.352)" fill="#003383"/><path d="M23.774,21.509l-2.907,2.909,0,0a1.227,1.227,0,0,0-.153.186,1.185,1.185,0,0,0-.085.153c-.009.017-.019.032-.027.049a1.235,1.235,0,0,0-.072.211v0a1.286,1.286,0,0,0,.339,1.254,1.332,1.332,0,0,0,1.255.33l.012,0a1.587,1.587,0,0,0,.2-.066c.023-.01.044-.023.066-.035a1.275,1.275,0,0,0,.137-.073,1.2,1.2,0,0,0,.189-.153l3.213-3.211.77-.771,0,0,.822-.822a1.315,1.315,0,0,0-1.862-1.859Z" transform="translate(5.832 5.474)" fill="#3a3939"/><path d="M18.726,20.041,21.5,17.268a1.315,1.315,0,1,0-1.859-1.859l-2.726,2.728Z" transform="translate(4.816 4.278)" fill="#3a3939"/><path d="M21.089,22.722l3.673-3.674A1.315,1.315,0,0,0,22.9,17.188l-3.628,3.629Z" transform="translate(5.489 4.785)" fill="#3a3939"/><path d="M27.381,29h-.03a3.088,3.088,0,0,1-3.086-3.086c0-.039.005-.076.006-.113a6.434,6.434,0,0,1-3.988-1.14,11.648,11.648,0,0,1,.067,5.715.885.885,0,1,1-1.709-.465c.944-3.459-.943-7.341-.961-7.38a.886.886,0,0,1,1.4-1.043c2.469,2.292,4.119,2.649,5.021,2.554a2.175,2.175,0,0,0,.868-.276l-5.521-5.8a2.362,2.362,0,0,0-3.029-.338L12.9,19.976a2.381,2.381,0,0,0-1.055,1.892l-.292,8.555a.879.879,0,0,1-.258.6L.968,41.344H17.9l2.282-2.282a.877.877,0,0,1,.452-.243,7.929,7.929,0,0,0,4.075-2.18l4.713-4.711A3.073,3.073,0,0,1,27.381,29" transform="translate(0.276 4.907)" fill="#3a3939"/></g></g></g></svg>