<svg xmlns="http://www.w3.org/2000/svg" xmlns:xlink="http://www.w3.org/1999/xlink" width="52" height="52" viewBox="0 0 52 52"><defs><clipPath id="a"><rect width="37.418" height="46.393" fill="none"/></clipPath></defs><g transform="translate(-1274 -1481)"><rect width="52" height="52" transform="translate(1274 1481)" fill="red" opacity="0"/><g transform="translate(1281 1484)"><g transform="translate(0 0)" clip-path="url(#a)"><path d="M33.238,17.925H29.4a21.438,21.438,0,0,0-1.319-6.687q1.341-.3,2.684-.685a14.368,14.368,0,0,1,2.473,7.372m-3.5-8.711q-1.139.31-2.275.558a15.9,15.9,0,0,0-3.13-4.485,14.607,14.607,0,0,1,5.405,3.927M20.24,4.242a12.854,12.854,0,0,1,5.629,5.844q-1.784.318-3.567.479a38.647,38.647,0,0,0-2.081-6.325Zm-3.043,0a38.609,38.609,0,0,0-2.082,6.333q-1.786-.157-3.571-.474a12.856,12.856,0,0,1,5.634-5.857ZM13.089,5.287a15.933,15.933,0,0,0-3.137,4.5q-1.139-.245-2.279-.558a14.616,14.616,0,0,1,5.416-3.941M6.644,10.569q1.343.388,2.688.686a21.417,21.417,0,0,0-1.313,6.671H4.182a14.333,14.333,0,0,1,2.462-7.357M4.182,19.494H8.013A20.923,20.923,0,0,0,9.3,26.172q-1.327.3-2.655.679a14.367,14.367,0,0,1-2.462-7.357m3.491,8.7q1.125-.306,2.25-.551a15.68,15.68,0,0,0,3.19,4.5,14.6,14.6,0,0,1-5.439-3.952m16.634,3.952a15.686,15.686,0,0,0,3.183-4.488c.748.162,1.5.347,2.245.55a14.588,14.588,0,0,1-5.429,3.938m6.457-5.276q-1.325-.382-2.65-.678a20.961,20.961,0,0,0,1.291-6.7h3.832a14.374,14.374,0,0,1-2.474,7.373M20.2,33.171a42.161,42.161,0,0,0,2.047-6.321q1.827.163,3.658.49a13.018,13.018,0,0,1-5.7,5.831m6.366-7.3q-1.992-.374-3.989-.559a35.934,35.934,0,0,0,.642-5.816h4.627a19.261,19.261,0,0,1-1.281,6.376m1.274-7.945H23.223a34.733,34.733,0,0,0-.6-5.82q1.949-.184,3.9-.547a19.777,19.777,0,0,1,1.309,6.368M10.887,11.573q1.949.361,3.9.542a34.762,34.762,0,0,0-.595,5.811H9.583a19.805,19.805,0,0,1,1.3-6.353M9.577,19.494H14.2a36.139,36.139,0,0,0,.641,5.807q-2,.182-3.993.553a19.257,19.257,0,0,1-1.275-6.359m1.935,7.832q1.833-.325,3.663-.483a42,42,0,0,0,2.049,6.328,13.025,13.025,0,0,1-5.713-5.845m7.2,5.347a40.921,40.921,0,0,1-1.951-5.936q1.949-.094,3.9,0a40.7,40.7,0,0,1-1.95,5.932M21,25.194a42.258,42.258,0,0,0-4.586-.005,34.38,34.38,0,0,1-.648-5.694h5.883a34.609,34.609,0,0,1-.649,5.7m.657-7.268h-5.9a33.168,33.168,0,0,1,.6-5.7,42.264,42.264,0,0,0,4.7-.005,33.23,33.23,0,0,1,.6,5.7m-.938-7.249q-2.013.1-4.025.005a37.162,37.162,0,0,1,2.013-6,37.418,37.418,0,0,1,2.013,6m16.7,8.142a18.71,18.71,0,1,0-18.708,18.6,18.7,18.7,0,0,0,18.708-18.6" transform="translate(0 0)" fill="#003383"/><path d="M12.74,21.074a14.351,14.351,0,0,1,2.288.757l2.493,1.1L19.291,22a12.1,12.1,0,0,1,2.616-.927,3.1,3.1,0,0,1-.229-.357,7.855,7.855,0,0,1-.562-3.549,3.511,3.511,0,0,1,3.767-3.07,3.512,3.512,0,0,1,3.768,3.07,7.874,7.874,0,0,1-.562,3.549,3.142,3.142,0,0,1-.231.358,4.229,4.229,0,0,1,2.711,2.214,3.069,3.069,0,0,1,.235,1.361l-.332,6.188a2.506,2.506,0,0,1-1.418,2.36l-.437,6.457,0,.03a1.788,1.788,0,0,1-1.8,1.622H22.952a1.79,1.79,0,0,1-1.8-1.622l0-.03L20.9,35.9l-.52-7.771-1.232.6-4.851-.91-.54,8.085L13.5,39.654l0,.03a1.788,1.788,0,0,1-1.8,1.622H7.834a1.789,1.789,0,0,1-1.8-1.622l0-.03L5.594,33.2a2.506,2.506,0,0,1-1.418-2.36l-.331-6.188a3.05,3.05,0,0,1,.235-1.361A4.227,4.227,0,0,1,6.79,21.074a3.327,3.327,0,0,1-.23-.358A7.855,7.855,0,0,1,6,17.167,3.511,3.511,0,0,1,9.765,14.1a3.512,3.512,0,0,1,3.768,3.07,7.856,7.856,0,0,1-.563,3.549,2.853,2.853,0,0,1-.23.358" transform="translate(1.386 5.087)" fill="#fff"/><path d="M20.512,26.113l-1.894.919-5.347-1c-.536.191-.547.37-.6,1.072l-.559,8.373-.253,3.719a.489.489,0,0,1-.506.468H7.488a.489.489,0,0,1-.506-.468l-.5-7.3-.508-.154c-.61-.186-.812-.6-.851-1.319L4.8,24.236c-.09-1.675,2.024-2.579,4.251-2.644a14.233,14.233,0,0,1,5.11,1.083l3.066,1.35,2.324-1.218a13.6,13.6,0,0,1,5.318-1.217c2.243.056,4.382.961,4.292,2.646l-.331,6.187c-.038.717-.241,1.132-.851,1.319l-.508.154-.494,7.3a.491.491,0,0,1-.508.468H22.606a.489.489,0,0,1-.506-.468l-.253-3.719L21.287,27.1c-.031-.419-.143-1.294-.776-.988m1.553-9.17a2.233,2.233,0,0,1,2.474-1.89,2.231,2.231,0,0,1,2.473,1.89,6.913,6.913,0,0,1-.408,2.8,2.662,2.662,0,0,1-1.668,1.18,2,2,0,0,1-.793,0,2.662,2.662,0,0,1-1.668-1.18,6.937,6.937,0,0,1-.408-2.8m-10.171,0a2.232,2.232,0,0,0-2.474-1.89,2.231,2.231,0,0,0-2.473,1.89,6.96,6.96,0,0,0,.408,2.8,2.662,2.662,0,0,0,1.668,1.18,2,2,0,0,0,.793,0,2.662,2.662,0,0,0,1.668-1.18,6.913,6.913,0,0,0,.408-2.8" transform="translate(1.73 5.432)" fill="#3a3939"/></g></g></g></svg>