<svg xmlns="http://www.w3.org/2000/svg" xmlns:xlink="http://www.w3.org/1999/xlink" width="60" height="60" viewBox="0 0 60 60"><defs><clipPath id="a"><rect width="50.974" height="56.692" fill="none"/></clipPath></defs><g transform="translate(-1274 -1481)"><rect width="60" height="60" transform="translate(1274 1481)" fill="none"/><g transform="translate(1278.513 1482.654)"><g transform="translate(0 0)" clip-path="url(#a)"><path d="M20.764,38.532a1.945,1.945,0,1,0-.564-1.369,1.863,1.863,0,0,0,.564,1.369m-3-8.693a2.568,2.568,0,1,0,1.809.753,2.466,2.466,0,0,0-1.809-.753M33.44,41.272a3.526,3.526,0,0,1-1.218,2.122l-.062.062a3.557,3.557,0,0,1-2.291.824H8.722a3.509,3.509,0,0,1-2.291-.824L6.4,43.43a3.61,3.61,0,0,1-.824-4.593L15.633,21.39v-6.8a2.231,2.231,0,0,1-2.22-2.22v-.009a2.124,2.124,0,0,1,.653-1.558,2.147,2.147,0,0,1,1.567-.653h7.315a2.227,2.227,0,0,1,2.209,2.211v.009a2.227,2.227,0,0,1-2.209,2.22v6.831L33,38.828l.053.1a3.512,3.512,0,0,1,.384,2.258.594.594,0,0,1,0,.089" transform="translate(6.211 12.411)" fill="#4ca223"/><path d="M43.946,25.224c.087-.111.173-.222.26-.331l-.027.018q4.053-5.607,2.409-8.969-2.083-3.113-8.953-2.409h-.009c-.136.016-.269.033-.4.053a45.981,45.981,0,0,1,1.413,6.955,44.883,44.883,0,0,1,5.309,4.682m-4.913.476q.043,1.193.044,2.424t-.036,2.409q1.323-1.18,2.478-2.409-1.157-1.24-2.487-2.424m8.182,3.42.018.009q5.8,8.01,2.613,13.033h-.018q-2.353,4.49-9.866,4.431l-2.238-3.875q6.786.657,8.873-2.435h-.009q1.643-3.357-2.391-8.933l-.018-.018c-.08-.107-.156-.213-.233-.322a47.078,47.078,0,0,1-5.309,4.709,47.01,47.01,0,0,1-1.262,6.391l-4.153-7.2q.963-.623,1.871-1.262.233-2.663.233-5.524,0-2.883-.233-5.531Q32.9,21.036,30.4,19.6l-.009-.009q-2.49-1.447-4.9-2.542-2.42,1.1-4.931,2.551a53.571,53.571,0,0,0-4.638,2.982q-.26,2.65-.26,5.54,0,2.867.26,5.524.89.637,1.836,1.253l-4.147,7.2a45.914,45.914,0,0,1-1.242-6.391,45.538,45.538,0,0,1-5.327-4.7q-.12.153-.233.313v.009q-4.07,5.61-2.427,8.978H4.369q2.09,3.09,8.889,2.409l-2.229,3.875q-7.536.093-9.891-4.413H1.129q-3.19-5.017,2.631-13.051v.018q.37-.523.762-1.04c-.256-.322-.5-.649-.744-.976l-.018-.018q-5.82-8.056-2.631-13.069Q3.869,8.761,13.76,9.809h-.036q.64.057,1.289.144c.158-.4.322-.782.493-1.164v.018Q19.56-.25,25.5.007q5.923-.26,9.982,8.8V8.789c.176.384.347.773.511,1.173.409-.058.822-.109,1.236-.153h.018q9.86-1.023,12.6,4.253,3.183,5.017-2.613,13.051a.077.077,0,0,0-.027.027c-.247.329-.5.656-.753.984.258.327.511.66.762,1M32.237,10.7c-.058-.124-.113-.247-.171-.367v-.009Q29.233,4.009,25.5,3.758q-3.747.247-6.58,6.571v.009c-.051.113-.1.231-.151.349A45.588,45.588,0,0,1,25.5,12.96,44.053,44.053,0,0,1,32.237,10.7M20.8,15.189q-1.673-.563-3.3-.958-.483,1.613-.842,3.34.993-.62,2.042-1.227t2.1-1.156m-7.026-1.62-.376-.036h-.036q-6.893-.73-8.971,2.382Q2.74,19.275,6.8,24.9l.018.009q.113.157.233.313a44.246,44.246,0,0,1,5.327-4.682,45.442,45.442,0,0,1,1.4-6.973M11.915,28.124c0-.82.013-1.624.044-2.415q-1.33,1.177-2.489,2.415,1.16,1.227,2.489,2.4c-.031-.787-.044-1.587-.044-2.4M32.29,16.362l-.009-.018q1.057.61,2.06,1.244-.357-1.737-.842-3.34-1.637.383-3.3.94,1.04.557,2.1,1.173" transform="translate(0 -0.001)" fill="#3b3938"/></g></g></g></svg>