<svg xmlns="http://www.w3.org/2000/svg" xmlns:xlink="http://www.w3.org/1999/xlink" width="60" height="60" viewBox="0 0 60 60"><defs><clipPath id="a"><rect width="44.577" height="57.174" fill="none"/></clipPath></defs><g transform="translate(-1274 -1481)"><rect width="60" height="60" transform="translate(1274 1481)" fill="none"/><g transform="translate(1281.711 1482.413)"><g transform="translate(0 0)" clip-path="url(#a)"><path d="M39.826,0a4.71,4.71,0,0,1,3.317,1.437A4.719,4.719,0,0,1,44.577,4.9V52.273a4.9,4.9,0,0,1-4.9,4.9H4.9a4.721,4.721,0,0,1-3.465-1.437A4.715,4.715,0,0,1,0,52.448V15.073A4.711,4.711,0,0,1,1.434,11.73a5.114,5.114,0,0,1,.822-.675,4.713,4.713,0,0,1,2.521-.762h9.267l2.994-7.537a4.41,4.41,0,0,1,.567-1.024A4.349,4.349,0,0,1,18.639.753,4.245,4.245,0,0,1,20.958,0H37.542L35.835,4.341H21.082Q19.9,7.319,18.708,10.293H32.93a4.251,4.251,0,0,0,2.32-.753,4.294,4.294,0,0,0,1.031-.979,4.353,4.353,0,0,0,.473-.8Z" transform="translate(0 0)" fill="#3b3938"/><path d="M31.275,18.463a9.979,9.979,0,0,0-4.392-5.979,11.4,11.4,0,0,0-7.51-2c-.289.027-.571.063-.847.105l-.1.018Q9.22,11.871,3.708,8.95a10.132,10.132,0,0,0,.352,7.212,18.343,18.343,0,0,0,7.288,8.769,18.363,18.363,0,0,0,10.887,3.415q5.392-.155,7.947-3.72a15.843,15.843,0,0,1,2.913,7.51L35.3,30.648a22.987,22.987,0,0,0-4.35-7.371,11.7,11.7,0,0,0-7.472-3.859q-7.765-.85-9.872-3.09,2.686,1.523,8.6,1.268t9.276,3.7a8.109,8.109,0,0,0-.211-2.837" transform="translate(3.97 11.108)" fill="#4ca223"/><path d="M10.432,6.276H2.259L0,4.017v-2.8H12.691v2.8Z" transform="translate(0 1.509)" fill="#3b3938"/></g></g></g></svg>