<svg xmlns="http://www.w3.org/2000/svg" xmlns:xlink="http://www.w3.org/1999/xlink" width="52" height="52" viewBox="0 0 52 52"><defs><clipPath id="a"><rect width="45.641" height="45.643" fill="none"/></clipPath></defs><g transform="translate(-1274 -1481)"><rect width="52" height="52" transform="translate(1274 1481)" fill="red" opacity="0"/><g transform="translate(1277.18 1484.179)"><g transform="translate(0 0)" clip-path="url(#a)"><path d="M2.521,33.259A22.821,22.821,0,0,1,33.257,2.521l-.849,1.65A20.972,20.972,0,0,0,1.855,22.82,20.74,20.74,0,0,0,4.17,32.409Z" transform="translate(0 0.001)" fill="#0057aa"/><path d="M18,40.821A22.6,22.6,0,0,1,7.9,38.471l.821-1.663A20.754,20.754,0,0,0,18,38.966,20.989,20.989,0,0,0,38.964,18a20.754,20.754,0,0,0-2.158-9.274L38.47,7.9A22.607,22.607,0,0,1,40.819,18,22.846,22.846,0,0,1,18,40.821" transform="translate(4.822 4.823)" fill="#0057aa"/><path d="M20.653,34.011a17.122,17.122,0,0,1-17.1-17.1,16.945,16.945,0,0,1,1.6-7.221l1.681.784a15.112,15.112,0,0,0-1.422,6.437A15.264,15.264,0,0,0,20.653,32.156a15.1,15.1,0,0,0,6.561-1.48l.8,1.673a16.943,16.943,0,0,1-7.362,1.662" transform="translate(2.167 5.912)" fill="#0057aa"/><path d="M32.419,27.834l-1.684-.779a15.11,15.11,0,0,0,1.4-6.4A15.263,15.263,0,0,0,16.894,5.408a15.1,15.1,0,0,0-6.4,1.4L9.714,5.129a16.944,16.944,0,0,1,7.18-1.576A17.108,17.108,0,0,1,32.419,27.834" transform="translate(5.927 2.168)" fill="#0057aa"/><path d="M7.881,22.576a11.365,11.365,0,0,1,14.693-14.7L21.9,9.611a9.509,9.509,0,0,0-12.293,12.3Z" transform="translate(4.344 4.344)" fill="#0057aa"/><path d="M15.577,26.937a11.33,11.33,0,0,1-3.7-.618l.605-1.753A9.512,9.512,0,0,0,24.563,12.476l1.753-.605a11.364,11.364,0,0,1-10.74,15.066" transform="translate(7.244 7.244)" fill="#0057aa"/><path d="M18.828,14.593a3.461,3.461,0,0,0-3.465-3.442,3.413,3.413,0,0,0-3.407,3.442,3.318,3.318,0,0,0,1.621,2.9v3.829h3.71V17.49a3.458,3.458,0,0,0,1.541-2.9" transform="translate(7.295 6.804)" fill="#3b3938"/></g></g></g></svg>