<svg xmlns="http://www.w3.org/2000/svg" xmlns:xlink="http://www.w3.org/1999/xlink" width="60" height="60" viewBox="0 0 60 60"><defs><clipPath id="a"><rect width="37.514" height="55.732" fill="none"/></clipPath></defs><g transform="translate(-1274 -1481)"><rect width="60" height="60" transform="translate(1274 1481)" fill="none"/><g transform="translate(1285.243 1483.133)"><g transform="translate(0 0)" clip-path="url(#a)"><path d="M18.743,12.485h.029A32.9,32.9,0,0,0,30.19,10.721q3.049-1.144,3.046-2.462,0-.835-1.681-1.679a8.628,8.628,0,0,0,1.7-1.142,5.826,5.826,0,0,0,1.319-1.557Q37.5,5.7,37.513,8.067v35.6a5.27,5.27,0,0,1-1.427,3.641.111.111,0,0,1-.029.024l-.016.016A10.706,10.706,0,0,1,32.675,49.5q-.543.242-1.15.476a29.309,29.309,0,0,1-5.2,1.4c-.446.079-.9.151-1.364.214a45.962,45.962,0,0,1-6.189.391h-.029a45.7,45.7,0,0,1-6.174-.391q-.708-.1-1.388-.214h-.016a29.253,29.253,0,0,1-5.175-1.4q-.61-.233-1.15-.476A10.683,10.683,0,0,1,1.474,47.35l-.016-.016a.12.12,0,0,1-.031-.024A5.268,5.268,0,0,1,0,43.669V8.151a.5.5,0,0,1,0-.077V8.067Q.016,5.716,2.892,3.91A7.006,7.006,0,0,0,5.975,6.573q-1.7.849-1.695,1.687,0,1.315,3.044,2.462a32.92,32.92,0,0,0,11.419,1.764m0,4.3a46.426,46.426,0,0,0,4.921-.254q1.253-.136,2.424-.346v31.36q.386-.074.767-.153l.468-.106a24.944,24.944,0,0,0,2.867-.867,16.972,16.972,0,0,0,1.925-.843,7.5,7.5,0,0,0,.828-.513,2.074,2.074,0,0,0,.767-1.842V11.726a13.3,13.3,0,0,1-1.595.828q-.5.224-1.074.438A27.442,27.442,0,0,1,26.149,14.3q-1.2.215-2.485.352a46.425,46.425,0,0,1-4.921.254,42.973,42.973,0,0,1-7.377-.592v-.006a27.82,27.82,0,0,1-4.892-1.319q-.569-.215-1.074-.438a13.339,13.339,0,0,1-1.6-.828V43.215a2.084,2.084,0,0,0,.767,1.842,7.544,7.544,0,0,0,.83.513,16.927,16.927,0,0,0,1.923.843,24.587,24.587,0,0,0,2.853.859c.155.037.311.073.468.108q.38.08.767.153V16.181a42.077,42.077,0,0,0,7.332.6M21.548,23.7h-.415q-3.769,4.71-7.536,9.418h4.278v.008l-1.917,6.634h.407q3.766-4.713,7.536-9.426h-4.27q.958-3.315,1.917-6.634" transform="translate(0 3.749)" fill="#4ca223"/><path d="M16.681,0A30.551,30.551,0,0,1,26.3,1.3q4.9,1.6,4.892,4.149a2.6,2.6,0,0,1-.346,1.3q-.849,1.522-3.795,2.625c-.242.088-.492.175-.751.26q-.77.254-1.6.46l-.484-2.377q.69-.174,1.333-.383,2.339-.773,2.692-1.581a.776.776,0,0,0,.063-.291q0-.958-2.755-1.864A28.661,28.661,0,0,0,16.681,2.43,28.473,28.473,0,0,0,7.839,3.6q-2.766.908-2.768,1.887a.655.655,0,0,0,.055.254q.324.811,2.713,1.595A22.906,22.906,0,0,0,11.9,8.23q1.286.174,2.7.244V5.185l.008.008,7.882,4.54-.014.008-7.861,4.548-.016.008v-3.39A28.047,28.047,0,0,1,7.088,9.64c-.269-.088-.527-.177-.775-.267Q3.4,8.275,2.533,6.742a2.75,2.75,0,0,1-.368-1.366Q2.174,2.907,7.088,1.3A30.337,30.337,0,0,1,16.681,0" transform="translate(2.092 -0.001)" fill="#3b3938"/></g></g></g></svg>