<svg xmlns="http://www.w3.org/2000/svg" xmlns:xlink="http://www.w3.org/1999/xlink" width="60" height="60" viewBox="0 0 60 60"><defs><clipPath id="a"><rect width="39.405" height="56" fill="none"/></clipPath></defs><g transform="translate(-1274 -1481)"><rect width="60" height="60" transform="translate(1274 1481)" fill="none"/><g transform="translate(1284.297 1482.999)"><path d="M4.366,9.546H11.6l-.552,6.229H2.711Z" transform="translate(2.674 9.299)" fill="#4ca223"/><path d="M8.365,9.546h7.284l.544,6.229H7.812Z" transform="translate(7.706 9.299)" fill="#4ca223"/><path d="M13.21,15.775l-.552-6.229h7.25l1.649,6.229Z" transform="translate(12.485 9.3)" fill="#4ca223"/><path d="M13.687,21.222l-.671-7.64h8.661l2.034,7.64Z" transform="translate(12.839 13.227)" fill="#4ca223"/><path d="M16.778,13.582l.669,7.64H7.391l.671-7.64Z" transform="translate(7.29 13.227)" fill="#4ca223"/><path d="M3.477,13.582h8.668l-.679,7.64H1.445Z" transform="translate(1.425 13.227)" fill="#4ca223"/><path d="M2.4,18.325,0,27.335H11.928l.8-9.01Z" transform="translate(0 17.84)" fill="#4ca223"/><path d="M7.708,18.325H18.087l.8,9.01H6.906Z" transform="translate(6.812 17.839)" fill="#4ca223"/><path d="M13.435,18.325l.795,9.01H26.154l-2.382-9.01Z" transform="translate(13.252 17.84)" fill="#4ca223"/><path d="M11.454,23.766l-.471,5.278L2.4,30.75l-.373,2.113H33.373L33,30.75l-8.583-1.706-.473-5.278Z" transform="translate(1.999 23.136)" fill="#3b3938"/><g transform="translate(0 0)"><g clip-path="url(#a)"><path d="M5.68,17.059a.856.856,0,0,0-.63.261.842.842,0,0,0-.254.49L4.8,17.8l-.566,2.116L.684,17.35,6.349,13.26,4.176,6.618h7.016L13.355,0l5.671,4.1L24.7,0l2.165,6.618H33.88l-2.171,6.646,5.655,4.091L33.842,19.9l-.562-2.1.006.01a.842.842,0,0,0-.254-.49.856.856,0,0,0-.63-.261H26.741a8.384,8.384,0,0,0-.093-.9,7.406,7.406,0,0,0-3.091-5.008A7.459,7.459,0,0,0,17.82,9.775a7.446,7.446,0,0,0-5.035,3.07A7.352,7.352,0,0,0,11.3,17.059Z" transform="translate(0.675 -0.001)" fill="#3b3938"/></g></g></g></g></svg>