<svg xmlns="http://www.w3.org/2000/svg" xmlns:xlink="http://www.w3.org/1999/xlink" width="52" height="52" viewBox="0 0 52 52"><defs><clipPath id="a"><rect width="41.446" height="46.386" fill="none"/></clipPath></defs><g transform="translate(0.107)"><rect width="52" height="52" transform="translate(-0.107)" fill="none"/><g transform="translate(5.344 3.266)"><g transform="translate(0 0)" clip-path="url(#a)"><path d="M36.815,19.853h-4.25A23.749,23.749,0,0,0,31.1,12.447q1.486-.333,2.972-.759a15.906,15.906,0,0,1,2.739,8.166m-3.879-9.648q-1.263.343-2.521.617a17.628,17.628,0,0,0-3.466-4.968,16.177,16.177,0,0,1,5.988,4.351M22.42,4.7a14.249,14.249,0,0,1,6.234,6.474q-1.977.351-3.95.531A42.718,42.718,0,0,0,22.4,4.7Zm-3.371,0a42.956,42.956,0,0,0-2.308,7.015q-1.975-.176-3.954-.525A14.25,14.25,0,0,1,19.028,4.7ZM14.5,5.856a17.607,17.607,0,0,0-3.473,4.984q-1.263-.273-2.526-.618a16.176,16.176,0,0,1,6-4.365M7.36,11.705q1.486.429,2.976.761a23.7,23.7,0,0,0-1.453,7.388H4.631A15.884,15.884,0,0,1,7.36,11.705M4.631,21.593H8.876a23.187,23.187,0,0,0,1.424,7.4q-1.47.329-2.94.753a15.9,15.9,0,0,1-2.728-8.148m29.444,8.166q-1.468-.423-2.936-.751a23.235,23.235,0,0,0,1.432-7.414h4.243a15.914,15.914,0,0,1-2.739,8.166M22.952,11.825q-2.228.114-4.458.005a41.43,41.43,0,0,1,2.23-6.648,41.323,41.323,0,0,1,2.229,6.643m18.494,9.018A20.723,20.723,0,1,0,9.229,37.973v-.711a5.365,5.365,0,0,1,1.436-3.946A16.484,16.484,0,0,1,8.5,31.226q1.245-.341,2.492-.612a18.372,18.372,0,0,0,.882,1.634,9.95,9.95,0,0,1,1.5-.876q-.327-.539-.617-1.106,1.34-.237,2.679-.395a5.656,5.656,0,0,1-.654-.935,4.954,4.954,0,0,1-.31-.691q-1.225.164-2.448.391a21.353,21.353,0,0,1-1.411-7.043h3.157a5.8,5.8,0,0,1,.588-1.739H10.615a21.873,21.873,0,0,1,1.444-7.035q2.16.4,4.323.6a38.948,38.948,0,0,0-.588,4.691,6.8,6.8,0,0,1,1.82-1.049q.168-1.757.507-3.514a46.84,46.84,0,0,0,5.2-.007q.341,1.761.508,3.521a6.781,6.781,0,0,1,1.82,1.049,38.337,38.337,0,0,0-.59-4.7q2.162-.2,4.32-.606a21.9,21.9,0,0,1,1.451,7.053H27.094a5.8,5.8,0,0,1,.588,1.739h3.158a21.386,21.386,0,0,1-1.417,7.061q-1.225-.229-2.447-.395a5.161,5.161,0,0,1-.3.678,5.725,5.725,0,0,1-.665.945q1.34.162,2.682.4-.285.556-.608,1.086a9.964,9.964,0,0,1,1.5.876q.473-.782.871-1.614,1.243.271,2.488.61a16.4,16.4,0,0,1-2.151,2.072,5.38,5.38,0,0,1,1.433,3.949v.711a20.689,20.689,0,0,0,9.228-17.13" transform="translate(0 0)" fill="#0058a7"/><path d="M4.515,37.488H15.99a3.39,3.39,0,0,1,6.509,0H33.955v1.9H22.5a3.39,3.39,0,0,1-6.509,0H4.515Zm24.318-2.44V32.655c.392-7.245-19.586-7.227-19.2,0v2.393h5.821a5.081,5.081,0,0,1,7.572,0ZM14.1,17.708c.242-2.584,2.556-3.876,5.137-3.876s4.892,1.292,5.135,3.876a14.063,14.063,0,0,1-.847,5.747,5.539,5.539,0,0,1-3.465,2.419,4.241,4.241,0,0,1-1.647,0,5.539,5.539,0,0,1-3.465-2.419,14.063,14.063,0,0,1-.847-5.747" transform="translate(1.488 4.56)" fill="#3a3939"/></g></g></g></svg>