<svg xmlns="http://www.w3.org/2000/svg" xmlns:xlink="http://www.w3.org/1999/xlink" width="60" height="60" viewBox="0 0 60 60"><defs><clipPath id="a"><rect width="48.909" height="54.5" fill="none"/></clipPath></defs><g transform="translate(-1274 -1481)"><rect width="60" height="60" transform="translate(1274 1481)" fill="none"/><g transform="translate(1279.545 1483.749)"><g transform="translate(0 0)" clip-path="url(#a)"><path d="M3.506,23.708a5.281,5.281,0,0,0,.5-.248l.042-.027.013-.008A5.679,5.679,0,0,0,5.627,22.1l.165.165a21.063,21.063,0,0,0,9.99,5.764,5.615,5.615,0,0,0-.323,1.936v.083a5.707,5.707,0,0,0,.035.633A23.507,23.507,0,0,1,3.927,24.135q-.213-.211-.421-.427" transform="translate(3.235 20.394)" fill="#4ca223"/><path d="M2.2,19.027l.021-.008a3.967,3.967,0,0,1,3.105-.413,4.09,4.09,0,0,1,1.646.854l.013.015,2.446-1.413v-.019l.729-.421v1.35a3.631,3.631,0,0,0,.352,1.515l-2.2,1.281a4.109,4.109,0,0,1-.077,1.859,3.963,3.963,0,0,1-1.9,2.5l-.027.019a4.01,4.01,0,0,1-3.105.386h.013a3.9,3.9,0,0,1-2.5-1.915v.008A3.965,3.965,0,0,1,.3,21.506v.008a3.894,3.894,0,0,1,1.9-2.486m2.094,5.02a1.392,1.392,0,0,0,1.019-.427,1.462,1.462,0,0,0,0-2.08,1.383,1.383,0,0,0-1.019-.433,1.4,1.4,0,0,0-1.027.433,1.467,1.467,0,0,0,1.027,2.507" transform="translate(0.136 16.259)" fill="#4ca223"/><path d="M1.5,10.923l.035.013.056.035.019.008a5.768,5.768,0,0,0,1.784.633,22.575,22.575,0,0,0-.752,5.895A22.484,22.484,0,0,0,3.4,23.415a5.592,5.592,0,0,0-1.713.613l-.069.029-.008.006c-.031.015-.06.031-.088.048l-.021.008a5.634,5.634,0,0,0-.55.358A24.946,24.946,0,0,1,0,17.506a25.162,25.162,0,0,1,.944-6.954,5.728,5.728,0,0,0,.558.371" transform="translate(0 9.736)" fill="#4ca223"/><path d="M4.28,8.677a1.454,1.454,0,0,0-1.463,1.461,1.425,1.425,0,0,0,.427,1.042,1.4,1.4,0,0,0,1.036.425,1.4,1.4,0,0,0,1.034-.425,1.465,1.465,0,0,0,0-2.078A1.4,1.4,0,0,0,4.28,8.677M.718,8.087l.008-.013a3.944,3.944,0,0,1,2.5-1.907,3.951,3.951,0,0,1,3.1.411l.008.008a3.961,3.961,0,0,1,1.894,2.5V9.075a3.981,3.981,0,0,1,.075,1.83v.013l1.907,1.111a1.638,1.638,0,0,0-1.386,1.627v.6L6.989,13.2a3.954,3.954,0,0,1-1.654.879H5.33a3.973,3.973,0,0,1-3.117-.419l.008.008A3.913,3.913,0,0,1,.306,11.194v-.006a3.957,3.957,0,0,1,.411-3.1" transform="translate(0.148 5.553)" fill="#4ca223"/><path d="M15.786,4.424a21.023,21.023,0,0,0-9.977,5.743c-.063.062-.125.121-.187.179A5.721,5.721,0,0,0,4,9.025l.029.019c-.181-.1-.361-.2-.544-.281.15-.156.3-.31.454-.461A23.5,23.5,0,0,1,15.5,1.773a6.01,6.01,0,0,0-.04.7,5.6,5.6,0,0,0,.323,1.95" transform="translate(3.218 1.636)" fill="#4ca223"/><path d="M17.578,1.2l.008.008a3.92,3.92,0,0,1,1.211,2.9,3.94,3.94,0,0,1-1.211,2.9l-.008.006A4.117,4.117,0,0,1,16.01,8v5.943q-.672.839-1.344,1.68h-1.3v-7.6A3.992,3.992,0,0,1,11.787,7.01L11.782,7a3.935,3.935,0,0,1-1.206-2.892,3.915,3.915,0,0,1,1.206-2.892l.013-.015a4.076,4.076,0,0,1,5.783,0m-2.892,1.44A1.457,1.457,0,0,0,13.22,4.111a1.47,1.47,0,0,0,2.94,0,1.467,1.467,0,0,0-1.473-1.467" transform="translate(9.758 0)" fill="#4ca223"/><path d="M15.546,4.428a5.713,5.713,0,0,0,.317-1.95,6.166,6.166,0,0,0-.042-.709A23.518,23.518,0,0,1,27.4,8.306c.152.152.3.306.448.461a5.633,5.633,0,0,0-.559.281l.029-.019a5.7,5.7,0,0,0-1.611,1.315l-.173-.173a20.978,20.978,0,0,0-9.99-5.743" transform="translate(14.344 1.632)" fill="#4ca223"/><path d="M21.946,10.946a4.034,4.034,0,0,1,.062-1.88A3.907,3.907,0,0,1,23.95,6.559a3.978,3.978,0,0,1,3.1-.4h.008a3.955,3.955,0,0,1,2.478,1.894l.013.029a4.111,4.111,0,0,1,.406,3.1l-.006.04a4.014,4.014,0,0,1-1.907,2.459l-.013.006a4.069,4.069,0,0,1-3.092.413l-.035-.006a4.156,4.156,0,0,1-1.632-.861l-.04.027L21.421,14.3v-.64a1.592,1.592,0,0,0-.481-1.171,1.572,1.572,0,0,0-.875-.454Zm3.015.227a1.473,1.473,0,0,0,2.08-2.086,1.481,1.481,0,0,0-2.08,0,1.469,1.469,0,0,0,0,2.086" transform="translate(18.515 5.546)" fill="#4ca223"/><path d="M26.127,10.548a25.207,25.207,0,0,1,.944,6.962,25.133,25.133,0,0,1-.952,6.983,5.6,5.6,0,0,0-.571-.371l-.013-.008c-.031-.017-.063-.033-.1-.048l-.008-.006-.062-.029a5.682,5.682,0,0,0-1.7-.613,22.314,22.314,0,0,0,.758-5.908,22.473,22.473,0,0,0-.75-5.895,5.751,5.751,0,0,0,1.763-.633l.021-.008.054-.035.035-.013a6.382,6.382,0,0,0,.579-.379" transform="translate(21.838 9.732)" fill="#4ca223"/><path d="M28.2,19l.006.008a3.942,3.942,0,0,1,1.9,2.49v-.008a3.9,3.9,0,0,1-.419,3.1l.006-.006A3.944,3.944,0,0,1,27.215,26.5h-.006a3.987,3.987,0,0,1-3.122-.427l.008.013a3.919,3.919,0,0,1-1.927-2.476V23.6a4.021,4.021,0,0,1-.063-1.865l-2.211-1.263a3.615,3.615,0,0,0,.352-1.523V17.64l3.147,1.811.019.013a4.035,4.035,0,0,1,1.675-.879h.006A3.978,3.978,0,0,1,28.2,19m-.577,3.561a1.467,1.467,0,1,0-.427,1.036,1.423,1.423,0,0,0,.427-1.036" transform="translate(18.355 16.276)" fill="#4ca223"/><path d="M25.7,22.106a5.655,5.655,0,0,0,1.55,1.315l.013.008.04.027c.171.1.344.179.517.256-.137.14-.273.283-.413.419a23.526,23.526,0,0,1-11.575,6.549A6.417,6.417,0,0,0,15.87,30a5.8,5.8,0,0,0-.331-1.977,21.017,21.017,0,0,0,10.006-5.764Z" transform="translate(14.338 20.397)" fill="#4ca223"/><path d="M13.358,21.889q.658-.828,1.315-1.652H16V27.8a3.991,3.991,0,0,1,1.59,1.006l.013.013a4.141,4.141,0,0,1,0,5.8l-.019.013a4.122,4.122,0,0,1-5.8,0l-.006-.006a3.881,3.881,0,0,1-1.2-2.886V31.71a3.9,3.9,0,0,1,1.2-2.9l.006-.008a4.119,4.119,0,0,1,1.571-.984Zm2.809,9.821a1.421,1.421,0,0,0-.427-1.04,1.437,1.437,0,0,0-1.046-.427,1.421,1.421,0,0,0-1.04.427,1.472,1.472,0,0,0,1.04,2.515,1.461,1.461,0,0,0,1.473-1.475" transform="translate(9.765 18.672)" fill="#4ca223"/><path d="M18.006,8.986,8.869,20.424a1.656,1.656,0,0,0,.165,2.246,1.587,1.587,0,0,0,1.121.44h5.412q-.842,2.927-1.686,5.855H8.91A2.12,2.12,0,0,1,6.852,26.9V13.814H5.522v-2.9H8.9V8.986h2.905v1.928h2.678v-.565a1.34,1.34,0,0,1,1.329-1.363Z" transform="translate(5.095 8.291)" fill="#3b3938"/><path d="M22.082,6.737,18.673,18.569h7.61l-13.42,16.8h-.731l3.415-11.825-.006-.006v-.008H7.933l.013-.008L21.332,6.772l.019-.035Z" transform="translate(7.32 6.216)" fill="#4ca223"/><path d="M22.541,8.986v1.928h3.38v2.9H24.587v.013l.006-.008L24.587,26.9a2.046,2.046,0,0,1-.621,1.446,2.024,2.024,0,0,1-1.438.621H13.4q4.571-5.719,9.137-11.44a1.654,1.654,0,0,0-1.294-2.684H15.827q.568-1.964,1.131-3.926h2.678V8.986Z" transform="translate(12.361 8.291)" fill="#3b3938"/></g></g></g></svg>