<svg xmlns="http://www.w3.org/2000/svg" xmlns:xlink="http://www.w3.org/1999/xlink" width="60" height="60" viewBox="0 0 60 60"><defs><clipPath id="a"><rect width="57.972" height="41.605" fill="none"/></clipPath></defs><g transform="translate(-1274 -1481)"><rect width="60" height="60" transform="translate(1274 1481)" fill="red" opacity="0"/><g transform="translate(1275 1490)"><g transform="translate(0 0)" clip-path="url(#a)"><path d="M53.345,20.164a5.318,5.318,0,0,0-.522,2,2.342,2.342,0,0,1-.287.9,6.486,6.486,0,0,1-.919,1.644c-.669.785-2.547.916-3.512.866-.427-.021-.537-.375-.7-.819-.4-1.119-.7-2.447-1.018-3.606-.1-1.4-.454-3.317-2.431-3.18-2.131.146-1.691,2.484-1.621,4.017l.184,4.026a13.382,13.382,0,0,0,.434,3.442c.659,2.056,1.444,4.2,2.049,6.246a20.513,20.513,0,0,1,.4,5.335c0,.41.025.575.49.575l7.845-.028c.427-.016.375-.2.374-.552L54.1,37.777a11.042,11.042,0,0,1,1.037-4.821l2.174-5.624c.2-.577.454-1.012.554-1.469a3.66,3.66,0,0,0-.118-2.125c-.076-.268-.154-.534-.213-.8-.3-1.388-.7-2.709-1.09-4.078a3.135,3.135,0,0,0-1.131-1.5c-1.26-1.1-2.521-2.35-3.781-3.306l-.009,4.17a6.463,6.463,0,0,0,1.741,1.621c.144.088.146.172.081.325M42.273,30.3H15.7l.19-.538a9.249,9.249,0,0,0,.415-2.374H41.667a9.377,9.377,0,0,0,.416,2.374ZM9.088,0A1.726,1.726,0,0,0,7.367,1.721V24.315a6.437,6.437,0,0,0,2.25.337c.028-.078.056-.16.074-.215.232-.643.415-1.31.588-1.978V3.309a.4.4,0,0,1,.4-.4H47.255a.4.4,0,0,1,.4.4V22.3c.185.724.379,1.444.629,2.139.019.054.046.137.074.215a6.66,6.66,0,0,0,2.209-.318V1.721A1.727,1.727,0,0,0,48.843,0ZM4.627,20.164c-.065-.153-.063-.237.081-.325a6.463,6.463,0,0,0,1.741-1.621l-.009-4.17c-1.26.956-2.521,2.2-3.781,3.306a3.135,3.135,0,0,0-1.131,1.5c-.387,1.369-.794,2.69-1.09,4.078-.059.271-.137.537-.213.8a3.659,3.659,0,0,0-.119,2.125c.1.457.357.893.554,1.469l2.175,5.624a11.042,11.042,0,0,1,1.037,4.821l-.015,3.249c0,.352-.053.535.374.552l7.845.028c.463,0,.49-.165.49-.575a20.52,20.52,0,0,1,.4-5.335c.606-2.049,1.391-4.19,2.05-6.246a13.382,13.382,0,0,0,.434-3.442l.184-4.026c.071-1.533.51-3.871-1.621-4.017-1.977-.137-2.337,1.781-2.433,3.18-.321,1.159-.615,2.487-1.016,3.606-.159.444-.269.8-.7.819-.963.05-2.842-.081-3.511-.866a6.492,6.492,0,0,1-.921-1.644,2.367,2.367,0,0,1-.287-.9,5.315,5.315,0,0,0-.521-2" transform="translate(0 0)" fill="#3a3939"/></g><path d="M0,9.7l31.692.028V8.442L0,8.413ZM11.107,6.91l20.586.018,0-1.29L11.109,5.618Zm0-2.8L31.7,4.123V2.833L11.113,2.814Zm0-2.8L31.7,1.318V.028L11.115.01ZM.009,0,0,6.9l9.479.009.007-6.9Z" transform="translate(13.136 5.883)" fill="#007cd8"/></g></g></svg>