<svg xmlns="http://www.w3.org/2000/svg" xmlns:xlink="http://www.w3.org/1999/xlink" width="60" height="60" viewBox="0 0 60 60"><defs><clipPath id="a"><rect width="50.001" height="51.846" fill="none"/></clipPath></defs><g transform="translate(-1274 -1481)"><rect width="60" height="60" transform="translate(1274 1481)" fill="none"/><g transform="translate(1279 1485.077)"><g transform="translate(0 0)" clip-path="url(#a)"><path d="M13.938,4.07c.011.088.334.112.83.095l.064.458-.147.02a.713.713,0,0,0,.1,1.42.732.732,0,0,0,.1-.008h.009l.092.666a4.71,4.71,0,0,0-1.347.7l.149,1.98a2.757,2.757,0,0,1,1.651-1.331L16.561,7.7l-.234-1.687,3-.416.234,1.685,1.184.054a2.646,2.646,0,0,1,2.259,1.241c.368-.379.718-.722,1.035-1.027A4.129,4.129,0,0,0,20.814,5.91l-.092-.667a.713.713,0,0,0-.2-1.412l-.132.019-.064-.459c.484-.116.785-.225.773-.313L20.759.648a.751.751,0,0,0-.85-.641L14.244.794a.753.753,0,0,0-.642.847Z" transform="translate(7.499 0)" fill="#3a3939"/><path d="M2.736,18.029l-1-2.81L4.77,12.876l.5.034h.095a3.03,3.03,0,0,0,2.549-1.386c-.377-.178-.7-.341-.973-.478l-.49-.064a1.408,1.408,0,0,1-1.086.465H5.324l-1.01-.07L0,14.715l1.2,3.314Z" transform="translate(0 6.059)" fill="#3a3939"/><path d="M7.526,11.932a10.17,10.17,0,0,0-3.954,5.574h12.97l-1.052-.957-.133-.886c-1.465-.135-4.824-1.944-7.831-3.73" transform="translate(1.971 6.582)" fill="#3a3939"/><path d="M1.884,13.013l2.908.2c.088.006.178-.214.259-.579l1.756.22c.321.174.8.41,1.383.687,1.935,1.184,7.15,4.273,8.694,4.416l4.293-.659.119-.017-.1.123-2.327,2.734,1.189,1.083H24.9c0-.036-.008-.073-.014-.11a19.415,19.415,0,0,1-.168-3.684,25.709,25.709,0,0,1,.439-3.527c.028-.157.062-.313.1-.467L21.148,9.137l-1.041,1.985-.442.846-.154-2.152-.251-3.538-.039-.569a15.789,15.789,0,0,0-7.81-.043,41.861,41.861,0,0,0-4.205,1.3l-1.764-.1c-.034-.371-.092-.6-.18-.608l-2.909-.2a.9.9,0,0,0-.959.838l-.351,5.161a.9.9,0,0,0,.841.959" transform="translate(0.574 2.869)" fill="#3a3939"/><path d="M34.877,11.719,30.692,9.552a.623.623,0,0,0-.836.268l-.928,1.792c-.034.065.172.234.514.456l-.678,1.055a3.58,3.58,0,0,0-.647-.133,12.105,12.105,0,0,1-.2,1.766,23.882,23.882,0,0,1-1.116,4.1h7.544a3.281,3.281,0,0,0-1.279-3.505l.475-1.159c.386.152.639.22.67.157l.928-1.794a.617.617,0,0,0-.265-.836" transform="translate(14.787 5.232)" fill="#3a3939"/><path d="M24.339,8.014l.552-.528,3.2.608.317.689c.29.628.656,1.426,1.007,2.332l-6.866-1.3c.652-.717,1.286-1.32,1.786-1.8M17.424,22.8H30.572a21.776,21.776,0,0,0,1.244-4.366c.8-4.2-1.279-8.433-2.234-10.516l.438-2.306-.655-.723a2.274,2.274,0,0,0-.709-2.1l-2.34-.445a2.276,2.276,0,0,0-1.429,1.7l-.875.434-.436,2.3c-1.653,1.589-5.134,4.77-5.934,8.969a19.3,19.3,0,0,0-.219,7.055" transform="translate(9.488 1.291)" fill="#3a3939"/><path d="M16.471,27.341s2.545-.065,3.831-.09a.3.3,0,0,1,.223.107c.692,1.092,1.971,3.186,1.971,3.186l-1.012-.462c-.109.2-.213.38-.313.568q-.465.838-.928,1.677c.968,0,2.4,0,3.029.009v4.369H23.05c-.813-.008-1.629-.04-2.442-.014a1.394,1.394,0,0,1-.413-.045,3.207,3.207,0,0,1-.515-.332,2.4,2.4,0,0,1-.424-.413l-2.728-4.281a2.782,2.782,0,0,1,0-1.249,2.694,2.694,0,0,1,.2-.54c.312-.587.636-1.164.97-1.77-.343-.2-.863-.5-1.232-.72m3.4-3.493c.442-.683.908-1.353,1.325-2.054a1.353,1.353,0,0,1,.186-.251,2.175,2.175,0,0,1,1.2-.465h5.077a2.8,2.8,0,0,1,1.052.677,2.459,2.459,0,0,1,.343.459c.331.574.642,1.164.971,1.77.357-.185.891-.456,1.271-.656,0,0-1.31,2.186-1.983,3.283a.3.3,0,0,1-.209.13c-1.294,0-3.746-.05-3.746-.05l.936-.608c-.109-.194-.208-.38-.31-.566-.307-.568-.618-1.134-.925-1.7L23.472,26.4l-3.811-2.236c.071-.107.14-.213.211-.32m12.193,3.878c.408.706.793,1.428,1.226,2.115a1.6,1.6,0,0,1,.129.258,1.923,1.923,0,0,1-.124,1.31l-2.309,4.52a2.856,2.856,0,0,1-1.082.63,2.608,2.608,0,0,1-.568.1c-.663.025-1.327.036-2.017.057,0,.4,0,1,.006,1.426,0,0-1.348-2.16-2.019-3.258a.3.3,0,0,1-.025-.245c.594-1.151,1.753-3.313,1.753-3.313.037.377.073.735.11,1.108.225-.006.436-.009.649-.016l1.924-.051c-.444-.726-1.136-1.882-1.491-2.467l3.646-2.506c.062.112.129.223.191.334M3.3,39.077a4.189,4.189,0,0,0,4.16,3.7H42.422a4.191,4.191,0,0,0,4.158-3.7l2.667-22.633H.63Z" transform="translate(0.348 9.072)" fill="#007cd8"/></g></g></g></svg>