<svg xmlns="http://www.w3.org/2000/svg" xmlns:xlink="http://www.w3.org/1999/xlink" width="60" height="60" viewBox="0 0 60 60"><defs><clipPath id="a"><rect width="33.804" height="57.177" fill="none"/></clipPath></defs><g transform="translate(-1274 -1481)"><rect width="60" height="60" transform="translate(1274 1481)" fill="none"/><g transform="translate(1287.098 1482.412)"><g transform="translate(0 0)" clip-path="url(#a)"><path d="M21.618,53.173v-.6H12.186v.6a1.714,1.714,0,0,0,1.687,1.682h6.056a1.714,1.714,0,0,0,1.689-1.682M16.9,3.6a3.424,3.424,0,0,0-2.5,1.039,3.433,3.433,0,0,0-1.041,2.514A3.427,3.427,0,0,0,14.4,9.662a3.521,3.521,0,0,0,4.995,0,3.425,3.425,0,0,0,1.039-2.511A3.43,3.43,0,0,0,19.4,4.637,3.426,3.426,0,0,0,16.9,3.6M26.379.524A1.778,1.778,0,0,1,26.9,1.762v.1a1.737,1.737,0,0,1-.524,1.21,1.748,1.748,0,0,1-1.238.537H23.852L23.86,6.6a1.194,1.194,0,0,0,.378.888,1.166,1.166,0,0,0,.845.371h1.828v4.647c.414.144.824.3,1.23.464.071.03.144.058.217.088a8.882,8.882,0,0,1,2.862,1.974A10.346,10.346,0,0,1,33.8,22.044v20.98a10.353,10.353,0,0,1-2.584,7.012,8.876,8.876,0,0,1-2.862,1.972l-.217.088c-.406.166-.817.32-1.23.466L26.9,55.911h.008v1.266H6.893V55.911H6.9l-.008-3.348c-.416-.146-.824-.3-1.23-.466-.073-.028-.146-.058-.217-.088a8.848,8.848,0,0,1-2.862-1.972A10.353,10.353,0,0,1,0,43.025V22.044a10.346,10.346,0,0,1,2.584-7.009,8.854,8.854,0,0,1,2.862-1.974c.071-.03.144-.058.217-.088.406-.164.814-.32,1.23-.464V7.862H8.721a1.156,1.156,0,0,0,.842-.371A1.205,1.205,0,0,0,9.944,6.6l.005-2.993H8.663a1.744,1.744,0,0,1-1.238-.537A1.726,1.726,0,0,1,6.9,1.863v-.1A1.791,1.791,0,0,1,8.663,0H25.141a1.789,1.789,0,0,1,1.238.524" transform="translate(0 0)" fill="#3b3938"/><path d="M7.774,2.12H7.8a1.735,1.735,0,0,1,1.273.532,1.739,1.739,0,0,1,.529,1.273A1.739,1.739,0,0,1,9.078,5.2,1.735,1.735,0,0,1,7.8,5.731h-.03A1.741,1.741,0,0,1,6.528,5.2,1.739,1.739,0,0,1,6,3.925a1.739,1.739,0,0,1,.529-1.273A1.741,1.741,0,0,1,7.774,2.12" transform="translate(9.127 3.225)" fill="#3b3938"/><path d="M22.885,16.61a7.43,7.43,0,0,0-3.275-4.455,8.492,8.492,0,0,0-5.595-1.5c-.217.02-.429.045-.633.078l-.073.013Q6.448,11.7,2.338,9.517A7.547,7.547,0,0,0,2.6,14.893,13.665,13.665,0,0,0,8.031,21.43a13.683,13.683,0,0,0,8.116,2.544A7.064,7.064,0,0,0,22.07,21.2a11.8,11.8,0,0,1,2.171,5.6l1.644-1.109A17.168,17.168,0,0,0,22.643,20.2a8.729,8.729,0,0,0-5.57-2.877q-5.787-.632-7.357-2.3,2,1.135,6.412.946a8.09,8.09,0,0,1,6.914,2.758,6,6,0,0,0-.156-2.113" transform="translate(2.98 14.479)" fill="#4ca223"/></g></g></g></svg>