<svg xmlns="http://www.w3.org/2000/svg" xmlns:xlink="http://www.w3.org/1999/xlink" width="52" height="52" viewBox="0 0 52 52"><defs><clipPath id="a"><rect width="45.298" height="35.261" fill="none"/></clipPath></defs><g transform="translate(0.107)"><rect width="52" height="52" transform="translate(-0.107)" fill="none"/><g transform="translate(2.893 8)"><g clip-path="url(#a)"><path d="M39.7,10.829h1.675a1.309,1.309,0,0,1,1.307,1.306V28.105a1.308,1.308,0,0,1-1.307,1.308H6.531a1.308,1.308,0,0,1-1.3-1.308V12.135a1.308,1.308,0,0,1,1.3-1.306H9.051c-.01-.227-.017-.456-.017-.686a15.192,15.192,0,0,1,.125-1.927H6.531a3.921,3.921,0,0,0-3.919,3.919v3.323H0V24.6H2.613v3.5a3.923,3.923,0,0,0,3.919,3.923H41.378a3.924,3.924,0,0,0,3.92-3.923V12.135a3.922,3.922,0,0,0-3.92-3.919H39.595a15.454,15.454,0,0,1,.125,1.927c0,.23-.007.458-.017.686" transform="translate(0 3.233)" fill="#008f84"/><path d="M21.146,0A13.274,13.274,0,1,1,7.872,13.273,13.272,13.272,0,0,1,21.146,0" transform="translate(3.098)" fill="#3b3938"/><path d="M17.421,4.549h-5.05a.559.559,0,0,0-.4,1.007s.846.868,1.439,1.466a7.81,7.81,0,0,0,6.65,12.419V16.827a5.205,5.205,0,0,1-4.781-7.919c.673.683,1.463,1.469,1.463,1.469.659.549,1.038-.068,1.028-.38V6.321c0-.192,0-.354,0-.354V4.9a.353.353,0,0,0-.353-.353m7.634,1.739a7.8,7.8,0,0,0-5.869-2.277V6.627a5.2,5.2,0,0,1,4.782,7.918c-.673-.68-1.462-1.466-1.462-1.466-.661-.55-1.04.067-1.031.38v3.673c0,.2,0,.354,0,.354v1.067a.353.353,0,0,0,.353.353h5.051a.56.56,0,0,0,.4-1.009s-.846-.867-1.439-1.465a7.828,7.828,0,0,0-.782-10.145" transform="translate(4.621 1.576)" fill="#008f84"/></g></g></g></svg>