<svg xmlns="http://www.w3.org/2000/svg" xmlns:xlink="http://www.w3.org/1999/xlink" width="52" height="52" viewBox="0 0 52 52"><defs><clipPath id="a"><rect width="39.497" height="43.022" fill="none"/></clipPath></defs><g transform="translate(-1274 -1481)"><rect width="52" height="52" transform="translate(1274 1481)" fill="none"/><g transform="translate(1280 1485)"><g transform="translate(0 0)" clip-path="url(#a)"><path d="M2.641,7.607a10.711,10.711,0,0,0,1.285,5.652l.03.011C9.347,6.657,3.82.284,3.82.284,2.744,2.755-1.029,4.916.268,9.346a5.569,5.569,0,0,0,2.369,3.212,5.76,5.76,0,0,1,0-4.951" transform="translate(0 0.147)" fill="#3b3938"/><path d="M36.926,15.218c-.025-.055-.054-.109-.079-.161a18.975,18.975,0,0,0-1.717-2.794A18.786,18.786,0,0,0,29.906,7.44a18.575,18.575,0,0,0-1.788-.979c-.319.464-.68.961-1.087,1.472a16.906,16.906,0,0,1,1.956,1.043A17.111,17.111,0,0,1,34.77,14.95a17.8,17.8,0,0,1,1.918,4.84c0,.014.007.029.013.046a17.622,17.622,0,0,1-2.029,13.053,16.916,16.916,0,0,1-21.477,6.85,16.678,16.678,0,0,1-1.976-1.055A17.611,17.611,0,0,1,5.532,14.774c.189-.317.389-.622.594-.92.308-.449.631-.88.975-1.292.058-.07.118-.138.177-.206a17.966,17.966,0,0,0,11.982-.038,18.872,18.872,0,0,0,4.962-2.765,22.025,22.025,0,0,0,2.165-1.9c.067.026,1.462-1.6,1.542-1.694a22.206,22.206,0,0,0,1.813-2.5c.15-.244.228-.386.228-.386-5.257-.416-11.745-6.189-19.032-.762A11.133,11.133,0,0,0,6.605,8.979a11.411,11.411,0,0,1,6.3-3.275A8.957,8.957,0,0,1,14.235,5.6l-.025.009c-.149.049-.3.1-.447.158q-.4.141-.8.308a18.807,18.807,0,0,0-8.946,7.762c-.107.181-.211.361-.31.542-.054.1-.107.2-.159.3-.082.152-.161.3-.237.454A20.029,20.029,0,0,0,1.2,25.413c.012.212.028.423.048.636A19.41,19.41,0,0,0,10.21,40.193c.11.068.219.135.332.2a18.646,18.646,0,0,0,5.31,2.139c.2.049.4.094.6.132a18.437,18.437,0,0,0,4.833.316c.2-.009.395-.026.594-.047s.4-.042.6-.068c.07-.008.14-.015.208-.029q.467-.064.928-.155a18.782,18.782,0,0,0,12.567-8.859,19.51,19.51,0,0,0,.747-18.606" transform="translate(0.567 0)" fill="#3b3938"/><path d="M33.606,15.506c-.058-.167-.118-.332-.18-.5a1.343,1.343,0,0,0-.533-.51,1.029,1.029,0,0,1-.411-.7c-.04-.225-.191-.351-.347-.187a1.12,1.12,0,0,0-.266.511c-.054.222-.207.307-.344.127-.476-.634-.558-1.741-1.432-1.789a.3.3,0,0,0-.286.433,1.9,1.9,0,0,0,.738.613.48.48,0,0,1,.164.615c-.17.269-.435.471-.7.3-.189-.121-.091-.282.1-.349s.194-.237,0-.354a2.732,2.732,0,0,1-.8-.627.3.3,0,0,0-.464-.074c-.335.2-.679,0-1,.426-.229.3-.569,1.058-.9,1.09-.378.035-1.134.17-1.42-.182-.247-.305-.2-1.26.223-1.354A2.184,2.184,0,0,1,26.9,13c.234.049.252,0,.246-.1a1.866,1.866,0,0,0-.211-.53c-.094-.235-.091-.566.261-.622,1-.161,1.109-.979,2.1-.98.223,0,.417-.138.387-.354a.309.309,0,0,0-.415-.246.541.541,0,0,1-.537-.219c-.3-.352-.663-.524-.156-1.021a.877.877,0,0,1,.226-.132c.133-.056.109-.211-.066-.355A15.418,15.418,0,0,0,24.8,6.081a19.626,19.626,0,0,1-5.726,4.392c.214.416.4.794.115.968-.192.117-.249.216-.086.372.384.37.679.779-.225.493-.679-.216-.363-.39-.308-.61s-.2-.173-.406-.1-.533.117-.6-.009a.319.319,0,0,0-.173-.182c-.5-.225-.716.222-.383.43.192.118.292.144.211.249s-.326.077-.54.143a8.167,8.167,0,0,0-2.261,1.821c-.228.241-.25.657-.411.823-.265.273-.725.366-.975.653-.444.508-3.9.369-4.352,1.88-.508,1.689.808,1.258,1.734.718.2-.112.415-.038.4.19a1.037,1.037,0,0,1-.094.373c-.094.206-.043.323.179.358.673.1.548.634.6,1.443.033.513,1.276.364,1.554.035.456-.539,1.123-.943,1.664-.17a.709.709,0,0,0,.872.206c.2-.1.447-.26.613-.108.314.288.344.751.737.987.342.2.862-.232,1.1.185.191.34.241,1.258.5,1.357a3.726,3.726,0,0,0,1.425.367c.852.009,1.962.616,1.809,1.459-.067.367-.648.587-.688.984q-.089.863-.176,1.729c-.094.926-1.495.27-1.833,1.108-.211.525.392.789-.031,1.339a8.582,8.582,0,0,0-.813,1.108c-.339.633-1.041.725-1.51,1-.2.112-.082.211.013.417a.387.387,0,0,1-.135.449c-.262.258-.121.405.109.469a.351.351,0,0,1,.29.436.834.834,0,0,0,.266.926c.686.589-.057.8-.686.589-1.52-.5-1.405-2.26-1.566-3.406-.039-.269-.524-.483-.552-.751a4.846,4.846,0,0,1,.2-1.143c.057-.323-.305-.043-.305-.3V28.445c0-1.144.135-1.317-.8-1.979a3.391,3.391,0,0,1-.99-1.059c-.676-.862-.875-.985-.831-2.008.04-.95.9-.885.8-1.759-.122-1.032-.85-.111-1.367-.709a5.328,5.328,0,0,0-1.52-1.172c-.012-.008-.138-.118-.253-.232a.644.644,0,0,0-.5-.238,1.136,1.136,0,0,1-.564.012c-.683-.2-.977-.2-1.463-.958-.188-.29.247-.393.074-.653q-.373-.553-.744-1.108c-.211-.316-.077-.713-.205-.917s-.348.053-.28.272c.232.73.823,1.89.317,1.809-.794-.124-.881-1.226-.889-2,0-.228-.2-.426-.356-.593l-.025-.029c-.138-.181-.185-.219-.264,0a16,16,0,0,0-1.009,5.613,15.655,15.655,0,0,0,15.5,15.8,15.367,15.367,0,0,0,12.166-6.006c.138-.179.132-.182-.045-.039s-.305.162-.305-.076a2,2,0,0,0-.509-1.606c-.275-.376,0-.979-.1-1.419s-.767-.489-.439-1.123c.255-.495.628-.83.351-1.333a16.109,16.109,0,0,1-1.039-2.7c-.042-.225-.106-.376-.316-.455a3.834,3.834,0,0,0-.993-.364c-.606,0-.8.323-1.431.323-1.429,0-1.463-.1-2.567-1.375a1.829,1.829,0,0,1-.046-1.884c.085-.212-.033-.378-.213-.513-.439-.332.691-1.011,1.075-1.293.732-.539.269-1.158.983-1.562a9.125,9.125,0,0,1,3.4-.621c.222-.015.335.15.345.378.031.7.887.853,1.6.994.22.044.314-.155.5-.285.322-.223,1.239.05,1.947.232.217.058.341-.08.266-.3" transform="translate(1.697 3.148)" fill="#4ca223"/></g></g></g></svg>