<svg xmlns="http://www.w3.org/2000/svg" xmlns:xlink="http://www.w3.org/1999/xlink" width="52" height="52" viewBox="0 0 52 52"><defs><clipPath id="a"><rect width="45.97" height="43.022" fill="none"/></clipPath></defs><g transform="translate(-1274 -1481)"><rect width="52" height="52" transform="translate(1274 1481)" fill="red" opacity="0"/><g transform="translate(1277 1485)"><g transform="translate(0 0)" clip-path="url(#a)"><path d="M31.6,15.972A11.6,11.6,0,1,1,20,4.373a11.6,11.6,0,0,1,11.6,11.6m-27.572,0A15.95,15.95,0,0,0,29.437,28.839l7.845,7.2a3.938,3.938,0,0,0,5.326-5.8l-8.155-7.485A15.967,15.967,0,1,0,4.031,15.972" transform="translate(2.087 0)" fill="#4a4793"/><path d="M26.256,15.9a5.137,5.137,0,0,0-4.834-4.608v-.014H20.9l-1.717,3.368.868.6-1.295,2.316-.688-4.969H16.995l-.688,4.969-1.295-2.316.868-.6-1.717-3.368h-.246a5.143,5.143,0,0,0-5.11,4.618,10.515,10.515,0,0,0,3.134,3.049V16.412a1.968,1.968,0,0,1,.791-1.569V19.4a10.414,10.414,0,0,0,9.437.079V14.73a2,2,0,0,1,.738.794,1.928,1.928,0,0,1,.216.888v2.532A10.536,10.536,0,0,0,26.256,15.9" transform="translate(4.56 5.838)" fill="#3a3939"/><path d="M12.366,7.182c-.27,1.621-.181,3.721.9,5.042.056.068.108.134.155.2a3.217,3.217,0,0,0,2.337,1.184,3.219,3.219,0,0,0,2.336-1.184c.047-.065.1-.131.155-.2,1.081-1.32,1.17-3.421.9-5.042a3.479,3.479,0,0,0-6.783,0" transform="translate(6.335 2.319)" fill="#3a3939"/><path d="M14.833,11.293h-.81l.335.973h.949l.335-.973Z" transform="translate(7.26 5.846)" fill="#3a3939"/><path d="M5.6,14.937l-.076.551-.952-1.7.637-.44-1.26-2.474H3.773A3.777,3.777,0,0,0,0,14.646v8.561a1.161,1.161,0,0,0,2.322,0V14.646a1.444,1.444,0,0,1,.58-1.153V36.087a1.306,1.306,0,1,0,2.612,0V25.168H7.221V36.087a1.306,1.306,0,1,0,2.612,0V22.276A17.12,17.12,0,0,1,5.6,14.937" transform="translate(0 5.629)" fill="#3a3939"/><path d="M26.289,11.549a4.842,4.842,0,0,0,.656-3.7A2.452,2.452,0,0,0,24.84,5.9a17.014,17.014,0,0,1,1.449,5.647" transform="translate(12.86 3.056)" fill="#3a3939"/><path d="M6.94,18.836v.249a1.1,1.1,0,0,0,.032.267,1.159,1.159,0,0,0,1.129.894,1.174,1.174,0,0,0,.461-.1A17.317,17.317,0,0,1,6.94,18.836" transform="translate(3.593 9.752)" fill="#3a3939"/><path d="M26.855,10.873l-.688,1.348c-.052.463-.118.923-.208,1.378l.272.188-.549.983a17.036,17.036,0,0,1-.7,2.06l2.8,2.573V13.411a1.462,1.462,0,0,1,.542.583,1.429,1.429,0,0,1,.158.653v5.4l2.322,2.131V14.646a3.777,3.777,0,0,0-3.571-3.762v-.011Z" transform="translate(12.935 5.629)" fill="#3a3939"/><path d="M3.4,11.714A3.176,3.176,0,0,0,3.687,12,17,17,0,0,1,5.182,5.887c-.021,0-.044-.006-.065-.006A2.491,2.491,0,0,0,2.625,7.865a4.839,4.839,0,0,0,.662,3.7q.061.075.114.146" transform="translate(1.31 3.045)" fill="#3a3939"/><path d="M12.088,21.528V30.57a1.306,1.306,0,1,0,2.612,0V21.9a17.188,17.188,0,0,1-2.612-.376" transform="translate(6.258 11.145)" fill="#3a3939"/><path d="M22.264,21.4v9.243a1.305,1.305,0,1,0,2.61,0V23.792Z" transform="translate(11.526 11.077)" fill="#3a3939"/><path d="M25.595,24.452l-.486-.446v5.282a1.306,1.306,0,0,0,2.612,0V25.616a5.069,5.069,0,0,1-2.126-1.164" transform="translate(12.999 12.428)" fill="#3a3939"/><path d="M14.934,21.887v8.646a1.306,1.306,0,0,0,2.612,0V21.6a17,17,0,0,1-2.612.288" transform="translate(7.731 11.182)" fill="#3a3939"/></g></g></g></svg>