<svg xmlns="http://www.w3.org/2000/svg" xmlns:xlink="http://www.w3.org/1999/xlink" width="52" height="52" viewBox="0 0 52 52"><defs><clipPath id="a"><rect width="42.182" height="45.965" fill="none"/></clipPath></defs><g transform="translate(-1274 -1481)"><rect width="52" height="52" transform="translate(1274 1481)" fill="red" opacity="0"/><g transform="translate(1279 1484)"><g transform="translate(0 0)" clip-path="url(#a)"><path d="M11.048,4.934a4.935,4.935,0,1,1,4.934,4.934,4.934,4.934,0,0,1-4.934-4.934" transform="translate(5.109 0)" fill="#3a3939"/><path d="M19.323,6.919a4.441,4.441,0,1,1,4.441,4.441,4.442,4.442,0,0,1-4.441-4.441" transform="translate(8.935 1.146)" fill="#3a3939"/><path d="M3.447,6.919a4.441,4.441,0,1,1,4.441,4.441A4.442,4.442,0,0,1,3.447,6.919" transform="translate(1.594 1.146)" fill="#3a3939"/><path d="M7.094,22.832a13.8,13.8,0,0,1,3.5-9.191l.385-2.134A12.253,12.253,0,0,1,11.74,8.88c-.291-.028-.594-.023-.917-.023H8.142a6.439,6.439,0,0,0-5.089,1.927A6.6,6.6,0,0,0,1.848,13.86L.029,23.958a1.785,1.785,0,0,0,1.446,2.074,1.815,1.815,0,0,0,.319.026,1.791,1.791,0,0,0,1.758-1.477l1.376-7.669v5.146c0,2.118-.592,16.521-.592,16.521A2.24,2.24,0,0,0,6.494,40.9h.083a2.216,2.216,0,0,0,2.236-2.131l.313-8.712a13.771,13.771,0,0,1-2.033-7.224" transform="translate(0 4.096)" fill="#3a3939"/><path d="M10.583,32.185c0-.057.079-1.941.177-4.488a13.981,13.981,0,0,1-4.01-3.6l.271,7.621a2.22,2.22,0,0,0,2.227,2.145c.026,0,.037-.007.064-.009a2.275,2.275,0,0,0,1.388-.54,4.1,4.1,0,0,1-.117-1.13" transform="translate(3.121 11.143)" fill="#3a3939"/><path d="M32.527,23.945l-1.819-10.11A6.494,6.494,0,0,0,29.5,10.783a6.444,6.444,0,0,0-5.089-1.926H21.733c-.323,0-.626,0-.917.022a12.342,12.342,0,0,1,.763,2.638l.458,2.534a13.812,13.812,0,0,1,1.372,15.556l.325,9.161a2.219,2.219,0,0,0,2.227,2.144c.028,0,.037-.007.064-.009a2.211,2.211,0,0,0,2.119-2.321s-.67-14.406-.67-16.524V16.911l1.454,7.669a1.87,1.87,0,0,0,1.832,1.474,1.837,1.837,0,0,0,.32-.029,1.791,1.791,0,0,0,1.446-2.08" transform="translate(9.625 4.096)" fill="#3a3939"/><path d="M19.256,27.744c.117,2.581.208,4.5.209,4.551a4.345,4.345,0,0,1-.091,1.046,2.173,2.173,0,0,0,1.467.636h.064a2.209,2.209,0,0,0,2.229-2.131l.284-8.027a13.949,13.949,0,0,1-4.162,3.924" transform="translate(8.904 11.015)" fill="#3a3939"/><path d="M10.653,27.127c-.086,2.185-.148,3.717-.148,3.717a2.493,2.493,0,0,0,2.4,2.575H13a2.489,2.489,0,0,0,2.486-2.4l.1-2.793a13.769,13.769,0,0,1-4.937-1.1" transform="translate(4.857 12.544)" fill="#3a3939"/><path d="M16.963,9.812a13.8,13.8,0,0,1,8.662,3.051l-.041-.222a7.358,7.358,0,0,0-1.34-3.425,7.156,7.156,0,0,0-5.654-2.173H15.613A7.157,7.157,0,0,0,9.958,9.215a7.372,7.372,0,0,0-1.332,3.4,13.787,13.787,0,0,1,8.337-2.808" transform="translate(3.989 3.256)" fill="#3a3939"/><path d="M14.856,28.24l.1,2.8a2.479,2.479,0,0,0,2.474,2.4H17.5a2.444,2.444,0,0,0,2.343-2.575s-.073-1.562-.174-3.783a13.736,13.736,0,0,1-4.814,1.158" transform="translate(6.87 12.523)" fill="#3a3939"/><path d="M21.034,26.692c-1.8,1.378-2.849,2.278-2.849,2.278s-1.068-.87-2.849-2.278c-1.711-1.354-3.987-3.15-3.987-5.668a3.957,3.957,0,0,1,3.812-4.063,3.6,3.6,0,0,1,3.023,1.756,3.608,3.608,0,0,1,3.027-1.758A3.944,3.944,0,0,1,25.02,21c0,2.518-2.251,4.37-3.987,5.7M18.185,10.07a12.2,12.2,0,1,0,12.2,12.2,12.2,12.2,0,0,0-12.2-12.2" transform="translate(2.767 4.657)" fill="#4a4793"/></g></g></g></svg>