<svg xmlns="http://www.w3.org/2000/svg" width="52" height="52" viewBox="0 0 52 52"><g transform="translate(-1274 -1481)"><rect width="52" height="52" transform="translate(1274 1481)" fill="none"/><g transform="translate(1232.494 1442.821)"><g transform="translate(44.506 41.179)"><path d="M66.68,41.179h2.945v1.53h3.31a.81.81,0,0,1,.8.808.81.81,0,0,1-.8.8h-3.31v1.665h3.31a.81.81,0,0,1,.8.8.791.791,0,0,1-.237.577.76.76,0,0,1-.564.237h-3.31v1.519H66.68a4.026,4.026,0,0,1-1.363-.219,4.1,4.1,0,0,1-2.477-2.667c-.014-.056-.025-.11-.036-.165H55.111a8.347,8.347,0,0,0-6.137,2.547l0,.005a8.69,8.69,0,0,0,4.817,14.722l.638-2.4h7.7l-.605,6.787h-8.9l.674-2.516a10.634,10.634,0,0,1-8.783-10.456,10.189,10.189,0,0,1,3.109-7.491l.007-.007a10.188,10.188,0,0,1,7.489-3.111h7.716a3.838,3.838,0,0,1,1.043-1.8,3.933,3.933,0,0,1,1.446-.943,4.072,4.072,0,0,1,1.363-.225" transform="translate(-44.506 -41.179)" fill="#4ca223"/></g><path d="M51.733,48.219h6.428l-.487,5.535h-7.4Z" transform="translate(4.588 5.604)" fill="#4ca223"/><path d="M47.6,64.842l2.126-8h9.185l-.717,8Z" transform="translate(2.466 12.471)" fill="#4ca223"/><path d="M55.1,56.851v-.005h9.215l.706,8H54.389Z" transform="translate(7.867 12.471)" fill="#4ca223"/><g transform="translate(53.642 49.468)"><path d="M60.451,55.222q-.614,1.875-1.227,3.748H54.862l.6-6.787h.77l4.21,3.033Z" transform="translate(-45.398 -40.708)" fill="#4ca223"/><path d="M55.767,48.219h3.147q.6,1.853,1.2,3.707v.005q-1.253.911-2.509,1.823H55.275Z" transform="translate(-45.069 -43.864)" fill="#4ca223"/><path d="M59.157,50.113h4.524l1.4-4.319,3.671,2.678L72.419,45.8l1.4,4.314h4.537l-1.4,4.319,3.644,2.656L76.95,59.744l1.4,4.314v.013l-4.537-.007-1.4,4.3L68.755,65.7l-3.676,2.662-1.4-4.3-4.524.007v-.013l1.4-4.314-3.676-2.655,3.676-2.669ZM68,58.219H64.52q3.02-3.777,6.04-7.552a6.853,6.853,0,0,0-1.823-.237,6.65,6.65,0,0,0-4.7,11.349,6.482,6.482,0,0,0,2.484,1.586L68,58.224Zm1.428-2.267H72.9L66.9,63.481a6.813,6.813,0,0,0,1.841.242,6.652,6.652,0,0,0,4.7-11.351,6.488,6.488,0,0,0-2.522-1.6q-.746,2.586-1.494,5.176" transform="translate(-43.793 -45.794)" fill="#3b3938"/><path d="M65.435,57.881V57.9q2.209,1.606,4.416,3.208.353-1.08.7-2.162L71.9,64.018H61.309l-.26-2.96q2.19-1.584,4.38-3.172Z" transform="translate(-40.473 -36.173)" fill="#4ca223"/><path d="M49.593,70.266l.5-1.895,7.453-1.5V66.87l.092-.018.413-4.661H68.972l.413,4.666,7.552,1.514.485,1.816.013.079v.005H49.593Z" transform="translate(-49.593 -32.742)" fill="#3b3938"/></g></g></g></svg>