<svg xmlns="http://www.w3.org/2000/svg" xmlns:xlink="http://www.w3.org/1999/xlink" width="60" height="60" viewBox="0 0 60 60"><defs><clipPath id="a"><rect width="54.635" height="47.969" fill="none"/></clipPath></defs><g transform="translate(-1274 -1481)"><rect width="60" height="60" transform="translate(1274 1481)" fill="none"/><g transform="translate(1276.682 1487.016)"><g transform="translate(0 0)" clip-path="url(#a)"><path d="M6.425,40.225H9.27V44.4H6.425Zm-3.734,0H5.536V44.4H2.691ZM50.127,4.178h2.845V0H50.127Zm-3.733,0h2.845V0H46.394ZM20.29,41.637A17.91,17.91,0,0,0,40.467,12.664l2.59-4.953h9.914V5.022H41.443L34.555,18.187a9.832,9.832,0,0,1-11.077,16.02l-10.3,11.072-10.488.011v2.678l11.653-.013Z" transform="translate(1.663 0)" fill="#007cd8"/><path d="M3.734,3.059H6.579V7.237H3.734ZM0,7.237H2.845V3.059H0Zm21.81,8.771L14.384,8.94A22.685,22.685,0,0,1,39.4,4.808l-4.754,9.079A12.452,12.452,0,0,0,21.81,16.008m-2.463,8.179a13.376,13.376,0,0,0,3.3,7.283l-7.428,8.066A24.343,24.343,0,0,1,8.385,24.459Zm-5.44-8.246-5.3-5.187H0V8.067H9.666l11.6,11.2a9.867,9.867,0,0,0-.762,2.014l-8.247.2a18,18,0,0,1,1.646-5.543" transform="translate(0 1.695)" fill="#3a3939"/></g></g></g></svg>