<svg xmlns="http://www.w3.org/2000/svg" xmlns:xlink="http://www.w3.org/1999/xlink" width="52" height="52" viewBox="0 0 52 52"><defs><clipPath id="a"><rect width="46.851" height="40.997" fill="none"/></clipPath></defs><g transform="translate(-1274 -1481)"><rect width="52" height="52" transform="translate(1274 1481)" fill="red" opacity="0"/><g transform="translate(1277 1487)"><g transform="translate(0 0)" clip-path="url(#a)"><path d="M34.924,39.842h0A1.357,1.357,0,0,1,33.438,41H13.412a1.193,1.193,0,1,1,0-2.313H33.438a1.356,1.356,0,0,1,1.486,1.157m9.45-9.954H2.478V2.476h41.9ZM45.365,0H1.486A1.488,1.488,0,0,0,0,1.486V30.878a1.488,1.488,0,0,0,1.486,1.486H20.24a23.687,23.687,0,0,1-1.773,5.615h9.917a23.631,23.631,0,0,1-1.771-5.615H45.365a1.488,1.488,0,0,0,1.486-1.486V1.486A1.488,1.488,0,0,0,45.365,0" transform="translate(0 0)" fill="#3a3939"/><path d="M22.256,13.66H17.113v-.667a2.574,2.574,0,0,1,5.143,0Zm-2.931,3.2a.654.654,0,1,1,.72,0v.562a.363.363,0,0,1-.362.362h0a.362.362,0,0,1-.359-.362v-.562m4.257,2.24V13.66h-.5v-.667a3.179,3.179,0,0,0-1-2.308,3.5,3.5,0,0,0-4.81,0,3.179,3.179,0,0,0-1,2.308v.667h-.5V19.1a.775.775,0,0,0,.788.758H22.8a.775.775,0,0,0,.786-.758m4.885-6.129a18,18,0,0,1-1.342,5.654c-.069.161-.143.321-.218.477a13.981,13.981,0,0,1-3.271,4.381c-.085.076-.171.15-.253.219a7.58,7.58,0,0,1-.77.562,5.246,5.246,0,0,1-3.384.937,6.421,6.421,0,0,1-3.244-1.5c-.084-.069-.169-.143-.255-.219a14,14,0,0,1-3.27-4.381c-.076-.156-.149-.315-.219-.477A18,18,0,0,1,10.9,12.975a27.95,27.95,0,0,1-.025-5.9V7.066a.463.463,0,0,1,.05,0c.321-.017.64-.01.978,0a12.337,12.337,0,0,0,1.253-.018A11.376,11.376,0,0,0,15.4,6.631a11.465,11.465,0,0,0,3.974-2.065l.028-.022a1.079,1.079,0,0,1,.282-.187,1.192,1.192,0,0,1,.291.19l.021.019a11.5,11.5,0,0,0,3.975,2.065,11.389,11.389,0,0,0,2.242.412,12.31,12.31,0,0,0,1.252.018c.337-.007.657-.014.978,0,.019,0,.037,0,.051,0v.006a27.949,27.949,0,0,1-.025,5.9M29.3,6.967a.855.855,0,0,0-.176-.455.866.866,0,0,0-.64-.262c-.35-.017-.7-.01-1.036,0a11.333,11.333,0,0,1-1.169-.015A10.445,10.445,0,0,1,24.2,5.85a10.647,10.647,0,0,1-3.691-1.916l-.022-.018a1.379,1.379,0,0,0-.752-.37,1.253,1.253,0,0,0-.842.368l-.025.021A10.671,10.671,0,0,1,15.173,5.85a10.482,10.482,0,0,1-2.081.383,11.355,11.355,0,0,1-1.171.015c-.337-.007-.685-.014-1.034,0a.862.862,0,0,0-.64.262.844.844,0,0,0-.176.455,28.7,28.7,0,0,0,.022,6.081A18.771,18.771,0,0,0,11.5,18.953c.073.169.152.339.23.5a14.819,14.819,0,0,0,3.461,4.633c.092.083.185.164.277.24a7.235,7.235,0,0,0,3.658,1.679,4.276,4.276,0,0,0,.552.036,6.424,6.424,0,0,0,3.372-1.092,7.984,7.984,0,0,0,.853-.623c.092-.076.186-.157.277-.24a14.823,14.823,0,0,0,3.463-4.633c.077-.165.157-.335.23-.5a18.772,18.772,0,0,0,1.4-5.906A28.7,28.7,0,0,0,29.3,6.967" transform="translate(3.741 1.337)" fill="#0058a7"/></g></g></g></svg>