<svg xmlns="http://www.w3.org/2000/svg" xmlns:xlink="http://www.w3.org/1999/xlink" width="52" height="52" viewBox="0 0 52 52"><defs><clipPath id="a"><rect width="37.677" height="44.998" fill="none"/></clipPath></defs><g transform="translate(-1274 -1481)"><rect width="52" height="52" transform="translate(1274 1481)" fill="none"/><g transform="translate(1281 1485)"><g transform="translate(0 0)" clip-path="url(#a)"><path d="M17.75,7.91a3.923,3.923,0,1,1,3.905,3.94A3.923,3.923,0,0,1,17.75,7.91m3.862,13.881s7.96-7.356,7.988-13.828a7.928,7.928,0,0,0-15.856-.071c-.03,6.472,7.867,13.9,7.867,13.9" transform="translate(8.075 0)" fill="#008f84"/><path d="M12.842,26.94h2.134a.4.4,0,0,0,.4-.4V23.484a.4.4,0,0,0-.4-.4H12.842a.4.4,0,0,0-.4.4v3.053a.4.4,0,0,0,.4.4" transform="translate(7.308 13.559)" fill="#3b3938"/><path d="M9.7,26.94h2.134a.4.4,0,0,0,.4-.4V23.484a.4.4,0,0,0-.4-.4H9.7a.4.4,0,0,0-.4.4v3.053a.4.4,0,0,0,.4.4" transform="translate(5.463 13.559)" fill="#3b3938"/><path d="M11.979,26.366.5,20.225a.336.336,0,0,0-.468.429l2.553,6.009L.029,32.671A.336.336,0,0,0,.5,33.1l11.482-6.14a.337.337,0,0,0,0-.594" transform="translate(0 11.857)" fill="#008f84"/><path d="M30.394,21.363l-23.1-.044a3.447,3.447,0,0,1,.025-6.894H15.23v2.543a.325.325,0,0,0,.508.27l6.605-4.473a.326.326,0,0,0,0-.54L15.738,7.752a.326.326,0,0,0-.508.27v2.543H7.3a7.079,7.079,0,0,0-3.567.918A7.35,7.35,0,0,0,.2,19.6a6.729,6.729,0,0,0,.783,1.946,7.323,7.323,0,0,0,6.3,3.631l23.11.046a3.45,3.45,0,1,1-.04,6.9h-5.21a.4.4,0,0,0-.4.4v3.053a.4.4,0,0,0,.4.4H30.37a7.233,7.233,0,0,0,6.953-5A7.364,7.364,0,0,0,35.56,23.53a7.257,7.257,0,0,0-5.166-2.167" transform="translate(0 4.521)" fill="#3b3938"/></g></g></g></svg>