<svg xmlns="http://www.w3.org/2000/svg" xmlns:xlink="http://www.w3.org/1999/xlink" width="60" height="60" viewBox="0 0 60 60"><defs><clipPath id="a"><rect width="33.914" height="52.937" fill="none"/></clipPath></defs><g transform="translate(-1274 -1481)"><rect width="60" height="60" transform="translate(1274 1481)" fill="red" opacity="0"/><g transform="translate(1287.495 1484.444)"><g transform="translate(0 0)" clip-path="url(#a)"><path d="M27.322,37.908a4.014,4.014,0,0,1-2.065,3.582c-.194-2.535.259-5-.513-7.607a4.323,4.323,0,0,1,2.578,4.025m-4.174,2.816a.99.99,0,0,1-.868,1.026,5.515,5.515,0,0,1-1.118.085q-3.829.009-7.662,0c-2.4,0-4.807.006-7.211-.006a7.278,7.278,0,0,1-1.454-.122,3.35,3.35,0,0,1-2.8-3.338c-.037-1.313-.026-2.63,0-3.943.02-1.061.286-1.317,1.367-1.32,3.155-.014,6.31-.006,9.465-.006,1.879,0,3.757-.042,5.634.017a11.74,11.74,0,0,1,2.655.4A2.483,2.483,0,0,1,23.1,35.883c.094,1.609.048,3.227.046,4.841m-12.471-9.69h-1.8a30.1,30.1,0,0,1-.085-3.92.441.441,0,0,1,.493-.485c.442,0,.884,0,1.4,0Zm23.2,13.021c.037-.751.045-1.5.018-2.253-.18-4.992-.42-9.981-.656-14.971a22.122,22.122,0,0,0-.256-2.688,8.531,8.531,0,0,0-3.027-5.731,7.493,7.493,0,0,0-4.116-1.6c-.639,2.445-1.153,4.793-1.879,7.074s-1.665,4.505-2.516,6.75c-.132.35-.251.721-.775.636-.661-.108-1.327-.177-2.079-.276A58.719,58.719,0,0,0,23.02,16.551a4.779,4.779,0,0,0-.61-.088c-3.157,0-6.313-.029-9.468.02a17.7,17.7,0,0,0-5.326.815,7.44,7.44,0,0,0-4.921,4.744,13.977,13.977,0,0,0-.8,4.413c-.037,1.352-.055,2.7-.077,4.056a1.094,1.094,0,0,1-.494,1.053A2.84,2.84,0,0,0,.011,34.159c-.008,1.5-.026,3.006.015,4.507a5.156,5.156,0,0,0,2.507,4.3,6.242,6.242,0,0,0,3.437.921c.431.008.862.023,1.4.038v.132Z" transform="translate(0 8.881)" fill="#007cd8"/><path d="M22.556,10.486c.548-3.056-1-6.239-3.461-7.041V8.989a3.872,3.872,0,0,1-1.959-.143V2.068H13.83V8.974H11.8V3.428C9.422,4.281,7.7,7.733,8.376,10.5a67.251,67.251,0,0,1,14.18-.012m1.492,3.389c0,.841.052,1.663-.009,2.478a8.627,8.627,0,0,1-17,1.129,13.892,13.892,0,0,1-.156-3.018c.009-.511-.128-.75-.6-.9a4.545,4.545,0,0,1-1.223-.553c-.657-.448-.637-.97-.006-1.443a.347.347,0,0,1,.1-.059c1.069-.282,1.106-1.07,1.093-1.992a8.725,8.725,0,0,1,5.017-8.281A2.089,2.089,0,0,0,12,.77,1.967,1.967,0,0,1,13.878,0c1.164.026,2.33-.018,3.492.023A1.742,1.742,0,0,1,18.5.362a7.148,7.148,0,0,0,1.757,1.187A8.629,8.629,0,0,1,24.72,9.142a4.3,4.3,0,0,1,0,.564,1.444,1.444,0,0,0,.969,1.745c1.007.42.972,1.195.009,1.715-.52.282-1.089.473-1.649.71" transform="translate(2.465 -0.001)" fill="#3a3939"/></g></g></g></svg>