<svg xmlns="http://www.w3.org/2000/svg" xmlns:xlink="http://www.w3.org/1999/xlink" width="52" height="52" viewBox="0 0 52 52"><defs><clipPath id="a"><rect width="47.846" height="42.443" fill="none"/></clipPath></defs><g transform="translate(-1274 -1470)"><rect width="52" height="52" transform="translate(1274 1470)" fill="red" opacity="0"/><g transform="translate(1276 1475)"><g transform="translate(0 0)" clip-path="url(#a)"><path d="M19.824,15.812c-.43-.37-.909-.831-1.432-1.308-.262-.239-.515-.5-.785-.762l-.162-.162c-.215-.208-.43-.408-.639-.632-.262-.269-.523-.539-.785-.816-.255-.262-.508-.523-.747-.792s-.454-.525-.67-.771c-.046-.06-.1-.107-.146-.169H14.6a1.3,1.3,0,0,0,.093.1c.224.231.454.477.7.731.239.27.508.516.769.769s.539.516.809.785c.162.146.315.286.477.423l.354.332c.277.246.539.492.807.723.54.454,1.032.893,1.471,1.248s.8.654,1.062.854c.215.169.354.277.392.308-.031-.523-.115-1.423-.131-1.54-.046-.353-.115-.715-.184-1.069A13.063,13.063,0,0,0,19.846,10.4c-.03-.046-.053-.1-.084-.153A7.763,7.763,0,0,0,17.853,8c-.138-.1-.269-.193-.408-.277a11.5,11.5,0,0,0-4.072-1.378c-.7-.122-1.4-.224-2.093-.339-.108-.015-1.416-.215-1.416-.238,0,0-.678,10.645,11.368,11.268-.038-.038-.176-.146-.377-.315-.253-.217-.615-.532-1.031-.909" transform="translate(4.008 2.345)" fill="#003383"/><path d="M24.012,12.623a12.064,12.064,0,0,1,1.4-1.391C30.72,6.8,36.84,10.179,36.84,10.179c-.025-.013-.751,1.068-.814,1.159-1.276,1.852-2.505,3.889-4.536,5a7.662,7.662,0,0,1-2.8.748,12.836,12.836,0,0,1-5.034-.6,16.541,16.541,0,0,1-1.76-.695,16.471,16.471,0,0,1,2.12-3.176" transform="translate(8.9 3.636)" fill="#003383"/><path d="M22.484,21.306l-.183-.44c-.273-.655-.556-1.332-.785-2.021a8.264,8.264,0,0,1,.134-6.38,1.451,1.451,0,0,0,.122-.452c.048-.456-.056-.743-.329-.9a.506.506,0,0,0-.256-.075.757.757,0,0,0-.551.36,3.173,3.173,0,0,0-.19.283,8.559,8.559,0,0,0-1.107,4.383V16.1c.017.16.034.353.049.546.034.4.072.852.129,1.283A17.184,17.184,0,0,0,20.9,22.579a.907.907,0,0,0,.8.6.887.887,0,0,0,.781-.556,1.531,1.531,0,0,0,0-1.322" transform="translate(7.863 4.487)" fill="#003383"/><path d="M31.009,6.7A7.085,7.085,0,0,0,24.33.023V0h-.778V.023a7.083,7.083,0,1,0,7.458,7.459h.015V6.7Z" transform="translate(6.853 0)" fill="#003383"/><path d="M46.7,22.819a3.838,3.838,0,0,0-1.726.245c-3.244,1.177-6.328,2.55-9.558,3.763a1.08,1.08,0,0,0-.447.249,4.039,4.039,0,0,1-3.19,1.405c-2.009.024-4.017.091-6.026.139-1.363.032-2.725.068-4.087.091a.9.9,0,0,1-.8-.779c-.023-.4.252-.54.6-.574.139-.014.278-.024.418-.028q2.542-.065,5.082-.127c1.782-.045,3.564-.058,5.344-.145a2.151,2.151,0,0,0,2.11-2.177A2.173,2.173,0,0,0,32.1,22.659a41.521,41.521,0,0,1-6.577-.553c-2.438-.378-3.625-1.626-5.991-2.387-3.644-1.172-7.377-.747-11.14-.67-.007-.262-.013-.523-.02-.786-.021-.827-.423-1.187-1.262-1.169q-3.3.076-6.6.159c-.135,0-.27.021-.515.039.122,1.173.207,2.315.367,3.446a28.92,28.92,0,0,0,4.376,11.7.805.805,0,0,0,.564.316c.75.02,1.5-.014,2.252-.041a1.064,1.064,0,0,0,1.135-1.205c-.006-.214-.011-.429-.015-.644l.01,0c1.692.481,3.376.99,5.065,1.478,3.146.909,6.275,1.889,9.448,2.687a10.347,10.347,0,0,0,7.79-.637q7.954-4.38,15.907-8.757A2.155,2.155,0,0,0,47.577,25a1.374,1.374,0,0,0-.878-2.184" transform="translate(0 6.949)" fill="#3a3939"/></g></g></g></svg>