<svg xmlns="http://www.w3.org/2000/svg" xmlns:xlink="http://www.w3.org/1999/xlink" width="52" height="52" viewBox="0 0 52 52"><defs><clipPath id="a"><rect width="39.513" height="48.465" fill="none"/></clipPath></defs><g transform="translate(-1274 -1481)"><rect width="52" height="52" transform="translate(1274 1481)" fill="red" opacity="0"/><g transform="translate(1280.244 1482.768)"><g transform="translate(0 0)" clip-path="url(#a)"><path d="M25.754,26.274a3.326,3.326,0,0,1-3.293,3.242H10.887a3.158,3.158,0,0,1-3.095-3.242V19.09a3.155,3.155,0,0,1,1.951-2.961A7.141,7.141,0,0,1,16.7,9.036a7.2,7.2,0,0,1,7.019,7.092,3.231,3.231,0,0,1,2.036,2.961ZM22.283,8.906A18.238,18.238,0,0,1,16.7,5.239a17.8,17.8,0,0,1-5.521,3.667A17.717,17.717,0,0,1,4.2,10.018v11.49c0,8,10.334,13.748,12.572,14.9,2.236-1.152,12.572-6.909,12.572-14.9V10.018a17.93,17.93,0,0,1-7.063-1.111" transform="translate(2.982 3.718)" fill="#3b3938"/><path d="M20.08,42.144l-.422.2-.373-.2c-.578-.27-14.1-6.733-14.1-16.918V11.5l1.094.171a15.674,15.674,0,0,0,7.118-.9,16.77,16.77,0,0,0,5.528-3.89l.735-.821.737.821a16.991,16.991,0,0,0,5.538,3.89,15.774,15.774,0,0,0,7.143.9l1.142-.168V25.226c0,10.185-13.567,16.648-14.145,16.918M28.546,6.22A28.288,28.288,0,0,1,19.681,0a27.623,27.623,0,0,1-8.8,6.22A23.6,23.6,0,0,1,0,7.593V25.585c0,13.837,19.756,22.88,19.756,22.88s19.756-9.043,19.756-22.88V7.593A23.943,23.943,0,0,1,28.546,6.22" transform="translate(0 0)" fill="#3b3938"/><path d="M15.453,20.635v2.088h-2V20.635a1.48,1.48,0,0,1-.627-1.214,1.556,1.556,0,0,1,1.552-1.576,1.608,1.608,0,0,1,1.612,1.576,1.731,1.731,0,0,1-.54,1.214m-3.992-6.663a3.191,3.191,0,0,1,2.992-3.349,3.19,3.19,0,0,1,3,3.349v1.566H11.461Zm8.682,1.566h-.7V13.972a5.182,5.182,0,0,0-4.989-5.345,5.181,5.181,0,0,0-4.987,5.345v1.566h-.9a1.078,1.078,0,0,0-1.1,1.147V23.87a1.164,1.164,0,0,0,1.1,1.246H20.143a1.332,1.332,0,0,0,1.294-1.246V16.685a1.248,1.248,0,0,0-1.294-1.147" transform="translate(5.302 6.123)" fill="#0057aa"/></g></g></g></svg>